G04 #@! TF.GenerationSoftware,KiCad,Pcbnew,(5.1.6)-1*
G04 #@! TF.CreationDate,2020-07-22T16:01:37+02:00*
G04 #@! TF.ProjectId,BRD-00008-X01,4252442d-3030-4303-9038-2d5830312e6b,X01*
G04 #@! TF.SameCoordinates,Original*
G04 #@! TF.FileFunction,Copper,L4,Bot*
G04 #@! TF.FilePolarity,Positive*
%FSLAX46Y46*%
G04 Gerber Fmt 4.6, Leading zero omitted, Abs format (unit mm)*
G04 Created by KiCad (PCBNEW (5.1.6)-1) date 2020-07-22 16:01:37*
%MOMM*%
%LPD*%
G01*
G04 APERTURE LIST*
G04 #@! TA.AperFunction,Profile*
%ADD10C,0.010000*%
G04 #@! TD*
%ADD11C,0.150000*%
G04 #@! TA.AperFunction,Conductor*
%ADD12R,0.600000X2.300000*%
G04 #@! TD*
G04 #@! TA.AperFunction,ComponentPad*
%ADD13C,0.600000*%
G04 #@! TD*
G04 #@! TA.AperFunction,ComponentPad*
%ADD14C,5.400000*%
G04 #@! TD*
G04 #@! TA.AperFunction,ViaPad*
%ADD15C,0.600000*%
G04 #@! TD*
G04 #@! TA.AperFunction,Conductor*
%ADD16C,0.500000*%
G04 #@! TD*
G04 #@! TA.AperFunction,Conductor*
%ADD17C,0.300000*%
G04 #@! TD*
G04 #@! TA.AperFunction,Conductor*
%ADD18C,0.150000*%
G04 #@! TD*
G04 #@! TA.AperFunction,Conductor*
%ADD19C,0.180000*%
G04 #@! TD*
G04 APERTURE END LIST*
D10*
X135650000Y-130450000D02*
X135650000Y-128050000D01*
X135650000Y-130450000D02*
X143900000Y-130450000D01*
X143900000Y-130450000D02*
X143900000Y-127200000D01*
X145400000Y-130450000D02*
X145400000Y-127200000D01*
X163500000Y-127250000D02*
X163500000Y-79500000D01*
X162150000Y-127250000D02*
X163500000Y-127250000D01*
X145400000Y-130450000D02*
X161350000Y-130450000D01*
X161350000Y-130450000D02*
X161350000Y-128050000D01*
X162150000Y-127250000D02*
G75*
G03*
X161350000Y-128050000I0J-800000D01*
G01*
X144650000Y-126450000D02*
G75*
G03*
X143900000Y-127200000I0J-750000D01*
G01*
X145400000Y-127200000D02*
G75*
G03*
X144650000Y-126450000I-750000J0D01*
G01*
X135650000Y-128050000D02*
G75*
G03*
X134850000Y-127250000I-800000J0D01*
G01*
X133500000Y-127250000D02*
X134850000Y-127250000D01*
X133500000Y-79500000D02*
X133500000Y-127250000D01*
X133500000Y-79500000D02*
X163500000Y-79500000D01*
D11*
X162952380Y-89285714D02*
X162952380Y-88714285D01*
X162952380Y-89000000D02*
X161952380Y-89000000D01*
X162095238Y-88904761D01*
X162190476Y-88809523D01*
X162238095Y-88714285D01*
X161952380Y-89904761D02*
X161952380Y-90000000D01*
X162000000Y-90095238D01*
X162047619Y-90142857D01*
X162142857Y-90190476D01*
X162333333Y-90238095D01*
X162571428Y-90238095D01*
X162761904Y-90190476D01*
X162857142Y-90142857D01*
X162904761Y-90095238D01*
X162952380Y-90000000D01*
X162952380Y-89904761D01*
X162904761Y-89809523D01*
X162857142Y-89761904D01*
X162761904Y-89714285D01*
X162571428Y-89666666D01*
X162333333Y-89666666D01*
X162142857Y-89714285D01*
X162047619Y-89761904D01*
X162000000Y-89809523D01*
X161952380Y-89904761D01*
X161952380Y-90857142D02*
X161952380Y-90952380D01*
X162000000Y-91047619D01*
X162047619Y-91095238D01*
X162142857Y-91142857D01*
X162333333Y-91190476D01*
X162571428Y-91190476D01*
X162761904Y-91142857D01*
X162857142Y-91095238D01*
X162904761Y-91047619D01*
X162952380Y-90952380D01*
X162952380Y-90857142D01*
X162904761Y-90761904D01*
X162857142Y-90714285D01*
X162761904Y-90666666D01*
X162571428Y-90619047D01*
X162333333Y-90619047D01*
X162142857Y-90666666D01*
X162047619Y-90714285D01*
X162000000Y-90761904D01*
X161952380Y-90857142D01*
X162571428Y-91619047D02*
X162571428Y-92380952D01*
X161952380Y-93047619D02*
X161952380Y-93142857D01*
X162000000Y-93238095D01*
X162047619Y-93285714D01*
X162142857Y-93333333D01*
X162333333Y-93380952D01*
X162571428Y-93380952D01*
X162761904Y-93333333D01*
X162857142Y-93285714D01*
X162904761Y-93238095D01*
X162952380Y-93142857D01*
X162952380Y-93047619D01*
X162904761Y-92952380D01*
X162857142Y-92904761D01*
X162761904Y-92857142D01*
X162571428Y-92809523D01*
X162333333Y-92809523D01*
X162142857Y-92857142D01*
X162047619Y-92904761D01*
X162000000Y-92952380D01*
X161952380Y-93047619D01*
X161952380Y-94000000D02*
X161952380Y-94095238D01*
X162000000Y-94190476D01*
X162047619Y-94238095D01*
X162142857Y-94285714D01*
X162333333Y-94333333D01*
X162571428Y-94333333D01*
X162761904Y-94285714D01*
X162857142Y-94238095D01*
X162904761Y-94190476D01*
X162952380Y-94095238D01*
X162952380Y-94000000D01*
X162904761Y-93904761D01*
X162857142Y-93857142D01*
X162761904Y-93809523D01*
X162571428Y-93761904D01*
X162333333Y-93761904D01*
X162142857Y-93809523D01*
X162047619Y-93857142D01*
X162000000Y-93904761D01*
X161952380Y-94000000D01*
X161952380Y-94952380D02*
X161952380Y-95047619D01*
X162000000Y-95142857D01*
X162047619Y-95190476D01*
X162142857Y-95238095D01*
X162333333Y-95285714D01*
X162571428Y-95285714D01*
X162761904Y-95238095D01*
X162857142Y-95190476D01*
X162904761Y-95142857D01*
X162952380Y-95047619D01*
X162952380Y-94952380D01*
X162904761Y-94857142D01*
X162857142Y-94809523D01*
X162761904Y-94761904D01*
X162571428Y-94714285D01*
X162333333Y-94714285D01*
X162142857Y-94761904D01*
X162047619Y-94809523D01*
X162000000Y-94857142D01*
X161952380Y-94952380D01*
X161952380Y-95904761D02*
X161952380Y-96000000D01*
X162000000Y-96095238D01*
X162047619Y-96142857D01*
X162142857Y-96190476D01*
X162333333Y-96238095D01*
X162571428Y-96238095D01*
X162761904Y-96190476D01*
X162857142Y-96142857D01*
X162904761Y-96095238D01*
X162952380Y-96000000D01*
X162952380Y-95904761D01*
X162904761Y-95809523D01*
X162857142Y-95761904D01*
X162761904Y-95714285D01*
X162571428Y-95666666D01*
X162333333Y-95666666D01*
X162142857Y-95714285D01*
X162047619Y-95761904D01*
X162000000Y-95809523D01*
X161952380Y-95904761D01*
X162380952Y-96809523D02*
X162333333Y-96714285D01*
X162285714Y-96666666D01*
X162190476Y-96619047D01*
X162142857Y-96619047D01*
X162047619Y-96666666D01*
X162000000Y-96714285D01*
X161952380Y-96809523D01*
X161952380Y-97000000D01*
X162000000Y-97095238D01*
X162047619Y-97142857D01*
X162142857Y-97190476D01*
X162190476Y-97190476D01*
X162285714Y-97142857D01*
X162333333Y-97095238D01*
X162380952Y-97000000D01*
X162380952Y-96809523D01*
X162428571Y-96714285D01*
X162476190Y-96666666D01*
X162571428Y-96619047D01*
X162761904Y-96619047D01*
X162857142Y-96666666D01*
X162904761Y-96714285D01*
X162952380Y-96809523D01*
X162952380Y-97000000D01*
X162904761Y-97095238D01*
X162857142Y-97142857D01*
X162761904Y-97190476D01*
X162571428Y-97190476D01*
X162476190Y-97142857D01*
X162428571Y-97095238D01*
X162380952Y-97000000D01*
X162571428Y-97619047D02*
X162571428Y-98380952D01*
X161952380Y-98761904D02*
X162952380Y-99428571D01*
X161952380Y-99428571D02*
X162952380Y-98761904D01*
X161952380Y-100000000D02*
X161952380Y-100095238D01*
X162000000Y-100190476D01*
X162047619Y-100238095D01*
X162142857Y-100285714D01*
X162333333Y-100333333D01*
X162571428Y-100333333D01*
X162761904Y-100285714D01*
X162857142Y-100238095D01*
X162904761Y-100190476D01*
X162952380Y-100095238D01*
X162952380Y-100000000D01*
X162904761Y-99904761D01*
X162857142Y-99857142D01*
X162761904Y-99809523D01*
X162571428Y-99761904D01*
X162333333Y-99761904D01*
X162142857Y-99809523D01*
X162047619Y-99857142D01*
X162000000Y-99904761D01*
X161952380Y-100000000D01*
X162952380Y-101285714D02*
X162952380Y-100714285D01*
X162952380Y-101000000D02*
X161952380Y-101000000D01*
X162095238Y-100904761D01*
X162190476Y-100809523D01*
X162238095Y-100714285D01*
D12*
X160300000Y-129050000D03*
X159500000Y-129050000D03*
X158700000Y-129050000D03*
X157900000Y-129050000D03*
X157100000Y-129050000D03*
X156300000Y-129050000D03*
X155500000Y-129050000D03*
X154700000Y-129050000D03*
X153900000Y-129050000D03*
X153100000Y-129050000D03*
X152300000Y-129050000D03*
X151500000Y-129050000D03*
X150700000Y-129050000D03*
X149900000Y-129050000D03*
X149100000Y-129050000D03*
X148300000Y-129050000D03*
X147500000Y-129050000D03*
X146700000Y-129050000D03*
X142700000Y-129050000D03*
X141900000Y-129050000D03*
X141100000Y-129050000D03*
X140300000Y-129050000D03*
X139500000Y-129050000D03*
X138700000Y-129050000D03*
X137900000Y-129050000D03*
X137100000Y-129050000D03*
D13*
X142500000Y-124000000D03*
X142500000Y-123000000D03*
X141500000Y-123000000D03*
X141500000Y-124000000D03*
D14*
X136400000Y-82400000D03*
D15*
X136400000Y-80390000D03*
X134980000Y-80980000D03*
X134390000Y-82400000D03*
X134980000Y-83820000D03*
X136400000Y-84410000D03*
X137820000Y-83820000D03*
X138410000Y-82400000D03*
X137820000Y-80980000D03*
D14*
X160600000Y-82400000D03*
D15*
X160600000Y-80390000D03*
X159180000Y-80980000D03*
X158590000Y-82400000D03*
X159180000Y-83820000D03*
X160600000Y-84410000D03*
X162020000Y-83820000D03*
X162610000Y-82400000D03*
X162020000Y-80980000D03*
X134500000Y-103000000D03*
X153500000Y-126750000D03*
X153500000Y-127450000D03*
X150300000Y-127450000D03*
X153250000Y-84850000D03*
X154500000Y-84850000D03*
X149450000Y-84850000D03*
X160550000Y-88400000D03*
X160550000Y-89650000D03*
X160550000Y-90900000D03*
X136450000Y-88400000D03*
X136450000Y-89650000D03*
X136450000Y-90900000D03*
X136450000Y-92150000D03*
X136450000Y-99800000D03*
X136450000Y-102350000D03*
X160550000Y-99800000D03*
X157450000Y-103600000D03*
X157450000Y-106150000D03*
X157450000Y-108700000D03*
X157500000Y-112500000D03*
X139900000Y-127450000D03*
X142300000Y-127450000D03*
X147900000Y-127450000D03*
X151100000Y-127450000D03*
X156700000Y-127450000D03*
X137900000Y-127450000D03*
X146700000Y-127450000D03*
X159500000Y-127450000D03*
X156700000Y-126750000D03*
X159500000Y-126750000D03*
X151100000Y-126750000D03*
X150300000Y-126750000D03*
X147900000Y-126750000D03*
X146700000Y-126750000D03*
X137900000Y-126750000D03*
X139900000Y-126750000D03*
X142300000Y-126750000D03*
X162600000Y-113800000D03*
X162600000Y-115100000D03*
X160300000Y-117500000D03*
X150700000Y-84850000D03*
X154450000Y-81500000D03*
X149550000Y-81500000D03*
X160550000Y-92200000D03*
X142000000Y-86000000D03*
X139550000Y-111250000D03*
X157500000Y-111250000D03*
X162650000Y-105000000D03*
X142500000Y-118300000D03*
X143600000Y-118300000D03*
X145600000Y-120550000D03*
X139550000Y-115050000D03*
X155500000Y-124395003D03*
X155500000Y-125200000D03*
X160800000Y-120800000D03*
X144850000Y-125000000D03*
X144850000Y-121500000D03*
X158300000Y-118000000D03*
X134500000Y-91000000D03*
X148500000Y-80000000D03*
X148500000Y-105000000D03*
X134500000Y-105000000D03*
X134500000Y-93000000D03*
X134500000Y-107000000D03*
X156500000Y-80000000D03*
X154500000Y-80000000D03*
X142500000Y-80000000D03*
X144500000Y-80000000D03*
X134500000Y-101000000D03*
X134500000Y-99000000D03*
X134500000Y-97000000D03*
X146500000Y-105000000D03*
X144500000Y-105000000D03*
X142500000Y-105000000D03*
X134500000Y-95000000D03*
X134500000Y-89000000D03*
X134500000Y-117000000D03*
X134500000Y-119000000D03*
X134500000Y-121000000D03*
X136500000Y-117000000D03*
X136500000Y-119000000D03*
X136500000Y-121000000D03*
X138500000Y-119000000D03*
X136500000Y-125000000D03*
X150500000Y-105000000D03*
X152500000Y-105000000D03*
X154500000Y-105000000D03*
X156500000Y-105000000D03*
X148500000Y-107000000D03*
X146500000Y-107000000D03*
X144500000Y-107000000D03*
X142500000Y-107000000D03*
X140500000Y-107000000D03*
X140500000Y-109000000D03*
X140500000Y-111000000D03*
X142500000Y-111000000D03*
X142500000Y-109000000D03*
X144500000Y-109000000D03*
X146500000Y-109000000D03*
X150500000Y-109000000D03*
X152500000Y-109000000D03*
X154500000Y-109000000D03*
X156500000Y-109000000D03*
X156500000Y-111000000D03*
X154500000Y-111000000D03*
X152500000Y-111000000D03*
X150500000Y-111000000D03*
X148500000Y-111000000D03*
X144500000Y-111000000D03*
X140500000Y-113000000D03*
X142500000Y-113000000D03*
X140500000Y-115000000D03*
X148500000Y-113000000D03*
X150500000Y-113000000D03*
X152500000Y-115000000D03*
X154500000Y-115000000D03*
X156500000Y-115000000D03*
X156500000Y-117000000D03*
X154500000Y-117000000D03*
X152500000Y-117000000D03*
X150500000Y-117000000D03*
X144500000Y-117000000D03*
X148500000Y-115000000D03*
X146500000Y-115000000D03*
X150500000Y-119000000D03*
X150500000Y-121000000D03*
X150500000Y-125000000D03*
X152500000Y-125000000D03*
X162500000Y-125000000D03*
X148500000Y-103000000D03*
X146500000Y-103000000D03*
X144500000Y-103000000D03*
X142500000Y-103000000D03*
X142500000Y-97000000D03*
X142500000Y-95000000D03*
X144500000Y-95000000D03*
X144500000Y-93000000D03*
X146500000Y-93000000D03*
X146500000Y-91000000D03*
X148500000Y-91000000D03*
X148500000Y-89000000D03*
X136500000Y-95000000D03*
X140500000Y-89000000D03*
X140500000Y-91000000D03*
X140500000Y-87000000D03*
X140500000Y-85000000D03*
X140500000Y-83000000D03*
X142500000Y-83000000D03*
X144500000Y-83000000D03*
X146500000Y-83000000D03*
X148500000Y-83000000D03*
X148500000Y-87000000D03*
X148500000Y-85000000D03*
X150500000Y-89000000D03*
X152500000Y-89000000D03*
X154500000Y-89000000D03*
X156500000Y-89000000D03*
X156500000Y-87000000D03*
X158500000Y-87000000D03*
X160500000Y-87000000D03*
X150500000Y-91000000D03*
X152500000Y-91000000D03*
X154500000Y-91000000D03*
X156500000Y-91000000D03*
X148500000Y-93000000D03*
X150500000Y-93000000D03*
X152500000Y-93000000D03*
X154500000Y-93000000D03*
X156500000Y-93000000D03*
X146500000Y-95000000D03*
X148500000Y-95000000D03*
X150500000Y-95000000D03*
X152500000Y-95000000D03*
X154500000Y-95000000D03*
X156500000Y-95000000D03*
X158500000Y-95000000D03*
X160500000Y-95000000D03*
X160500000Y-97000000D03*
X158500000Y-97000000D03*
X156500000Y-97000000D03*
X154500000Y-97000000D03*
X152500000Y-97000000D03*
X150500000Y-97000000D03*
X148500000Y-97000000D03*
X146500000Y-97000000D03*
X144500000Y-97000000D03*
X142500000Y-99000000D03*
X142500000Y-101000000D03*
X144500000Y-101000000D03*
X144500000Y-99000000D03*
X146500000Y-99000000D03*
X146500000Y-101000000D03*
X148500000Y-99000000D03*
X148500000Y-101000000D03*
X150500000Y-99000000D03*
X150500000Y-101000000D03*
X150500000Y-103000000D03*
X152500000Y-103000000D03*
X154500000Y-103000000D03*
X156500000Y-103000000D03*
X156500000Y-101000000D03*
X156500000Y-99000000D03*
X152500000Y-99000000D03*
X154500000Y-99000000D03*
X154500000Y-101000000D03*
X152500000Y-101000000D03*
X155100000Y-127450000D03*
X155100000Y-126750000D03*
X137100000Y-127450000D03*
X149100000Y-127450000D03*
X160300000Y-127450000D03*
X160300000Y-126750000D03*
X149100000Y-126750000D03*
X137100000Y-126750000D03*
X162650000Y-110000000D03*
X146600000Y-120550000D03*
X160300000Y-119400000D03*
X159800000Y-119000000D03*
X153500000Y-118000000D03*
X154500000Y-118000000D03*
X152500000Y-118000000D03*
X151500000Y-118000000D03*
X155500000Y-118000000D03*
X160300000Y-118600000D03*
X136450000Y-106150000D03*
X144000000Y-86000000D03*
X136450000Y-107450000D03*
X145000000Y-86000000D03*
X136450000Y-108700000D03*
X146000000Y-86000000D03*
X155500000Y-123645000D03*
X155500000Y-122855000D03*
X148021232Y-117521232D03*
X134500000Y-109000000D03*
X138991415Y-117541415D03*
X162650000Y-112500000D03*
X143000000Y-86000000D03*
X135500000Y-109000000D03*
X135975000Y-123025000D03*
X136450000Y-112500000D03*
X136450000Y-113800000D03*
X138000000Y-125450000D03*
X162650000Y-111200000D03*
X141500000Y-120500000D03*
X162650000Y-106200000D03*
X140500000Y-120500000D03*
X139050000Y-124500000D03*
X139500000Y-119950000D03*
X135000000Y-122495038D03*
X135050000Y-112000000D03*
D16*
X153100000Y-127679998D02*
X153329998Y-127450000D01*
X153329998Y-127450000D02*
X153500000Y-127450000D01*
X153100000Y-129050000D02*
X153100000Y-127679998D01*
X149900000Y-127679998D02*
X150129998Y-127450000D01*
X150129998Y-127450000D02*
X150300000Y-127450000D01*
X149900000Y-129050000D02*
X149900000Y-127679998D01*
X137900000Y-129050000D02*
X137900000Y-127450000D01*
X146700000Y-129050000D02*
X146700000Y-127450000D01*
X159500000Y-129050000D02*
X159500000Y-127450000D01*
X159500000Y-127450000D02*
X159500000Y-126750000D01*
X146700000Y-127450000D02*
X146700000Y-126750000D01*
X137900000Y-127450000D02*
X137900000Y-126750000D01*
D17*
X156275736Y-127450000D02*
X156700000Y-127450000D01*
X155988002Y-127450000D02*
X156275736Y-127450000D01*
X155500000Y-127938002D02*
X155988002Y-127450000D01*
X155500000Y-129050000D02*
X155500000Y-127938002D01*
D16*
X137100000Y-129050000D02*
X137100000Y-127450000D01*
X149100000Y-129050000D02*
X149100000Y-127450000D01*
X160300000Y-129050000D02*
X160300000Y-127450000D01*
X160300000Y-127450000D02*
X160300000Y-126750000D01*
X149100000Y-127450000D02*
X149100000Y-126750000D01*
X137100000Y-127450000D02*
X137100000Y-126750000D01*
D18*
X138000000Y-96500000D02*
X138000000Y-104700000D01*
X144000000Y-90500000D02*
X138000000Y-96500000D01*
X138000000Y-104700000D02*
X136450000Y-106150000D01*
X144000000Y-86000000D02*
X144000000Y-90500000D01*
X145000000Y-90500000D02*
X139000000Y-96500000D01*
X145000000Y-86000000D02*
X145000000Y-90500000D01*
X139000000Y-104800000D02*
X138500000Y-105300000D01*
X139000000Y-96500000D02*
X139000000Y-104800000D01*
X138500000Y-105300000D02*
X136450000Y-107450000D01*
X146000000Y-90500000D02*
X146000000Y-86000000D01*
X140000000Y-96500000D02*
X146000000Y-90500000D01*
X140000000Y-105150000D02*
X140000000Y-96500000D01*
X136450000Y-108700000D02*
X140000000Y-105150000D01*
D19*
X154700000Y-127849202D02*
X154559999Y-127709201D01*
X154559999Y-127709201D02*
X154559999Y-127184998D01*
X154559999Y-127184998D02*
X154485000Y-127109999D01*
X154700000Y-129050000D02*
X154700000Y-127849202D01*
X154485000Y-127109999D02*
X154485000Y-123826630D01*
X155290000Y-123435000D02*
X155500000Y-123645000D01*
X154485000Y-123826630D02*
X154876630Y-123435000D01*
X154876630Y-123435000D02*
X155290000Y-123435000D01*
X154040001Y-127709201D02*
X154040001Y-127184998D01*
X153900000Y-127849202D02*
X154040001Y-127709201D01*
X154040001Y-127184998D02*
X154115000Y-127109999D01*
X153900000Y-129050000D02*
X153900000Y-127849202D01*
X154115000Y-127109999D02*
X154115000Y-123673370D01*
X155290000Y-123065000D02*
X155500000Y-122855000D01*
X154115000Y-123673370D02*
X154723370Y-123065000D01*
X154723370Y-123065000D02*
X155290000Y-123065000D01*
D18*
X148300000Y-127827002D02*
X148500000Y-127627002D01*
X148300000Y-129050000D02*
X148300000Y-127827002D01*
X148500000Y-127627002D02*
X148500000Y-118000000D01*
X148500000Y-118000000D02*
X148021232Y-117521232D01*
X134500000Y-109000000D02*
X134500000Y-109424264D01*
X134500000Y-109424264D02*
X135075736Y-110000000D01*
X138500000Y-117050000D02*
X138991415Y-117541415D01*
X135075736Y-110000000D02*
X138050000Y-110000000D01*
X138050000Y-110000000D02*
X138500000Y-110450000D01*
X138500000Y-110450000D02*
X138500000Y-117050000D01*
X147500000Y-127827002D02*
X147500000Y-129050000D01*
X147300000Y-127627002D02*
X147500000Y-127827002D01*
X162650000Y-112500000D02*
X162650000Y-112924264D01*
X162650000Y-112924264D02*
X162074264Y-113500000D01*
X162074264Y-113500000D02*
X151300000Y-113500000D01*
X151300000Y-113500000D02*
X147300000Y-117500000D01*
X147300000Y-117500000D02*
X147300000Y-127627002D01*
X143000000Y-86000000D02*
X143000000Y-86424264D01*
X143000000Y-86424264D02*
X143000000Y-90500000D01*
X143000000Y-90500000D02*
X137000000Y-96500000D01*
X137000000Y-96500000D02*
X136975001Y-96524999D01*
X136975001Y-96524999D02*
X135500000Y-98000000D01*
X135500000Y-98000000D02*
X135500000Y-109000000D01*
X135975000Y-115525000D02*
X135975000Y-123025000D01*
X136000000Y-112500000D02*
X135500000Y-113000000D01*
X135500000Y-115050000D02*
X135975000Y-115525000D01*
X135500000Y-113000000D02*
X135500000Y-115050000D01*
X136450000Y-112500000D02*
X136000000Y-112500000D01*
X136874264Y-113800000D02*
X137500000Y-114425736D01*
X136450000Y-113800000D02*
X136874264Y-113800000D01*
X137500000Y-114425736D02*
X137500000Y-124950000D01*
X137500000Y-124950000D02*
X138000000Y-125450000D01*
X162650000Y-111624264D02*
X162650000Y-111200000D01*
X162274264Y-112000000D02*
X162650000Y-111624264D01*
X141497406Y-117502594D02*
X147025001Y-111974999D01*
X141500000Y-120500000D02*
X141497406Y-117502594D01*
X147025001Y-111974999D02*
X157924999Y-111974999D01*
X157950000Y-112000000D02*
X162274264Y-112000000D01*
X157924999Y-111974999D02*
X157950000Y-112000000D01*
X162274264Y-107000000D02*
X162650000Y-106624264D01*
X162650000Y-106624264D02*
X162650000Y-106200000D01*
X150550000Y-107000000D02*
X162274264Y-107000000D01*
X140500000Y-117050000D02*
X150550000Y-107000000D01*
X140500000Y-120500000D02*
X140500000Y-117050000D01*
D16*
X139050000Y-120400000D02*
X139500000Y-119950000D01*
X139050000Y-124075736D02*
X139050000Y-120400000D01*
X139050000Y-124500000D02*
X139050000Y-124075736D01*
D18*
X135299999Y-122195039D02*
X135000000Y-122495038D01*
X134500000Y-115000000D02*
X135300000Y-115800000D01*
X135300000Y-115800000D02*
X135299999Y-122195039D01*
X135050000Y-112000000D02*
X134500000Y-112550000D01*
X134500000Y-112550000D02*
X134500000Y-115000000D01*
G36*
X139225000Y-85225000D02*
G01*
X133780000Y-85225000D01*
X133780000Y-79780000D01*
X139225000Y-79780000D01*
X139225000Y-85225000D01*
G37*
X139225000Y-85225000D02*
X133780000Y-85225000D01*
X133780000Y-79780000D01*
X139225000Y-79780000D01*
X139225000Y-85225000D01*
G36*
X134817052Y-79923531D02*
G01*
X134488982Y-80241495D01*
X136400000Y-82152513D01*
X138311018Y-80241495D01*
X137982948Y-79923531D01*
X137602490Y-79730000D01*
X159379126Y-79730000D01*
X159017052Y-79923531D01*
X158688982Y-80241495D01*
X160600000Y-82152513D01*
X162511018Y-80241495D01*
X162182948Y-79923531D01*
X161802490Y-79730000D01*
X163270001Y-79730000D01*
X163270001Y-81179127D01*
X163076469Y-80817052D01*
X162758505Y-80488982D01*
X160847487Y-82400000D01*
X162758505Y-84311018D01*
X163076469Y-83982948D01*
X163270001Y-83602488D01*
X163270001Y-88223809D01*
X161517500Y-88223809D01*
X161517500Y-101776190D01*
X163270001Y-101776190D01*
X163270000Y-127020000D01*
X162138710Y-127020000D01*
X162128558Y-127021000D01*
X162123568Y-127020965D01*
X162120372Y-127021279D01*
X161965095Y-127037600D01*
X161944701Y-127041786D01*
X161924200Y-127045697D01*
X161921130Y-127046625D01*
X161921124Y-127046626D01*
X161921118Y-127046628D01*
X161771976Y-127092795D01*
X161752771Y-127100868D01*
X161733429Y-127108682D01*
X161730599Y-127110187D01*
X161730595Y-127110189D01*
X161730594Y-127110190D01*
X161593252Y-127184451D01*
X161575973Y-127196106D01*
X161558527Y-127207522D01*
X161556038Y-127209552D01*
X161435736Y-127309075D01*
X161421076Y-127323838D01*
X161406152Y-127338452D01*
X161404105Y-127340927D01*
X161305426Y-127461921D01*
X161293928Y-127479226D01*
X161282112Y-127496483D01*
X161280585Y-127499308D01*
X161207285Y-127637165D01*
X161199333Y-127656458D01*
X161191386Y-127675000D01*
X160875000Y-127675000D01*
X160875000Y-126450000D01*
X160869716Y-126396350D01*
X160854067Y-126344762D01*
X160828654Y-126297218D01*
X160794454Y-126255546D01*
X160752782Y-126221346D01*
X160705238Y-126195933D01*
X160653650Y-126180284D01*
X160600000Y-126175000D01*
X160000000Y-126175000D01*
X159946350Y-126180284D01*
X159894762Y-126195933D01*
X159847218Y-126221346D01*
X159805546Y-126255546D01*
X159771346Y-126297218D01*
X159745933Y-126344762D01*
X159730284Y-126396350D01*
X159725000Y-126450000D01*
X159725000Y-127675000D01*
X159268750Y-127675000D01*
X159200000Y-127673911D01*
X159188943Y-127675000D01*
X159011047Y-127675000D01*
X159000000Y-127673912D01*
X158400000Y-127673912D01*
X158388953Y-127675000D01*
X158211047Y-127675000D01*
X158200000Y-127673912D01*
X157600000Y-127673912D01*
X157588953Y-127675000D01*
X157411047Y-127675000D01*
X157400000Y-127673912D01*
X156800000Y-127673912D01*
X156788953Y-127675000D01*
X156611047Y-127675000D01*
X156600000Y-127673912D01*
X156000000Y-127673912D01*
X155988953Y-127675000D01*
X155811057Y-127675000D01*
X155800000Y-127673911D01*
X155731250Y-127675000D01*
X155575058Y-127675000D01*
X155604824Y-127603137D01*
X155625000Y-127501708D01*
X155625000Y-127398292D01*
X155604824Y-127296863D01*
X155565249Y-127201319D01*
X155507794Y-127115332D01*
X155492462Y-127100000D01*
X155507794Y-127084668D01*
X155565249Y-126998681D01*
X155604824Y-126903137D01*
X155625000Y-126801708D01*
X155625000Y-126698292D01*
X155604824Y-126596863D01*
X155565249Y-126501319D01*
X155507794Y-126415332D01*
X155434668Y-126342206D01*
X155348681Y-126284751D01*
X155253137Y-126245176D01*
X155151708Y-126225000D01*
X155048292Y-126225000D01*
X154946863Y-126245176D01*
X154851319Y-126284751D01*
X154800000Y-126319041D01*
X154800000Y-123957106D01*
X154989169Y-123767938D01*
X154995176Y-123798137D01*
X155034751Y-123893681D01*
X155092206Y-123979668D01*
X155165332Y-124052794D01*
X155251319Y-124110249D01*
X155346863Y-124149824D01*
X155448292Y-124170000D01*
X155551708Y-124170000D01*
X155653137Y-124149824D01*
X155748681Y-124110249D01*
X155834668Y-124052794D01*
X155907794Y-123979668D01*
X155965249Y-123893681D01*
X156004824Y-123798137D01*
X156025000Y-123696708D01*
X156025000Y-123593292D01*
X156004824Y-123491863D01*
X155965249Y-123396319D01*
X155907794Y-123310332D01*
X155847462Y-123250000D01*
X155907794Y-123189668D01*
X155965249Y-123103681D01*
X156004824Y-123008137D01*
X156025000Y-122906708D01*
X156025000Y-122803292D01*
X156004824Y-122701863D01*
X155965249Y-122606319D01*
X155907794Y-122520332D01*
X155834668Y-122447206D01*
X155748681Y-122389751D01*
X155653137Y-122350176D01*
X155551708Y-122330000D01*
X155448292Y-122330000D01*
X155346863Y-122350176D01*
X155251319Y-122389751D01*
X155165332Y-122447206D01*
X155092206Y-122520332D01*
X155034751Y-122606319D01*
X154995176Y-122701863D01*
X154985601Y-122750000D01*
X154738832Y-122750000D01*
X154723369Y-122748477D01*
X154707906Y-122750000D01*
X154707897Y-122750000D01*
X154661619Y-122754558D01*
X154602242Y-122772570D01*
X154576768Y-122786186D01*
X154547518Y-122801820D01*
X154513540Y-122829706D01*
X154499554Y-122841184D01*
X154489691Y-122853202D01*
X153903203Y-123439691D01*
X153891185Y-123449554D01*
X153881322Y-123461572D01*
X153881321Y-123461573D01*
X153851820Y-123497519D01*
X153823769Y-123550000D01*
X153822571Y-123552242D01*
X153804559Y-123611619D01*
X153802279Y-123634770D01*
X153798477Y-123673370D01*
X153800001Y-123688843D01*
X153800000Y-126980904D01*
X153776821Y-127009147D01*
X153748551Y-127062039D01*
X153747572Y-127063870D01*
X153729560Y-127123247D01*
X153726079Y-127158586D01*
X153723478Y-127184998D01*
X153725002Y-127200470D01*
X153725001Y-127578725D01*
X153688203Y-127615523D01*
X153676185Y-127625386D01*
X153666322Y-127637404D01*
X153666321Y-127637405D01*
X153636820Y-127673351D01*
X153636520Y-127673912D01*
X153600000Y-127673912D01*
X153588953Y-127675000D01*
X153411057Y-127675000D01*
X153400000Y-127673911D01*
X153331250Y-127675000D01*
X152868750Y-127675000D01*
X152800000Y-127673911D01*
X152788943Y-127675000D01*
X152611047Y-127675000D01*
X152600000Y-127673912D01*
X152000000Y-127673912D01*
X151988953Y-127675000D01*
X151811047Y-127675000D01*
X151800000Y-127673912D01*
X151200000Y-127673912D01*
X151188953Y-127675000D01*
X151011047Y-127675000D01*
X151000000Y-127673912D01*
X150400000Y-127673912D01*
X150388953Y-127675000D01*
X150211057Y-127675000D01*
X150200000Y-127673911D01*
X150131250Y-127675000D01*
X149675000Y-127675000D01*
X149675000Y-126450000D01*
X149669716Y-126396350D01*
X149654067Y-126344762D01*
X149628654Y-126297218D01*
X149594454Y-126255546D01*
X149552782Y-126221346D01*
X149505238Y-126195933D01*
X149453650Y-126180284D01*
X149400000Y-126175000D01*
X148800000Y-126175000D01*
X148800000Y-118948292D01*
X159275000Y-118948292D01*
X159275000Y-119051708D01*
X159295176Y-119153137D01*
X159334751Y-119248681D01*
X159392206Y-119334668D01*
X159465332Y-119407794D01*
X159551319Y-119465249D01*
X159646863Y-119504824D01*
X159748292Y-119525000D01*
X159789579Y-119525000D01*
X159795176Y-119553137D01*
X159834751Y-119648681D01*
X159892206Y-119734668D01*
X159965332Y-119807794D01*
X160051319Y-119865249D01*
X160146863Y-119904824D01*
X160248292Y-119925000D01*
X160351708Y-119925000D01*
X160453137Y-119904824D01*
X160548681Y-119865249D01*
X160634668Y-119807794D01*
X160707794Y-119734668D01*
X160765249Y-119648681D01*
X160804824Y-119553137D01*
X160825000Y-119451708D01*
X160825000Y-119348292D01*
X160804824Y-119246863D01*
X160765249Y-119151319D01*
X160707794Y-119065332D01*
X160642462Y-119000000D01*
X160707794Y-118934668D01*
X160765249Y-118848681D01*
X160804824Y-118753137D01*
X160825000Y-118651708D01*
X160825000Y-118548292D01*
X160804824Y-118446863D01*
X160765249Y-118351319D01*
X160707794Y-118265332D01*
X160634668Y-118192206D01*
X160548681Y-118134751D01*
X160453137Y-118095176D01*
X160351708Y-118075000D01*
X160248292Y-118075000D01*
X160146863Y-118095176D01*
X160051319Y-118134751D01*
X159965332Y-118192206D01*
X159892206Y-118265332D01*
X159834751Y-118351319D01*
X159795176Y-118446863D01*
X159789579Y-118475000D01*
X159748292Y-118475000D01*
X159646863Y-118495176D01*
X159551319Y-118534751D01*
X159465332Y-118592206D01*
X159392206Y-118665332D01*
X159334751Y-118751319D01*
X159295176Y-118846863D01*
X159275000Y-118948292D01*
X148800000Y-118948292D01*
X148800000Y-118014722D01*
X148801450Y-117999999D01*
X148800000Y-117985276D01*
X148800000Y-117985267D01*
X148796359Y-117948292D01*
X150975000Y-117948292D01*
X150975000Y-118051708D01*
X150995176Y-118153137D01*
X151034751Y-118248681D01*
X151092206Y-118334668D01*
X151165332Y-118407794D01*
X151251319Y-118465249D01*
X151346863Y-118504824D01*
X151448292Y-118525000D01*
X151551708Y-118525000D01*
X151653137Y-118504824D01*
X151748681Y-118465249D01*
X151834668Y-118407794D01*
X151907794Y-118334668D01*
X151965249Y-118248681D01*
X152000000Y-118164783D01*
X152034751Y-118248681D01*
X152092206Y-118334668D01*
X152165332Y-118407794D01*
X152251319Y-118465249D01*
X152346863Y-118504824D01*
X152448292Y-118525000D01*
X152551708Y-118525000D01*
X152653137Y-118504824D01*
X152748681Y-118465249D01*
X152834668Y-118407794D01*
X152907794Y-118334668D01*
X152965249Y-118248681D01*
X153000000Y-118164783D01*
X153034751Y-118248681D01*
X153092206Y-118334668D01*
X153165332Y-118407794D01*
X153251319Y-118465249D01*
X153346863Y-118504824D01*
X153448292Y-118525000D01*
X153551708Y-118525000D01*
X153653137Y-118504824D01*
X153748681Y-118465249D01*
X153834668Y-118407794D01*
X153907794Y-118334668D01*
X153965249Y-118248681D01*
X154000000Y-118164783D01*
X154034751Y-118248681D01*
X154092206Y-118334668D01*
X154165332Y-118407794D01*
X154251319Y-118465249D01*
X154346863Y-118504824D01*
X154448292Y-118525000D01*
X154551708Y-118525000D01*
X154653137Y-118504824D01*
X154748681Y-118465249D01*
X154834668Y-118407794D01*
X154907794Y-118334668D01*
X154965249Y-118248681D01*
X155000000Y-118164783D01*
X155034751Y-118248681D01*
X155092206Y-118334668D01*
X155165332Y-118407794D01*
X155251319Y-118465249D01*
X155346863Y-118504824D01*
X155448292Y-118525000D01*
X155551708Y-118525000D01*
X155653137Y-118504824D01*
X155748681Y-118465249D01*
X155834668Y-118407794D01*
X155907794Y-118334668D01*
X155965249Y-118248681D01*
X156004824Y-118153137D01*
X156025000Y-118051708D01*
X156025000Y-117948292D01*
X156004824Y-117846863D01*
X155965249Y-117751319D01*
X155907794Y-117665332D01*
X155834668Y-117592206D01*
X155748681Y-117534751D01*
X155653137Y-117495176D01*
X155551708Y-117475000D01*
X155448292Y-117475000D01*
X155346863Y-117495176D01*
X155251319Y-117534751D01*
X155165332Y-117592206D01*
X155092206Y-117665332D01*
X155034751Y-117751319D01*
X155000000Y-117835217D01*
X154965249Y-117751319D01*
X154907794Y-117665332D01*
X154834668Y-117592206D01*
X154748681Y-117534751D01*
X154653137Y-117495176D01*
X154551708Y-117475000D01*
X154448292Y-117475000D01*
X154346863Y-117495176D01*
X154251319Y-117534751D01*
X154165332Y-117592206D01*
X154092206Y-117665332D01*
X154034751Y-117751319D01*
X154000000Y-117835217D01*
X153965249Y-117751319D01*
X153907794Y-117665332D01*
X153834668Y-117592206D01*
X153748681Y-117534751D01*
X153653137Y-117495176D01*
X153551708Y-117475000D01*
X153448292Y-117475000D01*
X153346863Y-117495176D01*
X153251319Y-117534751D01*
X153165332Y-117592206D01*
X153092206Y-117665332D01*
X153034751Y-117751319D01*
X153000000Y-117835217D01*
X152965249Y-117751319D01*
X152907794Y-117665332D01*
X152834668Y-117592206D01*
X152748681Y-117534751D01*
X152653137Y-117495176D01*
X152551708Y-117475000D01*
X152448292Y-117475000D01*
X152346863Y-117495176D01*
X152251319Y-117534751D01*
X152165332Y-117592206D01*
X152092206Y-117665332D01*
X152034751Y-117751319D01*
X152000000Y-117835217D01*
X151965249Y-117751319D01*
X151907794Y-117665332D01*
X151834668Y-117592206D01*
X151748681Y-117534751D01*
X151653137Y-117495176D01*
X151551708Y-117475000D01*
X151448292Y-117475000D01*
X151346863Y-117495176D01*
X151251319Y-117534751D01*
X151165332Y-117592206D01*
X151092206Y-117665332D01*
X151034751Y-117751319D01*
X150995176Y-117846863D01*
X150975000Y-117948292D01*
X148796359Y-117948292D01*
X148795659Y-117941190D01*
X148778504Y-117884640D01*
X148758312Y-117846863D01*
X148750647Y-117832522D01*
X148722549Y-117798285D01*
X148713158Y-117786842D01*
X148701715Y-117777451D01*
X148538097Y-117613834D01*
X148546232Y-117572940D01*
X148546232Y-117469524D01*
X148526056Y-117368095D01*
X148486481Y-117272551D01*
X148429026Y-117186564D01*
X148355900Y-117113438D01*
X148269913Y-117055983D01*
X148198047Y-117026216D01*
X151424264Y-113800000D01*
X162059541Y-113800000D01*
X162074264Y-113801450D01*
X162088987Y-113800000D01*
X162088997Y-113800000D01*
X162133074Y-113795659D01*
X162189624Y-113778504D01*
X162241741Y-113750647D01*
X162287422Y-113713158D01*
X162296817Y-113701710D01*
X162851715Y-113146813D01*
X162863158Y-113137422D01*
X162881264Y-113115360D01*
X162900647Y-113091742D01*
X162928504Y-113039624D01*
X162932940Y-113025000D01*
X162945659Y-112983074D01*
X162950000Y-112938997D01*
X162950000Y-112938994D01*
X162950847Y-112930392D01*
X162984668Y-112907794D01*
X163057794Y-112834668D01*
X163115249Y-112748681D01*
X163154824Y-112653137D01*
X163175000Y-112551708D01*
X163175000Y-112448292D01*
X163154824Y-112346863D01*
X163115249Y-112251319D01*
X163057794Y-112165332D01*
X162984668Y-112092206D01*
X162898681Y-112034751D01*
X162803137Y-111995176D01*
X162719907Y-111978620D01*
X162851716Y-111846812D01*
X162863158Y-111837422D01*
X162895276Y-111798286D01*
X162900647Y-111791742D01*
X162922253Y-111751319D01*
X162928504Y-111739624D01*
X162945659Y-111683074D01*
X162950000Y-111638997D01*
X162950000Y-111638987D01*
X162950846Y-111630393D01*
X162984668Y-111607794D01*
X163057794Y-111534668D01*
X163115249Y-111448681D01*
X163154824Y-111353137D01*
X163175000Y-111251708D01*
X163175000Y-111148292D01*
X163154824Y-111046863D01*
X163115249Y-110951319D01*
X163057794Y-110865332D01*
X162984668Y-110792206D01*
X162898681Y-110734751D01*
X162803137Y-110695176D01*
X162701708Y-110675000D01*
X162598292Y-110675000D01*
X162496863Y-110695176D01*
X162401319Y-110734751D01*
X162315332Y-110792206D01*
X162242206Y-110865332D01*
X162184751Y-110951319D01*
X162145176Y-111046863D01*
X162125000Y-111148292D01*
X162125000Y-111251708D01*
X162145176Y-111353137D01*
X162184751Y-111448681D01*
X162242206Y-111534668D01*
X162278769Y-111571231D01*
X162150001Y-111700000D01*
X158046916Y-111700000D01*
X158040359Y-111696495D01*
X157983809Y-111679340D01*
X157939732Y-111674999D01*
X157939722Y-111674999D01*
X157924999Y-111673549D01*
X157910276Y-111674999D01*
X147039731Y-111674999D01*
X147025001Y-111673548D01*
X147010271Y-111674999D01*
X147010268Y-111674999D01*
X146966191Y-111679340D01*
X146922802Y-111692502D01*
X146909640Y-111696495D01*
X146857523Y-111724352D01*
X146827060Y-111749353D01*
X146811843Y-111761841D01*
X146802452Y-111773284D01*
X141295598Y-117280139D01*
X141284064Y-117289621D01*
X141265598Y-117312162D01*
X141246759Y-117335117D01*
X141246696Y-117335236D01*
X141246615Y-117335334D01*
X141233032Y-117360800D01*
X141218903Y-117387234D01*
X141218865Y-117387360D01*
X141218803Y-117387476D01*
X141210262Y-117415719D01*
X141201748Y-117443784D01*
X141201735Y-117443914D01*
X141201697Y-117444040D01*
X141198807Y-117473650D01*
X141195956Y-117502594D01*
X141197419Y-117517453D01*
X141199627Y-120069290D01*
X141165332Y-120092206D01*
X141092206Y-120165332D01*
X141034751Y-120251319D01*
X141000000Y-120335217D01*
X140965249Y-120251319D01*
X140907794Y-120165332D01*
X140834668Y-120092206D01*
X140800000Y-120069041D01*
X140800000Y-117174263D01*
X148025971Y-109948292D01*
X162125000Y-109948292D01*
X162125000Y-110051708D01*
X162145176Y-110153137D01*
X162184751Y-110248681D01*
X162242206Y-110334668D01*
X162315332Y-110407794D01*
X162401319Y-110465249D01*
X162496863Y-110504824D01*
X162598292Y-110525000D01*
X162701708Y-110525000D01*
X162803137Y-110504824D01*
X162898681Y-110465249D01*
X162984668Y-110407794D01*
X163057794Y-110334668D01*
X163115249Y-110248681D01*
X163154824Y-110153137D01*
X163175000Y-110051708D01*
X163175000Y-109948292D01*
X163154824Y-109846863D01*
X163115249Y-109751319D01*
X163057794Y-109665332D01*
X162984668Y-109592206D01*
X162898681Y-109534751D01*
X162803137Y-109495176D01*
X162701708Y-109475000D01*
X162598292Y-109475000D01*
X162496863Y-109495176D01*
X162401319Y-109534751D01*
X162315332Y-109592206D01*
X162242206Y-109665332D01*
X162184751Y-109751319D01*
X162145176Y-109846863D01*
X162125000Y-109948292D01*
X148025971Y-109948292D01*
X150674264Y-107300000D01*
X162259541Y-107300000D01*
X162274264Y-107301450D01*
X162288987Y-107300000D01*
X162288997Y-107300000D01*
X162333074Y-107295659D01*
X162389624Y-107278504D01*
X162441741Y-107250647D01*
X162487422Y-107213158D01*
X162496817Y-107201710D01*
X162851716Y-106846812D01*
X162863158Y-106837422D01*
X162895276Y-106798286D01*
X162900647Y-106791742D01*
X162915536Y-106763885D01*
X162928504Y-106739624D01*
X162945659Y-106683074D01*
X162950000Y-106638997D01*
X162950000Y-106638987D01*
X162950846Y-106630393D01*
X162984668Y-106607794D01*
X163057794Y-106534668D01*
X163115249Y-106448681D01*
X163154824Y-106353137D01*
X163175000Y-106251708D01*
X163175000Y-106148292D01*
X163154824Y-106046863D01*
X163115249Y-105951319D01*
X163057794Y-105865332D01*
X162984668Y-105792206D01*
X162898681Y-105734751D01*
X162803137Y-105695176D01*
X162701708Y-105675000D01*
X162598292Y-105675000D01*
X162496863Y-105695176D01*
X162401319Y-105734751D01*
X162315332Y-105792206D01*
X162242206Y-105865332D01*
X162184751Y-105951319D01*
X162145176Y-106046863D01*
X162125000Y-106148292D01*
X162125000Y-106251708D01*
X162145176Y-106353137D01*
X162184751Y-106448681D01*
X162242206Y-106534668D01*
X162278769Y-106571231D01*
X162150001Y-106700000D01*
X150564722Y-106700000D01*
X150549999Y-106698550D01*
X150535276Y-106700000D01*
X150535267Y-106700000D01*
X150491190Y-106704341D01*
X150434640Y-106721496D01*
X150410379Y-106734464D01*
X150382522Y-106749353D01*
X150348285Y-106777451D01*
X150336842Y-106786842D01*
X150327451Y-106798285D01*
X140298286Y-116827451D01*
X140286843Y-116836842D01*
X140277452Y-116848285D01*
X140277451Y-116848286D01*
X140249353Y-116882523D01*
X140221497Y-116934640D01*
X140204342Y-116991190D01*
X140198550Y-117050000D01*
X140200001Y-117064733D01*
X140200000Y-120069041D01*
X140165332Y-120092206D01*
X140092206Y-120165332D01*
X140034751Y-120251319D01*
X139995176Y-120346863D01*
X139975000Y-120448292D01*
X139975000Y-120551708D01*
X139995176Y-120653137D01*
X140034751Y-120748681D01*
X140092206Y-120834668D01*
X140165332Y-120907794D01*
X140251319Y-120965249D01*
X140346863Y-121004824D01*
X140448292Y-121025000D01*
X140551708Y-121025000D01*
X140653137Y-121004824D01*
X140748681Y-120965249D01*
X140834668Y-120907794D01*
X140907794Y-120834668D01*
X140965249Y-120748681D01*
X141000000Y-120664783D01*
X141034751Y-120748681D01*
X141092206Y-120834668D01*
X141165332Y-120907794D01*
X141251319Y-120965249D01*
X141346863Y-121004824D01*
X141448292Y-121025000D01*
X141551708Y-121025000D01*
X141653137Y-121004824D01*
X141748681Y-120965249D01*
X141834668Y-120907794D01*
X141907794Y-120834668D01*
X141965249Y-120748681D01*
X142004824Y-120653137D01*
X142025000Y-120551708D01*
X142025000Y-120448292D01*
X142004824Y-120346863D01*
X141965249Y-120251319D01*
X141907794Y-120165332D01*
X141834668Y-120092206D01*
X141799626Y-120068792D01*
X141797513Y-117626750D01*
X147149265Y-112274999D01*
X157828083Y-112274999D01*
X157834640Y-112278504D01*
X157891190Y-112295659D01*
X157935267Y-112300000D01*
X157935270Y-112300000D01*
X157950000Y-112301451D01*
X157964730Y-112300000D01*
X162164587Y-112300000D01*
X162145176Y-112346863D01*
X162125000Y-112448292D01*
X162125000Y-112551708D01*
X162145176Y-112653137D01*
X162184751Y-112748681D01*
X162242206Y-112834668D01*
X162278769Y-112871231D01*
X161950001Y-113200000D01*
X151314722Y-113200000D01*
X151299999Y-113198550D01*
X151285276Y-113200000D01*
X151285267Y-113200000D01*
X151241190Y-113204341D01*
X151184640Y-113221496D01*
X151176747Y-113225715D01*
X151132522Y-113249353D01*
X151101272Y-113275000D01*
X151086842Y-113286842D01*
X151077451Y-113298285D01*
X147098290Y-117277447D01*
X147086842Y-117286842D01*
X147077125Y-117298683D01*
X147049353Y-117332523D01*
X147042332Y-117345659D01*
X147021496Y-117384641D01*
X147004341Y-117441191D01*
X147000000Y-117485268D01*
X147000000Y-117485277D01*
X146998550Y-117500000D01*
X147000000Y-117514723D01*
X147000000Y-120207538D01*
X146934668Y-120142206D01*
X146848681Y-120084751D01*
X146753137Y-120045176D01*
X146651708Y-120025000D01*
X146548292Y-120025000D01*
X146446863Y-120045176D01*
X146351319Y-120084751D01*
X146265332Y-120142206D01*
X146192206Y-120215332D01*
X146134751Y-120301319D01*
X146095176Y-120396863D01*
X146075000Y-120498292D01*
X146075000Y-120601708D01*
X146095176Y-120703137D01*
X146134751Y-120798681D01*
X146192206Y-120884668D01*
X146265332Y-120957794D01*
X146351319Y-121015249D01*
X146446863Y-121054824D01*
X146548292Y-121075000D01*
X146651708Y-121075000D01*
X146753137Y-121054824D01*
X146848681Y-121015249D01*
X146934668Y-120957794D01*
X147000000Y-120892462D01*
X147000001Y-127612269D01*
X146998550Y-127627002D01*
X147003201Y-127674226D01*
X147000000Y-127673911D01*
X146931250Y-127675000D01*
X146468750Y-127675000D01*
X146400000Y-127673911D01*
X146388943Y-127675000D01*
X145630000Y-127675000D01*
X145630000Y-127188710D01*
X145629003Y-127178591D01*
X145629036Y-127173917D01*
X145628722Y-127170721D01*
X145613421Y-127025149D01*
X145609236Y-127004762D01*
X145605324Y-126984253D01*
X145604395Y-126981180D01*
X145604395Y-126981178D01*
X145604393Y-126981172D01*
X145561111Y-126841351D01*
X145553034Y-126822134D01*
X145545224Y-126802804D01*
X145543716Y-126799969D01*
X145474097Y-126671212D01*
X145462444Y-126653935D01*
X145451026Y-126636486D01*
X145449000Y-126634003D01*
X145448996Y-126633997D01*
X145448991Y-126633992D01*
X145355694Y-126521215D01*
X145340931Y-126506555D01*
X145326317Y-126491631D01*
X145323843Y-126489585D01*
X145210411Y-126397072D01*
X145193072Y-126385552D01*
X145175848Y-126373758D01*
X145173023Y-126372231D01*
X145043782Y-126303512D01*
X145024496Y-126295563D01*
X145005347Y-126287355D01*
X145002287Y-126286408D01*
X145002281Y-126286406D01*
X145002275Y-126286405D01*
X144862152Y-126244100D01*
X144841713Y-126240053D01*
X144821315Y-126235717D01*
X144818127Y-126235383D01*
X144818119Y-126235381D01*
X144818111Y-126235381D01*
X144672445Y-126221098D01*
X144662408Y-126221098D01*
X144652420Y-126220012D01*
X144649209Y-126220001D01*
X144643973Y-126220019D01*
X144633972Y-126221034D01*
X144623917Y-126220964D01*
X144620721Y-126221278D01*
X144475149Y-126236579D01*
X144454762Y-126240764D01*
X144434253Y-126244676D01*
X144431184Y-126245604D01*
X144431178Y-126245605D01*
X144431172Y-126245607D01*
X144291351Y-126288889D01*
X144272134Y-126296966D01*
X144252804Y-126304776D01*
X144249974Y-126306281D01*
X144249970Y-126306283D01*
X144249969Y-126306284D01*
X144121212Y-126375903D01*
X144103935Y-126387556D01*
X144086486Y-126398974D01*
X144084003Y-126401000D01*
X144083997Y-126401004D01*
X144083992Y-126401009D01*
X143971215Y-126494306D01*
X143956555Y-126509069D01*
X143941631Y-126523683D01*
X143939585Y-126526157D01*
X143847072Y-126639589D01*
X143835552Y-126656928D01*
X143823758Y-126674152D01*
X143822231Y-126676977D01*
X143753512Y-126806218D01*
X143745563Y-126825504D01*
X143737355Y-126844653D01*
X143736408Y-126847713D01*
X143736406Y-126847719D01*
X143736406Y-126847721D01*
X143694100Y-126987848D01*
X143690053Y-127008287D01*
X143685717Y-127028685D01*
X143685383Y-127031873D01*
X143685381Y-127031881D01*
X143685381Y-127031889D01*
X143671098Y-127177555D01*
X143671098Y-127177573D01*
X143670001Y-127188710D01*
X143670001Y-127675000D01*
X143011047Y-127675000D01*
X143000000Y-127673912D01*
X142400000Y-127673912D01*
X142388953Y-127675000D01*
X142211047Y-127675000D01*
X142200000Y-127673912D01*
X141600000Y-127673912D01*
X141588953Y-127675000D01*
X141411047Y-127675000D01*
X141400000Y-127673912D01*
X140800000Y-127673912D01*
X140788953Y-127675000D01*
X140611047Y-127675000D01*
X140600000Y-127673912D01*
X140000000Y-127673912D01*
X139988953Y-127675000D01*
X139811047Y-127675000D01*
X139800000Y-127673912D01*
X139200000Y-127673912D01*
X139188953Y-127675000D01*
X139011047Y-127675000D01*
X139000000Y-127673912D01*
X138400000Y-127673912D01*
X138388953Y-127675000D01*
X138211057Y-127675000D01*
X138200000Y-127673911D01*
X138131250Y-127675000D01*
X137675000Y-127675000D01*
X137675000Y-126450000D01*
X137669716Y-126396350D01*
X137654067Y-126344762D01*
X137628654Y-126297218D01*
X137594454Y-126255546D01*
X137552782Y-126221346D01*
X137505238Y-126195933D01*
X137453650Y-126180284D01*
X137400000Y-126175000D01*
X136800000Y-126175000D01*
X136746350Y-126180284D01*
X136694762Y-126195933D01*
X136647218Y-126221346D01*
X136605546Y-126255546D01*
X136571346Y-126297218D01*
X136545933Y-126344762D01*
X136530284Y-126396350D01*
X136525000Y-126450000D01*
X136525000Y-127675000D01*
X135808141Y-127675000D01*
X135807205Y-127671976D01*
X135799132Y-127652771D01*
X135791318Y-127633429D01*
X135789810Y-127630594D01*
X135789810Y-127630593D01*
X135789809Y-127630592D01*
X135715549Y-127493252D01*
X135703894Y-127475973D01*
X135692478Y-127458527D01*
X135690448Y-127456038D01*
X135590925Y-127335736D01*
X135576162Y-127321076D01*
X135561548Y-127306152D01*
X135559073Y-127304105D01*
X135438079Y-127205426D01*
X135420774Y-127193928D01*
X135403517Y-127182112D01*
X135400692Y-127180585D01*
X135262835Y-127107285D01*
X135243542Y-127099333D01*
X135224401Y-127091129D01*
X135221337Y-127090180D01*
X135221331Y-127090178D01*
X135071864Y-127045052D01*
X135051396Y-127040999D01*
X135031025Y-127036669D01*
X135027842Y-127036335D01*
X135027831Y-127036333D01*
X135027821Y-127036333D01*
X134872444Y-127021098D01*
X134872438Y-127021098D01*
X134861290Y-127020000D01*
X133730000Y-127020000D01*
X133730000Y-112550000D01*
X134198550Y-112550000D01*
X134200000Y-112564723D01*
X134200001Y-114985267D01*
X134198550Y-115000000D01*
X134204342Y-115058810D01*
X134221497Y-115115360D01*
X134249353Y-115167477D01*
X134277451Y-115201714D01*
X134286843Y-115213158D01*
X134298285Y-115222548D01*
X135000001Y-115924265D01*
X134999999Y-121970038D01*
X134948292Y-121970038D01*
X134846863Y-121990214D01*
X134751319Y-122029789D01*
X134665332Y-122087244D01*
X134592206Y-122160370D01*
X134534751Y-122246357D01*
X134495176Y-122341901D01*
X134475000Y-122443330D01*
X134475000Y-122546746D01*
X134495176Y-122648175D01*
X134534751Y-122743719D01*
X134592206Y-122829706D01*
X134665332Y-122902832D01*
X134751319Y-122960287D01*
X134846863Y-122999862D01*
X134948292Y-123020038D01*
X135051708Y-123020038D01*
X135153137Y-122999862D01*
X135248681Y-122960287D01*
X135334668Y-122902832D01*
X135407794Y-122829706D01*
X135465249Y-122743719D01*
X135504824Y-122648175D01*
X135525000Y-122546746D01*
X135525000Y-122443330D01*
X135517064Y-122403435D01*
X135522542Y-122396760D01*
X135522549Y-122396753D01*
X135550646Y-122362517D01*
X135578503Y-122310399D01*
X135595657Y-122253849D01*
X135601450Y-122195039D01*
X135599998Y-122180299D01*
X135600000Y-115814731D01*
X135601451Y-115800000D01*
X135599052Y-115775647D01*
X135595659Y-115741191D01*
X135586489Y-115710964D01*
X135578504Y-115684639D01*
X135550647Y-115632522D01*
X135522549Y-115598285D01*
X135522544Y-115598280D01*
X135513158Y-115586843D01*
X135501721Y-115577457D01*
X134800000Y-114875737D01*
X134800000Y-113000000D01*
X135198550Y-113000000D01*
X135200000Y-113014723D01*
X135200001Y-115035267D01*
X135198550Y-115050000D01*
X135204342Y-115108810D01*
X135221497Y-115165360D01*
X135249353Y-115217477D01*
X135277451Y-115251714D01*
X135286843Y-115263158D01*
X135298285Y-115272548D01*
X135675000Y-115649264D01*
X135675001Y-122594041D01*
X135640332Y-122617206D01*
X135567206Y-122690332D01*
X135509751Y-122776319D01*
X135470176Y-122871863D01*
X135450000Y-122973292D01*
X135450000Y-123076708D01*
X135470176Y-123178137D01*
X135509751Y-123273681D01*
X135567206Y-123359668D01*
X135640332Y-123432794D01*
X135726319Y-123490249D01*
X135821863Y-123529824D01*
X135923292Y-123550000D01*
X136026708Y-123550000D01*
X136128137Y-123529824D01*
X136223681Y-123490249D01*
X136309668Y-123432794D01*
X136382794Y-123359668D01*
X136440249Y-123273681D01*
X136479824Y-123178137D01*
X136500000Y-123076708D01*
X136500000Y-122973292D01*
X136479824Y-122871863D01*
X136440249Y-122776319D01*
X136382794Y-122690332D01*
X136309668Y-122617206D01*
X136275000Y-122594041D01*
X136275000Y-115539722D01*
X136276450Y-115524999D01*
X136275000Y-115510276D01*
X136275000Y-115510267D01*
X136270659Y-115466190D01*
X136253504Y-115409640D01*
X136225648Y-115357524D01*
X136225647Y-115357522D01*
X136197549Y-115323285D01*
X136188158Y-115311842D01*
X136176716Y-115302452D01*
X135800000Y-114925737D01*
X135800000Y-113748292D01*
X135925000Y-113748292D01*
X135925000Y-113851708D01*
X135945176Y-113953137D01*
X135984751Y-114048681D01*
X136042206Y-114134668D01*
X136115332Y-114207794D01*
X136201319Y-114265249D01*
X136296863Y-114304824D01*
X136398292Y-114325000D01*
X136501708Y-114325000D01*
X136603137Y-114304824D01*
X136698681Y-114265249D01*
X136784668Y-114207794D01*
X136821231Y-114171231D01*
X137200000Y-114550000D01*
X137200001Y-124935267D01*
X137198550Y-124950000D01*
X137204342Y-125008810D01*
X137221497Y-125065360D01*
X137249353Y-125117477D01*
X137277451Y-125151714D01*
X137286843Y-125163158D01*
X137298285Y-125172548D01*
X137483135Y-125357398D01*
X137475000Y-125398292D01*
X137475000Y-125501708D01*
X137495176Y-125603137D01*
X137534751Y-125698681D01*
X137592206Y-125784668D01*
X137665332Y-125857794D01*
X137751319Y-125915249D01*
X137846863Y-125954824D01*
X137948292Y-125975000D01*
X138051708Y-125975000D01*
X138153137Y-125954824D01*
X138248681Y-125915249D01*
X138334668Y-125857794D01*
X138407794Y-125784668D01*
X138465249Y-125698681D01*
X138504824Y-125603137D01*
X138525000Y-125501708D01*
X138525000Y-125398292D01*
X138504824Y-125296863D01*
X138465249Y-125201319D01*
X138407794Y-125115332D01*
X138334668Y-125042206D01*
X138248681Y-124984751D01*
X138153137Y-124945176D01*
X138051708Y-124925000D01*
X137948292Y-124925000D01*
X137907398Y-124933135D01*
X137800000Y-124825737D01*
X137800000Y-124448292D01*
X138525000Y-124448292D01*
X138525000Y-124551708D01*
X138545176Y-124653137D01*
X138584751Y-124748681D01*
X138642206Y-124834668D01*
X138715332Y-124907794D01*
X138801319Y-124965249D01*
X138896863Y-125004824D01*
X138998292Y-125025000D01*
X139101708Y-125025000D01*
X139203137Y-125004824D01*
X139298681Y-124965249D01*
X139384668Y-124907794D01*
X139457794Y-124834668D01*
X139515249Y-124748681D01*
X139554824Y-124653137D01*
X139575000Y-124551708D01*
X139575000Y-124448292D01*
X139554824Y-124346863D01*
X139525000Y-124274860D01*
X139525000Y-120596750D01*
X139676677Y-120445074D01*
X139748681Y-120415249D01*
X139834668Y-120357794D01*
X139907794Y-120284668D01*
X139965249Y-120198681D01*
X140004824Y-120103137D01*
X140025000Y-120001708D01*
X140025000Y-119898292D01*
X140004824Y-119796863D01*
X139965249Y-119701319D01*
X139907794Y-119615332D01*
X139834668Y-119542206D01*
X139748681Y-119484751D01*
X139653137Y-119445176D01*
X139551708Y-119425000D01*
X139448292Y-119425000D01*
X139346863Y-119445176D01*
X139251319Y-119484751D01*
X139165332Y-119542206D01*
X139092206Y-119615332D01*
X139034751Y-119701319D01*
X139004926Y-119773323D01*
X138730629Y-120047621D01*
X138712500Y-120062499D01*
X138653142Y-120134827D01*
X138609035Y-120217346D01*
X138581873Y-120306884D01*
X138572702Y-120400000D01*
X138575001Y-120423342D01*
X138575000Y-124052404D01*
X138575000Y-124274860D01*
X138545176Y-124346863D01*
X138525000Y-124448292D01*
X137800000Y-124448292D01*
X137800000Y-114440458D01*
X137801450Y-114425735D01*
X137800000Y-114411012D01*
X137800000Y-114411003D01*
X137795659Y-114366926D01*
X137778504Y-114310376D01*
X137765536Y-114286115D01*
X137750647Y-114258258D01*
X137722549Y-114224021D01*
X137713158Y-114212578D01*
X137701716Y-114203188D01*
X137096817Y-113598290D01*
X137087422Y-113586842D01*
X137041741Y-113549353D01*
X136989624Y-113521496D01*
X136933074Y-113504341D01*
X136888997Y-113500000D01*
X136888987Y-113500000D01*
X136880393Y-113499154D01*
X136857794Y-113465332D01*
X136784668Y-113392206D01*
X136698681Y-113334751D01*
X136603137Y-113295176D01*
X136501708Y-113275000D01*
X136398292Y-113275000D01*
X136296863Y-113295176D01*
X136201319Y-113334751D01*
X136115332Y-113392206D01*
X136042206Y-113465332D01*
X135984751Y-113551319D01*
X135945176Y-113646863D01*
X135925000Y-113748292D01*
X135800000Y-113748292D01*
X135800000Y-113124263D01*
X136065901Y-112858363D01*
X136115332Y-112907794D01*
X136201319Y-112965249D01*
X136296863Y-113004824D01*
X136398292Y-113025000D01*
X136501708Y-113025000D01*
X136603137Y-113004824D01*
X136698681Y-112965249D01*
X136784668Y-112907794D01*
X136857794Y-112834668D01*
X136915249Y-112748681D01*
X136954824Y-112653137D01*
X136975000Y-112551708D01*
X136975000Y-112448292D01*
X136954824Y-112346863D01*
X136915249Y-112251319D01*
X136857794Y-112165332D01*
X136784668Y-112092206D01*
X136698681Y-112034751D01*
X136603137Y-111995176D01*
X136501708Y-111975000D01*
X136398292Y-111975000D01*
X136296863Y-111995176D01*
X136201319Y-112034751D01*
X136115332Y-112092206D01*
X136042206Y-112165332D01*
X136019041Y-112200000D01*
X136014730Y-112200000D01*
X136000000Y-112198549D01*
X135985270Y-112200000D01*
X135985267Y-112200000D01*
X135941190Y-112204341D01*
X135897801Y-112217503D01*
X135884639Y-112221496D01*
X135832522Y-112249353D01*
X135806562Y-112270658D01*
X135786842Y-112286842D01*
X135777451Y-112298285D01*
X135298290Y-112777447D01*
X135286842Y-112786842D01*
X135276044Y-112800000D01*
X135249353Y-112832523D01*
X135239237Y-112851450D01*
X135221496Y-112884641D01*
X135204341Y-112941191D01*
X135200000Y-112985268D01*
X135200000Y-112985277D01*
X135198550Y-113000000D01*
X134800000Y-113000000D01*
X134800000Y-112674263D01*
X134957398Y-112516865D01*
X134998292Y-112525000D01*
X135101708Y-112525000D01*
X135203137Y-112504824D01*
X135298681Y-112465249D01*
X135384668Y-112407794D01*
X135457794Y-112334668D01*
X135515249Y-112248681D01*
X135554824Y-112153137D01*
X135575000Y-112051708D01*
X135575000Y-111948292D01*
X135554824Y-111846863D01*
X135515249Y-111751319D01*
X135457794Y-111665332D01*
X135384668Y-111592206D01*
X135298681Y-111534751D01*
X135203137Y-111495176D01*
X135101708Y-111475000D01*
X134998292Y-111475000D01*
X134896863Y-111495176D01*
X134801319Y-111534751D01*
X134715332Y-111592206D01*
X134642206Y-111665332D01*
X134584751Y-111751319D01*
X134545176Y-111846863D01*
X134525000Y-111948292D01*
X134525000Y-112051708D01*
X134533135Y-112092602D01*
X134298290Y-112327447D01*
X134286842Y-112336842D01*
X134266358Y-112361802D01*
X134249353Y-112382523D01*
X134248221Y-112384641D01*
X134221496Y-112434641D01*
X134204341Y-112491191D01*
X134200000Y-112535268D01*
X134200000Y-112535277D01*
X134198550Y-112550000D01*
X133730000Y-112550000D01*
X133730000Y-108948292D01*
X133975000Y-108948292D01*
X133975000Y-109051708D01*
X133995176Y-109153137D01*
X134034751Y-109248681D01*
X134092206Y-109334668D01*
X134165332Y-109407794D01*
X134199154Y-109430393D01*
X134200000Y-109438987D01*
X134200000Y-109438997D01*
X134202586Y-109465249D01*
X134204342Y-109483074D01*
X134221497Y-109539624D01*
X134249353Y-109591741D01*
X134277451Y-109625978D01*
X134286843Y-109637422D01*
X134298285Y-109646812D01*
X134853186Y-110201714D01*
X134862578Y-110213158D01*
X134874021Y-110222549D01*
X134874022Y-110222550D01*
X134908258Y-110250647D01*
X134960376Y-110278504D01*
X135016926Y-110295659D01*
X135061003Y-110300000D01*
X135061006Y-110300000D01*
X135075736Y-110301451D01*
X135090466Y-110300000D01*
X137925737Y-110300000D01*
X138200000Y-110574264D01*
X138200001Y-117035267D01*
X138198550Y-117050000D01*
X138204342Y-117108810D01*
X138221497Y-117165360D01*
X138249353Y-117217477D01*
X138277451Y-117251714D01*
X138286843Y-117263158D01*
X138298285Y-117272548D01*
X138474549Y-117448813D01*
X138466415Y-117489707D01*
X138466415Y-117593123D01*
X138486591Y-117694552D01*
X138526166Y-117790096D01*
X138583621Y-117876083D01*
X138656747Y-117949209D01*
X138742734Y-118006664D01*
X138838278Y-118046239D01*
X138939707Y-118066415D01*
X139043123Y-118066415D01*
X139144552Y-118046239D01*
X139240096Y-118006664D01*
X139326083Y-117949209D01*
X139399209Y-117876083D01*
X139456664Y-117790096D01*
X139496239Y-117694552D01*
X139516415Y-117593123D01*
X139516415Y-117489707D01*
X139496239Y-117388278D01*
X139456664Y-117292734D01*
X139399209Y-117206747D01*
X139326083Y-117133621D01*
X139240096Y-117076166D01*
X139144552Y-117036591D01*
X139043123Y-117016415D01*
X138939707Y-117016415D01*
X138898813Y-117024549D01*
X138800000Y-116925737D01*
X138800000Y-110464722D01*
X138801450Y-110449999D01*
X138800000Y-110435276D01*
X138800000Y-110435267D01*
X138795659Y-110391190D01*
X138778504Y-110334640D01*
X138759989Y-110300000D01*
X138750647Y-110282522D01*
X138722549Y-110248285D01*
X138713158Y-110236842D01*
X138701716Y-110227452D01*
X138272553Y-109798290D01*
X138263158Y-109786842D01*
X138217477Y-109749353D01*
X138165360Y-109721496D01*
X138108810Y-109704341D01*
X138064733Y-109700000D01*
X138064723Y-109700000D01*
X138050000Y-109698550D01*
X138035277Y-109700000D01*
X135200000Y-109700000D01*
X134871231Y-109371231D01*
X134907794Y-109334668D01*
X134965249Y-109248681D01*
X135000000Y-109164783D01*
X135034751Y-109248681D01*
X135092206Y-109334668D01*
X135165332Y-109407794D01*
X135251319Y-109465249D01*
X135346863Y-109504824D01*
X135448292Y-109525000D01*
X135551708Y-109525000D01*
X135653137Y-109504824D01*
X135748681Y-109465249D01*
X135834668Y-109407794D01*
X135907794Y-109334668D01*
X135965249Y-109248681D01*
X136004824Y-109153137D01*
X136025000Y-109051708D01*
X136025000Y-109008918D01*
X136042206Y-109034668D01*
X136115332Y-109107794D01*
X136201319Y-109165249D01*
X136296863Y-109204824D01*
X136398292Y-109225000D01*
X136501708Y-109225000D01*
X136603137Y-109204824D01*
X136698681Y-109165249D01*
X136784668Y-109107794D01*
X136857794Y-109034668D01*
X136915249Y-108948681D01*
X136954824Y-108853137D01*
X136975000Y-108751708D01*
X136975000Y-108648292D01*
X136966865Y-108607398D01*
X140201717Y-105372547D01*
X140213158Y-105363158D01*
X140222549Y-105351715D01*
X140250647Y-105317478D01*
X140278503Y-105265361D01*
X140278504Y-105265360D01*
X140295659Y-105208810D01*
X140300000Y-105164733D01*
X140300000Y-105164724D01*
X140301450Y-105150001D01*
X140300000Y-105135278D01*
X140300000Y-96624263D01*
X146201717Y-90722547D01*
X146213158Y-90713158D01*
X146222549Y-90701715D01*
X146250647Y-90667478D01*
X146278503Y-90615361D01*
X146278504Y-90615360D01*
X146295659Y-90558810D01*
X146300000Y-90514733D01*
X146300000Y-90514724D01*
X146301450Y-90500001D01*
X146300000Y-90485278D01*
X146300000Y-86430959D01*
X146334668Y-86407794D01*
X146407794Y-86334668D01*
X146465249Y-86248681D01*
X146504824Y-86153137D01*
X146525000Y-86051708D01*
X146525000Y-85948292D01*
X146504824Y-85846863D01*
X146465249Y-85751319D01*
X146407794Y-85665332D01*
X146334668Y-85592206D01*
X146248681Y-85534751D01*
X146153137Y-85495176D01*
X146051708Y-85475000D01*
X145948292Y-85475000D01*
X145846863Y-85495176D01*
X145751319Y-85534751D01*
X145665332Y-85592206D01*
X145592206Y-85665332D01*
X145534751Y-85751319D01*
X145500000Y-85835217D01*
X145465249Y-85751319D01*
X145407794Y-85665332D01*
X145334668Y-85592206D01*
X145248681Y-85534751D01*
X145153137Y-85495176D01*
X145051708Y-85475000D01*
X144948292Y-85475000D01*
X144846863Y-85495176D01*
X144751319Y-85534751D01*
X144665332Y-85592206D01*
X144592206Y-85665332D01*
X144534751Y-85751319D01*
X144500000Y-85835217D01*
X144465249Y-85751319D01*
X144407794Y-85665332D01*
X144334668Y-85592206D01*
X144248681Y-85534751D01*
X144153137Y-85495176D01*
X144051708Y-85475000D01*
X143948292Y-85475000D01*
X143846863Y-85495176D01*
X143751319Y-85534751D01*
X143665332Y-85592206D01*
X143592206Y-85665332D01*
X143534751Y-85751319D01*
X143500000Y-85835217D01*
X143465249Y-85751319D01*
X143407794Y-85665332D01*
X143334668Y-85592206D01*
X143248681Y-85534751D01*
X143153137Y-85495176D01*
X143051708Y-85475000D01*
X142948292Y-85475000D01*
X142846863Y-85495176D01*
X142751319Y-85534751D01*
X142665332Y-85592206D01*
X142592206Y-85665332D01*
X142534751Y-85751319D01*
X142495176Y-85846863D01*
X142475000Y-85948292D01*
X142475000Y-86051708D01*
X142495176Y-86153137D01*
X142534751Y-86248681D01*
X142592206Y-86334668D01*
X142665332Y-86407794D01*
X142700000Y-86430959D01*
X142700001Y-90375735D01*
X136798286Y-96277451D01*
X136773292Y-96302445D01*
X136773286Y-96302450D01*
X135298290Y-97777447D01*
X135286842Y-97786842D01*
X135266358Y-97811802D01*
X135249353Y-97832523D01*
X135234464Y-97860380D01*
X135221496Y-97884641D01*
X135204341Y-97941191D01*
X135200000Y-97985268D01*
X135200000Y-97985277D01*
X135198550Y-98000000D01*
X135200000Y-98014723D01*
X135200001Y-108569041D01*
X135165332Y-108592206D01*
X135092206Y-108665332D01*
X135034751Y-108751319D01*
X135000000Y-108835217D01*
X134965249Y-108751319D01*
X134907794Y-108665332D01*
X134834668Y-108592206D01*
X134748681Y-108534751D01*
X134653137Y-108495176D01*
X134551708Y-108475000D01*
X134448292Y-108475000D01*
X134346863Y-108495176D01*
X134251319Y-108534751D01*
X134165332Y-108592206D01*
X134092206Y-108665332D01*
X134034751Y-108751319D01*
X133995176Y-108846863D01*
X133975000Y-108948292D01*
X133730000Y-108948292D01*
X133730000Y-84558505D01*
X134488982Y-84558505D01*
X134817052Y-84876469D01*
X135330604Y-85137702D01*
X135885251Y-85293726D01*
X136459680Y-85338546D01*
X137031815Y-85270440D01*
X137579670Y-85092024D01*
X137982948Y-84876469D01*
X138311018Y-84558505D01*
X158688982Y-84558505D01*
X159017052Y-84876469D01*
X159530604Y-85137702D01*
X160085251Y-85293726D01*
X160659680Y-85338546D01*
X161231815Y-85270440D01*
X161779670Y-85092024D01*
X162182948Y-84876469D01*
X162511018Y-84558505D01*
X160600000Y-82647487D01*
X158688982Y-84558505D01*
X138311018Y-84558505D01*
X136400000Y-82647487D01*
X134488982Y-84558505D01*
X133730000Y-84558505D01*
X133730000Y-83620874D01*
X133923531Y-83982948D01*
X134241495Y-84311018D01*
X136152513Y-82400000D01*
X136647487Y-82400000D01*
X138558505Y-84311018D01*
X138876469Y-83982948D01*
X139137702Y-83469396D01*
X139293726Y-82914749D01*
X139329232Y-82459680D01*
X157661454Y-82459680D01*
X157729560Y-83031815D01*
X157907976Y-83579670D01*
X158123531Y-83982948D01*
X158441495Y-84311018D01*
X160352513Y-82400000D01*
X158441495Y-80488982D01*
X158123531Y-80817052D01*
X157862298Y-81330604D01*
X157706274Y-81885251D01*
X157661454Y-82459680D01*
X139329232Y-82459680D01*
X139338546Y-82340320D01*
X139270440Y-81768185D01*
X139092024Y-81220330D01*
X138876469Y-80817052D01*
X138558505Y-80488982D01*
X136647487Y-82400000D01*
X136152513Y-82400000D01*
X134241495Y-80488982D01*
X133923531Y-80817052D01*
X133730000Y-81197510D01*
X133730000Y-79730000D01*
X135179126Y-79730000D01*
X134817052Y-79923531D01*
G37*
X134817052Y-79923531D02*
X134488982Y-80241495D01*
X136400000Y-82152513D01*
X138311018Y-80241495D01*
X137982948Y-79923531D01*
X137602490Y-79730000D01*
X159379126Y-79730000D01*
X159017052Y-79923531D01*
X158688982Y-80241495D01*
X160600000Y-82152513D01*
X162511018Y-80241495D01*
X162182948Y-79923531D01*
X161802490Y-79730000D01*
X163270001Y-79730000D01*
X163270001Y-81179127D01*
X163076469Y-80817052D01*
X162758505Y-80488982D01*
X160847487Y-82400000D01*
X162758505Y-84311018D01*
X163076469Y-83982948D01*
X163270001Y-83602488D01*
X163270001Y-88223809D01*
X161517500Y-88223809D01*
X161517500Y-101776190D01*
X163270001Y-101776190D01*
X163270000Y-127020000D01*
X162138710Y-127020000D01*
X162128558Y-127021000D01*
X162123568Y-127020965D01*
X162120372Y-127021279D01*
X161965095Y-127037600D01*
X161944701Y-127041786D01*
X161924200Y-127045697D01*
X161921130Y-127046625D01*
X161921124Y-127046626D01*
X161921118Y-127046628D01*
X161771976Y-127092795D01*
X161752771Y-127100868D01*
X161733429Y-127108682D01*
X161730599Y-127110187D01*
X161730595Y-127110189D01*
X161730594Y-127110190D01*
X161593252Y-127184451D01*
X161575973Y-127196106D01*
X161558527Y-127207522D01*
X161556038Y-127209552D01*
X161435736Y-127309075D01*
X161421076Y-127323838D01*
X161406152Y-127338452D01*
X161404105Y-127340927D01*
X161305426Y-127461921D01*
X161293928Y-127479226D01*
X161282112Y-127496483D01*
X161280585Y-127499308D01*
X161207285Y-127637165D01*
X161199333Y-127656458D01*
X161191386Y-127675000D01*
X160875000Y-127675000D01*
X160875000Y-126450000D01*
X160869716Y-126396350D01*
X160854067Y-126344762D01*
X160828654Y-126297218D01*
X160794454Y-126255546D01*
X160752782Y-126221346D01*
X160705238Y-126195933D01*
X160653650Y-126180284D01*
X160600000Y-126175000D01*
X160000000Y-126175000D01*
X159946350Y-126180284D01*
X159894762Y-126195933D01*
X159847218Y-126221346D01*
X159805546Y-126255546D01*
X159771346Y-126297218D01*
X159745933Y-126344762D01*
X159730284Y-126396350D01*
X159725000Y-126450000D01*
X159725000Y-127675000D01*
X159268750Y-127675000D01*
X159200000Y-127673911D01*
X159188943Y-127675000D01*
X159011047Y-127675000D01*
X159000000Y-127673912D01*
X158400000Y-127673912D01*
X158388953Y-127675000D01*
X158211047Y-127675000D01*
X158200000Y-127673912D01*
X157600000Y-127673912D01*
X157588953Y-127675000D01*
X157411047Y-127675000D01*
X157400000Y-127673912D01*
X156800000Y-127673912D01*
X156788953Y-127675000D01*
X156611047Y-127675000D01*
X156600000Y-127673912D01*
X156000000Y-127673912D01*
X155988953Y-127675000D01*
X155811057Y-127675000D01*
X155800000Y-127673911D01*
X155731250Y-127675000D01*
X155575058Y-127675000D01*
X155604824Y-127603137D01*
X155625000Y-127501708D01*
X155625000Y-127398292D01*
X155604824Y-127296863D01*
X155565249Y-127201319D01*
X155507794Y-127115332D01*
X155492462Y-127100000D01*
X155507794Y-127084668D01*
X155565249Y-126998681D01*
X155604824Y-126903137D01*
X155625000Y-126801708D01*
X155625000Y-126698292D01*
X155604824Y-126596863D01*
X155565249Y-126501319D01*
X155507794Y-126415332D01*
X155434668Y-126342206D01*
X155348681Y-126284751D01*
X155253137Y-126245176D01*
X155151708Y-126225000D01*
X155048292Y-126225000D01*
X154946863Y-126245176D01*
X154851319Y-126284751D01*
X154800000Y-126319041D01*
X154800000Y-123957106D01*
X154989169Y-123767938D01*
X154995176Y-123798137D01*
X155034751Y-123893681D01*
X155092206Y-123979668D01*
X155165332Y-124052794D01*
X155251319Y-124110249D01*
X155346863Y-124149824D01*
X155448292Y-124170000D01*
X155551708Y-124170000D01*
X155653137Y-124149824D01*
X155748681Y-124110249D01*
X155834668Y-124052794D01*
X155907794Y-123979668D01*
X155965249Y-123893681D01*
X156004824Y-123798137D01*
X156025000Y-123696708D01*
X156025000Y-123593292D01*
X156004824Y-123491863D01*
X155965249Y-123396319D01*
X155907794Y-123310332D01*
X155847462Y-123250000D01*
X155907794Y-123189668D01*
X155965249Y-123103681D01*
X156004824Y-123008137D01*
X156025000Y-122906708D01*
X156025000Y-122803292D01*
X156004824Y-122701863D01*
X155965249Y-122606319D01*
X155907794Y-122520332D01*
X155834668Y-122447206D01*
X155748681Y-122389751D01*
X155653137Y-122350176D01*
X155551708Y-122330000D01*
X155448292Y-122330000D01*
X155346863Y-122350176D01*
X155251319Y-122389751D01*
X155165332Y-122447206D01*
X155092206Y-122520332D01*
X155034751Y-122606319D01*
X154995176Y-122701863D01*
X154985601Y-122750000D01*
X154738832Y-122750000D01*
X154723369Y-122748477D01*
X154707906Y-122750000D01*
X154707897Y-122750000D01*
X154661619Y-122754558D01*
X154602242Y-122772570D01*
X154576768Y-122786186D01*
X154547518Y-122801820D01*
X154513540Y-122829706D01*
X154499554Y-122841184D01*
X154489691Y-122853202D01*
X153903203Y-123439691D01*
X153891185Y-123449554D01*
X153881322Y-123461572D01*
X153881321Y-123461573D01*
X153851820Y-123497519D01*
X153823769Y-123550000D01*
X153822571Y-123552242D01*
X153804559Y-123611619D01*
X153802279Y-123634770D01*
X153798477Y-123673370D01*
X153800001Y-123688843D01*
X153800000Y-126980904D01*
X153776821Y-127009147D01*
X153748551Y-127062039D01*
X153747572Y-127063870D01*
X153729560Y-127123247D01*
X153726079Y-127158586D01*
X153723478Y-127184998D01*
X153725002Y-127200470D01*
X153725001Y-127578725D01*
X153688203Y-127615523D01*
X153676185Y-127625386D01*
X153666322Y-127637404D01*
X153666321Y-127637405D01*
X153636820Y-127673351D01*
X153636520Y-127673912D01*
X153600000Y-127673912D01*
X153588953Y-127675000D01*
X153411057Y-127675000D01*
X153400000Y-127673911D01*
X153331250Y-127675000D01*
X152868750Y-127675000D01*
X152800000Y-127673911D01*
X152788943Y-127675000D01*
X152611047Y-127675000D01*
X152600000Y-127673912D01*
X152000000Y-127673912D01*
X151988953Y-127675000D01*
X151811047Y-127675000D01*
X151800000Y-127673912D01*
X151200000Y-127673912D01*
X151188953Y-127675000D01*
X151011047Y-127675000D01*
X151000000Y-127673912D01*
X150400000Y-127673912D01*
X150388953Y-127675000D01*
X150211057Y-127675000D01*
X150200000Y-127673911D01*
X150131250Y-127675000D01*
X149675000Y-127675000D01*
X149675000Y-126450000D01*
X149669716Y-126396350D01*
X149654067Y-126344762D01*
X149628654Y-126297218D01*
X149594454Y-126255546D01*
X149552782Y-126221346D01*
X149505238Y-126195933D01*
X149453650Y-126180284D01*
X149400000Y-126175000D01*
X148800000Y-126175000D01*
X148800000Y-118948292D01*
X159275000Y-118948292D01*
X159275000Y-119051708D01*
X159295176Y-119153137D01*
X159334751Y-119248681D01*
X159392206Y-119334668D01*
X159465332Y-119407794D01*
X159551319Y-119465249D01*
X159646863Y-119504824D01*
X159748292Y-119525000D01*
X159789579Y-119525000D01*
X159795176Y-119553137D01*
X159834751Y-119648681D01*
X159892206Y-119734668D01*
X159965332Y-119807794D01*
X160051319Y-119865249D01*
X160146863Y-119904824D01*
X160248292Y-119925000D01*
X160351708Y-119925000D01*
X160453137Y-119904824D01*
X160548681Y-119865249D01*
X160634668Y-119807794D01*
X160707794Y-119734668D01*
X160765249Y-119648681D01*
X160804824Y-119553137D01*
X160825000Y-119451708D01*
X160825000Y-119348292D01*
X160804824Y-119246863D01*
X160765249Y-119151319D01*
X160707794Y-119065332D01*
X160642462Y-119000000D01*
X160707794Y-118934668D01*
X160765249Y-118848681D01*
X160804824Y-118753137D01*
X160825000Y-118651708D01*
X160825000Y-118548292D01*
X160804824Y-118446863D01*
X160765249Y-118351319D01*
X160707794Y-118265332D01*
X160634668Y-118192206D01*
X160548681Y-118134751D01*
X160453137Y-118095176D01*
X160351708Y-118075000D01*
X160248292Y-118075000D01*
X160146863Y-118095176D01*
X160051319Y-118134751D01*
X159965332Y-118192206D01*
X159892206Y-118265332D01*
X159834751Y-118351319D01*
X159795176Y-118446863D01*
X159789579Y-118475000D01*
X159748292Y-118475000D01*
X159646863Y-118495176D01*
X159551319Y-118534751D01*
X159465332Y-118592206D01*
X159392206Y-118665332D01*
X159334751Y-118751319D01*
X159295176Y-118846863D01*
X159275000Y-118948292D01*
X148800000Y-118948292D01*
X148800000Y-118014722D01*
X148801450Y-117999999D01*
X148800000Y-117985276D01*
X148800000Y-117985267D01*
X148796359Y-117948292D01*
X150975000Y-117948292D01*
X150975000Y-118051708D01*
X150995176Y-118153137D01*
X151034751Y-118248681D01*
X151092206Y-118334668D01*
X151165332Y-118407794D01*
X151251319Y-118465249D01*
X151346863Y-118504824D01*
X151448292Y-118525000D01*
X151551708Y-118525000D01*
X151653137Y-118504824D01*
X151748681Y-118465249D01*
X151834668Y-118407794D01*
X151907794Y-118334668D01*
X151965249Y-118248681D01*
X152000000Y-118164783D01*
X152034751Y-118248681D01*
X152092206Y-118334668D01*
X152165332Y-118407794D01*
X152251319Y-118465249D01*
X152346863Y-118504824D01*
X152448292Y-118525000D01*
X152551708Y-118525000D01*
X152653137Y-118504824D01*
X152748681Y-118465249D01*
X152834668Y-118407794D01*
X152907794Y-118334668D01*
X152965249Y-118248681D01*
X153000000Y-118164783D01*
X153034751Y-118248681D01*
X153092206Y-118334668D01*
X153165332Y-118407794D01*
X153251319Y-118465249D01*
X153346863Y-118504824D01*
X153448292Y-118525000D01*
X153551708Y-118525000D01*
X153653137Y-118504824D01*
X153748681Y-118465249D01*
X153834668Y-118407794D01*
X153907794Y-118334668D01*
X153965249Y-118248681D01*
X154000000Y-118164783D01*
X154034751Y-118248681D01*
X154092206Y-118334668D01*
X154165332Y-118407794D01*
X154251319Y-118465249D01*
X154346863Y-118504824D01*
X154448292Y-118525000D01*
X154551708Y-118525000D01*
X154653137Y-118504824D01*
X154748681Y-118465249D01*
X154834668Y-118407794D01*
X154907794Y-118334668D01*
X154965249Y-118248681D01*
X155000000Y-118164783D01*
X155034751Y-118248681D01*
X155092206Y-118334668D01*
X155165332Y-118407794D01*
X155251319Y-118465249D01*
X155346863Y-118504824D01*
X155448292Y-118525000D01*
X155551708Y-118525000D01*
X155653137Y-118504824D01*
X155748681Y-118465249D01*
X155834668Y-118407794D01*
X155907794Y-118334668D01*
X155965249Y-118248681D01*
X156004824Y-118153137D01*
X156025000Y-118051708D01*
X156025000Y-117948292D01*
X156004824Y-117846863D01*
X155965249Y-117751319D01*
X155907794Y-117665332D01*
X155834668Y-117592206D01*
X155748681Y-117534751D01*
X155653137Y-117495176D01*
X155551708Y-117475000D01*
X155448292Y-117475000D01*
X155346863Y-117495176D01*
X155251319Y-117534751D01*
X155165332Y-117592206D01*
X155092206Y-117665332D01*
X155034751Y-117751319D01*
X155000000Y-117835217D01*
X154965249Y-117751319D01*
X154907794Y-117665332D01*
X154834668Y-117592206D01*
X154748681Y-117534751D01*
X154653137Y-117495176D01*
X154551708Y-117475000D01*
X154448292Y-117475000D01*
X154346863Y-117495176D01*
X154251319Y-117534751D01*
X154165332Y-117592206D01*
X154092206Y-117665332D01*
X154034751Y-117751319D01*
X154000000Y-117835217D01*
X153965249Y-117751319D01*
X153907794Y-117665332D01*
X153834668Y-117592206D01*
X153748681Y-117534751D01*
X153653137Y-117495176D01*
X153551708Y-117475000D01*
X153448292Y-117475000D01*
X153346863Y-117495176D01*
X153251319Y-117534751D01*
X153165332Y-117592206D01*
X153092206Y-117665332D01*
X153034751Y-117751319D01*
X153000000Y-117835217D01*
X152965249Y-117751319D01*
X152907794Y-117665332D01*
X152834668Y-117592206D01*
X152748681Y-117534751D01*
X152653137Y-117495176D01*
X152551708Y-117475000D01*
X152448292Y-117475000D01*
X152346863Y-117495176D01*
X152251319Y-117534751D01*
X152165332Y-117592206D01*
X152092206Y-117665332D01*
X152034751Y-117751319D01*
X152000000Y-117835217D01*
X151965249Y-117751319D01*
X151907794Y-117665332D01*
X151834668Y-117592206D01*
X151748681Y-117534751D01*
X151653137Y-117495176D01*
X151551708Y-117475000D01*
X151448292Y-117475000D01*
X151346863Y-117495176D01*
X151251319Y-117534751D01*
X151165332Y-117592206D01*
X151092206Y-117665332D01*
X151034751Y-117751319D01*
X150995176Y-117846863D01*
X150975000Y-117948292D01*
X148796359Y-117948292D01*
X148795659Y-117941190D01*
X148778504Y-117884640D01*
X148758312Y-117846863D01*
X148750647Y-117832522D01*
X148722549Y-117798285D01*
X148713158Y-117786842D01*
X148701715Y-117777451D01*
X148538097Y-117613834D01*
X148546232Y-117572940D01*
X148546232Y-117469524D01*
X148526056Y-117368095D01*
X148486481Y-117272551D01*
X148429026Y-117186564D01*
X148355900Y-117113438D01*
X148269913Y-117055983D01*
X148198047Y-117026216D01*
X151424264Y-113800000D01*
X162059541Y-113800000D01*
X162074264Y-113801450D01*
X162088987Y-113800000D01*
X162088997Y-113800000D01*
X162133074Y-113795659D01*
X162189624Y-113778504D01*
X162241741Y-113750647D01*
X162287422Y-113713158D01*
X162296817Y-113701710D01*
X162851715Y-113146813D01*
X162863158Y-113137422D01*
X162881264Y-113115360D01*
X162900647Y-113091742D01*
X162928504Y-113039624D01*
X162932940Y-113025000D01*
X162945659Y-112983074D01*
X162950000Y-112938997D01*
X162950000Y-112938994D01*
X162950847Y-112930392D01*
X162984668Y-112907794D01*
X163057794Y-112834668D01*
X163115249Y-112748681D01*
X163154824Y-112653137D01*
X163175000Y-112551708D01*
X163175000Y-112448292D01*
X163154824Y-112346863D01*
X163115249Y-112251319D01*
X163057794Y-112165332D01*
X162984668Y-112092206D01*
X162898681Y-112034751D01*
X162803137Y-111995176D01*
X162719907Y-111978620D01*
X162851716Y-111846812D01*
X162863158Y-111837422D01*
X162895276Y-111798286D01*
X162900647Y-111791742D01*
X162922253Y-111751319D01*
X162928504Y-111739624D01*
X162945659Y-111683074D01*
X162950000Y-111638997D01*
X162950000Y-111638987D01*
X162950846Y-111630393D01*
X162984668Y-111607794D01*
X163057794Y-111534668D01*
X163115249Y-111448681D01*
X163154824Y-111353137D01*
X163175000Y-111251708D01*
X163175000Y-111148292D01*
X163154824Y-111046863D01*
X163115249Y-110951319D01*
X163057794Y-110865332D01*
X162984668Y-110792206D01*
X162898681Y-110734751D01*
X162803137Y-110695176D01*
X162701708Y-110675000D01*
X162598292Y-110675000D01*
X162496863Y-110695176D01*
X162401319Y-110734751D01*
X162315332Y-110792206D01*
X162242206Y-110865332D01*
X162184751Y-110951319D01*
X162145176Y-111046863D01*
X162125000Y-111148292D01*
X162125000Y-111251708D01*
X162145176Y-111353137D01*
X162184751Y-111448681D01*
X162242206Y-111534668D01*
X162278769Y-111571231D01*
X162150001Y-111700000D01*
X158046916Y-111700000D01*
X158040359Y-111696495D01*
X157983809Y-111679340D01*
X157939732Y-111674999D01*
X157939722Y-111674999D01*
X157924999Y-111673549D01*
X157910276Y-111674999D01*
X147039731Y-111674999D01*
X147025001Y-111673548D01*
X147010271Y-111674999D01*
X147010268Y-111674999D01*
X146966191Y-111679340D01*
X146922802Y-111692502D01*
X146909640Y-111696495D01*
X146857523Y-111724352D01*
X146827060Y-111749353D01*
X146811843Y-111761841D01*
X146802452Y-111773284D01*
X141295598Y-117280139D01*
X141284064Y-117289621D01*
X141265598Y-117312162D01*
X141246759Y-117335117D01*
X141246696Y-117335236D01*
X141246615Y-117335334D01*
X141233032Y-117360800D01*
X141218903Y-117387234D01*
X141218865Y-117387360D01*
X141218803Y-117387476D01*
X141210262Y-117415719D01*
X141201748Y-117443784D01*
X141201735Y-117443914D01*
X141201697Y-117444040D01*
X141198807Y-117473650D01*
X141195956Y-117502594D01*
X141197419Y-117517453D01*
X141199627Y-120069290D01*
X141165332Y-120092206D01*
X141092206Y-120165332D01*
X141034751Y-120251319D01*
X141000000Y-120335217D01*
X140965249Y-120251319D01*
X140907794Y-120165332D01*
X140834668Y-120092206D01*
X140800000Y-120069041D01*
X140800000Y-117174263D01*
X148025971Y-109948292D01*
X162125000Y-109948292D01*
X162125000Y-110051708D01*
X162145176Y-110153137D01*
X162184751Y-110248681D01*
X162242206Y-110334668D01*
X162315332Y-110407794D01*
X162401319Y-110465249D01*
X162496863Y-110504824D01*
X162598292Y-110525000D01*
X162701708Y-110525000D01*
X162803137Y-110504824D01*
X162898681Y-110465249D01*
X162984668Y-110407794D01*
X163057794Y-110334668D01*
X163115249Y-110248681D01*
X163154824Y-110153137D01*
X163175000Y-110051708D01*
X163175000Y-109948292D01*
X163154824Y-109846863D01*
X163115249Y-109751319D01*
X163057794Y-109665332D01*
X162984668Y-109592206D01*
X162898681Y-109534751D01*
X162803137Y-109495176D01*
X162701708Y-109475000D01*
X162598292Y-109475000D01*
X162496863Y-109495176D01*
X162401319Y-109534751D01*
X162315332Y-109592206D01*
X162242206Y-109665332D01*
X162184751Y-109751319D01*
X162145176Y-109846863D01*
X162125000Y-109948292D01*
X148025971Y-109948292D01*
X150674264Y-107300000D01*
X162259541Y-107300000D01*
X162274264Y-107301450D01*
X162288987Y-107300000D01*
X162288997Y-107300000D01*
X162333074Y-107295659D01*
X162389624Y-107278504D01*
X162441741Y-107250647D01*
X162487422Y-107213158D01*
X162496817Y-107201710D01*
X162851716Y-106846812D01*
X162863158Y-106837422D01*
X162895276Y-106798286D01*
X162900647Y-106791742D01*
X162915536Y-106763885D01*
X162928504Y-106739624D01*
X162945659Y-106683074D01*
X162950000Y-106638997D01*
X162950000Y-106638987D01*
X162950846Y-106630393D01*
X162984668Y-106607794D01*
X163057794Y-106534668D01*
X163115249Y-106448681D01*
X163154824Y-106353137D01*
X163175000Y-106251708D01*
X163175000Y-106148292D01*
X163154824Y-106046863D01*
X163115249Y-105951319D01*
X163057794Y-105865332D01*
X162984668Y-105792206D01*
X162898681Y-105734751D01*
X162803137Y-105695176D01*
X162701708Y-105675000D01*
X162598292Y-105675000D01*
X162496863Y-105695176D01*
X162401319Y-105734751D01*
X162315332Y-105792206D01*
X162242206Y-105865332D01*
X162184751Y-105951319D01*
X162145176Y-106046863D01*
X162125000Y-106148292D01*
X162125000Y-106251708D01*
X162145176Y-106353137D01*
X162184751Y-106448681D01*
X162242206Y-106534668D01*
X162278769Y-106571231D01*
X162150001Y-106700000D01*
X150564722Y-106700000D01*
X150549999Y-106698550D01*
X150535276Y-106700000D01*
X150535267Y-106700000D01*
X150491190Y-106704341D01*
X150434640Y-106721496D01*
X150410379Y-106734464D01*
X150382522Y-106749353D01*
X150348285Y-106777451D01*
X150336842Y-106786842D01*
X150327451Y-106798285D01*
X140298286Y-116827451D01*
X140286843Y-116836842D01*
X140277452Y-116848285D01*
X140277451Y-116848286D01*
X140249353Y-116882523D01*
X140221497Y-116934640D01*
X140204342Y-116991190D01*
X140198550Y-117050000D01*
X140200001Y-117064733D01*
X140200000Y-120069041D01*
X140165332Y-120092206D01*
X140092206Y-120165332D01*
X140034751Y-120251319D01*
X139995176Y-120346863D01*
X139975000Y-120448292D01*
X139975000Y-120551708D01*
X139995176Y-120653137D01*
X140034751Y-120748681D01*
X140092206Y-120834668D01*
X140165332Y-120907794D01*
X140251319Y-120965249D01*
X140346863Y-121004824D01*
X140448292Y-121025000D01*
X140551708Y-121025000D01*
X140653137Y-121004824D01*
X140748681Y-120965249D01*
X140834668Y-120907794D01*
X140907794Y-120834668D01*
X140965249Y-120748681D01*
X141000000Y-120664783D01*
X141034751Y-120748681D01*
X141092206Y-120834668D01*
X141165332Y-120907794D01*
X141251319Y-120965249D01*
X141346863Y-121004824D01*
X141448292Y-121025000D01*
X141551708Y-121025000D01*
X141653137Y-121004824D01*
X141748681Y-120965249D01*
X141834668Y-120907794D01*
X141907794Y-120834668D01*
X141965249Y-120748681D01*
X142004824Y-120653137D01*
X142025000Y-120551708D01*
X142025000Y-120448292D01*
X142004824Y-120346863D01*
X141965249Y-120251319D01*
X141907794Y-120165332D01*
X141834668Y-120092206D01*
X141799626Y-120068792D01*
X141797513Y-117626750D01*
X147149265Y-112274999D01*
X157828083Y-112274999D01*
X157834640Y-112278504D01*
X157891190Y-112295659D01*
X157935267Y-112300000D01*
X157935270Y-112300000D01*
X157950000Y-112301451D01*
X157964730Y-112300000D01*
X162164587Y-112300000D01*
X162145176Y-112346863D01*
X162125000Y-112448292D01*
X162125000Y-112551708D01*
X162145176Y-112653137D01*
X162184751Y-112748681D01*
X162242206Y-112834668D01*
X162278769Y-112871231D01*
X161950001Y-113200000D01*
X151314722Y-113200000D01*
X151299999Y-113198550D01*
X151285276Y-113200000D01*
X151285267Y-113200000D01*
X151241190Y-113204341D01*
X151184640Y-113221496D01*
X151176747Y-113225715D01*
X151132522Y-113249353D01*
X151101272Y-113275000D01*
X151086842Y-113286842D01*
X151077451Y-113298285D01*
X147098290Y-117277447D01*
X147086842Y-117286842D01*
X147077125Y-117298683D01*
X147049353Y-117332523D01*
X147042332Y-117345659D01*
X147021496Y-117384641D01*
X147004341Y-117441191D01*
X147000000Y-117485268D01*
X147000000Y-117485277D01*
X146998550Y-117500000D01*
X147000000Y-117514723D01*
X147000000Y-120207538D01*
X146934668Y-120142206D01*
X146848681Y-120084751D01*
X146753137Y-120045176D01*
X146651708Y-120025000D01*
X146548292Y-120025000D01*
X146446863Y-120045176D01*
X146351319Y-120084751D01*
X146265332Y-120142206D01*
X146192206Y-120215332D01*
X146134751Y-120301319D01*
X146095176Y-120396863D01*
X146075000Y-120498292D01*
X146075000Y-120601708D01*
X146095176Y-120703137D01*
X146134751Y-120798681D01*
X146192206Y-120884668D01*
X146265332Y-120957794D01*
X146351319Y-121015249D01*
X146446863Y-121054824D01*
X146548292Y-121075000D01*
X146651708Y-121075000D01*
X146753137Y-121054824D01*
X146848681Y-121015249D01*
X146934668Y-120957794D01*
X147000000Y-120892462D01*
X147000001Y-127612269D01*
X146998550Y-127627002D01*
X147003201Y-127674226D01*
X147000000Y-127673911D01*
X146931250Y-127675000D01*
X146468750Y-127675000D01*
X146400000Y-127673911D01*
X146388943Y-127675000D01*
X145630000Y-127675000D01*
X145630000Y-127188710D01*
X145629003Y-127178591D01*
X145629036Y-127173917D01*
X145628722Y-127170721D01*
X145613421Y-127025149D01*
X145609236Y-127004762D01*
X145605324Y-126984253D01*
X145604395Y-126981180D01*
X145604395Y-126981178D01*
X145604393Y-126981172D01*
X145561111Y-126841351D01*
X145553034Y-126822134D01*
X145545224Y-126802804D01*
X145543716Y-126799969D01*
X145474097Y-126671212D01*
X145462444Y-126653935D01*
X145451026Y-126636486D01*
X145449000Y-126634003D01*
X145448996Y-126633997D01*
X145448991Y-126633992D01*
X145355694Y-126521215D01*
X145340931Y-126506555D01*
X145326317Y-126491631D01*
X145323843Y-126489585D01*
X145210411Y-126397072D01*
X145193072Y-126385552D01*
X145175848Y-126373758D01*
X145173023Y-126372231D01*
X145043782Y-126303512D01*
X145024496Y-126295563D01*
X145005347Y-126287355D01*
X145002287Y-126286408D01*
X145002281Y-126286406D01*
X145002275Y-126286405D01*
X144862152Y-126244100D01*
X144841713Y-126240053D01*
X144821315Y-126235717D01*
X144818127Y-126235383D01*
X144818119Y-126235381D01*
X144818111Y-126235381D01*
X144672445Y-126221098D01*
X144662408Y-126221098D01*
X144652420Y-126220012D01*
X144649209Y-126220001D01*
X144643973Y-126220019D01*
X144633972Y-126221034D01*
X144623917Y-126220964D01*
X144620721Y-126221278D01*
X144475149Y-126236579D01*
X144454762Y-126240764D01*
X144434253Y-126244676D01*
X144431184Y-126245604D01*
X144431178Y-126245605D01*
X144431172Y-126245607D01*
X144291351Y-126288889D01*
X144272134Y-126296966D01*
X144252804Y-126304776D01*
X144249974Y-126306281D01*
X144249970Y-126306283D01*
X144249969Y-126306284D01*
X144121212Y-126375903D01*
X144103935Y-126387556D01*
X144086486Y-126398974D01*
X144084003Y-126401000D01*
X144083997Y-126401004D01*
X144083992Y-126401009D01*
X143971215Y-126494306D01*
X143956555Y-126509069D01*
X143941631Y-126523683D01*
X143939585Y-126526157D01*
X143847072Y-126639589D01*
X143835552Y-126656928D01*
X143823758Y-126674152D01*
X143822231Y-126676977D01*
X143753512Y-126806218D01*
X143745563Y-126825504D01*
X143737355Y-126844653D01*
X143736408Y-126847713D01*
X143736406Y-126847719D01*
X143736406Y-126847721D01*
X143694100Y-126987848D01*
X143690053Y-127008287D01*
X143685717Y-127028685D01*
X143685383Y-127031873D01*
X143685381Y-127031881D01*
X143685381Y-127031889D01*
X143671098Y-127177555D01*
X143671098Y-127177573D01*
X143670001Y-127188710D01*
X143670001Y-127675000D01*
X143011047Y-127675000D01*
X143000000Y-127673912D01*
X142400000Y-127673912D01*
X142388953Y-127675000D01*
X142211047Y-127675000D01*
X142200000Y-127673912D01*
X141600000Y-127673912D01*
X141588953Y-127675000D01*
X141411047Y-127675000D01*
X141400000Y-127673912D01*
X140800000Y-127673912D01*
X140788953Y-127675000D01*
X140611047Y-127675000D01*
X140600000Y-127673912D01*
X140000000Y-127673912D01*
X139988953Y-127675000D01*
X139811047Y-127675000D01*
X139800000Y-127673912D01*
X139200000Y-127673912D01*
X139188953Y-127675000D01*
X139011047Y-127675000D01*
X139000000Y-127673912D01*
X138400000Y-127673912D01*
X138388953Y-127675000D01*
X138211057Y-127675000D01*
X138200000Y-127673911D01*
X138131250Y-127675000D01*
X137675000Y-127675000D01*
X137675000Y-126450000D01*
X137669716Y-126396350D01*
X137654067Y-126344762D01*
X137628654Y-126297218D01*
X137594454Y-126255546D01*
X137552782Y-126221346D01*
X137505238Y-126195933D01*
X137453650Y-126180284D01*
X137400000Y-126175000D01*
X136800000Y-126175000D01*
X136746350Y-126180284D01*
X136694762Y-126195933D01*
X136647218Y-126221346D01*
X136605546Y-126255546D01*
X136571346Y-126297218D01*
X136545933Y-126344762D01*
X136530284Y-126396350D01*
X136525000Y-126450000D01*
X136525000Y-127675000D01*
X135808141Y-127675000D01*
X135807205Y-127671976D01*
X135799132Y-127652771D01*
X135791318Y-127633429D01*
X135789810Y-127630594D01*
X135789810Y-127630593D01*
X135789809Y-127630592D01*
X135715549Y-127493252D01*
X135703894Y-127475973D01*
X135692478Y-127458527D01*
X135690448Y-127456038D01*
X135590925Y-127335736D01*
X135576162Y-127321076D01*
X135561548Y-127306152D01*
X135559073Y-127304105D01*
X135438079Y-127205426D01*
X135420774Y-127193928D01*
X135403517Y-127182112D01*
X135400692Y-127180585D01*
X135262835Y-127107285D01*
X135243542Y-127099333D01*
X135224401Y-127091129D01*
X135221337Y-127090180D01*
X135221331Y-127090178D01*
X135071864Y-127045052D01*
X135051396Y-127040999D01*
X135031025Y-127036669D01*
X135027842Y-127036335D01*
X135027831Y-127036333D01*
X135027821Y-127036333D01*
X134872444Y-127021098D01*
X134872438Y-127021098D01*
X134861290Y-127020000D01*
X133730000Y-127020000D01*
X133730000Y-112550000D01*
X134198550Y-112550000D01*
X134200000Y-112564723D01*
X134200001Y-114985267D01*
X134198550Y-115000000D01*
X134204342Y-115058810D01*
X134221497Y-115115360D01*
X134249353Y-115167477D01*
X134277451Y-115201714D01*
X134286843Y-115213158D01*
X134298285Y-115222548D01*
X135000001Y-115924265D01*
X134999999Y-121970038D01*
X134948292Y-121970038D01*
X134846863Y-121990214D01*
X134751319Y-122029789D01*
X134665332Y-122087244D01*
X134592206Y-122160370D01*
X134534751Y-122246357D01*
X134495176Y-122341901D01*
X134475000Y-122443330D01*
X134475000Y-122546746D01*
X134495176Y-122648175D01*
X134534751Y-122743719D01*
X134592206Y-122829706D01*
X134665332Y-122902832D01*
X134751319Y-122960287D01*
X134846863Y-122999862D01*
X134948292Y-123020038D01*
X135051708Y-123020038D01*
X135153137Y-122999862D01*
X135248681Y-122960287D01*
X135334668Y-122902832D01*
X135407794Y-122829706D01*
X135465249Y-122743719D01*
X135504824Y-122648175D01*
X135525000Y-122546746D01*
X135525000Y-122443330D01*
X135517064Y-122403435D01*
X135522542Y-122396760D01*
X135522549Y-122396753D01*
X135550646Y-122362517D01*
X135578503Y-122310399D01*
X135595657Y-122253849D01*
X135601450Y-122195039D01*
X135599998Y-122180299D01*
X135600000Y-115814731D01*
X135601451Y-115800000D01*
X135599052Y-115775647D01*
X135595659Y-115741191D01*
X135586489Y-115710964D01*
X135578504Y-115684639D01*
X135550647Y-115632522D01*
X135522549Y-115598285D01*
X135522544Y-115598280D01*
X135513158Y-115586843D01*
X135501721Y-115577457D01*
X134800000Y-114875737D01*
X134800000Y-113000000D01*
X135198550Y-113000000D01*
X135200000Y-113014723D01*
X135200001Y-115035267D01*
X135198550Y-115050000D01*
X135204342Y-115108810D01*
X135221497Y-115165360D01*
X135249353Y-115217477D01*
X135277451Y-115251714D01*
X135286843Y-115263158D01*
X135298285Y-115272548D01*
X135675000Y-115649264D01*
X135675001Y-122594041D01*
X135640332Y-122617206D01*
X135567206Y-122690332D01*
X135509751Y-122776319D01*
X135470176Y-122871863D01*
X135450000Y-122973292D01*
X135450000Y-123076708D01*
X135470176Y-123178137D01*
X135509751Y-123273681D01*
X135567206Y-123359668D01*
X135640332Y-123432794D01*
X135726319Y-123490249D01*
X135821863Y-123529824D01*
X135923292Y-123550000D01*
X136026708Y-123550000D01*
X136128137Y-123529824D01*
X136223681Y-123490249D01*
X136309668Y-123432794D01*
X136382794Y-123359668D01*
X136440249Y-123273681D01*
X136479824Y-123178137D01*
X136500000Y-123076708D01*
X136500000Y-122973292D01*
X136479824Y-122871863D01*
X136440249Y-122776319D01*
X136382794Y-122690332D01*
X136309668Y-122617206D01*
X136275000Y-122594041D01*
X136275000Y-115539722D01*
X136276450Y-115524999D01*
X136275000Y-115510276D01*
X136275000Y-115510267D01*
X136270659Y-115466190D01*
X136253504Y-115409640D01*
X136225648Y-115357524D01*
X136225647Y-115357522D01*
X136197549Y-115323285D01*
X136188158Y-115311842D01*
X136176716Y-115302452D01*
X135800000Y-114925737D01*
X135800000Y-113748292D01*
X135925000Y-113748292D01*
X135925000Y-113851708D01*
X135945176Y-113953137D01*
X135984751Y-114048681D01*
X136042206Y-114134668D01*
X136115332Y-114207794D01*
X136201319Y-114265249D01*
X136296863Y-114304824D01*
X136398292Y-114325000D01*
X136501708Y-114325000D01*
X136603137Y-114304824D01*
X136698681Y-114265249D01*
X136784668Y-114207794D01*
X136821231Y-114171231D01*
X137200000Y-114550000D01*
X137200001Y-124935267D01*
X137198550Y-124950000D01*
X137204342Y-125008810D01*
X137221497Y-125065360D01*
X137249353Y-125117477D01*
X137277451Y-125151714D01*
X137286843Y-125163158D01*
X137298285Y-125172548D01*
X137483135Y-125357398D01*
X137475000Y-125398292D01*
X137475000Y-125501708D01*
X137495176Y-125603137D01*
X137534751Y-125698681D01*
X137592206Y-125784668D01*
X137665332Y-125857794D01*
X137751319Y-125915249D01*
X137846863Y-125954824D01*
X137948292Y-125975000D01*
X138051708Y-125975000D01*
X138153137Y-125954824D01*
X138248681Y-125915249D01*
X138334668Y-125857794D01*
X138407794Y-125784668D01*
X138465249Y-125698681D01*
X138504824Y-125603137D01*
X138525000Y-125501708D01*
X138525000Y-125398292D01*
X138504824Y-125296863D01*
X138465249Y-125201319D01*
X138407794Y-125115332D01*
X138334668Y-125042206D01*
X138248681Y-124984751D01*
X138153137Y-124945176D01*
X138051708Y-124925000D01*
X137948292Y-124925000D01*
X137907398Y-124933135D01*
X137800000Y-124825737D01*
X137800000Y-124448292D01*
X138525000Y-124448292D01*
X138525000Y-124551708D01*
X138545176Y-124653137D01*
X138584751Y-124748681D01*
X138642206Y-124834668D01*
X138715332Y-124907794D01*
X138801319Y-124965249D01*
X138896863Y-125004824D01*
X138998292Y-125025000D01*
X139101708Y-125025000D01*
X139203137Y-125004824D01*
X139298681Y-124965249D01*
X139384668Y-124907794D01*
X139457794Y-124834668D01*
X139515249Y-124748681D01*
X139554824Y-124653137D01*
X139575000Y-124551708D01*
X139575000Y-124448292D01*
X139554824Y-124346863D01*
X139525000Y-124274860D01*
X139525000Y-120596750D01*
X139676677Y-120445074D01*
X139748681Y-120415249D01*
X139834668Y-120357794D01*
X139907794Y-120284668D01*
X139965249Y-120198681D01*
X140004824Y-120103137D01*
X140025000Y-120001708D01*
X140025000Y-119898292D01*
X140004824Y-119796863D01*
X139965249Y-119701319D01*
X139907794Y-119615332D01*
X139834668Y-119542206D01*
X139748681Y-119484751D01*
X139653137Y-119445176D01*
X139551708Y-119425000D01*
X139448292Y-119425000D01*
X139346863Y-119445176D01*
X139251319Y-119484751D01*
X139165332Y-119542206D01*
X139092206Y-119615332D01*
X139034751Y-119701319D01*
X139004926Y-119773323D01*
X138730629Y-120047621D01*
X138712500Y-120062499D01*
X138653142Y-120134827D01*
X138609035Y-120217346D01*
X138581873Y-120306884D01*
X138572702Y-120400000D01*
X138575001Y-120423342D01*
X138575000Y-124052404D01*
X138575000Y-124274860D01*
X138545176Y-124346863D01*
X138525000Y-124448292D01*
X137800000Y-124448292D01*
X137800000Y-114440458D01*
X137801450Y-114425735D01*
X137800000Y-114411012D01*
X137800000Y-114411003D01*
X137795659Y-114366926D01*
X137778504Y-114310376D01*
X137765536Y-114286115D01*
X137750647Y-114258258D01*
X137722549Y-114224021D01*
X137713158Y-114212578D01*
X137701716Y-114203188D01*
X137096817Y-113598290D01*
X137087422Y-113586842D01*
X137041741Y-113549353D01*
X136989624Y-113521496D01*
X136933074Y-113504341D01*
X136888997Y-113500000D01*
X136888987Y-113500000D01*
X136880393Y-113499154D01*
X136857794Y-113465332D01*
X136784668Y-113392206D01*
X136698681Y-113334751D01*
X136603137Y-113295176D01*
X136501708Y-113275000D01*
X136398292Y-113275000D01*
X136296863Y-113295176D01*
X136201319Y-113334751D01*
X136115332Y-113392206D01*
X136042206Y-113465332D01*
X135984751Y-113551319D01*
X135945176Y-113646863D01*
X135925000Y-113748292D01*
X135800000Y-113748292D01*
X135800000Y-113124263D01*
X136065901Y-112858363D01*
X136115332Y-112907794D01*
X136201319Y-112965249D01*
X136296863Y-113004824D01*
X136398292Y-113025000D01*
X136501708Y-113025000D01*
X136603137Y-113004824D01*
X136698681Y-112965249D01*
X136784668Y-112907794D01*
X136857794Y-112834668D01*
X136915249Y-112748681D01*
X136954824Y-112653137D01*
X136975000Y-112551708D01*
X136975000Y-112448292D01*
X136954824Y-112346863D01*
X136915249Y-112251319D01*
X136857794Y-112165332D01*
X136784668Y-112092206D01*
X136698681Y-112034751D01*
X136603137Y-111995176D01*
X136501708Y-111975000D01*
X136398292Y-111975000D01*
X136296863Y-111995176D01*
X136201319Y-112034751D01*
X136115332Y-112092206D01*
X136042206Y-112165332D01*
X136019041Y-112200000D01*
X136014730Y-112200000D01*
X136000000Y-112198549D01*
X135985270Y-112200000D01*
X135985267Y-112200000D01*
X135941190Y-112204341D01*
X135897801Y-112217503D01*
X135884639Y-112221496D01*
X135832522Y-112249353D01*
X135806562Y-112270658D01*
X135786842Y-112286842D01*
X135777451Y-112298285D01*
X135298290Y-112777447D01*
X135286842Y-112786842D01*
X135276044Y-112800000D01*
X135249353Y-112832523D01*
X135239237Y-112851450D01*
X135221496Y-112884641D01*
X135204341Y-112941191D01*
X135200000Y-112985268D01*
X135200000Y-112985277D01*
X135198550Y-113000000D01*
X134800000Y-113000000D01*
X134800000Y-112674263D01*
X134957398Y-112516865D01*
X134998292Y-112525000D01*
X135101708Y-112525000D01*
X135203137Y-112504824D01*
X135298681Y-112465249D01*
X135384668Y-112407794D01*
X135457794Y-112334668D01*
X135515249Y-112248681D01*
X135554824Y-112153137D01*
X135575000Y-112051708D01*
X135575000Y-111948292D01*
X135554824Y-111846863D01*
X135515249Y-111751319D01*
X135457794Y-111665332D01*
X135384668Y-111592206D01*
X135298681Y-111534751D01*
X135203137Y-111495176D01*
X135101708Y-111475000D01*
X134998292Y-111475000D01*
X134896863Y-111495176D01*
X134801319Y-111534751D01*
X134715332Y-111592206D01*
X134642206Y-111665332D01*
X134584751Y-111751319D01*
X134545176Y-111846863D01*
X134525000Y-111948292D01*
X134525000Y-112051708D01*
X134533135Y-112092602D01*
X134298290Y-112327447D01*
X134286842Y-112336842D01*
X134266358Y-112361802D01*
X134249353Y-112382523D01*
X134248221Y-112384641D01*
X134221496Y-112434641D01*
X134204341Y-112491191D01*
X134200000Y-112535268D01*
X134200000Y-112535277D01*
X134198550Y-112550000D01*
X133730000Y-112550000D01*
X133730000Y-108948292D01*
X133975000Y-108948292D01*
X133975000Y-109051708D01*
X133995176Y-109153137D01*
X134034751Y-109248681D01*
X134092206Y-109334668D01*
X134165332Y-109407794D01*
X134199154Y-109430393D01*
X134200000Y-109438987D01*
X134200000Y-109438997D01*
X134202586Y-109465249D01*
X134204342Y-109483074D01*
X134221497Y-109539624D01*
X134249353Y-109591741D01*
X134277451Y-109625978D01*
X134286843Y-109637422D01*
X134298285Y-109646812D01*
X134853186Y-110201714D01*
X134862578Y-110213158D01*
X134874021Y-110222549D01*
X134874022Y-110222550D01*
X134908258Y-110250647D01*
X134960376Y-110278504D01*
X135016926Y-110295659D01*
X135061003Y-110300000D01*
X135061006Y-110300000D01*
X135075736Y-110301451D01*
X135090466Y-110300000D01*
X137925737Y-110300000D01*
X138200000Y-110574264D01*
X138200001Y-117035267D01*
X138198550Y-117050000D01*
X138204342Y-117108810D01*
X138221497Y-117165360D01*
X138249353Y-117217477D01*
X138277451Y-117251714D01*
X138286843Y-117263158D01*
X138298285Y-117272548D01*
X138474549Y-117448813D01*
X138466415Y-117489707D01*
X138466415Y-117593123D01*
X138486591Y-117694552D01*
X138526166Y-117790096D01*
X138583621Y-117876083D01*
X138656747Y-117949209D01*
X138742734Y-118006664D01*
X138838278Y-118046239D01*
X138939707Y-118066415D01*
X139043123Y-118066415D01*
X139144552Y-118046239D01*
X139240096Y-118006664D01*
X139326083Y-117949209D01*
X139399209Y-117876083D01*
X139456664Y-117790096D01*
X139496239Y-117694552D01*
X139516415Y-117593123D01*
X139516415Y-117489707D01*
X139496239Y-117388278D01*
X139456664Y-117292734D01*
X139399209Y-117206747D01*
X139326083Y-117133621D01*
X139240096Y-117076166D01*
X139144552Y-117036591D01*
X139043123Y-117016415D01*
X138939707Y-117016415D01*
X138898813Y-117024549D01*
X138800000Y-116925737D01*
X138800000Y-110464722D01*
X138801450Y-110449999D01*
X138800000Y-110435276D01*
X138800000Y-110435267D01*
X138795659Y-110391190D01*
X138778504Y-110334640D01*
X138759989Y-110300000D01*
X138750647Y-110282522D01*
X138722549Y-110248285D01*
X138713158Y-110236842D01*
X138701716Y-110227452D01*
X138272553Y-109798290D01*
X138263158Y-109786842D01*
X138217477Y-109749353D01*
X138165360Y-109721496D01*
X138108810Y-109704341D01*
X138064733Y-109700000D01*
X138064723Y-109700000D01*
X138050000Y-109698550D01*
X138035277Y-109700000D01*
X135200000Y-109700000D01*
X134871231Y-109371231D01*
X134907794Y-109334668D01*
X134965249Y-109248681D01*
X135000000Y-109164783D01*
X135034751Y-109248681D01*
X135092206Y-109334668D01*
X135165332Y-109407794D01*
X135251319Y-109465249D01*
X135346863Y-109504824D01*
X135448292Y-109525000D01*
X135551708Y-109525000D01*
X135653137Y-109504824D01*
X135748681Y-109465249D01*
X135834668Y-109407794D01*
X135907794Y-109334668D01*
X135965249Y-109248681D01*
X136004824Y-109153137D01*
X136025000Y-109051708D01*
X136025000Y-109008918D01*
X136042206Y-109034668D01*
X136115332Y-109107794D01*
X136201319Y-109165249D01*
X136296863Y-109204824D01*
X136398292Y-109225000D01*
X136501708Y-109225000D01*
X136603137Y-109204824D01*
X136698681Y-109165249D01*
X136784668Y-109107794D01*
X136857794Y-109034668D01*
X136915249Y-108948681D01*
X136954824Y-108853137D01*
X136975000Y-108751708D01*
X136975000Y-108648292D01*
X136966865Y-108607398D01*
X140201717Y-105372547D01*
X140213158Y-105363158D01*
X140222549Y-105351715D01*
X140250647Y-105317478D01*
X140278503Y-105265361D01*
X140278504Y-105265360D01*
X140295659Y-105208810D01*
X140300000Y-105164733D01*
X140300000Y-105164724D01*
X140301450Y-105150001D01*
X140300000Y-105135278D01*
X140300000Y-96624263D01*
X146201717Y-90722547D01*
X146213158Y-90713158D01*
X146222549Y-90701715D01*
X146250647Y-90667478D01*
X146278503Y-90615361D01*
X146278504Y-90615360D01*
X146295659Y-90558810D01*
X146300000Y-90514733D01*
X146300000Y-90514724D01*
X146301450Y-90500001D01*
X146300000Y-90485278D01*
X146300000Y-86430959D01*
X146334668Y-86407794D01*
X146407794Y-86334668D01*
X146465249Y-86248681D01*
X146504824Y-86153137D01*
X146525000Y-86051708D01*
X146525000Y-85948292D01*
X146504824Y-85846863D01*
X146465249Y-85751319D01*
X146407794Y-85665332D01*
X146334668Y-85592206D01*
X146248681Y-85534751D01*
X146153137Y-85495176D01*
X146051708Y-85475000D01*
X145948292Y-85475000D01*
X145846863Y-85495176D01*
X145751319Y-85534751D01*
X145665332Y-85592206D01*
X145592206Y-85665332D01*
X145534751Y-85751319D01*
X145500000Y-85835217D01*
X145465249Y-85751319D01*
X145407794Y-85665332D01*
X145334668Y-85592206D01*
X145248681Y-85534751D01*
X145153137Y-85495176D01*
X145051708Y-85475000D01*
X144948292Y-85475000D01*
X144846863Y-85495176D01*
X144751319Y-85534751D01*
X144665332Y-85592206D01*
X144592206Y-85665332D01*
X144534751Y-85751319D01*
X144500000Y-85835217D01*
X144465249Y-85751319D01*
X144407794Y-85665332D01*
X144334668Y-85592206D01*
X144248681Y-85534751D01*
X144153137Y-85495176D01*
X144051708Y-85475000D01*
X143948292Y-85475000D01*
X143846863Y-85495176D01*
X143751319Y-85534751D01*
X143665332Y-85592206D01*
X143592206Y-85665332D01*
X143534751Y-85751319D01*
X143500000Y-85835217D01*
X143465249Y-85751319D01*
X143407794Y-85665332D01*
X143334668Y-85592206D01*
X143248681Y-85534751D01*
X143153137Y-85495176D01*
X143051708Y-85475000D01*
X142948292Y-85475000D01*
X142846863Y-85495176D01*
X142751319Y-85534751D01*
X142665332Y-85592206D01*
X142592206Y-85665332D01*
X142534751Y-85751319D01*
X142495176Y-85846863D01*
X142475000Y-85948292D01*
X142475000Y-86051708D01*
X142495176Y-86153137D01*
X142534751Y-86248681D01*
X142592206Y-86334668D01*
X142665332Y-86407794D01*
X142700000Y-86430959D01*
X142700001Y-90375735D01*
X136798286Y-96277451D01*
X136773292Y-96302445D01*
X136773286Y-96302450D01*
X135298290Y-97777447D01*
X135286842Y-97786842D01*
X135266358Y-97811802D01*
X135249353Y-97832523D01*
X135234464Y-97860380D01*
X135221496Y-97884641D01*
X135204341Y-97941191D01*
X135200000Y-97985268D01*
X135200000Y-97985277D01*
X135198550Y-98000000D01*
X135200000Y-98014723D01*
X135200001Y-108569041D01*
X135165332Y-108592206D01*
X135092206Y-108665332D01*
X135034751Y-108751319D01*
X135000000Y-108835217D01*
X134965249Y-108751319D01*
X134907794Y-108665332D01*
X134834668Y-108592206D01*
X134748681Y-108534751D01*
X134653137Y-108495176D01*
X134551708Y-108475000D01*
X134448292Y-108475000D01*
X134346863Y-108495176D01*
X134251319Y-108534751D01*
X134165332Y-108592206D01*
X134092206Y-108665332D01*
X134034751Y-108751319D01*
X133995176Y-108846863D01*
X133975000Y-108948292D01*
X133730000Y-108948292D01*
X133730000Y-84558505D01*
X134488982Y-84558505D01*
X134817052Y-84876469D01*
X135330604Y-85137702D01*
X135885251Y-85293726D01*
X136459680Y-85338546D01*
X137031815Y-85270440D01*
X137579670Y-85092024D01*
X137982948Y-84876469D01*
X138311018Y-84558505D01*
X158688982Y-84558505D01*
X159017052Y-84876469D01*
X159530604Y-85137702D01*
X160085251Y-85293726D01*
X160659680Y-85338546D01*
X161231815Y-85270440D01*
X161779670Y-85092024D01*
X162182948Y-84876469D01*
X162511018Y-84558505D01*
X160600000Y-82647487D01*
X158688982Y-84558505D01*
X138311018Y-84558505D01*
X136400000Y-82647487D01*
X134488982Y-84558505D01*
X133730000Y-84558505D01*
X133730000Y-83620874D01*
X133923531Y-83982948D01*
X134241495Y-84311018D01*
X136152513Y-82400000D01*
X136647487Y-82400000D01*
X138558505Y-84311018D01*
X138876469Y-83982948D01*
X139137702Y-83469396D01*
X139293726Y-82914749D01*
X139329232Y-82459680D01*
X157661454Y-82459680D01*
X157729560Y-83031815D01*
X157907976Y-83579670D01*
X158123531Y-83982948D01*
X158441495Y-84311018D01*
X160352513Y-82400000D01*
X158441495Y-80488982D01*
X158123531Y-80817052D01*
X157862298Y-81330604D01*
X157706274Y-81885251D01*
X157661454Y-82459680D01*
X139329232Y-82459680D01*
X139338546Y-82340320D01*
X139270440Y-81768185D01*
X139092024Y-81220330D01*
X138876469Y-80817052D01*
X138558505Y-80488982D01*
X136647487Y-82400000D01*
X136152513Y-82400000D01*
X134241495Y-80488982D01*
X133923531Y-80817052D01*
X133730000Y-81197510D01*
X133730000Y-79730000D01*
X135179126Y-79730000D01*
X134817052Y-79923531D01*
G36*
X145534751Y-86248681D02*
G01*
X145592206Y-86334668D01*
X145665332Y-86407794D01*
X145700001Y-86430959D01*
X145700000Y-90375736D01*
X139798286Y-96277451D01*
X139786843Y-96286842D01*
X139777452Y-96298285D01*
X139777451Y-96298286D01*
X139749353Y-96332523D01*
X139721497Y-96384640D01*
X139704342Y-96441190D01*
X139698550Y-96500000D01*
X139700001Y-96514733D01*
X139700000Y-105025736D01*
X136542602Y-108183135D01*
X136501708Y-108175000D01*
X136398292Y-108175000D01*
X136296863Y-108195176D01*
X136201319Y-108234751D01*
X136115332Y-108292206D01*
X136042206Y-108365332D01*
X135984751Y-108451319D01*
X135945176Y-108546863D01*
X135925000Y-108648292D01*
X135925000Y-108691082D01*
X135907794Y-108665332D01*
X135834668Y-108592206D01*
X135800000Y-108569041D01*
X135800000Y-98124263D01*
X137197550Y-96726714D01*
X137197555Y-96726708D01*
X137222549Y-96701714D01*
X143201715Y-90722549D01*
X143213158Y-90713158D01*
X143222549Y-90701715D01*
X143250647Y-90667478D01*
X143278503Y-90615361D01*
X143278504Y-90615360D01*
X143295659Y-90558810D01*
X143300000Y-90514733D01*
X143300000Y-90514724D01*
X143301450Y-90500001D01*
X143300000Y-90485278D01*
X143300000Y-86430959D01*
X143334668Y-86407794D01*
X143407794Y-86334668D01*
X143465249Y-86248681D01*
X143500000Y-86164783D01*
X143534751Y-86248681D01*
X143592206Y-86334668D01*
X143665332Y-86407794D01*
X143700000Y-86430959D01*
X143700001Y-90375735D01*
X137798290Y-96277447D01*
X137786842Y-96286842D01*
X137766358Y-96311802D01*
X137749353Y-96332523D01*
X137735991Y-96357522D01*
X137721496Y-96384641D01*
X137704341Y-96441191D01*
X137700000Y-96485268D01*
X137700000Y-96485277D01*
X137698550Y-96500000D01*
X137700000Y-96514723D01*
X137700001Y-104569839D01*
X136559732Y-105636542D01*
X136501708Y-105625000D01*
X136398292Y-105625000D01*
X136296863Y-105645176D01*
X136201319Y-105684751D01*
X136115332Y-105742206D01*
X136042206Y-105815332D01*
X135984751Y-105901319D01*
X135945176Y-105996863D01*
X135925000Y-106098292D01*
X135925000Y-106201708D01*
X135945176Y-106303137D01*
X135984751Y-106398681D01*
X136042206Y-106484668D01*
X136115332Y-106557794D01*
X136201319Y-106615249D01*
X136296863Y-106654824D01*
X136398292Y-106675000D01*
X136501708Y-106675000D01*
X136603137Y-106654824D01*
X136698681Y-106615249D01*
X136784668Y-106557794D01*
X136857794Y-106484668D01*
X136915249Y-106398681D01*
X136954824Y-106303137D01*
X136975000Y-106201708D01*
X136975000Y-106098292D01*
X136970201Y-106074166D01*
X138197852Y-104925719D01*
X138213158Y-104913158D01*
X138228721Y-104894195D01*
X138244929Y-104875735D01*
X138247453Y-104871368D01*
X138250647Y-104867477D01*
X138262213Y-104845839D01*
X138274506Y-104824575D01*
X138276129Y-104819804D01*
X138278504Y-104815360D01*
X138285633Y-104791861D01*
X138293535Y-104768627D01*
X138294195Y-104763635D01*
X138295659Y-104758810D01*
X138298067Y-104734359D01*
X138301283Y-104710043D01*
X138300000Y-104690289D01*
X138300000Y-96624263D01*
X144201715Y-90722549D01*
X144213158Y-90713158D01*
X144222549Y-90701715D01*
X144250647Y-90667478D01*
X144278503Y-90615361D01*
X144278504Y-90615360D01*
X144295659Y-90558810D01*
X144300000Y-90514733D01*
X144300000Y-90514724D01*
X144301450Y-90500001D01*
X144300000Y-90485278D01*
X144300000Y-86430959D01*
X144334668Y-86407794D01*
X144407794Y-86334668D01*
X144465249Y-86248681D01*
X144500000Y-86164783D01*
X144534751Y-86248681D01*
X144592206Y-86334668D01*
X144665332Y-86407794D01*
X144700000Y-86430959D01*
X144700001Y-90375735D01*
X138798290Y-96277447D01*
X138786842Y-96286842D01*
X138766358Y-96311802D01*
X138749353Y-96332523D01*
X138735991Y-96357522D01*
X138721496Y-96384641D01*
X138704341Y-96441191D01*
X138700000Y-96485268D01*
X138700000Y-96485277D01*
X138698550Y-96500000D01*
X138700000Y-96514723D01*
X138700001Y-104675735D01*
X138295763Y-105079974D01*
X138293045Y-105082315D01*
X138285317Y-105090420D01*
X138277451Y-105098286D01*
X138275190Y-105101041D01*
X136530589Y-106930745D01*
X136501708Y-106925000D01*
X136398292Y-106925000D01*
X136296863Y-106945176D01*
X136201319Y-106984751D01*
X136115332Y-107042206D01*
X136042206Y-107115332D01*
X135984751Y-107201319D01*
X135945176Y-107296863D01*
X135925000Y-107398292D01*
X135925000Y-107501708D01*
X135945176Y-107603137D01*
X135984751Y-107698681D01*
X136042206Y-107784668D01*
X136115332Y-107857794D01*
X136201319Y-107915249D01*
X136296863Y-107954824D01*
X136398292Y-107975000D01*
X136501708Y-107975000D01*
X136603137Y-107954824D01*
X136698681Y-107915249D01*
X136784668Y-107857794D01*
X136857794Y-107784668D01*
X136915249Y-107698681D01*
X136954824Y-107603137D01*
X136975000Y-107501708D01*
X136975000Y-107398292D01*
X136964439Y-107345201D01*
X138714680Y-105509583D01*
X139201715Y-105022549D01*
X139213158Y-105013158D01*
X139227519Y-104995659D01*
X139250647Y-104967478D01*
X139278504Y-104915361D01*
X139283360Y-104899353D01*
X139295659Y-104858810D01*
X139300000Y-104814733D01*
X139300000Y-104814730D01*
X139301451Y-104800000D01*
X139300000Y-104785270D01*
X139300000Y-96624263D01*
X145201715Y-90722549D01*
X145213158Y-90713158D01*
X145222549Y-90701715D01*
X145250647Y-90667478D01*
X145278503Y-90615361D01*
X145278504Y-90615360D01*
X145295659Y-90558810D01*
X145300000Y-90514733D01*
X145300000Y-90514724D01*
X145301450Y-90500001D01*
X145300000Y-90485278D01*
X145300000Y-86430959D01*
X145334668Y-86407794D01*
X145407794Y-86334668D01*
X145465249Y-86248681D01*
X145500000Y-86164783D01*
X145534751Y-86248681D01*
G37*
X145534751Y-86248681D02*
X145592206Y-86334668D01*
X145665332Y-86407794D01*
X145700001Y-86430959D01*
X145700000Y-90375736D01*
X139798286Y-96277451D01*
X139786843Y-96286842D01*
X139777452Y-96298285D01*
X139777451Y-96298286D01*
X139749353Y-96332523D01*
X139721497Y-96384640D01*
X139704342Y-96441190D01*
X139698550Y-96500000D01*
X139700001Y-96514733D01*
X139700000Y-105025736D01*
X136542602Y-108183135D01*
X136501708Y-108175000D01*
X136398292Y-108175000D01*
X136296863Y-108195176D01*
X136201319Y-108234751D01*
X136115332Y-108292206D01*
X136042206Y-108365332D01*
X135984751Y-108451319D01*
X135945176Y-108546863D01*
X135925000Y-108648292D01*
X135925000Y-108691082D01*
X135907794Y-108665332D01*
X135834668Y-108592206D01*
X135800000Y-108569041D01*
X135800000Y-98124263D01*
X137197550Y-96726714D01*
X137197555Y-96726708D01*
X137222549Y-96701714D01*
X143201715Y-90722549D01*
X143213158Y-90713158D01*
X143222549Y-90701715D01*
X143250647Y-90667478D01*
X143278503Y-90615361D01*
X143278504Y-90615360D01*
X143295659Y-90558810D01*
X143300000Y-90514733D01*
X143300000Y-90514724D01*
X143301450Y-90500001D01*
X143300000Y-90485278D01*
X143300000Y-86430959D01*
X143334668Y-86407794D01*
X143407794Y-86334668D01*
X143465249Y-86248681D01*
X143500000Y-86164783D01*
X143534751Y-86248681D01*
X143592206Y-86334668D01*
X143665332Y-86407794D01*
X143700000Y-86430959D01*
X143700001Y-90375735D01*
X137798290Y-96277447D01*
X137786842Y-96286842D01*
X137766358Y-96311802D01*
X137749353Y-96332523D01*
X137735991Y-96357522D01*
X137721496Y-96384641D01*
X137704341Y-96441191D01*
X137700000Y-96485268D01*
X137700000Y-96485277D01*
X137698550Y-96500000D01*
X137700000Y-96514723D01*
X137700001Y-104569839D01*
X136559732Y-105636542D01*
X136501708Y-105625000D01*
X136398292Y-105625000D01*
X136296863Y-105645176D01*
X136201319Y-105684751D01*
X136115332Y-105742206D01*
X136042206Y-105815332D01*
X135984751Y-105901319D01*
X135945176Y-105996863D01*
X135925000Y-106098292D01*
X135925000Y-106201708D01*
X135945176Y-106303137D01*
X135984751Y-106398681D01*
X136042206Y-106484668D01*
X136115332Y-106557794D01*
X136201319Y-106615249D01*
X136296863Y-106654824D01*
X136398292Y-106675000D01*
X136501708Y-106675000D01*
X136603137Y-106654824D01*
X136698681Y-106615249D01*
X136784668Y-106557794D01*
X136857794Y-106484668D01*
X136915249Y-106398681D01*
X136954824Y-106303137D01*
X136975000Y-106201708D01*
X136975000Y-106098292D01*
X136970201Y-106074166D01*
X138197852Y-104925719D01*
X138213158Y-104913158D01*
X138228721Y-104894195D01*
X138244929Y-104875735D01*
X138247453Y-104871368D01*
X138250647Y-104867477D01*
X138262213Y-104845839D01*
X138274506Y-104824575D01*
X138276129Y-104819804D01*
X138278504Y-104815360D01*
X138285633Y-104791861D01*
X138293535Y-104768627D01*
X138294195Y-104763635D01*
X138295659Y-104758810D01*
X138298067Y-104734359D01*
X138301283Y-104710043D01*
X138300000Y-104690289D01*
X138300000Y-96624263D01*
X144201715Y-90722549D01*
X144213158Y-90713158D01*
X144222549Y-90701715D01*
X144250647Y-90667478D01*
X144278503Y-90615361D01*
X144278504Y-90615360D01*
X144295659Y-90558810D01*
X144300000Y-90514733D01*
X144300000Y-90514724D01*
X144301450Y-90500001D01*
X144300000Y-90485278D01*
X144300000Y-86430959D01*
X144334668Y-86407794D01*
X144407794Y-86334668D01*
X144465249Y-86248681D01*
X144500000Y-86164783D01*
X144534751Y-86248681D01*
X144592206Y-86334668D01*
X144665332Y-86407794D01*
X144700000Y-86430959D01*
X144700001Y-90375735D01*
X138798290Y-96277447D01*
X138786842Y-96286842D01*
X138766358Y-96311802D01*
X138749353Y-96332523D01*
X138735991Y-96357522D01*
X138721496Y-96384641D01*
X138704341Y-96441191D01*
X138700000Y-96485268D01*
X138700000Y-96485277D01*
X138698550Y-96500000D01*
X138700000Y-96514723D01*
X138700001Y-104675735D01*
X138295763Y-105079974D01*
X138293045Y-105082315D01*
X138285317Y-105090420D01*
X138277451Y-105098286D01*
X138275190Y-105101041D01*
X136530589Y-106930745D01*
X136501708Y-106925000D01*
X136398292Y-106925000D01*
X136296863Y-106945176D01*
X136201319Y-106984751D01*
X136115332Y-107042206D01*
X136042206Y-107115332D01*
X135984751Y-107201319D01*
X135945176Y-107296863D01*
X135925000Y-107398292D01*
X135925000Y-107501708D01*
X135945176Y-107603137D01*
X135984751Y-107698681D01*
X136042206Y-107784668D01*
X136115332Y-107857794D01*
X136201319Y-107915249D01*
X136296863Y-107954824D01*
X136398292Y-107975000D01*
X136501708Y-107975000D01*
X136603137Y-107954824D01*
X136698681Y-107915249D01*
X136784668Y-107857794D01*
X136857794Y-107784668D01*
X136915249Y-107698681D01*
X136954824Y-107603137D01*
X136975000Y-107501708D01*
X136975000Y-107398292D01*
X136964439Y-107345201D01*
X138714680Y-105509583D01*
X139201715Y-105022549D01*
X139213158Y-105013158D01*
X139227519Y-104995659D01*
X139250647Y-104967478D01*
X139278504Y-104915361D01*
X139283360Y-104899353D01*
X139295659Y-104858810D01*
X139300000Y-104814733D01*
X139300000Y-104814730D01*
X139301451Y-104800000D01*
X139300000Y-104785270D01*
X139300000Y-96624263D01*
X145201715Y-90722549D01*
X145213158Y-90713158D01*
X145222549Y-90701715D01*
X145250647Y-90667478D01*
X145278503Y-90615361D01*
X145278504Y-90615360D01*
X145295659Y-90558810D01*
X145300000Y-90514733D01*
X145300000Y-90514724D01*
X145301450Y-90500001D01*
X145300000Y-90485278D01*
X145300000Y-86430959D01*
X145334668Y-86407794D01*
X145407794Y-86334668D01*
X145465249Y-86248681D01*
X145500000Y-86164783D01*
X145534751Y-86248681D01*
G36*
X147613438Y-117855900D02*
G01*
X147686564Y-117929026D01*
X147772551Y-117986481D01*
X147868095Y-118026056D01*
X147969524Y-118046232D01*
X148072940Y-118046232D01*
X148113834Y-118038097D01*
X148200001Y-118124265D01*
X148200000Y-127502738D01*
X148098285Y-127604454D01*
X148086843Y-127613844D01*
X148077452Y-127625287D01*
X148077451Y-127625288D01*
X148049353Y-127659525D01*
X148041663Y-127673912D01*
X148000000Y-127673912D01*
X147988953Y-127675000D01*
X147811047Y-127675000D01*
X147800000Y-127673912D01*
X147758338Y-127673912D01*
X147750647Y-127659524D01*
X147722550Y-127625288D01*
X147722549Y-127625287D01*
X147713158Y-127613844D01*
X147701716Y-127604454D01*
X147600000Y-127502739D01*
X147600000Y-117835789D01*
X147613438Y-117855900D01*
G37*
X147613438Y-117855900D02*
X147686564Y-117929026D01*
X147772551Y-117986481D01*
X147868095Y-118026056D01*
X147969524Y-118046232D01*
X148072940Y-118046232D01*
X148113834Y-118038097D01*
X148200001Y-118124265D01*
X148200000Y-127502738D01*
X148098285Y-127604454D01*
X148086843Y-127613844D01*
X148077452Y-127625287D01*
X148077451Y-127625288D01*
X148049353Y-127659525D01*
X148041663Y-127673912D01*
X148000000Y-127673912D01*
X147988953Y-127675000D01*
X147811047Y-127675000D01*
X147800000Y-127673912D01*
X147758338Y-127673912D01*
X147750647Y-127659524D01*
X147722550Y-127625288D01*
X147722549Y-127625287D01*
X147713158Y-127613844D01*
X147701716Y-127604454D01*
X147600000Y-127502739D01*
X147600000Y-117835789D01*
X147613438Y-117855900D01*
G36*
X160525000Y-127643750D02*
G01*
X160493750Y-127675000D01*
X160106250Y-127675000D01*
X160075000Y-127643750D01*
X160075000Y-126525000D01*
X160525000Y-126525000D01*
X160525000Y-127643750D01*
G37*
X160525000Y-127643750D02*
X160493750Y-127675000D01*
X160106250Y-127675000D01*
X160075000Y-127643750D01*
X160075000Y-126525000D01*
X160525000Y-126525000D01*
X160525000Y-127643750D01*
G36*
X149325000Y-127643750D02*
G01*
X149293750Y-127675000D01*
X148906250Y-127675000D01*
X148875000Y-127643750D01*
X148875000Y-126525000D01*
X149325000Y-126525000D01*
X149325000Y-127643750D01*
G37*
X149325000Y-127643750D02*
X149293750Y-127675000D01*
X148906250Y-127675000D01*
X148875000Y-127643750D01*
X148875000Y-126525000D01*
X149325000Y-126525000D01*
X149325000Y-127643750D01*
G36*
X137325000Y-127643750D02*
G01*
X137293750Y-127675000D01*
X136906250Y-127675000D01*
X136875000Y-127643750D01*
X136875000Y-126525000D01*
X137325000Y-126525000D01*
X137325000Y-127643750D01*
G37*
X137325000Y-127643750D02*
X137293750Y-127675000D01*
X136906250Y-127675000D01*
X136875000Y-127643750D01*
X136875000Y-126525000D01*
X137325000Y-126525000D01*
X137325000Y-127643750D01*
G36*
X139225000Y-85225000D02*
G01*
X133730000Y-85225000D01*
X133730000Y-79730000D01*
X139225000Y-79730000D01*
X139225000Y-85225000D01*
G37*
X139225000Y-85225000D02*
X133730000Y-85225000D01*
X133730000Y-79730000D01*
X139225000Y-79730000D01*
X139225000Y-85225000D01*
G36*
X163270001Y-85225000D02*
G01*
X157775000Y-85225000D01*
X157775000Y-79730000D01*
X163270001Y-79730000D01*
X163270001Y-85225000D01*
G37*
X163270001Y-85225000D02*
X157775000Y-85225000D01*
X157775000Y-79730000D01*
X163270001Y-79730000D01*
X163270001Y-85225000D01*
M02*
