G04 #@! TF.GenerationSoftware,KiCad,Pcbnew,(5.1.6)-1*
G04 #@! TF.CreationDate,2020-07-22T16:21:09+02:00*
G04 #@! TF.ProjectId,BRD-00008-X01,4252442d-3030-4303-9038-2d5830312e6b,X01*
G04 #@! TF.SameCoordinates,Original*
G04 #@! TF.FileFunction,Soldermask,Bot*
G04 #@! TF.FilePolarity,Negative*
%FSLAX46Y46*%
G04 Gerber Fmt 4.6, Leading zero omitted, Abs format (unit mm)*
G04 Created by KiCad (PCBNEW (5.1.6)-1) date 2020-07-22 16:21:09*
%MOMM*%
%LPD*%
G01*
G04 APERTURE LIST*
%ADD10C,0.100000*%
G04 #@! TA.AperFunction,Profile*
%ADD11C,0.010000*%
G04 #@! TD*
G04 APERTURE END LIST*
D10*
G36*
X163500000Y-85300000D02*
G01*
X157700000Y-85300000D01*
X157700000Y-79500000D01*
X163500000Y-79500000D01*
X163500000Y-85300000D01*
G37*
X163500000Y-85300000D02*
X157700000Y-85300000D01*
X157700000Y-79500000D01*
X163500000Y-79500000D01*
X163500000Y-85300000D01*
G36*
X139300000Y-85300000D02*
G01*
X133500000Y-85300000D01*
X133500000Y-79500000D01*
X139300000Y-79500000D01*
X139300000Y-85300000D01*
G37*
X139300000Y-85300000D02*
X133500000Y-85300000D01*
X133500000Y-79500000D01*
X139300000Y-79500000D01*
X139300000Y-85300000D01*
D11*
X135650000Y-130450000D02*
X135650000Y-128050000D01*
X135650000Y-130450000D02*
X143900000Y-130450000D01*
X143900000Y-130450000D02*
X143900000Y-127200000D01*
X145400000Y-130450000D02*
X145400000Y-127200000D01*
X163500000Y-127250000D02*
X163500000Y-79500000D01*
X162150000Y-127250000D02*
X163500000Y-127250000D01*
X145400000Y-130450000D02*
X161350000Y-130450000D01*
X161350000Y-130450000D02*
X161350000Y-128050000D01*
X162150000Y-127250000D02*
G75*
G03*
X161350000Y-128050000I0J-800000D01*
G01*
X144650000Y-126450000D02*
G75*
G03*
X143900000Y-127200000I0J-750000D01*
G01*
X145400000Y-127200000D02*
G75*
G03*
X144650000Y-126450000I-750000J0D01*
G01*
X135650000Y-128050000D02*
G75*
G03*
X134850000Y-127250000I-800000J0D01*
G01*
X133500000Y-127250000D02*
X134850000Y-127250000D01*
X133500000Y-79500000D02*
X133500000Y-127250000D01*
X133500000Y-79500000D02*
X163500000Y-79500000D01*
D10*
G36*
X135650000Y-130450000D02*
G01*
X161350000Y-130450000D01*
X161350000Y-127850000D01*
X135650000Y-127850000D01*
X135650000Y-130450000D01*
G37*
X135650000Y-130450000D02*
X161350000Y-130450000D01*
X161350000Y-127850000D01*
X135650000Y-127850000D01*
X135650000Y-130450000D01*
G36*
X142564323Y-123706917D02*
G01*
X142587507Y-123711528D01*
X142642103Y-123734143D01*
X142691239Y-123766974D01*
X142733026Y-123808761D01*
X142765857Y-123857897D01*
X142788472Y-123912493D01*
X142788472Y-123912495D01*
X142800000Y-123970450D01*
X142800000Y-124029550D01*
X142793083Y-124064323D01*
X142788472Y-124087507D01*
X142765857Y-124142103D01*
X142733026Y-124191239D01*
X142691239Y-124233026D01*
X142642103Y-124265857D01*
X142587507Y-124288472D01*
X142564323Y-124293083D01*
X142529550Y-124300000D01*
X142470450Y-124300000D01*
X142435677Y-124293083D01*
X142412493Y-124288472D01*
X142357897Y-124265857D01*
X142308761Y-124233026D01*
X142266974Y-124191239D01*
X142234143Y-124142103D01*
X142211528Y-124087507D01*
X142206917Y-124064323D01*
X142200000Y-124029550D01*
X142200000Y-123970450D01*
X142211528Y-123912495D01*
X142211528Y-123912493D01*
X142234143Y-123857897D01*
X142266974Y-123808761D01*
X142308761Y-123766974D01*
X142357897Y-123734143D01*
X142412493Y-123711528D01*
X142435677Y-123706917D01*
X142470450Y-123700000D01*
X142529550Y-123700000D01*
X142564323Y-123706917D01*
G37*
G36*
X141564323Y-123706917D02*
G01*
X141587507Y-123711528D01*
X141642103Y-123734143D01*
X141691239Y-123766974D01*
X141733026Y-123808761D01*
X141765857Y-123857897D01*
X141788472Y-123912493D01*
X141788472Y-123912495D01*
X141800000Y-123970450D01*
X141800000Y-124029550D01*
X141793083Y-124064323D01*
X141788472Y-124087507D01*
X141765857Y-124142103D01*
X141733026Y-124191239D01*
X141691239Y-124233026D01*
X141642103Y-124265857D01*
X141587507Y-124288472D01*
X141564323Y-124293083D01*
X141529550Y-124300000D01*
X141470450Y-124300000D01*
X141435677Y-124293083D01*
X141412493Y-124288472D01*
X141357897Y-124265857D01*
X141308761Y-124233026D01*
X141266974Y-124191239D01*
X141234143Y-124142103D01*
X141211528Y-124087507D01*
X141206917Y-124064323D01*
X141200000Y-124029550D01*
X141200000Y-123970450D01*
X141211528Y-123912495D01*
X141211528Y-123912493D01*
X141234143Y-123857897D01*
X141266974Y-123808761D01*
X141308761Y-123766974D01*
X141357897Y-123734143D01*
X141412493Y-123711528D01*
X141435677Y-123706917D01*
X141470450Y-123700000D01*
X141529550Y-123700000D01*
X141564323Y-123706917D01*
G37*
G36*
X142564323Y-122706917D02*
G01*
X142587507Y-122711528D01*
X142642103Y-122734143D01*
X142691239Y-122766974D01*
X142733026Y-122808761D01*
X142765857Y-122857897D01*
X142788472Y-122912493D01*
X142788472Y-122912495D01*
X142800000Y-122970450D01*
X142800000Y-123029550D01*
X142793083Y-123064323D01*
X142788472Y-123087507D01*
X142765857Y-123142103D01*
X142733026Y-123191239D01*
X142691239Y-123233026D01*
X142642103Y-123265857D01*
X142587507Y-123288472D01*
X142564323Y-123293083D01*
X142529550Y-123300000D01*
X142470450Y-123300000D01*
X142435677Y-123293083D01*
X142412493Y-123288472D01*
X142357897Y-123265857D01*
X142308761Y-123233026D01*
X142266974Y-123191239D01*
X142234143Y-123142103D01*
X142211528Y-123087507D01*
X142206917Y-123064323D01*
X142200000Y-123029550D01*
X142200000Y-122970450D01*
X142211528Y-122912495D01*
X142211528Y-122912493D01*
X142234143Y-122857897D01*
X142266974Y-122808761D01*
X142308761Y-122766974D01*
X142357897Y-122734143D01*
X142412493Y-122711528D01*
X142435677Y-122706917D01*
X142470450Y-122700000D01*
X142529550Y-122700000D01*
X142564323Y-122706917D01*
G37*
G36*
X141564323Y-122706917D02*
G01*
X141587507Y-122711528D01*
X141642103Y-122734143D01*
X141691239Y-122766974D01*
X141733026Y-122808761D01*
X141765857Y-122857897D01*
X141788472Y-122912493D01*
X141788472Y-122912495D01*
X141800000Y-122970450D01*
X141800000Y-123029550D01*
X141793083Y-123064323D01*
X141788472Y-123087507D01*
X141765857Y-123142103D01*
X141733026Y-123191239D01*
X141691239Y-123233026D01*
X141642103Y-123265857D01*
X141587507Y-123288472D01*
X141564323Y-123293083D01*
X141529550Y-123300000D01*
X141470450Y-123300000D01*
X141435677Y-123293083D01*
X141412493Y-123288472D01*
X141357897Y-123265857D01*
X141308761Y-123233026D01*
X141266974Y-123191239D01*
X141234143Y-123142103D01*
X141211528Y-123087507D01*
X141206917Y-123064323D01*
X141200000Y-123029550D01*
X141200000Y-122970450D01*
X141211528Y-122912495D01*
X141211528Y-122912493D01*
X141234143Y-122857897D01*
X141266974Y-122808761D01*
X141308761Y-122766974D01*
X141357897Y-122734143D01*
X141412493Y-122711528D01*
X141435677Y-122706917D01*
X141470450Y-122700000D01*
X141529550Y-122700000D01*
X141564323Y-122706917D01*
G37*
G36*
X161387559Y-79803758D02*
G01*
X161878929Y-80007290D01*
X161878930Y-80007291D01*
X162321150Y-80302773D01*
X162697227Y-80678850D01*
X162697229Y-80678853D01*
X162992710Y-81121071D01*
X163196242Y-81612441D01*
X163300000Y-82134071D01*
X163300000Y-82665929D01*
X163196242Y-83187559D01*
X162992710Y-83678929D01*
X162992709Y-83678930D01*
X162697227Y-84121150D01*
X162321150Y-84497227D01*
X162321147Y-84497229D01*
X161878929Y-84792710D01*
X161387559Y-84996242D01*
X160865929Y-85100000D01*
X160334071Y-85100000D01*
X159812441Y-84996242D01*
X159321071Y-84792710D01*
X158878853Y-84497229D01*
X158878850Y-84497227D01*
X158502773Y-84121150D01*
X158207291Y-83678930D01*
X158207290Y-83678929D01*
X158003758Y-83187559D01*
X157900000Y-82665929D01*
X157900000Y-82134071D01*
X158003758Y-81612441D01*
X158207290Y-81121071D01*
X158502771Y-80678853D01*
X158502773Y-80678850D01*
X158878850Y-80302773D01*
X159321070Y-80007291D01*
X159321071Y-80007290D01*
X159812441Y-79803758D01*
X160334071Y-79700000D01*
X160865929Y-79700000D01*
X161387559Y-79803758D01*
G37*
G36*
X137187559Y-79803758D02*
G01*
X137678929Y-80007290D01*
X137678930Y-80007291D01*
X138121150Y-80302773D01*
X138497227Y-80678850D01*
X138497229Y-80678853D01*
X138792710Y-81121071D01*
X138996242Y-81612441D01*
X139100000Y-82134071D01*
X139100000Y-82665929D01*
X138996242Y-83187559D01*
X138792710Y-83678929D01*
X138792709Y-83678930D01*
X138497227Y-84121150D01*
X138121150Y-84497227D01*
X138121147Y-84497229D01*
X137678929Y-84792710D01*
X137187559Y-84996242D01*
X136665929Y-85100000D01*
X136134071Y-85100000D01*
X135612441Y-84996242D01*
X135121071Y-84792710D01*
X134678853Y-84497229D01*
X134678850Y-84497227D01*
X134302773Y-84121150D01*
X134007291Y-83678930D01*
X134007290Y-83678929D01*
X133803758Y-83187559D01*
X133700000Y-82665929D01*
X133700000Y-82134071D01*
X133803758Y-81612441D01*
X134007290Y-81121071D01*
X134302771Y-80678853D01*
X134302773Y-80678850D01*
X134678850Y-80302773D01*
X135121070Y-80007291D01*
X135121071Y-80007290D01*
X135612441Y-79803758D01*
X136134071Y-79700000D01*
X136665929Y-79700000D01*
X137187559Y-79803758D01*
G37*
M02*
