G04 #@! TF.GenerationSoftware,KiCad,Pcbnew,(5.1.6)-1*
G04 #@! TF.CreationDate,2020-07-22T16:22:35+02:00*
G04 #@! TF.ProjectId,BRD-00008-X01,4252442d-3030-4303-9038-2d5830312e6b,X01*
G04 #@! TF.SameCoordinates,Original*
G04 #@! TF.FileFunction,Legend,Bot*
G04 #@! TF.FilePolarity,Positive*
%FSLAX46Y46*%
G04 Gerber Fmt 4.6, Leading zero omitted, Abs format (unit mm)*
G04 Created by KiCad (PCBNEW (5.1.6)-1) date 2020-07-22 16:22:35*
%MOMM*%
%LPD*%
G01*
G04 APERTURE LIST*
%ADD10C,0.120000*%
G04 #@! TA.AperFunction,Profile*
%ADD11C,0.010000*%
G04 #@! TD*
%ADD12C,0.010000*%
G04 APERTURE END LIST*
D10*
X154900000Y-124042857D02*
X154900000Y-122842857D01*
X154500000Y-123700000D01*
X154100000Y-122842857D01*
X154100000Y-124042857D01*
X153700000Y-123242857D02*
X153242857Y-123242857D01*
X153528571Y-124042857D02*
X153528571Y-123014285D01*
X153471428Y-122900000D01*
X153357142Y-122842857D01*
X153242857Y-122842857D01*
X152328571Y-123242857D02*
X152328571Y-124214285D01*
X152385714Y-124328571D01*
X152442857Y-124385714D01*
X152557142Y-124442857D01*
X152728571Y-124442857D01*
X152842857Y-124385714D01*
X152328571Y-123985714D02*
X152442857Y-124042857D01*
X152671428Y-124042857D01*
X152785714Y-123985714D01*
X152842857Y-123928571D01*
X152900000Y-123814285D01*
X152900000Y-123471428D01*
X152842857Y-123357142D01*
X152785714Y-123300000D01*
X152671428Y-123242857D01*
X152442857Y-123242857D01*
X152328571Y-123300000D01*
X150842857Y-124042857D02*
X150842857Y-122842857D01*
X150557142Y-122842857D01*
X150385714Y-122900000D01*
X150271428Y-123014285D01*
X150214285Y-123128571D01*
X150157142Y-123357142D01*
X150157142Y-123528571D01*
X150214285Y-123757142D01*
X150271428Y-123871428D01*
X150385714Y-123985714D01*
X150557142Y-124042857D01*
X150842857Y-124042857D01*
X149128571Y-124042857D02*
X149128571Y-123414285D01*
X149185714Y-123300000D01*
X149300000Y-123242857D01*
X149528571Y-123242857D01*
X149642857Y-123300000D01*
X149128571Y-123985714D02*
X149242857Y-124042857D01*
X149528571Y-124042857D01*
X149642857Y-123985714D01*
X149700000Y-123871428D01*
X149700000Y-123757142D01*
X149642857Y-123642857D01*
X149528571Y-123585714D01*
X149242857Y-123585714D01*
X149128571Y-123528571D01*
X148728571Y-123242857D02*
X148271428Y-123242857D01*
X148557142Y-122842857D02*
X148557142Y-123871428D01*
X148500000Y-123985714D01*
X148385714Y-124042857D01*
X148271428Y-124042857D01*
X147414285Y-123985714D02*
X147528571Y-124042857D01*
X147757142Y-124042857D01*
X147871428Y-123985714D01*
X147928571Y-123871428D01*
X147928571Y-123414285D01*
X147871428Y-123300000D01*
X147757142Y-123242857D01*
X147528571Y-123242857D01*
X147414285Y-123300000D01*
X147357142Y-123414285D01*
X147357142Y-123528571D01*
X147928571Y-123642857D01*
X145242857Y-123928571D02*
X145300000Y-123985714D01*
X145471428Y-124042857D01*
X145585714Y-124042857D01*
X145757142Y-123985714D01*
X145871428Y-123871428D01*
X145928571Y-123757142D01*
X145985714Y-123528571D01*
X145985714Y-123357142D01*
X145928571Y-123128571D01*
X145871428Y-123014285D01*
X145757142Y-122900000D01*
X145585714Y-122842857D01*
X145471428Y-122842857D01*
X145300000Y-122900000D01*
X145242857Y-122957142D01*
X144557142Y-124042857D02*
X144671428Y-123985714D01*
X144728571Y-123928571D01*
X144785714Y-123814285D01*
X144785714Y-123471428D01*
X144728571Y-123357142D01*
X144671428Y-123300000D01*
X144557142Y-123242857D01*
X144385714Y-123242857D01*
X144271428Y-123300000D01*
X144214285Y-123357142D01*
X144157142Y-123471428D01*
X144157142Y-123814285D01*
X144214285Y-123928571D01*
X144271428Y-123985714D01*
X144385714Y-124042857D01*
X144557142Y-124042857D01*
X143128571Y-124042857D02*
X143128571Y-122842857D01*
X143128571Y-123985714D02*
X143242857Y-124042857D01*
X143471428Y-124042857D01*
X143585714Y-123985714D01*
X143642857Y-123928571D01*
X143700000Y-123814285D01*
X143700000Y-123471428D01*
X143642857Y-123357142D01*
X143585714Y-123300000D01*
X143471428Y-123242857D01*
X143242857Y-123242857D01*
X143128571Y-123300000D01*
X142100000Y-123985714D02*
X142214285Y-124042857D01*
X142442857Y-124042857D01*
X142557142Y-123985714D01*
X142614285Y-123871428D01*
X142614285Y-123414285D01*
X142557142Y-123300000D01*
X142442857Y-123242857D01*
X142214285Y-123242857D01*
X142100000Y-123300000D01*
X142042857Y-123414285D01*
X142042857Y-123528571D01*
X142614285Y-123642857D01*
X153242857Y-116842857D02*
X153242857Y-117814285D01*
X153185714Y-117928571D01*
X153128571Y-117985714D01*
X153014285Y-118042857D01*
X152785714Y-118042857D01*
X152671428Y-117985714D01*
X152614285Y-117928571D01*
X152557142Y-117814285D01*
X152557142Y-116842857D01*
X151414285Y-118042857D02*
X151985714Y-118042857D01*
X151985714Y-116842857D01*
X150100000Y-118042857D02*
X150100000Y-116842857D01*
X149700000Y-117700000D01*
X149300000Y-116842857D01*
X149300000Y-118042857D01*
X148214285Y-118042857D02*
X148214285Y-117414285D01*
X148271428Y-117300000D01*
X148385714Y-117242857D01*
X148614285Y-117242857D01*
X148728571Y-117300000D01*
X148214285Y-117985714D02*
X148328571Y-118042857D01*
X148614285Y-118042857D01*
X148728571Y-117985714D01*
X148785714Y-117871428D01*
X148785714Y-117757142D01*
X148728571Y-117642857D01*
X148614285Y-117585714D01*
X148328571Y-117585714D01*
X148214285Y-117528571D01*
X147642857Y-118042857D02*
X147642857Y-117242857D01*
X147642857Y-117471428D02*
X147585714Y-117357142D01*
X147528571Y-117300000D01*
X147414285Y-117242857D01*
X147300000Y-117242857D01*
X146900000Y-118042857D02*
X146900000Y-116842857D01*
X146785714Y-117585714D02*
X146442857Y-118042857D01*
X146442857Y-117242857D02*
X146900000Y-117700000D01*
X145928571Y-118042857D02*
X145928571Y-117242857D01*
X145928571Y-116842857D02*
X145985714Y-116900000D01*
X145928571Y-116957142D01*
X145871428Y-116900000D01*
X145928571Y-116842857D01*
X145928571Y-116957142D01*
X145357142Y-117242857D02*
X145357142Y-118042857D01*
X145357142Y-117357142D02*
X145300000Y-117300000D01*
X145185714Y-117242857D01*
X145014285Y-117242857D01*
X144900000Y-117300000D01*
X144842857Y-117414285D01*
X144842857Y-118042857D01*
X143757142Y-117242857D02*
X143757142Y-118214285D01*
X143814285Y-118328571D01*
X143871428Y-118385714D01*
X143985714Y-118442857D01*
X144157142Y-118442857D01*
X144271428Y-118385714D01*
X143757142Y-117985714D02*
X143871428Y-118042857D01*
X144100000Y-118042857D01*
X144214285Y-117985714D01*
X144271428Y-117928571D01*
X144328571Y-117814285D01*
X144328571Y-117471428D01*
X144271428Y-117357142D01*
X144214285Y-117300000D01*
X144100000Y-117242857D01*
X143871428Y-117242857D01*
X143757142Y-117300000D01*
X138500000Y-125000000D02*
X138500000Y-122000000D01*
X158500000Y-125000000D02*
X138500000Y-125000000D01*
X158500000Y-122000000D02*
X158500000Y-125000000D01*
X138500000Y-122000000D02*
X158500000Y-122000000D01*
X138500000Y-120000000D02*
X138500000Y-115000000D01*
X158500000Y-120000000D02*
X138500000Y-120000000D01*
X158500000Y-115000000D02*
X158500000Y-120000000D01*
X138500000Y-115000000D02*
X158500000Y-115000000D01*
X158928571Y-112082857D02*
X158928571Y-110882857D01*
X158471428Y-110882857D01*
X158357142Y-110940000D01*
X158300000Y-110997142D01*
X158242857Y-111111428D01*
X158242857Y-111282857D01*
X158300000Y-111397142D01*
X158357142Y-111454285D01*
X158471428Y-111511428D01*
X158928571Y-111511428D01*
X157042857Y-111968571D02*
X157100000Y-112025714D01*
X157271428Y-112082857D01*
X157385714Y-112082857D01*
X157557142Y-112025714D01*
X157671428Y-111911428D01*
X157728571Y-111797142D01*
X157785714Y-111568571D01*
X157785714Y-111397142D01*
X157728571Y-111168571D01*
X157671428Y-111054285D01*
X157557142Y-110940000D01*
X157385714Y-110882857D01*
X157271428Y-110882857D01*
X157100000Y-110940000D01*
X157042857Y-110997142D01*
X156528571Y-112082857D02*
X156528571Y-110882857D01*
X155042857Y-111454285D02*
X154642857Y-111454285D01*
X154471428Y-112082857D02*
X155042857Y-112082857D01*
X155042857Y-110882857D01*
X154471428Y-110882857D01*
X154071428Y-110882857D02*
X153271428Y-112082857D01*
X153271428Y-110882857D02*
X154071428Y-112082857D01*
X152814285Y-112082857D02*
X152814285Y-110882857D01*
X152357142Y-110882857D01*
X152242857Y-110940000D01*
X152185714Y-110997142D01*
X152128571Y-111111428D01*
X152128571Y-111282857D01*
X152185714Y-111397142D01*
X152242857Y-111454285D01*
X152357142Y-111511428D01*
X152814285Y-111511428D01*
X150928571Y-112082857D02*
X151328571Y-111511428D01*
X151614285Y-112082857D02*
X151614285Y-110882857D01*
X151157142Y-110882857D01*
X151042857Y-110940000D01*
X150985714Y-110997142D01*
X150928571Y-111111428D01*
X150928571Y-111282857D01*
X150985714Y-111397142D01*
X151042857Y-111454285D01*
X151157142Y-111511428D01*
X151614285Y-111511428D01*
X150414285Y-111454285D02*
X150014285Y-111454285D01*
X149842857Y-112082857D02*
X150414285Y-112082857D01*
X150414285Y-110882857D01*
X149842857Y-110882857D01*
X149385714Y-112025714D02*
X149214285Y-112082857D01*
X148928571Y-112082857D01*
X148814285Y-112025714D01*
X148757142Y-111968571D01*
X148700000Y-111854285D01*
X148700000Y-111740000D01*
X148757142Y-111625714D01*
X148814285Y-111568571D01*
X148928571Y-111511428D01*
X149157142Y-111454285D01*
X149271428Y-111397142D01*
X149328571Y-111340000D01*
X149385714Y-111225714D01*
X149385714Y-111111428D01*
X149328571Y-110997142D01*
X149271428Y-110940000D01*
X149157142Y-110882857D01*
X148871428Y-110882857D01*
X148700000Y-110940000D01*
X148242857Y-112025714D02*
X148071428Y-112082857D01*
X147785714Y-112082857D01*
X147671428Y-112025714D01*
X147614285Y-111968571D01*
X147557142Y-111854285D01*
X147557142Y-111740000D01*
X147614285Y-111625714D01*
X147671428Y-111568571D01*
X147785714Y-111511428D01*
X148014285Y-111454285D01*
X148128571Y-111397142D01*
X148185714Y-111340000D01*
X148242857Y-111225714D01*
X148242857Y-111111428D01*
X148185714Y-110997142D01*
X148128571Y-110940000D01*
X148014285Y-110882857D01*
X147728571Y-110882857D01*
X147557142Y-110940000D01*
X146128571Y-112082857D02*
X146128571Y-110882857D01*
X145728571Y-111740000D01*
X145328571Y-110882857D01*
X145328571Y-112082857D01*
X144757142Y-112082857D02*
X144757142Y-111282857D01*
X144757142Y-110882857D02*
X144814285Y-110940000D01*
X144757142Y-110997142D01*
X144700000Y-110940000D01*
X144757142Y-110882857D01*
X144757142Y-110997142D01*
X144185714Y-111282857D02*
X144185714Y-112082857D01*
X144185714Y-111397142D02*
X144128571Y-111340000D01*
X144014285Y-111282857D01*
X143842857Y-111282857D01*
X143728571Y-111340000D01*
X143671428Y-111454285D01*
X143671428Y-112082857D01*
X143100000Y-112082857D02*
X143100000Y-111282857D01*
X143100000Y-110882857D02*
X143157142Y-110940000D01*
X143100000Y-110997142D01*
X143042857Y-110940000D01*
X143100000Y-110882857D01*
X143100000Y-110997142D01*
X140928571Y-111968571D02*
X140985714Y-112025714D01*
X141157142Y-112082857D01*
X141271428Y-112082857D01*
X141442857Y-112025714D01*
X141557142Y-111911428D01*
X141614285Y-111797142D01*
X141671428Y-111568571D01*
X141671428Y-111397142D01*
X141614285Y-111168571D01*
X141557142Y-111054285D01*
X141442857Y-110940000D01*
X141271428Y-110882857D01*
X141157142Y-110882857D01*
X140985714Y-110940000D01*
X140928571Y-110997142D01*
X139900000Y-112082857D02*
X139900000Y-111454285D01*
X139957142Y-111340000D01*
X140071428Y-111282857D01*
X140300000Y-111282857D01*
X140414285Y-111340000D01*
X139900000Y-112025714D02*
X140014285Y-112082857D01*
X140300000Y-112082857D01*
X140414285Y-112025714D01*
X140471428Y-111911428D01*
X140471428Y-111797142D01*
X140414285Y-111682857D01*
X140300000Y-111625714D01*
X140014285Y-111625714D01*
X139900000Y-111568571D01*
X139328571Y-112082857D02*
X139328571Y-111282857D01*
X139328571Y-111511428D02*
X139271428Y-111397142D01*
X139214285Y-111340000D01*
X139100000Y-111282857D01*
X138985714Y-111282857D01*
X138071428Y-112082857D02*
X138071428Y-110882857D01*
X138071428Y-112025714D02*
X138185714Y-112082857D01*
X138414285Y-112082857D01*
X138528571Y-112025714D01*
X138585714Y-111968571D01*
X138642857Y-111854285D01*
X138642857Y-111511428D01*
X138585714Y-111397142D01*
X138528571Y-111340000D01*
X138414285Y-111282857D01*
X138185714Y-111282857D01*
X138071428Y-111340000D01*
X154100000Y-113374285D02*
X154500000Y-113374285D01*
X154500000Y-114002857D02*
X154500000Y-112802857D01*
X153928571Y-112802857D01*
X152957142Y-113202857D02*
X152957142Y-114002857D01*
X153471428Y-113202857D02*
X153471428Y-113831428D01*
X153414285Y-113945714D01*
X153300000Y-114002857D01*
X153128571Y-114002857D01*
X153014285Y-113945714D01*
X152957142Y-113888571D01*
X152214285Y-114002857D02*
X152328571Y-113945714D01*
X152385714Y-113831428D01*
X152385714Y-112802857D01*
X151585714Y-114002857D02*
X151700000Y-113945714D01*
X151757142Y-113831428D01*
X151757142Y-112802857D01*
X150214285Y-114002857D02*
X150214285Y-112802857D01*
X149814285Y-113660000D01*
X149414285Y-112802857D01*
X149414285Y-114002857D01*
X148842857Y-114002857D02*
X148842857Y-113202857D01*
X148842857Y-112802857D02*
X148900000Y-112860000D01*
X148842857Y-112917142D01*
X148785714Y-112860000D01*
X148842857Y-112802857D01*
X148842857Y-112917142D01*
X148271428Y-113202857D02*
X148271428Y-114002857D01*
X148271428Y-113317142D02*
X148214285Y-113260000D01*
X148100000Y-113202857D01*
X147928571Y-113202857D01*
X147814285Y-113260000D01*
X147757142Y-113374285D01*
X147757142Y-114002857D01*
X147185714Y-114002857D02*
X147185714Y-113202857D01*
X147185714Y-112802857D02*
X147242857Y-112860000D01*
X147185714Y-112917142D01*
X147128571Y-112860000D01*
X147185714Y-112802857D01*
X147185714Y-112917142D01*
X145357142Y-114460000D02*
X145414285Y-114402857D01*
X145528571Y-114231428D01*
X145585714Y-114117142D01*
X145642857Y-113945714D01*
X145700000Y-113660000D01*
X145700000Y-113431428D01*
X145642857Y-113145714D01*
X145585714Y-112974285D01*
X145528571Y-112860000D01*
X145414285Y-112688571D01*
X145357142Y-112631428D01*
X144500000Y-113374285D02*
X144900000Y-113374285D01*
X144900000Y-114002857D02*
X144900000Y-112802857D01*
X144328571Y-112802857D01*
X143242857Y-114002857D02*
X143928571Y-114002857D01*
X143585714Y-114002857D02*
X143585714Y-112802857D01*
X143700000Y-112974285D01*
X143814285Y-113088571D01*
X143928571Y-113145714D01*
X142842857Y-114460000D02*
X142785714Y-114402857D01*
X142671428Y-114231428D01*
X142614285Y-114117142D01*
X142557142Y-113945714D01*
X142500000Y-113660000D01*
X142500000Y-113431428D01*
X142557142Y-113145714D01*
X142614285Y-112974285D01*
X142671428Y-112860000D01*
X142785714Y-112688571D01*
X142842857Y-112631428D01*
X144871428Y-97082857D02*
X145271428Y-96511428D01*
X145557142Y-97082857D02*
X145557142Y-95882857D01*
X145100000Y-95882857D01*
X144985714Y-95940000D01*
X144928571Y-95997142D01*
X144871428Y-96111428D01*
X144871428Y-96282857D01*
X144928571Y-96397142D01*
X144985714Y-96454285D01*
X145100000Y-96511428D01*
X145557142Y-96511428D01*
X144185714Y-97082857D02*
X144300000Y-97025714D01*
X144357142Y-96968571D01*
X144414285Y-96854285D01*
X144414285Y-96511428D01*
X144357142Y-96397142D01*
X144300000Y-96340000D01*
X144185714Y-96282857D01*
X144014285Y-96282857D01*
X143900000Y-96340000D01*
X143842857Y-96397142D01*
X143785714Y-96511428D01*
X143785714Y-96854285D01*
X143842857Y-96968571D01*
X143900000Y-97025714D01*
X144014285Y-97082857D01*
X144185714Y-97082857D01*
X143271428Y-97082857D02*
X143271428Y-95882857D01*
X143271428Y-96454285D02*
X142585714Y-96454285D01*
X142585714Y-97082857D02*
X142585714Y-95882857D01*
X142071428Y-97025714D02*
X141900000Y-97082857D01*
X141614285Y-97082857D01*
X141500000Y-97025714D01*
X141442857Y-96968571D01*
X141385714Y-96854285D01*
X141385714Y-96740000D01*
X141442857Y-96625714D01*
X141500000Y-96568571D01*
X141614285Y-96511428D01*
X141842857Y-96454285D01*
X141957142Y-96397142D01*
X142014285Y-96340000D01*
X142071428Y-96225714D01*
X142071428Y-96111428D01*
X142014285Y-95997142D01*
X141957142Y-95940000D01*
X141842857Y-95882857D01*
X141557142Y-95882857D01*
X141385714Y-95940000D01*
X147042857Y-98888571D02*
X147100000Y-98945714D01*
X147271428Y-99002857D01*
X147385714Y-99002857D01*
X147557142Y-98945714D01*
X147671428Y-98831428D01*
X147728571Y-98717142D01*
X147785714Y-98488571D01*
X147785714Y-98317142D01*
X147728571Y-98088571D01*
X147671428Y-97974285D01*
X147557142Y-97860000D01*
X147385714Y-97802857D01*
X147271428Y-97802857D01*
X147100000Y-97860000D01*
X147042857Y-97917142D01*
X146357142Y-99002857D02*
X146471428Y-98945714D01*
X146528571Y-98888571D01*
X146585714Y-98774285D01*
X146585714Y-98431428D01*
X146528571Y-98317142D01*
X146471428Y-98260000D01*
X146357142Y-98202857D01*
X146185714Y-98202857D01*
X146071428Y-98260000D01*
X146014285Y-98317142D01*
X145957142Y-98431428D01*
X145957142Y-98774285D01*
X146014285Y-98888571D01*
X146071428Y-98945714D01*
X146185714Y-99002857D01*
X146357142Y-99002857D01*
X145442857Y-99002857D02*
X145442857Y-98202857D01*
X145442857Y-98317142D02*
X145385714Y-98260000D01*
X145271428Y-98202857D01*
X145100000Y-98202857D01*
X144985714Y-98260000D01*
X144928571Y-98374285D01*
X144928571Y-99002857D01*
X144928571Y-98374285D02*
X144871428Y-98260000D01*
X144757142Y-98202857D01*
X144585714Y-98202857D01*
X144471428Y-98260000D01*
X144414285Y-98374285D01*
X144414285Y-99002857D01*
X143842857Y-98202857D02*
X143842857Y-99402857D01*
X143842857Y-98260000D02*
X143728571Y-98202857D01*
X143500000Y-98202857D01*
X143385714Y-98260000D01*
X143328571Y-98317142D01*
X143271428Y-98431428D01*
X143271428Y-98774285D01*
X143328571Y-98888571D01*
X143385714Y-98945714D01*
X143500000Y-99002857D01*
X143728571Y-99002857D01*
X143842857Y-98945714D01*
X142585714Y-99002857D02*
X142700000Y-98945714D01*
X142757142Y-98831428D01*
X142757142Y-97802857D01*
X142128571Y-99002857D02*
X142128571Y-98202857D01*
X142128571Y-97802857D02*
X142185714Y-97860000D01*
X142128571Y-97917142D01*
X142071428Y-97860000D01*
X142128571Y-97802857D01*
X142128571Y-97917142D01*
X141042857Y-99002857D02*
X141042857Y-98374285D01*
X141100000Y-98260000D01*
X141214285Y-98202857D01*
X141442857Y-98202857D01*
X141557142Y-98260000D01*
X141042857Y-98945714D02*
X141157142Y-99002857D01*
X141442857Y-99002857D01*
X141557142Y-98945714D01*
X141614285Y-98831428D01*
X141614285Y-98717142D01*
X141557142Y-98602857D01*
X141442857Y-98545714D01*
X141157142Y-98545714D01*
X141042857Y-98488571D01*
X140471428Y-98202857D02*
X140471428Y-99002857D01*
X140471428Y-98317142D02*
X140414285Y-98260000D01*
X140300000Y-98202857D01*
X140128571Y-98202857D01*
X140014285Y-98260000D01*
X139957142Y-98374285D01*
X139957142Y-99002857D01*
X139557142Y-98202857D02*
X139100000Y-98202857D01*
X139385714Y-97802857D02*
X139385714Y-98831428D01*
X139328571Y-98945714D01*
X139214285Y-99002857D01*
X139100000Y-99002857D01*
X149500000Y-89582857D02*
X150071428Y-89582857D01*
X150071428Y-88382857D01*
X149100000Y-89582857D02*
X149100000Y-88782857D01*
X149100000Y-88382857D02*
X149157142Y-88440000D01*
X149100000Y-88497142D01*
X149042857Y-88440000D01*
X149100000Y-88382857D01*
X149100000Y-88497142D01*
X148014285Y-89525714D02*
X148128571Y-89582857D01*
X148357142Y-89582857D01*
X148471428Y-89525714D01*
X148528571Y-89468571D01*
X148585714Y-89354285D01*
X148585714Y-89011428D01*
X148528571Y-88897142D01*
X148471428Y-88840000D01*
X148357142Y-88782857D01*
X148128571Y-88782857D01*
X148014285Y-88840000D01*
X147042857Y-89525714D02*
X147157142Y-89582857D01*
X147385714Y-89582857D01*
X147500000Y-89525714D01*
X147557142Y-89411428D01*
X147557142Y-88954285D01*
X147500000Y-88840000D01*
X147385714Y-88782857D01*
X147157142Y-88782857D01*
X147042857Y-88840000D01*
X146985714Y-88954285D01*
X146985714Y-89068571D01*
X147557142Y-89182857D01*
X146471428Y-88782857D02*
X146471428Y-89582857D01*
X146471428Y-88897142D02*
X146414285Y-88840000D01*
X146300000Y-88782857D01*
X146128571Y-88782857D01*
X146014285Y-88840000D01*
X145957142Y-88954285D01*
X145957142Y-89582857D01*
X145442857Y-89525714D02*
X145328571Y-89582857D01*
X145100000Y-89582857D01*
X144985714Y-89525714D01*
X144928571Y-89411428D01*
X144928571Y-89354285D01*
X144985714Y-89240000D01*
X145100000Y-89182857D01*
X145271428Y-89182857D01*
X145385714Y-89125714D01*
X145442857Y-89011428D01*
X145442857Y-88954285D01*
X145385714Y-88840000D01*
X145271428Y-88782857D01*
X145100000Y-88782857D01*
X144985714Y-88840000D01*
X143957142Y-89525714D02*
X144071428Y-89582857D01*
X144300000Y-89582857D01*
X144414285Y-89525714D01*
X144471428Y-89411428D01*
X144471428Y-88954285D01*
X144414285Y-88840000D01*
X144300000Y-88782857D01*
X144071428Y-88782857D01*
X143957142Y-88840000D01*
X143900000Y-88954285D01*
X143900000Y-89068571D01*
X144471428Y-89182857D01*
X142871428Y-89582857D02*
X142871428Y-88382857D01*
X142871428Y-89525714D02*
X142985714Y-89582857D01*
X143214285Y-89582857D01*
X143328571Y-89525714D01*
X143385714Y-89468571D01*
X143442857Y-89354285D01*
X143442857Y-89011428D01*
X143385714Y-88897142D01*
X143328571Y-88840000D01*
X143214285Y-88782857D01*
X142985714Y-88782857D01*
X142871428Y-88840000D01*
X140871428Y-88782857D02*
X140871428Y-89582857D01*
X141385714Y-88782857D02*
X141385714Y-89411428D01*
X141328571Y-89525714D01*
X141214285Y-89582857D01*
X141042857Y-89582857D01*
X140928571Y-89525714D01*
X140871428Y-89468571D01*
X140300000Y-88782857D02*
X140300000Y-89582857D01*
X140300000Y-88897142D02*
X140242857Y-88840000D01*
X140128571Y-88782857D01*
X139957142Y-88782857D01*
X139842857Y-88840000D01*
X139785714Y-88954285D01*
X139785714Y-89582857D01*
X138700000Y-89582857D02*
X138700000Y-88382857D01*
X138700000Y-89525714D02*
X138814285Y-89582857D01*
X139042857Y-89582857D01*
X139157142Y-89525714D01*
X139214285Y-89468571D01*
X139271428Y-89354285D01*
X139271428Y-89011428D01*
X139214285Y-88897142D01*
X139157142Y-88840000D01*
X139042857Y-88782857D01*
X138814285Y-88782857D01*
X138700000Y-88840000D01*
X137671428Y-89525714D02*
X137785714Y-89582857D01*
X138014285Y-89582857D01*
X138128571Y-89525714D01*
X138185714Y-89411428D01*
X138185714Y-88954285D01*
X138128571Y-88840000D01*
X138014285Y-88782857D01*
X137785714Y-88782857D01*
X137671428Y-88840000D01*
X137614285Y-88954285D01*
X137614285Y-89068571D01*
X138185714Y-89182857D01*
X137100000Y-89582857D02*
X137100000Y-88782857D01*
X137100000Y-89011428D02*
X137042857Y-88897142D01*
X136985714Y-88840000D01*
X136871428Y-88782857D01*
X136757142Y-88782857D01*
X150185714Y-91388571D02*
X150242857Y-91445714D01*
X150414285Y-91502857D01*
X150528571Y-91502857D01*
X150700000Y-91445714D01*
X150814285Y-91331428D01*
X150871428Y-91217142D01*
X150928571Y-90988571D01*
X150928571Y-90817142D01*
X150871428Y-90588571D01*
X150814285Y-90474285D01*
X150700000Y-90360000D01*
X150528571Y-90302857D01*
X150414285Y-90302857D01*
X150242857Y-90360000D01*
X150185714Y-90417142D01*
X149671428Y-90874285D02*
X149271428Y-90874285D01*
X149100000Y-91502857D02*
X149671428Y-91502857D01*
X149671428Y-90302857D01*
X149100000Y-90302857D01*
X147900000Y-91502857D02*
X148300000Y-90931428D01*
X148585714Y-91502857D02*
X148585714Y-90302857D01*
X148128571Y-90302857D01*
X148014285Y-90360000D01*
X147957142Y-90417142D01*
X147900000Y-90531428D01*
X147900000Y-90702857D01*
X147957142Y-90817142D01*
X148014285Y-90874285D01*
X148128571Y-90931428D01*
X148585714Y-90931428D01*
X147385714Y-91502857D02*
X147385714Y-90302857D01*
X146700000Y-91502857D01*
X146700000Y-90302857D01*
X146128571Y-91045714D02*
X145214285Y-91045714D01*
X144414285Y-90302857D02*
X144185714Y-90302857D01*
X144071428Y-90360000D01*
X143957142Y-90474285D01*
X143900000Y-90702857D01*
X143900000Y-91102857D01*
X143957142Y-91331428D01*
X144071428Y-91445714D01*
X144185714Y-91502857D01*
X144414285Y-91502857D01*
X144528571Y-91445714D01*
X144642857Y-91331428D01*
X144700000Y-91102857D01*
X144700000Y-90702857D01*
X144642857Y-90474285D01*
X144528571Y-90360000D01*
X144414285Y-90302857D01*
X143385714Y-91502857D02*
X143385714Y-90302857D01*
X143385714Y-90874285D02*
X142700000Y-90874285D01*
X142700000Y-91502857D02*
X142700000Y-90302857D01*
X141557142Y-91502857D02*
X142128571Y-91502857D01*
X142128571Y-90302857D01*
X141157142Y-91045714D02*
X140242857Y-91045714D01*
X139728571Y-91445714D02*
X139557142Y-91502857D01*
X139271428Y-91502857D01*
X139157142Y-91445714D01*
X139100000Y-91388571D01*
X139042857Y-91274285D01*
X139042857Y-91160000D01*
X139100000Y-91045714D01*
X139157142Y-90988571D01*
X139271428Y-90931428D01*
X139500000Y-90874285D01*
X139614285Y-90817142D01*
X139671428Y-90760000D01*
X139728571Y-90645714D01*
X139728571Y-90531428D01*
X139671428Y-90417142D01*
X139614285Y-90360000D01*
X139500000Y-90302857D01*
X139214285Y-90302857D01*
X139042857Y-90360000D01*
X137728571Y-90702857D02*
X137442857Y-91502857D01*
X137157142Y-90702857D01*
X136757142Y-90417142D02*
X136700000Y-90360000D01*
X136585714Y-90302857D01*
X136300000Y-90302857D01*
X136185714Y-90360000D01*
X136128571Y-90417142D01*
X136071428Y-90531428D01*
X136071428Y-90645714D01*
X136128571Y-90817142D01*
X136814285Y-91502857D01*
X136071428Y-91502857D01*
X153728571Y-103622857D02*
X153728571Y-102422857D01*
X153042857Y-103622857D02*
X153557142Y-102937142D01*
X153042857Y-102422857D02*
X153728571Y-103108571D01*
X152528571Y-103622857D02*
X152528571Y-102422857D01*
X151957142Y-103622857D02*
X151957142Y-102422857D01*
X151271428Y-103622857D01*
X151271428Y-102422857D01*
X150700000Y-102994285D02*
X150300000Y-102994285D01*
X150128571Y-103622857D02*
X150700000Y-103622857D01*
X150700000Y-102422857D01*
X150128571Y-102422857D01*
X150300000Y-101965714D02*
X150471428Y-102137142D01*
X149614285Y-103622857D02*
X149614285Y-102422857D01*
X149100000Y-103565714D02*
X148928571Y-103622857D01*
X148642857Y-103622857D01*
X148528571Y-103565714D01*
X148471428Y-103508571D01*
X148414285Y-103394285D01*
X148414285Y-103280000D01*
X148471428Y-103165714D01*
X148528571Y-103108571D01*
X148642857Y-103051428D01*
X148871428Y-102994285D01*
X148985714Y-102937142D01*
X149042857Y-102880000D01*
X149100000Y-102765714D01*
X149100000Y-102651428D01*
X149042857Y-102537142D01*
X148985714Y-102480000D01*
X148871428Y-102422857D01*
X148585714Y-102422857D01*
X148414285Y-102480000D01*
X146985714Y-103622857D02*
X146985714Y-102422857D01*
X146300000Y-103622857D02*
X146814285Y-102937142D01*
X146300000Y-102422857D02*
X146985714Y-103108571D01*
X145785714Y-103622857D02*
X145785714Y-102422857D01*
X145214285Y-103622857D02*
X145214285Y-102422857D01*
X144814285Y-103280000D01*
X144414285Y-102422857D01*
X144414285Y-103622857D01*
X143214285Y-103622857D02*
X143900000Y-103622857D01*
X143557142Y-103622857D02*
X143557142Y-102422857D01*
X143671428Y-102594285D01*
X143785714Y-102708571D01*
X143900000Y-102765714D01*
X156614285Y-105542857D02*
X157185714Y-105542857D01*
X157185714Y-104342857D01*
X156042857Y-105542857D02*
X156157142Y-105485714D01*
X156214285Y-105428571D01*
X156271428Y-105314285D01*
X156271428Y-104971428D01*
X156214285Y-104857142D01*
X156157142Y-104800000D01*
X156042857Y-104742857D01*
X155871428Y-104742857D01*
X155757142Y-104800000D01*
X155700000Y-104857142D01*
X155642857Y-104971428D01*
X155642857Y-105314285D01*
X155700000Y-105428571D01*
X155757142Y-105485714D01*
X155871428Y-105542857D01*
X156042857Y-105542857D01*
X155242857Y-104742857D02*
X155014285Y-105542857D01*
X154785714Y-104971428D01*
X154557142Y-105542857D01*
X154328571Y-104742857D01*
X152957142Y-105542857D02*
X152957142Y-104342857D01*
X152500000Y-104342857D01*
X152385714Y-104400000D01*
X152328571Y-104457142D01*
X152271428Y-104571428D01*
X152271428Y-104742857D01*
X152328571Y-104857142D01*
X152385714Y-104914285D01*
X152500000Y-104971428D01*
X152957142Y-104971428D01*
X151585714Y-105542857D02*
X151700000Y-105485714D01*
X151757142Y-105428571D01*
X151814285Y-105314285D01*
X151814285Y-104971428D01*
X151757142Y-104857142D01*
X151700000Y-104800000D01*
X151585714Y-104742857D01*
X151414285Y-104742857D01*
X151300000Y-104800000D01*
X151242857Y-104857142D01*
X151185714Y-104971428D01*
X151185714Y-105314285D01*
X151242857Y-105428571D01*
X151300000Y-105485714D01*
X151414285Y-105542857D01*
X151585714Y-105542857D01*
X150785714Y-104742857D02*
X150557142Y-105542857D01*
X150328571Y-104971428D01*
X150100000Y-105542857D01*
X149871428Y-104742857D01*
X148957142Y-105485714D02*
X149071428Y-105542857D01*
X149300000Y-105542857D01*
X149414285Y-105485714D01*
X149471428Y-105371428D01*
X149471428Y-104914285D01*
X149414285Y-104800000D01*
X149300000Y-104742857D01*
X149071428Y-104742857D01*
X148957142Y-104800000D01*
X148900000Y-104914285D01*
X148900000Y-105028571D01*
X149471428Y-105142857D01*
X148385714Y-105542857D02*
X148385714Y-104742857D01*
X148385714Y-104971428D02*
X148328571Y-104857142D01*
X148271428Y-104800000D01*
X148157142Y-104742857D01*
X148042857Y-104742857D01*
X146785714Y-105485714D02*
X146614285Y-105542857D01*
X146328571Y-105542857D01*
X146214285Y-105485714D01*
X146157142Y-105428571D01*
X146100000Y-105314285D01*
X146100000Y-105200000D01*
X146157142Y-105085714D01*
X146214285Y-105028571D01*
X146328571Y-104971428D01*
X146557142Y-104914285D01*
X146671428Y-104857142D01*
X146728571Y-104800000D01*
X146785714Y-104685714D01*
X146785714Y-104571428D01*
X146728571Y-104457142D01*
X146671428Y-104400000D01*
X146557142Y-104342857D01*
X146271428Y-104342857D01*
X146100000Y-104400000D01*
X145071428Y-105542857D02*
X145071428Y-104914285D01*
X145128571Y-104800000D01*
X145242857Y-104742857D01*
X145471428Y-104742857D01*
X145585714Y-104800000D01*
X145071428Y-105485714D02*
X145185714Y-105542857D01*
X145471428Y-105542857D01*
X145585714Y-105485714D01*
X145642857Y-105371428D01*
X145642857Y-105257142D01*
X145585714Y-105142857D01*
X145471428Y-105085714D01*
X145185714Y-105085714D01*
X145071428Y-105028571D01*
X144671428Y-104742857D02*
X144214285Y-104742857D01*
X144500000Y-104342857D02*
X144500000Y-105371428D01*
X144442857Y-105485714D01*
X144328571Y-105542857D01*
X144214285Y-105542857D01*
X143357142Y-105485714D02*
X143471428Y-105542857D01*
X143700000Y-105542857D01*
X143814285Y-105485714D01*
X143871428Y-105371428D01*
X143871428Y-104914285D01*
X143814285Y-104800000D01*
X143700000Y-104742857D01*
X143471428Y-104742857D01*
X143357142Y-104800000D01*
X143300000Y-104914285D01*
X143300000Y-105028571D01*
X143871428Y-105142857D01*
X142614285Y-105542857D02*
X142728571Y-105485714D01*
X142785714Y-105371428D01*
X142785714Y-104342857D01*
X141985714Y-105542857D02*
X142100000Y-105485714D01*
X142157142Y-105371428D01*
X142157142Y-104342857D01*
X141528571Y-105542857D02*
X141528571Y-104742857D01*
X141528571Y-104342857D02*
X141585714Y-104400000D01*
X141528571Y-104457142D01*
X141471428Y-104400000D01*
X141528571Y-104342857D01*
X141528571Y-104457142D01*
X141128571Y-104742857D02*
X140671428Y-104742857D01*
X140957142Y-104342857D02*
X140957142Y-105371428D01*
X140900000Y-105485714D01*
X140785714Y-105542857D01*
X140671428Y-105542857D01*
X139814285Y-105485714D02*
X139928571Y-105542857D01*
X140157142Y-105542857D01*
X140271428Y-105485714D01*
X140328571Y-105371428D01*
X140328571Y-104914285D01*
X140271428Y-104800000D01*
X140157142Y-104742857D01*
X139928571Y-104742857D01*
X139814285Y-104800000D01*
X139757142Y-104914285D01*
X139757142Y-105028571D01*
X140328571Y-105142857D01*
X157042857Y-106262857D02*
X156357142Y-106262857D01*
X156700000Y-107462857D02*
X156700000Y-106262857D01*
X155957142Y-107462857D02*
X155957142Y-106662857D01*
X155957142Y-106891428D02*
X155900000Y-106777142D01*
X155842857Y-106720000D01*
X155728571Y-106662857D01*
X155614285Y-106662857D01*
X154700000Y-107462857D02*
X154700000Y-106834285D01*
X154757142Y-106720000D01*
X154871428Y-106662857D01*
X155100000Y-106662857D01*
X155214285Y-106720000D01*
X154700000Y-107405714D02*
X154814285Y-107462857D01*
X155100000Y-107462857D01*
X155214285Y-107405714D01*
X155271428Y-107291428D01*
X155271428Y-107177142D01*
X155214285Y-107062857D01*
X155100000Y-107005714D01*
X154814285Y-107005714D01*
X154700000Y-106948571D01*
X154128571Y-106662857D02*
X154128571Y-107462857D01*
X154128571Y-106777142D02*
X154071428Y-106720000D01*
X153957142Y-106662857D01*
X153785714Y-106662857D01*
X153671428Y-106720000D01*
X153614285Y-106834285D01*
X153614285Y-107462857D01*
X153100000Y-107405714D02*
X152985714Y-107462857D01*
X152757142Y-107462857D01*
X152642857Y-107405714D01*
X152585714Y-107291428D01*
X152585714Y-107234285D01*
X152642857Y-107120000D01*
X152757142Y-107062857D01*
X152928571Y-107062857D01*
X153042857Y-107005714D01*
X153100000Y-106891428D01*
X153100000Y-106834285D01*
X153042857Y-106720000D01*
X152928571Y-106662857D01*
X152757142Y-106662857D01*
X152642857Y-106720000D01*
X152071428Y-107462857D02*
X152071428Y-106662857D01*
X152071428Y-106777142D02*
X152014285Y-106720000D01*
X151900000Y-106662857D01*
X151728571Y-106662857D01*
X151614285Y-106720000D01*
X151557142Y-106834285D01*
X151557142Y-107462857D01*
X151557142Y-106834285D02*
X151500000Y-106720000D01*
X151385714Y-106662857D01*
X151214285Y-106662857D01*
X151100000Y-106720000D01*
X151042857Y-106834285D01*
X151042857Y-107462857D01*
X150471428Y-107462857D02*
X150471428Y-106662857D01*
X150471428Y-106262857D02*
X150528571Y-106320000D01*
X150471428Y-106377142D01*
X150414285Y-106320000D01*
X150471428Y-106262857D01*
X150471428Y-106377142D01*
X150071428Y-106662857D02*
X149614285Y-106662857D01*
X149900000Y-106262857D02*
X149900000Y-107291428D01*
X149842857Y-107405714D01*
X149728571Y-107462857D01*
X149614285Y-107462857D01*
X149385714Y-106662857D02*
X148928571Y-106662857D01*
X149214285Y-106262857D02*
X149214285Y-107291428D01*
X149157142Y-107405714D01*
X149042857Y-107462857D01*
X148928571Y-107462857D01*
X148071428Y-107405714D02*
X148185714Y-107462857D01*
X148414285Y-107462857D01*
X148528571Y-107405714D01*
X148585714Y-107291428D01*
X148585714Y-106834285D01*
X148528571Y-106720000D01*
X148414285Y-106662857D01*
X148185714Y-106662857D01*
X148071428Y-106720000D01*
X148014285Y-106834285D01*
X148014285Y-106948571D01*
X148585714Y-107062857D01*
X147500000Y-107462857D02*
X147500000Y-106662857D01*
X147500000Y-106891428D02*
X147442857Y-106777142D01*
X147385714Y-106720000D01*
X147271428Y-106662857D01*
X147157142Y-106662857D01*
X145842857Y-107462857D02*
X145842857Y-106262857D01*
X145442857Y-107120000D01*
X145042857Y-106262857D01*
X145042857Y-107462857D01*
X144300000Y-107462857D02*
X144414285Y-107405714D01*
X144471428Y-107348571D01*
X144528571Y-107234285D01*
X144528571Y-106891428D01*
X144471428Y-106777142D01*
X144414285Y-106720000D01*
X144300000Y-106662857D01*
X144128571Y-106662857D01*
X144014285Y-106720000D01*
X143957142Y-106777142D01*
X143900000Y-106891428D01*
X143900000Y-107234285D01*
X143957142Y-107348571D01*
X144014285Y-107405714D01*
X144128571Y-107462857D01*
X144300000Y-107462857D01*
X142871428Y-107462857D02*
X142871428Y-106262857D01*
X142871428Y-107405714D02*
X142985714Y-107462857D01*
X143214285Y-107462857D01*
X143328571Y-107405714D01*
X143385714Y-107348571D01*
X143442857Y-107234285D01*
X143442857Y-106891428D01*
X143385714Y-106777142D01*
X143328571Y-106720000D01*
X143214285Y-106662857D01*
X142985714Y-106662857D01*
X142871428Y-106720000D01*
X141785714Y-106662857D02*
X141785714Y-107462857D01*
X142300000Y-106662857D02*
X142300000Y-107291428D01*
X142242857Y-107405714D01*
X142128571Y-107462857D01*
X141957142Y-107462857D01*
X141842857Y-107405714D01*
X141785714Y-107348571D01*
X141042857Y-107462857D02*
X141157142Y-107405714D01*
X141214285Y-107291428D01*
X141214285Y-106262857D01*
X140128571Y-107405714D02*
X140242857Y-107462857D01*
X140471428Y-107462857D01*
X140585714Y-107405714D01*
X140642857Y-107291428D01*
X140642857Y-106834285D01*
X140585714Y-106720000D01*
X140471428Y-106662857D01*
X140242857Y-106662857D01*
X140128571Y-106720000D01*
X140071428Y-106834285D01*
X140071428Y-106948571D01*
X140642857Y-107062857D01*
X151700000Y-85200000D02*
X151128571Y-85200000D01*
X151814285Y-85542857D02*
X151414285Y-84342857D01*
X151014285Y-85542857D01*
X150042857Y-85542857D02*
X150614285Y-85542857D01*
X150614285Y-84342857D01*
X149642857Y-85542857D02*
X149642857Y-84342857D01*
X149185714Y-84342857D01*
X149071428Y-84400000D01*
X149014285Y-84457142D01*
X148957142Y-84571428D01*
X148957142Y-84742857D01*
X149014285Y-84857142D01*
X149071428Y-84914285D01*
X149185714Y-84971428D01*
X149642857Y-84971428D01*
X148557142Y-84342857D02*
X148271428Y-85542857D01*
X148042857Y-84685714D01*
X147814285Y-85542857D01*
X147528571Y-84342857D01*
X147128571Y-85200000D02*
X146557142Y-85200000D01*
X147242857Y-85542857D02*
X146842857Y-84342857D01*
X146442857Y-85542857D01*
X146042857Y-85542857D02*
X146042857Y-84342857D01*
X145357142Y-85542857D01*
X145357142Y-84342857D01*
D11*
X135650000Y-130450000D02*
X135650000Y-128050000D01*
X135650000Y-130450000D02*
X143900000Y-130450000D01*
X143900000Y-130450000D02*
X143900000Y-127200000D01*
X145400000Y-130450000D02*
X145400000Y-127200000D01*
X163500000Y-127250000D02*
X163500000Y-79500000D01*
X162150000Y-127250000D02*
X163500000Y-127250000D01*
X145400000Y-130450000D02*
X161350000Y-130450000D01*
X161350000Y-130450000D02*
X161350000Y-128050000D01*
X162150000Y-127250000D02*
G75*
G03*
X161350000Y-128050000I0J-800000D01*
G01*
X144650000Y-126450000D02*
G75*
G03*
X143900000Y-127200000I0J-750000D01*
G01*
X145400000Y-127200000D02*
G75*
G03*
X144650000Y-126450000I-750000J0D01*
G01*
X135650000Y-128050000D02*
G75*
G03*
X134850000Y-127250000I-800000J0D01*
G01*
X133500000Y-127250000D02*
X134850000Y-127250000D01*
X133500000Y-79500000D02*
X133500000Y-127250000D01*
X133500000Y-79500000D02*
X163500000Y-79500000D01*
D12*
G36*
X157908759Y-91469184D02*
G01*
X157882247Y-91482282D01*
X157849553Y-91505106D01*
X157825725Y-91529996D01*
X157809406Y-91561249D01*
X157799240Y-91603166D01*
X157793872Y-91660044D01*
X157791944Y-91736184D01*
X157791831Y-91768917D01*
X157792161Y-91840656D01*
X157793527Y-91891927D01*
X157796500Y-91927404D01*
X157801649Y-91951763D01*
X157809543Y-91969680D01*
X157817757Y-91981902D01*
X157870187Y-92033905D01*
X157931930Y-92065184D01*
X157998536Y-92074592D01*
X158065558Y-92060980D01*
X158086792Y-92051354D01*
X158137624Y-92024859D01*
X158137624Y-92440052D01*
X158100525Y-92420868D01*
X158051643Y-92406025D01*
X157991561Y-92402222D01*
X157931564Y-92409243D01*
X157886256Y-92425013D01*
X157848675Y-92455047D01*
X157816564Y-92498024D01*
X157814150Y-92502436D01*
X157803967Y-92523221D01*
X157796530Y-92544170D01*
X157791411Y-92569548D01*
X157788181Y-92603618D01*
X157786413Y-92650641D01*
X157785677Y-92714882D01*
X157785544Y-92787176D01*
X157785544Y-93017822D01*
X157923861Y-93017822D01*
X157923861Y-92592533D01*
X157962549Y-92559979D01*
X158002738Y-92533940D01*
X158040797Y-92529205D01*
X158079066Y-92541389D01*
X158099462Y-92553320D01*
X158114642Y-92570313D01*
X158125438Y-92595995D01*
X158132683Y-92633991D01*
X158137208Y-92687926D01*
X158139844Y-92761425D01*
X158140772Y-92810347D01*
X158143911Y-93011535D01*
X158209926Y-93015336D01*
X158275940Y-93019136D01*
X158275940Y-91770650D01*
X158137624Y-91770650D01*
X158134097Y-91840254D01*
X158122215Y-91888569D01*
X158100020Y-91918631D01*
X158065559Y-91933471D01*
X158030742Y-91936436D01*
X157991329Y-91933028D01*
X157965171Y-91919617D01*
X157948814Y-91901896D01*
X157935937Y-91882835D01*
X157928272Y-91861601D01*
X157924861Y-91831849D01*
X157924749Y-91787236D01*
X157925897Y-91749880D01*
X157928532Y-91693604D01*
X157932456Y-91656658D01*
X157939063Y-91633223D01*
X157949749Y-91617480D01*
X157959833Y-91608380D01*
X158001970Y-91588537D01*
X158051840Y-91585332D01*
X158080476Y-91592168D01*
X158108828Y-91616464D01*
X158127609Y-91663728D01*
X158136712Y-91733624D01*
X158137624Y-91770650D01*
X158275940Y-91770650D01*
X158275940Y-91458614D01*
X158206782Y-91458614D01*
X158165260Y-91460256D01*
X158143838Y-91466087D01*
X158137626Y-91477461D01*
X158137624Y-91477798D01*
X158134742Y-91488938D01*
X158122030Y-91487673D01*
X158096757Y-91475433D01*
X158037869Y-91456707D01*
X157971615Y-91454739D01*
X157908759Y-91469184D01*
G37*
X157908759Y-91469184D02*
X157882247Y-91482282D01*
X157849553Y-91505106D01*
X157825725Y-91529996D01*
X157809406Y-91561249D01*
X157799240Y-91603166D01*
X157793872Y-91660044D01*
X157791944Y-91736184D01*
X157791831Y-91768917D01*
X157792161Y-91840656D01*
X157793527Y-91891927D01*
X157796500Y-91927404D01*
X157801649Y-91951763D01*
X157809543Y-91969680D01*
X157817757Y-91981902D01*
X157870187Y-92033905D01*
X157931930Y-92065184D01*
X157998536Y-92074592D01*
X158065558Y-92060980D01*
X158086792Y-92051354D01*
X158137624Y-92024859D01*
X158137624Y-92440052D01*
X158100525Y-92420868D01*
X158051643Y-92406025D01*
X157991561Y-92402222D01*
X157931564Y-92409243D01*
X157886256Y-92425013D01*
X157848675Y-92455047D01*
X157816564Y-92498024D01*
X157814150Y-92502436D01*
X157803967Y-92523221D01*
X157796530Y-92544170D01*
X157791411Y-92569548D01*
X157788181Y-92603618D01*
X157786413Y-92650641D01*
X157785677Y-92714882D01*
X157785544Y-92787176D01*
X157785544Y-93017822D01*
X157923861Y-93017822D01*
X157923861Y-92592533D01*
X157962549Y-92559979D01*
X158002738Y-92533940D01*
X158040797Y-92529205D01*
X158079066Y-92541389D01*
X158099462Y-92553320D01*
X158114642Y-92570313D01*
X158125438Y-92595995D01*
X158132683Y-92633991D01*
X158137208Y-92687926D01*
X158139844Y-92761425D01*
X158140772Y-92810347D01*
X158143911Y-93011535D01*
X158209926Y-93015336D01*
X158275940Y-93019136D01*
X158275940Y-91770650D01*
X158137624Y-91770650D01*
X158134097Y-91840254D01*
X158122215Y-91888569D01*
X158100020Y-91918631D01*
X158065559Y-91933471D01*
X158030742Y-91936436D01*
X157991329Y-91933028D01*
X157965171Y-91919617D01*
X157948814Y-91901896D01*
X157935937Y-91882835D01*
X157928272Y-91861601D01*
X157924861Y-91831849D01*
X157924749Y-91787236D01*
X157925897Y-91749880D01*
X157928532Y-91693604D01*
X157932456Y-91656658D01*
X157939063Y-91633223D01*
X157949749Y-91617480D01*
X157959833Y-91608380D01*
X158001970Y-91588537D01*
X158051840Y-91585332D01*
X158080476Y-91592168D01*
X158108828Y-91616464D01*
X158127609Y-91663728D01*
X158136712Y-91733624D01*
X158137624Y-91770650D01*
X158275940Y-91770650D01*
X158275940Y-91458614D01*
X158206782Y-91458614D01*
X158165260Y-91460256D01*
X158143838Y-91466087D01*
X158137626Y-91477461D01*
X158137624Y-91477798D01*
X158134742Y-91488938D01*
X158122030Y-91487673D01*
X158096757Y-91475433D01*
X158037869Y-91456707D01*
X157971615Y-91454739D01*
X157908759Y-91469184D01*
G36*
X157384210Y-92406555D02*
G01*
X157325055Y-92422339D01*
X157280023Y-92450948D01*
X157248246Y-92488419D01*
X157238366Y-92504411D01*
X157231073Y-92521163D01*
X157225974Y-92542592D01*
X157222679Y-92572616D01*
X157220797Y-92615154D01*
X157219937Y-92674122D01*
X157219707Y-92753440D01*
X157219703Y-92774484D01*
X157219703Y-93017822D01*
X157280059Y-93017822D01*
X157318557Y-93015126D01*
X157347023Y-93008295D01*
X157354155Y-93004083D01*
X157373652Y-92996813D01*
X157393566Y-93004083D01*
X157426353Y-93013160D01*
X157473978Y-93016813D01*
X157526764Y-93015228D01*
X157575036Y-93008589D01*
X157603218Y-93000072D01*
X157657753Y-92965063D01*
X157691835Y-92916479D01*
X157707157Y-92851882D01*
X157707299Y-92850223D01*
X157705955Y-92821566D01*
X157584356Y-92821566D01*
X157573726Y-92854161D01*
X157556410Y-92872505D01*
X157521652Y-92886379D01*
X157475773Y-92891917D01*
X157428988Y-92889191D01*
X157391514Y-92878274D01*
X157381015Y-92871269D01*
X157362668Y-92838904D01*
X157358020Y-92802111D01*
X157358020Y-92753763D01*
X157427582Y-92753763D01*
X157493667Y-92758850D01*
X157543764Y-92773263D01*
X157574929Y-92795729D01*
X157584356Y-92821566D01*
X157705955Y-92821566D01*
X157703987Y-92779647D01*
X157680710Y-92723845D01*
X157636948Y-92681647D01*
X157630899Y-92677808D01*
X157604907Y-92665309D01*
X157572735Y-92657740D01*
X157527760Y-92654061D01*
X157474331Y-92653216D01*
X157358020Y-92653169D01*
X157358020Y-92604411D01*
X157362953Y-92566581D01*
X157375543Y-92541236D01*
X157377017Y-92539887D01*
X157405034Y-92528800D01*
X157447326Y-92524503D01*
X157494064Y-92526615D01*
X157535418Y-92534756D01*
X157559957Y-92546965D01*
X157573253Y-92556746D01*
X157587294Y-92558613D01*
X157606671Y-92550600D01*
X157635976Y-92530739D01*
X157679803Y-92497063D01*
X157683825Y-92493909D01*
X157681764Y-92482236D01*
X157664568Y-92462822D01*
X157638433Y-92441248D01*
X157609552Y-92423096D01*
X157600478Y-92418809D01*
X157567380Y-92410256D01*
X157518880Y-92404155D01*
X157464695Y-92401708D01*
X157462161Y-92401703D01*
X157384210Y-92406555D01*
G37*
X157384210Y-92406555D02*
X157325055Y-92422339D01*
X157280023Y-92450948D01*
X157248246Y-92488419D01*
X157238366Y-92504411D01*
X157231073Y-92521163D01*
X157225974Y-92542592D01*
X157222679Y-92572616D01*
X157220797Y-92615154D01*
X157219937Y-92674122D01*
X157219707Y-92753440D01*
X157219703Y-92774484D01*
X157219703Y-93017822D01*
X157280059Y-93017822D01*
X157318557Y-93015126D01*
X157347023Y-93008295D01*
X157354155Y-93004083D01*
X157373652Y-92996813D01*
X157393566Y-93004083D01*
X157426353Y-93013160D01*
X157473978Y-93016813D01*
X157526764Y-93015228D01*
X157575036Y-93008589D01*
X157603218Y-93000072D01*
X157657753Y-92965063D01*
X157691835Y-92916479D01*
X157707157Y-92851882D01*
X157707299Y-92850223D01*
X157705955Y-92821566D01*
X157584356Y-92821566D01*
X157573726Y-92854161D01*
X157556410Y-92872505D01*
X157521652Y-92886379D01*
X157475773Y-92891917D01*
X157428988Y-92889191D01*
X157391514Y-92878274D01*
X157381015Y-92871269D01*
X157362668Y-92838904D01*
X157358020Y-92802111D01*
X157358020Y-92753763D01*
X157427582Y-92753763D01*
X157493667Y-92758850D01*
X157543764Y-92773263D01*
X157574929Y-92795729D01*
X157584356Y-92821566D01*
X157705955Y-92821566D01*
X157703987Y-92779647D01*
X157680710Y-92723845D01*
X157636948Y-92681647D01*
X157630899Y-92677808D01*
X157604907Y-92665309D01*
X157572735Y-92657740D01*
X157527760Y-92654061D01*
X157474331Y-92653216D01*
X157358020Y-92653169D01*
X157358020Y-92604411D01*
X157362953Y-92566581D01*
X157375543Y-92541236D01*
X157377017Y-92539887D01*
X157405034Y-92528800D01*
X157447326Y-92524503D01*
X157494064Y-92526615D01*
X157535418Y-92534756D01*
X157559957Y-92546965D01*
X157573253Y-92556746D01*
X157587294Y-92558613D01*
X157606671Y-92550600D01*
X157635976Y-92530739D01*
X157679803Y-92497063D01*
X157683825Y-92493909D01*
X157681764Y-92482236D01*
X157664568Y-92462822D01*
X157638433Y-92441248D01*
X157609552Y-92423096D01*
X157600478Y-92418809D01*
X157567380Y-92410256D01*
X157518880Y-92404155D01*
X157464695Y-92401708D01*
X157462161Y-92401703D01*
X157384210Y-92406555D01*
G36*
X156993356Y-92403020D02*
G01*
X156974539Y-92408660D01*
X156968473Y-92421053D01*
X156968218Y-92426647D01*
X156967129Y-92442230D01*
X156959632Y-92444676D01*
X156939381Y-92433993D01*
X156927351Y-92426694D01*
X156889400Y-92411063D01*
X156844072Y-92403334D01*
X156796544Y-92402740D01*
X156751995Y-92408513D01*
X156715602Y-92419884D01*
X156692543Y-92436088D01*
X156687996Y-92456355D01*
X156690291Y-92461843D01*
X156707020Y-92484626D01*
X156732963Y-92512647D01*
X156737655Y-92517177D01*
X156762383Y-92538005D01*
X156783718Y-92544735D01*
X156813555Y-92540038D01*
X156825508Y-92536917D01*
X156862705Y-92529421D01*
X156888859Y-92532792D01*
X156910946Y-92544681D01*
X156931178Y-92560635D01*
X156946079Y-92580700D01*
X156956434Y-92608702D01*
X156963029Y-92648467D01*
X156966649Y-92703823D01*
X156968078Y-92778594D01*
X156968218Y-92823740D01*
X156968218Y-93017822D01*
X157093960Y-93017822D01*
X157093960Y-92401683D01*
X157031089Y-92401683D01*
X156993356Y-92403020D01*
G37*
X156993356Y-92403020D02*
X156974539Y-92408660D01*
X156968473Y-92421053D01*
X156968218Y-92426647D01*
X156967129Y-92442230D01*
X156959632Y-92444676D01*
X156939381Y-92433993D01*
X156927351Y-92426694D01*
X156889400Y-92411063D01*
X156844072Y-92403334D01*
X156796544Y-92402740D01*
X156751995Y-92408513D01*
X156715602Y-92419884D01*
X156692543Y-92436088D01*
X156687996Y-92456355D01*
X156690291Y-92461843D01*
X156707020Y-92484626D01*
X156732963Y-92512647D01*
X156737655Y-92517177D01*
X156762383Y-92538005D01*
X156783718Y-92544735D01*
X156813555Y-92540038D01*
X156825508Y-92536917D01*
X156862705Y-92529421D01*
X156888859Y-92532792D01*
X156910946Y-92544681D01*
X156931178Y-92560635D01*
X156946079Y-92580700D01*
X156956434Y-92608702D01*
X156963029Y-92648467D01*
X156966649Y-92703823D01*
X156968078Y-92778594D01*
X156968218Y-92823740D01*
X156968218Y-93017822D01*
X157093960Y-93017822D01*
X157093960Y-92401683D01*
X157031089Y-92401683D01*
X156993356Y-92403020D01*
G36*
X156201188Y-93017822D02*
G01*
X156270346Y-93017822D01*
X156310488Y-93016645D01*
X156331394Y-93011772D01*
X156338922Y-93001186D01*
X156339505Y-92994029D01*
X156340774Y-92979676D01*
X156348779Y-92976923D01*
X156369815Y-92985771D01*
X156386173Y-92994029D01*
X156448977Y-93013597D01*
X156517248Y-93014729D01*
X156572752Y-93000135D01*
X156624438Y-92964877D01*
X156663838Y-92912835D01*
X156685413Y-92851450D01*
X156685962Y-92848018D01*
X156689167Y-92810571D01*
X156690761Y-92756813D01*
X156690633Y-92716155D01*
X156553279Y-92716155D01*
X156550097Y-92770194D01*
X156542859Y-92814735D01*
X156533060Y-92839888D01*
X156495989Y-92874260D01*
X156451974Y-92886582D01*
X156406584Y-92876618D01*
X156367797Y-92846895D01*
X156353108Y-92826905D01*
X156344519Y-92803050D01*
X156340496Y-92768230D01*
X156339505Y-92715930D01*
X156341278Y-92664139D01*
X156345963Y-92618634D01*
X156352603Y-92588181D01*
X156353710Y-92585452D01*
X156380491Y-92553000D01*
X156419579Y-92535183D01*
X156463315Y-92532306D01*
X156504038Y-92544674D01*
X156534087Y-92572593D01*
X156537204Y-92578148D01*
X156546961Y-92612022D01*
X156552277Y-92660728D01*
X156553279Y-92716155D01*
X156690633Y-92716155D01*
X156690568Y-92695540D01*
X156689664Y-92662563D01*
X156683514Y-92580981D01*
X156670733Y-92519730D01*
X156649471Y-92474449D01*
X156617878Y-92440779D01*
X156587207Y-92421014D01*
X156544354Y-92407120D01*
X156491056Y-92402354D01*
X156436480Y-92406236D01*
X156389792Y-92418282D01*
X156365124Y-92432693D01*
X156339505Y-92455878D01*
X156339505Y-92162773D01*
X156201188Y-92162773D01*
X156201188Y-93017822D01*
G37*
X156201188Y-93017822D02*
X156270346Y-93017822D01*
X156310488Y-93016645D01*
X156331394Y-93011772D01*
X156338922Y-93001186D01*
X156339505Y-92994029D01*
X156340774Y-92979676D01*
X156348779Y-92976923D01*
X156369815Y-92985771D01*
X156386173Y-92994029D01*
X156448977Y-93013597D01*
X156517248Y-93014729D01*
X156572752Y-93000135D01*
X156624438Y-92964877D01*
X156663838Y-92912835D01*
X156685413Y-92851450D01*
X156685962Y-92848018D01*
X156689167Y-92810571D01*
X156690761Y-92756813D01*
X156690633Y-92716155D01*
X156553279Y-92716155D01*
X156550097Y-92770194D01*
X156542859Y-92814735D01*
X156533060Y-92839888D01*
X156495989Y-92874260D01*
X156451974Y-92886582D01*
X156406584Y-92876618D01*
X156367797Y-92846895D01*
X156353108Y-92826905D01*
X156344519Y-92803050D01*
X156340496Y-92768230D01*
X156339505Y-92715930D01*
X156341278Y-92664139D01*
X156345963Y-92618634D01*
X156352603Y-92588181D01*
X156353710Y-92585452D01*
X156380491Y-92553000D01*
X156419579Y-92535183D01*
X156463315Y-92532306D01*
X156504038Y-92544674D01*
X156534087Y-92572593D01*
X156537204Y-92578148D01*
X156546961Y-92612022D01*
X156552277Y-92660728D01*
X156553279Y-92716155D01*
X156690633Y-92716155D01*
X156690568Y-92695540D01*
X156689664Y-92662563D01*
X156683514Y-92580981D01*
X156670733Y-92519730D01*
X156649471Y-92474449D01*
X156617878Y-92440779D01*
X156587207Y-92421014D01*
X156544354Y-92407120D01*
X156491056Y-92402354D01*
X156436480Y-92406236D01*
X156389792Y-92418282D01*
X156365124Y-92432693D01*
X156339505Y-92455878D01*
X156339505Y-92162773D01*
X156201188Y-92162773D01*
X156201188Y-93017822D01*
G36*
X155718476Y-92404237D02*
G01*
X155668745Y-92407971D01*
X155538709Y-92797773D01*
X155518322Y-92728614D01*
X155506054Y-92685874D01*
X155489915Y-92628115D01*
X155472488Y-92564625D01*
X155463274Y-92530570D01*
X155428612Y-92401683D01*
X155285609Y-92401683D01*
X155328354Y-92536857D01*
X155349404Y-92603342D01*
X155374833Y-92683539D01*
X155401390Y-92767193D01*
X155425098Y-92841782D01*
X155479098Y-93011535D01*
X155537402Y-93015328D01*
X155595705Y-93019122D01*
X155627321Y-92914734D01*
X155646818Y-92849889D01*
X155668096Y-92778400D01*
X155686692Y-92715263D01*
X155687426Y-92712750D01*
X155701316Y-92669969D01*
X155713571Y-92640779D01*
X155722154Y-92629741D01*
X155723918Y-92631018D01*
X155730109Y-92648130D01*
X155741872Y-92684787D01*
X155757775Y-92736378D01*
X155776386Y-92798294D01*
X155786457Y-92832352D01*
X155840993Y-93017822D01*
X155956736Y-93017822D01*
X156049263Y-92725471D01*
X156075256Y-92643462D01*
X156098934Y-92568987D01*
X156119180Y-92505544D01*
X156134874Y-92456632D01*
X156144898Y-92425749D01*
X156147945Y-92416726D01*
X156145533Y-92407487D01*
X156126592Y-92403441D01*
X156087177Y-92403846D01*
X156081007Y-92404152D01*
X156007914Y-92407971D01*
X155960043Y-92584010D01*
X155942447Y-92648211D01*
X155926723Y-92704649D01*
X155914254Y-92748422D01*
X155906426Y-92774630D01*
X155904980Y-92778903D01*
X155898986Y-92773990D01*
X155886899Y-92748532D01*
X155870107Y-92705997D01*
X155849997Y-92649850D01*
X155832997Y-92599130D01*
X155768206Y-92400504D01*
X155718476Y-92404237D01*
G37*
X155718476Y-92404237D02*
X155668745Y-92407971D01*
X155538709Y-92797773D01*
X155518322Y-92728614D01*
X155506054Y-92685874D01*
X155489915Y-92628115D01*
X155472488Y-92564625D01*
X155463274Y-92530570D01*
X155428612Y-92401683D01*
X155285609Y-92401683D01*
X155328354Y-92536857D01*
X155349404Y-92603342D01*
X155374833Y-92683539D01*
X155401390Y-92767193D01*
X155425098Y-92841782D01*
X155479098Y-93011535D01*
X155537402Y-93015328D01*
X155595705Y-93019122D01*
X155627321Y-92914734D01*
X155646818Y-92849889D01*
X155668096Y-92778400D01*
X155686692Y-92715263D01*
X155687426Y-92712750D01*
X155701316Y-92669969D01*
X155713571Y-92640779D01*
X155722154Y-92629741D01*
X155723918Y-92631018D01*
X155730109Y-92648130D01*
X155741872Y-92684787D01*
X155757775Y-92736378D01*
X155776386Y-92798294D01*
X155786457Y-92832352D01*
X155840993Y-93017822D01*
X155956736Y-93017822D01*
X156049263Y-92725471D01*
X156075256Y-92643462D01*
X156098934Y-92568987D01*
X156119180Y-92505544D01*
X156134874Y-92456632D01*
X156144898Y-92425749D01*
X156147945Y-92416726D01*
X156145533Y-92407487D01*
X156126592Y-92403441D01*
X156087177Y-92403846D01*
X156081007Y-92404152D01*
X156007914Y-92407971D01*
X155960043Y-92584010D01*
X155942447Y-92648211D01*
X155926723Y-92704649D01*
X155914254Y-92748422D01*
X155906426Y-92774630D01*
X155904980Y-92778903D01*
X155898986Y-92773990D01*
X155886899Y-92748532D01*
X155870107Y-92705997D01*
X155849997Y-92649850D01*
X155832997Y-92599130D01*
X155768206Y-92400504D01*
X155718476Y-92404237D01*
G36*
X154961589Y-92405417D02*
G01*
X154908589Y-92418290D01*
X154893269Y-92425110D01*
X154863572Y-92442974D01*
X154840780Y-92463093D01*
X154823917Y-92488962D01*
X154812002Y-92524073D01*
X154804058Y-92571920D01*
X154799106Y-92635996D01*
X154796169Y-92719794D01*
X154795053Y-92775768D01*
X154790948Y-93017822D01*
X154861068Y-93017822D01*
X154903607Y-93016038D01*
X154925524Y-93009942D01*
X154931188Y-92999706D01*
X154934179Y-92988637D01*
X154947549Y-92990754D01*
X154965767Y-92999629D01*
X155011376Y-93013233D01*
X155069993Y-93016899D01*
X155131646Y-93010903D01*
X155186362Y-92995521D01*
X155191270Y-92993386D01*
X155241277Y-92958255D01*
X155274244Y-92909419D01*
X155289413Y-92852333D01*
X155288254Y-92831824D01*
X155164492Y-92831824D01*
X155153587Y-92859425D01*
X155121255Y-92879204D01*
X155069090Y-92889819D01*
X155041213Y-92891228D01*
X154994753Y-92887620D01*
X154963871Y-92873597D01*
X154956336Y-92866931D01*
X154935924Y-92830666D01*
X154931188Y-92797773D01*
X154931188Y-92753763D01*
X154992487Y-92753763D01*
X155063744Y-92757395D01*
X155113724Y-92768818D01*
X155145304Y-92788824D01*
X155152374Y-92797743D01*
X155164492Y-92831824D01*
X155288254Y-92831824D01*
X155286029Y-92792456D01*
X155263337Y-92735244D01*
X155232376Y-92696580D01*
X155213624Y-92679864D01*
X155195267Y-92668878D01*
X155171381Y-92662180D01*
X155136043Y-92658326D01*
X155083331Y-92655873D01*
X155062423Y-92655168D01*
X154931188Y-92650879D01*
X154931380Y-92611158D01*
X154936463Y-92569405D01*
X154954838Y-92544158D01*
X154991961Y-92528030D01*
X154992957Y-92527742D01*
X155045590Y-92521400D01*
X155097094Y-92529684D01*
X155135370Y-92549827D01*
X155150728Y-92559773D01*
X155167270Y-92558397D01*
X155192725Y-92543987D01*
X155207672Y-92533817D01*
X155236909Y-92512088D01*
X155255020Y-92495800D01*
X155257926Y-92491137D01*
X155245960Y-92467005D01*
X155210604Y-92438185D01*
X155195247Y-92428461D01*
X155151099Y-92411714D01*
X155091602Y-92402227D01*
X155025513Y-92400095D01*
X154961589Y-92405417D01*
G37*
X154961589Y-92405417D02*
X154908589Y-92418290D01*
X154893269Y-92425110D01*
X154863572Y-92442974D01*
X154840780Y-92463093D01*
X154823917Y-92488962D01*
X154812002Y-92524073D01*
X154804058Y-92571920D01*
X154799106Y-92635996D01*
X154796169Y-92719794D01*
X154795053Y-92775768D01*
X154790948Y-93017822D01*
X154861068Y-93017822D01*
X154903607Y-93016038D01*
X154925524Y-93009942D01*
X154931188Y-92999706D01*
X154934179Y-92988637D01*
X154947549Y-92990754D01*
X154965767Y-92999629D01*
X155011376Y-93013233D01*
X155069993Y-93016899D01*
X155131646Y-93010903D01*
X155186362Y-92995521D01*
X155191270Y-92993386D01*
X155241277Y-92958255D01*
X155274244Y-92909419D01*
X155289413Y-92852333D01*
X155288254Y-92831824D01*
X155164492Y-92831824D01*
X155153587Y-92859425D01*
X155121255Y-92879204D01*
X155069090Y-92889819D01*
X155041213Y-92891228D01*
X154994753Y-92887620D01*
X154963871Y-92873597D01*
X154956336Y-92866931D01*
X154935924Y-92830666D01*
X154931188Y-92797773D01*
X154931188Y-92753763D01*
X154992487Y-92753763D01*
X155063744Y-92757395D01*
X155113724Y-92768818D01*
X155145304Y-92788824D01*
X155152374Y-92797743D01*
X155164492Y-92831824D01*
X155288254Y-92831824D01*
X155286029Y-92792456D01*
X155263337Y-92735244D01*
X155232376Y-92696580D01*
X155213624Y-92679864D01*
X155195267Y-92668878D01*
X155171381Y-92662180D01*
X155136043Y-92658326D01*
X155083331Y-92655873D01*
X155062423Y-92655168D01*
X154931188Y-92650879D01*
X154931380Y-92611158D01*
X154936463Y-92569405D01*
X154954838Y-92544158D01*
X154991961Y-92528030D01*
X154992957Y-92527742D01*
X155045590Y-92521400D01*
X155097094Y-92529684D01*
X155135370Y-92549827D01*
X155150728Y-92559773D01*
X155167270Y-92558397D01*
X155192725Y-92543987D01*
X155207672Y-92533817D01*
X155236909Y-92512088D01*
X155255020Y-92495800D01*
X155257926Y-92491137D01*
X155245960Y-92467005D01*
X155210604Y-92438185D01*
X155195247Y-92428461D01*
X155151099Y-92411714D01*
X155091602Y-92402227D01*
X155025513Y-92400095D01*
X154961589Y-92405417D01*
G36*
X154364745Y-92401486D02*
G01*
X154316405Y-92411015D01*
X154288886Y-92425125D01*
X154259936Y-92448568D01*
X154301124Y-92500571D01*
X154326518Y-92532064D01*
X154343762Y-92547428D01*
X154360898Y-92549776D01*
X154385973Y-92542217D01*
X154397743Y-92537941D01*
X154445730Y-92531631D01*
X154489676Y-92545156D01*
X154521940Y-92575710D01*
X154527181Y-92585452D01*
X154532888Y-92611258D01*
X154537294Y-92658817D01*
X154540189Y-92724758D01*
X154541369Y-92805710D01*
X154541386Y-92817226D01*
X154541386Y-93017822D01*
X154679703Y-93017822D01*
X154679703Y-92401683D01*
X154610544Y-92401683D01*
X154570667Y-92402725D01*
X154549893Y-92407358D01*
X154542211Y-92417849D01*
X154541386Y-92427745D01*
X154541386Y-92453806D01*
X154508255Y-92427745D01*
X154470265Y-92409965D01*
X154419230Y-92401174D01*
X154364745Y-92401486D01*
G37*
X154364745Y-92401486D02*
X154316405Y-92411015D01*
X154288886Y-92425125D01*
X154259936Y-92448568D01*
X154301124Y-92500571D01*
X154326518Y-92532064D01*
X154343762Y-92547428D01*
X154360898Y-92549776D01*
X154385973Y-92542217D01*
X154397743Y-92537941D01*
X154445730Y-92531631D01*
X154489676Y-92545156D01*
X154521940Y-92575710D01*
X154527181Y-92585452D01*
X154532888Y-92611258D01*
X154537294Y-92658817D01*
X154540189Y-92724758D01*
X154541369Y-92805710D01*
X154541386Y-92817226D01*
X154541386Y-93017822D01*
X154679703Y-93017822D01*
X154679703Y-92401683D01*
X154610544Y-92401683D01*
X154570667Y-92402725D01*
X154549893Y-92407358D01*
X154542211Y-92417849D01*
X154541386Y-92427745D01*
X154541386Y-92453806D01*
X154508255Y-92427745D01*
X154470265Y-92409965D01*
X154419230Y-92401174D01*
X154364745Y-92401486D01*
G36*
X153967419Y-92404970D02*
G01*
X153907315Y-92420597D01*
X153856979Y-92452848D01*
X153832607Y-92476940D01*
X153792655Y-92533895D01*
X153769758Y-92599965D01*
X153761892Y-92681182D01*
X153761852Y-92687748D01*
X153761782Y-92753763D01*
X154141736Y-92753763D01*
X154133637Y-92788342D01*
X154119013Y-92819659D01*
X154093419Y-92852291D01*
X154088065Y-92857500D01*
X154042057Y-92885694D01*
X153989590Y-92890475D01*
X153929197Y-92871926D01*
X153918960Y-92866931D01*
X153887561Y-92851745D01*
X153866530Y-92843094D01*
X153862861Y-92842293D01*
X153850052Y-92850063D01*
X153825622Y-92869072D01*
X153813221Y-92879460D01*
X153787524Y-92903321D01*
X153779085Y-92919077D01*
X153784942Y-92933571D01*
X153788072Y-92937534D01*
X153809275Y-92954879D01*
X153844262Y-92975959D01*
X153868663Y-92988265D01*
X153937928Y-93009946D01*
X154014612Y-93016971D01*
X154087235Y-93008647D01*
X154107574Y-93002686D01*
X154170524Y-92968952D01*
X154217185Y-92917045D01*
X154247827Y-92846459D01*
X154262718Y-92756692D01*
X154264353Y-92709753D01*
X154259579Y-92641413D01*
X154139010Y-92641413D01*
X154127348Y-92646465D01*
X154096002Y-92650429D01*
X154050429Y-92652768D01*
X154019554Y-92653169D01*
X153964019Y-92652783D01*
X153928967Y-92650975D01*
X153909738Y-92646773D01*
X153901670Y-92639203D01*
X153900099Y-92628218D01*
X153910879Y-92594381D01*
X153938020Y-92560940D01*
X153973723Y-92535272D01*
X154009440Y-92524772D01*
X154057952Y-92534086D01*
X154099947Y-92561013D01*
X154129064Y-92599827D01*
X154139010Y-92641413D01*
X154259579Y-92641413D01*
X154257401Y-92610236D01*
X154235945Y-92530949D01*
X154199530Y-92471263D01*
X154147703Y-92430549D01*
X154080010Y-92408179D01*
X154043338Y-92403871D01*
X153967419Y-92404970D01*
G37*
X153967419Y-92404970D02*
X153907315Y-92420597D01*
X153856979Y-92452848D01*
X153832607Y-92476940D01*
X153792655Y-92533895D01*
X153769758Y-92599965D01*
X153761892Y-92681182D01*
X153761852Y-92687748D01*
X153761782Y-92753763D01*
X154141736Y-92753763D01*
X154133637Y-92788342D01*
X154119013Y-92819659D01*
X154093419Y-92852291D01*
X154088065Y-92857500D01*
X154042057Y-92885694D01*
X153989590Y-92890475D01*
X153929197Y-92871926D01*
X153918960Y-92866931D01*
X153887561Y-92851745D01*
X153866530Y-92843094D01*
X153862861Y-92842293D01*
X153850052Y-92850063D01*
X153825622Y-92869072D01*
X153813221Y-92879460D01*
X153787524Y-92903321D01*
X153779085Y-92919077D01*
X153784942Y-92933571D01*
X153788072Y-92937534D01*
X153809275Y-92954879D01*
X153844262Y-92975959D01*
X153868663Y-92988265D01*
X153937928Y-93009946D01*
X154014612Y-93016971D01*
X154087235Y-93008647D01*
X154107574Y-93002686D01*
X154170524Y-92968952D01*
X154217185Y-92917045D01*
X154247827Y-92846459D01*
X154262718Y-92756692D01*
X154264353Y-92709753D01*
X154259579Y-92641413D01*
X154139010Y-92641413D01*
X154127348Y-92646465D01*
X154096002Y-92650429D01*
X154050429Y-92652768D01*
X154019554Y-92653169D01*
X153964019Y-92652783D01*
X153928967Y-92650975D01*
X153909738Y-92646773D01*
X153901670Y-92639203D01*
X153900099Y-92628218D01*
X153910879Y-92594381D01*
X153938020Y-92560940D01*
X153973723Y-92535272D01*
X154009440Y-92524772D01*
X154057952Y-92534086D01*
X154099947Y-92561013D01*
X154129064Y-92599827D01*
X154139010Y-92641413D01*
X154259579Y-92641413D01*
X154257401Y-92610236D01*
X154235945Y-92530949D01*
X154199530Y-92471263D01*
X154147703Y-92430549D01*
X154080010Y-92408179D01*
X154043338Y-92403871D01*
X153967419Y-92404970D01*
G36*
X158538261Y-91465148D02*
G01*
X158472479Y-91494231D01*
X158422540Y-91542793D01*
X158388374Y-91610908D01*
X158369907Y-91698651D01*
X158368583Y-91712351D01*
X158367546Y-91808939D01*
X158380993Y-91893602D01*
X158408108Y-91962221D01*
X158422627Y-91984294D01*
X158473201Y-92031011D01*
X158537609Y-92061268D01*
X158609666Y-92073824D01*
X158683185Y-92067439D01*
X158739072Y-92047772D01*
X158787132Y-92014629D01*
X158826412Y-91971175D01*
X158827092Y-91970158D01*
X158843044Y-91943338D01*
X158853410Y-91916368D01*
X158859688Y-91882332D01*
X158863373Y-91834310D01*
X158864997Y-91794931D01*
X158865672Y-91759219D01*
X158739955Y-91759219D01*
X158738726Y-91794770D01*
X158734266Y-91842094D01*
X158726397Y-91872465D01*
X158712207Y-91894072D01*
X158698917Y-91906694D01*
X158651802Y-91933122D01*
X158602505Y-91936653D01*
X158556593Y-91917639D01*
X158533638Y-91896331D01*
X158517096Y-91874859D01*
X158507421Y-91854313D01*
X158503174Y-91827574D01*
X158502920Y-91787523D01*
X158504228Y-91750638D01*
X158507043Y-91697947D01*
X158511505Y-91663772D01*
X158519548Y-91641480D01*
X158533103Y-91624442D01*
X158543845Y-91614703D01*
X158588777Y-91589123D01*
X158637249Y-91587847D01*
X158677894Y-91602999D01*
X158712567Y-91634642D01*
X158733224Y-91686620D01*
X158739955Y-91759219D01*
X158865672Y-91759219D01*
X158866479Y-91716621D01*
X158863948Y-91658056D01*
X158856362Y-91614007D01*
X158842681Y-91579248D01*
X158821865Y-91548551D01*
X158814147Y-91539436D01*
X158765889Y-91494021D01*
X158714128Y-91467493D01*
X158650828Y-91456379D01*
X158619961Y-91455471D01*
X158538261Y-91465148D01*
G37*
X158538261Y-91465148D02*
X158472479Y-91494231D01*
X158422540Y-91542793D01*
X158388374Y-91610908D01*
X158369907Y-91698651D01*
X158368583Y-91712351D01*
X158367546Y-91808939D01*
X158380993Y-91893602D01*
X158408108Y-91962221D01*
X158422627Y-91984294D01*
X158473201Y-92031011D01*
X158537609Y-92061268D01*
X158609666Y-92073824D01*
X158683185Y-92067439D01*
X158739072Y-92047772D01*
X158787132Y-92014629D01*
X158826412Y-91971175D01*
X158827092Y-91970158D01*
X158843044Y-91943338D01*
X158853410Y-91916368D01*
X158859688Y-91882332D01*
X158863373Y-91834310D01*
X158864997Y-91794931D01*
X158865672Y-91759219D01*
X158739955Y-91759219D01*
X158738726Y-91794770D01*
X158734266Y-91842094D01*
X158726397Y-91872465D01*
X158712207Y-91894072D01*
X158698917Y-91906694D01*
X158651802Y-91933122D01*
X158602505Y-91936653D01*
X158556593Y-91917639D01*
X158533638Y-91896331D01*
X158517096Y-91874859D01*
X158507421Y-91854313D01*
X158503174Y-91827574D01*
X158502920Y-91787523D01*
X158504228Y-91750638D01*
X158507043Y-91697947D01*
X158511505Y-91663772D01*
X158519548Y-91641480D01*
X158533103Y-91624442D01*
X158543845Y-91614703D01*
X158588777Y-91589123D01*
X158637249Y-91587847D01*
X158677894Y-91602999D01*
X158712567Y-91634642D01*
X158733224Y-91686620D01*
X158739955Y-91759219D01*
X158865672Y-91759219D01*
X158866479Y-91716621D01*
X158863948Y-91658056D01*
X158856362Y-91614007D01*
X158842681Y-91579248D01*
X158821865Y-91548551D01*
X158814147Y-91539436D01*
X158765889Y-91494021D01*
X158714128Y-91467493D01*
X158650828Y-91456379D01*
X158619961Y-91455471D01*
X158538261Y-91465148D01*
G36*
X157356699Y-91472614D02*
G01*
X157344168Y-91478514D01*
X157300799Y-91510283D01*
X157259790Y-91556646D01*
X157229168Y-91607696D01*
X157220459Y-91631166D01*
X157212512Y-91673091D01*
X157207774Y-91723757D01*
X157207199Y-91744679D01*
X157207129Y-91810693D01*
X157587083Y-91810693D01*
X157578983Y-91845273D01*
X157559104Y-91886170D01*
X157524347Y-91921514D01*
X157482998Y-91944282D01*
X157456649Y-91949010D01*
X157420916Y-91943273D01*
X157378282Y-91928882D01*
X157363799Y-91922262D01*
X157310240Y-91895513D01*
X157264533Y-91930376D01*
X157238158Y-91953955D01*
X157224124Y-91973417D01*
X157223414Y-91979129D01*
X157235951Y-91992973D01*
X157263428Y-92014012D01*
X157288366Y-92030425D01*
X157355664Y-92059930D01*
X157431110Y-92073284D01*
X157505888Y-92069812D01*
X157565495Y-92051663D01*
X157626941Y-92012784D01*
X157670608Y-91961595D01*
X157697926Y-91895367D01*
X157710322Y-91811371D01*
X157711421Y-91772936D01*
X157707022Y-91684861D01*
X157706482Y-91682299D01*
X157580582Y-91682299D01*
X157577115Y-91690558D01*
X157562863Y-91695113D01*
X157533470Y-91697065D01*
X157484575Y-91697517D01*
X157465748Y-91697525D01*
X157408467Y-91696843D01*
X157372141Y-91694364D01*
X157352604Y-91689443D01*
X157345690Y-91681434D01*
X157345445Y-91678862D01*
X157353336Y-91658423D01*
X157373085Y-91629789D01*
X157381575Y-91619763D01*
X157413094Y-91591408D01*
X157445949Y-91580259D01*
X157463651Y-91579327D01*
X157511539Y-91590981D01*
X157551699Y-91622285D01*
X157577173Y-91667752D01*
X157577625Y-91669233D01*
X157580582Y-91682299D01*
X157706482Y-91682299D01*
X157692392Y-91615510D01*
X157666038Y-91560025D01*
X157633807Y-91520639D01*
X157574217Y-91477931D01*
X157504168Y-91455109D01*
X157429661Y-91453046D01*
X157356699Y-91472614D01*
G37*
X157356699Y-91472614D02*
X157344168Y-91478514D01*
X157300799Y-91510283D01*
X157259790Y-91556646D01*
X157229168Y-91607696D01*
X157220459Y-91631166D01*
X157212512Y-91673091D01*
X157207774Y-91723757D01*
X157207199Y-91744679D01*
X157207129Y-91810693D01*
X157587083Y-91810693D01*
X157578983Y-91845273D01*
X157559104Y-91886170D01*
X157524347Y-91921514D01*
X157482998Y-91944282D01*
X157456649Y-91949010D01*
X157420916Y-91943273D01*
X157378282Y-91928882D01*
X157363799Y-91922262D01*
X157310240Y-91895513D01*
X157264533Y-91930376D01*
X157238158Y-91953955D01*
X157224124Y-91973417D01*
X157223414Y-91979129D01*
X157235951Y-91992973D01*
X157263428Y-92014012D01*
X157288366Y-92030425D01*
X157355664Y-92059930D01*
X157431110Y-92073284D01*
X157505888Y-92069812D01*
X157565495Y-92051663D01*
X157626941Y-92012784D01*
X157670608Y-91961595D01*
X157697926Y-91895367D01*
X157710322Y-91811371D01*
X157711421Y-91772936D01*
X157707022Y-91684861D01*
X157706482Y-91682299D01*
X157580582Y-91682299D01*
X157577115Y-91690558D01*
X157562863Y-91695113D01*
X157533470Y-91697065D01*
X157484575Y-91697517D01*
X157465748Y-91697525D01*
X157408467Y-91696843D01*
X157372141Y-91694364D01*
X157352604Y-91689443D01*
X157345690Y-91681434D01*
X157345445Y-91678862D01*
X157353336Y-91658423D01*
X157373085Y-91629789D01*
X157381575Y-91619763D01*
X157413094Y-91591408D01*
X157445949Y-91580259D01*
X157463651Y-91579327D01*
X157511539Y-91590981D01*
X157551699Y-91622285D01*
X157577173Y-91667752D01*
X157577625Y-91669233D01*
X157580582Y-91682299D01*
X157706482Y-91682299D01*
X157692392Y-91615510D01*
X157666038Y-91560025D01*
X157633807Y-91520639D01*
X157574217Y-91477931D01*
X157504168Y-91455109D01*
X157429661Y-91453046D01*
X157356699Y-91472614D01*
G36*
X155985983Y-91456452D02*
G01*
X155938366Y-91465482D01*
X155888966Y-91484370D01*
X155883688Y-91486777D01*
X155846226Y-91506476D01*
X155820283Y-91524781D01*
X155811897Y-91536508D01*
X155819883Y-91555632D01*
X155839280Y-91583850D01*
X155847890Y-91594384D01*
X155883372Y-91635847D01*
X155929115Y-91608858D01*
X155972650Y-91590878D01*
X156022950Y-91581267D01*
X156071188Y-91580660D01*
X156108533Y-91589691D01*
X156117495Y-91595327D01*
X156134563Y-91621171D01*
X156136637Y-91650941D01*
X156123866Y-91674197D01*
X156116312Y-91678708D01*
X156093675Y-91684309D01*
X156053885Y-91690892D01*
X156004834Y-91697183D01*
X155995785Y-91698170D01*
X155917004Y-91711798D01*
X155859864Y-91734946D01*
X155821970Y-91769752D01*
X155800921Y-91818354D01*
X155794365Y-91877718D01*
X155803423Y-91945198D01*
X155832836Y-91998188D01*
X155882722Y-92036783D01*
X155953200Y-92061081D01*
X156031435Y-92070667D01*
X156095234Y-92070552D01*
X156146984Y-92061845D01*
X156182327Y-92049825D01*
X156226983Y-92028880D01*
X156268253Y-92004574D01*
X156282921Y-91993876D01*
X156320643Y-91963084D01*
X156275148Y-91917049D01*
X156229653Y-91871013D01*
X156177928Y-91905243D01*
X156126048Y-91930952D01*
X156070649Y-91944399D01*
X156017395Y-91945818D01*
X155971951Y-91935443D01*
X155939984Y-91913507D01*
X155929662Y-91894998D01*
X155931211Y-91865314D01*
X155956860Y-91842615D01*
X156006540Y-91826940D01*
X156060969Y-91819695D01*
X156144736Y-91805873D01*
X156206967Y-91779796D01*
X156248493Y-91740699D01*
X156270147Y-91687820D01*
X156273147Y-91625126D01*
X156258329Y-91559642D01*
X156224546Y-91510144D01*
X156171495Y-91476408D01*
X156098874Y-91458207D01*
X156045072Y-91454639D01*
X155985983Y-91456452D01*
G37*
X155985983Y-91456452D02*
X155938366Y-91465482D01*
X155888966Y-91484370D01*
X155883688Y-91486777D01*
X155846226Y-91506476D01*
X155820283Y-91524781D01*
X155811897Y-91536508D01*
X155819883Y-91555632D01*
X155839280Y-91583850D01*
X155847890Y-91594384D01*
X155883372Y-91635847D01*
X155929115Y-91608858D01*
X155972650Y-91590878D01*
X156022950Y-91581267D01*
X156071188Y-91580660D01*
X156108533Y-91589691D01*
X156117495Y-91595327D01*
X156134563Y-91621171D01*
X156136637Y-91650941D01*
X156123866Y-91674197D01*
X156116312Y-91678708D01*
X156093675Y-91684309D01*
X156053885Y-91690892D01*
X156004834Y-91697183D01*
X155995785Y-91698170D01*
X155917004Y-91711798D01*
X155859864Y-91734946D01*
X155821970Y-91769752D01*
X155800921Y-91818354D01*
X155794365Y-91877718D01*
X155803423Y-91945198D01*
X155832836Y-91998188D01*
X155882722Y-92036783D01*
X155953200Y-92061081D01*
X156031435Y-92070667D01*
X156095234Y-92070552D01*
X156146984Y-92061845D01*
X156182327Y-92049825D01*
X156226983Y-92028880D01*
X156268253Y-92004574D01*
X156282921Y-91993876D01*
X156320643Y-91963084D01*
X156275148Y-91917049D01*
X156229653Y-91871013D01*
X156177928Y-91905243D01*
X156126048Y-91930952D01*
X156070649Y-91944399D01*
X156017395Y-91945818D01*
X155971951Y-91935443D01*
X155939984Y-91913507D01*
X155929662Y-91894998D01*
X155931211Y-91865314D01*
X155956860Y-91842615D01*
X156006540Y-91826940D01*
X156060969Y-91819695D01*
X156144736Y-91805873D01*
X156206967Y-91779796D01*
X156248493Y-91740699D01*
X156270147Y-91687820D01*
X156273147Y-91625126D01*
X156258329Y-91559642D01*
X156224546Y-91510144D01*
X156171495Y-91476408D01*
X156098874Y-91458207D01*
X156045072Y-91454639D01*
X155985983Y-91456452D01*
G36*
X155389238Y-91466055D02*
G01*
X155325637Y-91500692D01*
X155275877Y-91555372D01*
X155252432Y-91599842D01*
X155242366Y-91639121D01*
X155235844Y-91695116D01*
X155233049Y-91759621D01*
X155234164Y-91824429D01*
X155239374Y-91881334D01*
X155245459Y-91911727D01*
X155265986Y-91953306D01*
X155301537Y-91997468D01*
X155344381Y-92036087D01*
X155386789Y-92061034D01*
X155387823Y-92061430D01*
X155440447Y-92072331D01*
X155502812Y-92072601D01*
X155562076Y-92062676D01*
X155584960Y-92054722D01*
X155643898Y-92021300D01*
X155686110Y-91977511D01*
X155713844Y-91919538D01*
X155729349Y-91843565D01*
X155732857Y-91803771D01*
X155732410Y-91753766D01*
X155597624Y-91753766D01*
X155593083Y-91826732D01*
X155580014Y-91882334D01*
X155559244Y-91917861D01*
X155544448Y-91928020D01*
X155506536Y-91935104D01*
X155461473Y-91933007D01*
X155422513Y-91922812D01*
X155412296Y-91917204D01*
X155385341Y-91884538D01*
X155367549Y-91834545D01*
X155359976Y-91773705D01*
X155363675Y-91708497D01*
X155371943Y-91669253D01*
X155395680Y-91623805D01*
X155433151Y-91595396D01*
X155478280Y-91585573D01*
X155524989Y-91595887D01*
X155560868Y-91621112D01*
X155579723Y-91641925D01*
X155590728Y-91662439D01*
X155595974Y-91690203D01*
X155597551Y-91732762D01*
X155597624Y-91753766D01*
X155732410Y-91753766D01*
X155731906Y-91697580D01*
X155714612Y-91610501D01*
X155680971Y-91542530D01*
X155630982Y-91493664D01*
X155564644Y-91463899D01*
X155550399Y-91460448D01*
X155464790Y-91452345D01*
X155389238Y-91466055D01*
G37*
X155389238Y-91466055D02*
X155325637Y-91500692D01*
X155275877Y-91555372D01*
X155252432Y-91599842D01*
X155242366Y-91639121D01*
X155235844Y-91695116D01*
X155233049Y-91759621D01*
X155234164Y-91824429D01*
X155239374Y-91881334D01*
X155245459Y-91911727D01*
X155265986Y-91953306D01*
X155301537Y-91997468D01*
X155344381Y-92036087D01*
X155386789Y-92061034D01*
X155387823Y-92061430D01*
X155440447Y-92072331D01*
X155502812Y-92072601D01*
X155562076Y-92062676D01*
X155584960Y-92054722D01*
X155643898Y-92021300D01*
X155686110Y-91977511D01*
X155713844Y-91919538D01*
X155729349Y-91843565D01*
X155732857Y-91803771D01*
X155732410Y-91753766D01*
X155597624Y-91753766D01*
X155593083Y-91826732D01*
X155580014Y-91882334D01*
X155559244Y-91917861D01*
X155544448Y-91928020D01*
X155506536Y-91935104D01*
X155461473Y-91933007D01*
X155422513Y-91922812D01*
X155412296Y-91917204D01*
X155385341Y-91884538D01*
X155367549Y-91834545D01*
X155359976Y-91773705D01*
X155363675Y-91708497D01*
X155371943Y-91669253D01*
X155395680Y-91623805D01*
X155433151Y-91595396D01*
X155478280Y-91585573D01*
X155524989Y-91595887D01*
X155560868Y-91621112D01*
X155579723Y-91641925D01*
X155590728Y-91662439D01*
X155595974Y-91690203D01*
X155597551Y-91732762D01*
X155597624Y-91753766D01*
X155732410Y-91753766D01*
X155731906Y-91697580D01*
X155714612Y-91610501D01*
X155680971Y-91542530D01*
X155630982Y-91493664D01*
X155564644Y-91463899D01*
X155550399Y-91460448D01*
X155464790Y-91452345D01*
X155389238Y-91466055D01*
G36*
X155006633Y-91654342D02*
G01*
X155005445Y-91746563D01*
X155001103Y-91816610D01*
X154992442Y-91867381D01*
X154978296Y-91901772D01*
X154957500Y-91922679D01*
X154928890Y-91933000D01*
X154893465Y-91935636D01*
X154856364Y-91932682D01*
X154828182Y-91921889D01*
X154807757Y-91900360D01*
X154793921Y-91865199D01*
X154785509Y-91813510D01*
X154781357Y-91742394D01*
X154780297Y-91654342D01*
X154780297Y-91458614D01*
X154641980Y-91458614D01*
X154641980Y-92062179D01*
X154711138Y-92062179D01*
X154752830Y-92060489D01*
X154774299Y-92054556D01*
X154780297Y-92043293D01*
X154783909Y-92033261D01*
X154798286Y-92035383D01*
X154827264Y-92049580D01*
X154893681Y-92071480D01*
X154964125Y-92069928D01*
X155031623Y-92046147D01*
X155063767Y-92027362D01*
X155088285Y-92007022D01*
X155106196Y-91981573D01*
X155118521Y-91947458D01*
X155126277Y-91901121D01*
X155130484Y-91839007D01*
X155132160Y-91757561D01*
X155132376Y-91694578D01*
X155132376Y-91458614D01*
X155006633Y-91458614D01*
X155006633Y-91654342D01*
G37*
X155006633Y-91654342D02*
X155005445Y-91746563D01*
X155001103Y-91816610D01*
X154992442Y-91867381D01*
X154978296Y-91901772D01*
X154957500Y-91922679D01*
X154928890Y-91933000D01*
X154893465Y-91935636D01*
X154856364Y-91932682D01*
X154828182Y-91921889D01*
X154807757Y-91900360D01*
X154793921Y-91865199D01*
X154785509Y-91813510D01*
X154781357Y-91742394D01*
X154780297Y-91654342D01*
X154780297Y-91458614D01*
X154641980Y-91458614D01*
X154641980Y-92062179D01*
X154711138Y-92062179D01*
X154752830Y-92060489D01*
X154774299Y-92054556D01*
X154780297Y-92043293D01*
X154783909Y-92033261D01*
X154798286Y-92035383D01*
X154827264Y-92049580D01*
X154893681Y-92071480D01*
X154964125Y-92069928D01*
X155031623Y-92046147D01*
X155063767Y-92027362D01*
X155088285Y-92007022D01*
X155106196Y-91981573D01*
X155118521Y-91947458D01*
X155126277Y-91901121D01*
X155130484Y-91839007D01*
X155132160Y-91757561D01*
X155132376Y-91694578D01*
X155132376Y-91458614D01*
X155006633Y-91458614D01*
X155006633Y-91654342D01*
G36*
X153782774Y-91463880D02*
G01*
X153709920Y-91494830D01*
X153686973Y-91509895D01*
X153657646Y-91533048D01*
X153639236Y-91551253D01*
X153636039Y-91557183D01*
X153645065Y-91570340D01*
X153668163Y-91592667D01*
X153686656Y-91608250D01*
X153737272Y-91648926D01*
X153777240Y-91615295D01*
X153808126Y-91593584D01*
X153838241Y-91586090D01*
X153872708Y-91587920D01*
X153927439Y-91601528D01*
X153965114Y-91629772D01*
X153988009Y-91675433D01*
X153998403Y-91741289D01*
X153998405Y-91741331D01*
X153997506Y-91814939D01*
X153983537Y-91868946D01*
X153955672Y-91905716D01*
X153936675Y-91918168D01*
X153886224Y-91933673D01*
X153832337Y-91933683D01*
X153785454Y-91918638D01*
X153774356Y-91911287D01*
X153746524Y-91892511D01*
X153724764Y-91889434D01*
X153701296Y-91903409D01*
X153675351Y-91928510D01*
X153634284Y-91970880D01*
X153679879Y-92008464D01*
X153750326Y-92050882D01*
X153829767Y-92071785D01*
X153912785Y-92070272D01*
X153967306Y-92056411D01*
X154031030Y-92022135D01*
X154081995Y-91968212D01*
X154105149Y-91930149D01*
X154123901Y-91875536D01*
X154133285Y-91806369D01*
X154133357Y-91731407D01*
X154124176Y-91659409D01*
X154105801Y-91599137D01*
X154102907Y-91592958D01*
X154060048Y-91532351D01*
X154002021Y-91488224D01*
X153933409Y-91461493D01*
X153858799Y-91453073D01*
X153782774Y-91463880D01*
G37*
X153782774Y-91463880D02*
X153709920Y-91494830D01*
X153686973Y-91509895D01*
X153657646Y-91533048D01*
X153639236Y-91551253D01*
X153636039Y-91557183D01*
X153645065Y-91570340D01*
X153668163Y-91592667D01*
X153686656Y-91608250D01*
X153737272Y-91648926D01*
X153777240Y-91615295D01*
X153808126Y-91593584D01*
X153838241Y-91586090D01*
X153872708Y-91587920D01*
X153927439Y-91601528D01*
X153965114Y-91629772D01*
X153988009Y-91675433D01*
X153998403Y-91741289D01*
X153998405Y-91741331D01*
X153997506Y-91814939D01*
X153983537Y-91868946D01*
X153955672Y-91905716D01*
X153936675Y-91918168D01*
X153886224Y-91933673D01*
X153832337Y-91933683D01*
X153785454Y-91918638D01*
X153774356Y-91911287D01*
X153746524Y-91892511D01*
X153724764Y-91889434D01*
X153701296Y-91903409D01*
X153675351Y-91928510D01*
X153634284Y-91970880D01*
X153679879Y-92008464D01*
X153750326Y-92050882D01*
X153829767Y-92071785D01*
X153912785Y-92070272D01*
X153967306Y-92056411D01*
X154031030Y-92022135D01*
X154081995Y-91968212D01*
X154105149Y-91930149D01*
X154123901Y-91875536D01*
X154133285Y-91806369D01*
X154133357Y-91731407D01*
X154124176Y-91659409D01*
X154105801Y-91599137D01*
X154102907Y-91592958D01*
X154060048Y-91532351D01*
X154002021Y-91488224D01*
X153933409Y-91461493D01*
X153858799Y-91453073D01*
X153782774Y-91463880D01*
G36*
X153322102Y-91456457D02*
G01*
X153289904Y-91464279D01*
X153228175Y-91492921D01*
X153175390Y-91536667D01*
X153138859Y-91589117D01*
X153133840Y-91600893D01*
X153126955Y-91631740D01*
X153122136Y-91677371D01*
X153120495Y-91723492D01*
X153120495Y-91810693D01*
X153302822Y-91810693D01*
X153378021Y-91810978D01*
X153430997Y-91812704D01*
X153464675Y-91817181D01*
X153481980Y-91825720D01*
X153485837Y-91839630D01*
X153479171Y-91860222D01*
X153467230Y-91884315D01*
X153433920Y-91924525D01*
X153387632Y-91944558D01*
X153331056Y-91943905D01*
X153266969Y-91922101D01*
X153211583Y-91895193D01*
X153165625Y-91931532D01*
X153119667Y-91967872D01*
X153162904Y-92007819D01*
X153220626Y-92045563D01*
X153291614Y-92068320D01*
X153367971Y-92074688D01*
X153441801Y-92063268D01*
X153453713Y-92059393D01*
X153518601Y-92025506D01*
X153566870Y-91974986D01*
X153599535Y-91906325D01*
X153617615Y-91818014D01*
X153617825Y-91816121D01*
X153619444Y-91719878D01*
X153612900Y-91685542D01*
X153485148Y-91685542D01*
X153473416Y-91690822D01*
X153441562Y-91694867D01*
X153394603Y-91697176D01*
X153364846Y-91697525D01*
X153309352Y-91697306D01*
X153274654Y-91695916D01*
X153256399Y-91692251D01*
X153250234Y-91685210D01*
X153251805Y-91673690D01*
X153253122Y-91669233D01*
X153275618Y-91627355D01*
X153310997Y-91593604D01*
X153342220Y-91578773D01*
X153383699Y-91579668D01*
X153425731Y-91598164D01*
X153460988Y-91628786D01*
X153482146Y-91666062D01*
X153485148Y-91685542D01*
X153612900Y-91685542D01*
X153603310Y-91635229D01*
X153571302Y-91564191D01*
X153525299Y-91508779D01*
X153467179Y-91471009D01*
X153398820Y-91452896D01*
X153322102Y-91456457D01*
G37*
X153322102Y-91456457D02*
X153289904Y-91464279D01*
X153228175Y-91492921D01*
X153175390Y-91536667D01*
X153138859Y-91589117D01*
X153133840Y-91600893D01*
X153126955Y-91631740D01*
X153122136Y-91677371D01*
X153120495Y-91723492D01*
X153120495Y-91810693D01*
X153302822Y-91810693D01*
X153378021Y-91810978D01*
X153430997Y-91812704D01*
X153464675Y-91817181D01*
X153481980Y-91825720D01*
X153485837Y-91839630D01*
X153479171Y-91860222D01*
X153467230Y-91884315D01*
X153433920Y-91924525D01*
X153387632Y-91944558D01*
X153331056Y-91943905D01*
X153266969Y-91922101D01*
X153211583Y-91895193D01*
X153165625Y-91931532D01*
X153119667Y-91967872D01*
X153162904Y-92007819D01*
X153220626Y-92045563D01*
X153291614Y-92068320D01*
X153367971Y-92074688D01*
X153441801Y-92063268D01*
X153453713Y-92059393D01*
X153518601Y-92025506D01*
X153566870Y-91974986D01*
X153599535Y-91906325D01*
X153617615Y-91818014D01*
X153617825Y-91816121D01*
X153619444Y-91719878D01*
X153612900Y-91685542D01*
X153485148Y-91685542D01*
X153473416Y-91690822D01*
X153441562Y-91694867D01*
X153394603Y-91697176D01*
X153364846Y-91697525D01*
X153309352Y-91697306D01*
X153274654Y-91695916D01*
X153256399Y-91692251D01*
X153250234Y-91685210D01*
X153251805Y-91673690D01*
X153253122Y-91669233D01*
X153275618Y-91627355D01*
X153310997Y-91593604D01*
X153342220Y-91578773D01*
X153383699Y-91579668D01*
X153425731Y-91598164D01*
X153460988Y-91628786D01*
X153482146Y-91666062D01*
X153485148Y-91685542D01*
X153612900Y-91685542D01*
X153603310Y-91635229D01*
X153571302Y-91564191D01*
X153525299Y-91508779D01*
X153467179Y-91471009D01*
X153398820Y-91452896D01*
X153322102Y-91456457D01*
G36*
X156754012Y-91469002D02*
G01*
X156722717Y-91483950D01*
X156692409Y-91505541D01*
X156669318Y-91530391D01*
X156652500Y-91562087D01*
X156641006Y-91604214D01*
X156633891Y-91660358D01*
X156630207Y-91734106D01*
X156629008Y-91829044D01*
X156628989Y-91838985D01*
X156628713Y-92062179D01*
X156767030Y-92062179D01*
X156767030Y-91856418D01*
X156767128Y-91780189D01*
X156767809Y-91724939D01*
X156769651Y-91686501D01*
X156773233Y-91660706D01*
X156779132Y-91643384D01*
X156787927Y-91630368D01*
X156800180Y-91617507D01*
X156843047Y-91589873D01*
X156889843Y-91584745D01*
X156934424Y-91602217D01*
X156949928Y-91615221D01*
X156961310Y-91627447D01*
X156969481Y-91640540D01*
X156974974Y-91658615D01*
X156978320Y-91685787D01*
X156980051Y-91726170D01*
X156980697Y-91783879D01*
X156980792Y-91854132D01*
X156980792Y-92062179D01*
X157119109Y-92062179D01*
X157119109Y-91458614D01*
X157049950Y-91458614D01*
X157008428Y-91460256D01*
X156987006Y-91466087D01*
X156980795Y-91477461D01*
X156980792Y-91477798D01*
X156977910Y-91488938D01*
X156965199Y-91487674D01*
X156939926Y-91475434D01*
X156882605Y-91457424D01*
X156817037Y-91455421D01*
X156754012Y-91469002D01*
G37*
X156754012Y-91469002D02*
X156722717Y-91483950D01*
X156692409Y-91505541D01*
X156669318Y-91530391D01*
X156652500Y-91562087D01*
X156641006Y-91604214D01*
X156633891Y-91660358D01*
X156630207Y-91734106D01*
X156629008Y-91829044D01*
X156628989Y-91838985D01*
X156628713Y-92062179D01*
X156767030Y-92062179D01*
X156767030Y-91856418D01*
X156767128Y-91780189D01*
X156767809Y-91724939D01*
X156769651Y-91686501D01*
X156773233Y-91660706D01*
X156779132Y-91643384D01*
X156787927Y-91630368D01*
X156800180Y-91617507D01*
X156843047Y-91589873D01*
X156889843Y-91584745D01*
X156934424Y-91602217D01*
X156949928Y-91615221D01*
X156961310Y-91627447D01*
X156969481Y-91640540D01*
X156974974Y-91658615D01*
X156978320Y-91685787D01*
X156980051Y-91726170D01*
X156980697Y-91783879D01*
X156980792Y-91854132D01*
X156980792Y-92062179D01*
X157119109Y-92062179D01*
X157119109Y-91458614D01*
X157049950Y-91458614D01*
X157008428Y-91460256D01*
X156987006Y-91466087D01*
X156980795Y-91477461D01*
X156980792Y-91477798D01*
X156977910Y-91488938D01*
X156965199Y-91487674D01*
X156939926Y-91475434D01*
X156882605Y-91457424D01*
X156817037Y-91455421D01*
X156754012Y-91469002D01*
G36*
X154200540Y-91458030D02*
G01*
X154157289Y-91471245D01*
X154129442Y-91487941D01*
X154120371Y-91501145D01*
X154122868Y-91516797D01*
X154139069Y-91541385D01*
X154152768Y-91558800D01*
X154181008Y-91590283D01*
X154202225Y-91603529D01*
X154220312Y-91602664D01*
X154273965Y-91589010D01*
X154313370Y-91589630D01*
X154345368Y-91605104D01*
X154356110Y-91614161D01*
X154390495Y-91646027D01*
X154390495Y-92062179D01*
X154528812Y-92062179D01*
X154528812Y-91458614D01*
X154459653Y-91458614D01*
X154418131Y-91460256D01*
X154396709Y-91466087D01*
X154390498Y-91477461D01*
X154390495Y-91477798D01*
X154387561Y-91489713D01*
X154374296Y-91488159D01*
X154355916Y-91479563D01*
X154317954Y-91463568D01*
X154287128Y-91453945D01*
X154247464Y-91451478D01*
X154200540Y-91458030D01*
G37*
X154200540Y-91458030D02*
X154157289Y-91471245D01*
X154129442Y-91487941D01*
X154120371Y-91501145D01*
X154122868Y-91516797D01*
X154139069Y-91541385D01*
X154152768Y-91558800D01*
X154181008Y-91590283D01*
X154202225Y-91603529D01*
X154220312Y-91602664D01*
X154273965Y-91589010D01*
X154313370Y-91589630D01*
X154345368Y-91605104D01*
X154356110Y-91614161D01*
X154390495Y-91646027D01*
X154390495Y-92062179D01*
X154528812Y-92062179D01*
X154528812Y-91458614D01*
X154459653Y-91458614D01*
X154418131Y-91460256D01*
X154396709Y-91466087D01*
X154390498Y-91477461D01*
X154390495Y-91477798D01*
X154387561Y-91489713D01*
X154374296Y-91488159D01*
X154355916Y-91479563D01*
X154317954Y-91463568D01*
X154287128Y-91453945D01*
X154247464Y-91451478D01*
X154200540Y-91458030D01*
G36*
X155623036Y-87290018D02*
G01*
X155566188Y-87591570D01*
X155146662Y-87764512D01*
X154895016Y-87593395D01*
X154824542Y-87545750D01*
X154760837Y-87503210D01*
X154706874Y-87467715D01*
X154665627Y-87441210D01*
X154640066Y-87425636D01*
X154633105Y-87422278D01*
X154620565Y-87430914D01*
X154593769Y-87454792D01*
X154555720Y-87490859D01*
X154509421Y-87536067D01*
X154457877Y-87587364D01*
X154404091Y-87641701D01*
X154351065Y-87696028D01*
X154301805Y-87747295D01*
X154259313Y-87792451D01*
X154226593Y-87828446D01*
X154206649Y-87852230D01*
X154201881Y-87860190D01*
X154208743Y-87874865D01*
X154227980Y-87907014D01*
X154257570Y-87953492D01*
X154295490Y-88011156D01*
X154339718Y-88076860D01*
X154365346Y-88114336D01*
X154412059Y-88182768D01*
X154453568Y-88244520D01*
X154487860Y-88296519D01*
X154512920Y-88335692D01*
X154526736Y-88358965D01*
X154528812Y-88363855D01*
X154524105Y-88377755D01*
X154511277Y-88410150D01*
X154492262Y-88456485D01*
X154468997Y-88512206D01*
X154443416Y-88572758D01*
X154417455Y-88633586D01*
X154393050Y-88690136D01*
X154372137Y-88737852D01*
X154356651Y-88772181D01*
X154348528Y-88788568D01*
X154348048Y-88789212D01*
X154335293Y-88792341D01*
X154301323Y-88799321D01*
X154249660Y-88809467D01*
X154183824Y-88822092D01*
X154107336Y-88836509D01*
X154062710Y-88844823D01*
X153980979Y-88860384D01*
X153907157Y-88875192D01*
X153844979Y-88888436D01*
X153798178Y-88899305D01*
X153770491Y-88906989D01*
X153764926Y-88909427D01*
X153759474Y-88925930D01*
X153755076Y-88963200D01*
X153751728Y-89016880D01*
X153749426Y-89082612D01*
X153748168Y-89156037D01*
X153747952Y-89232796D01*
X153748773Y-89308532D01*
X153750629Y-89378886D01*
X153753518Y-89439500D01*
X153757435Y-89486016D01*
X153762378Y-89514075D01*
X153765343Y-89519916D01*
X153783066Y-89526917D01*
X153820619Y-89536927D01*
X153873036Y-89548769D01*
X153935348Y-89561267D01*
X153957100Y-89565310D01*
X154061976Y-89584520D01*
X154144820Y-89599991D01*
X154208370Y-89612337D01*
X154255363Y-89622173D01*
X154288537Y-89630114D01*
X154310629Y-89636776D01*
X154324376Y-89642773D01*
X154332516Y-89648719D01*
X154333655Y-89649894D01*
X154345023Y-89668826D01*
X154362365Y-89705669D01*
X154383950Y-89755913D01*
X154408046Y-89815046D01*
X154432921Y-89878556D01*
X154456843Y-89941932D01*
X154478081Y-90000662D01*
X154494903Y-90050235D01*
X154505578Y-90086139D01*
X154508373Y-90103862D01*
X154508140Y-90104483D01*
X154498669Y-90118970D01*
X154477182Y-90150844D01*
X154445937Y-90196789D01*
X154407193Y-90253485D01*
X154363207Y-90317617D01*
X154350681Y-90335842D01*
X154306016Y-90401914D01*
X154266712Y-90462200D01*
X154234912Y-90513235D01*
X154212755Y-90551560D01*
X154202383Y-90573711D01*
X154201881Y-90576432D01*
X154210595Y-90590736D01*
X154234675Y-90619072D01*
X154271024Y-90658396D01*
X154316547Y-90705661D01*
X154368148Y-90757823D01*
X154422733Y-90811835D01*
X154477206Y-90864653D01*
X154528471Y-90913231D01*
X154573433Y-90954523D01*
X154608996Y-90985485D01*
X154632065Y-91003070D01*
X154638446Y-91005941D01*
X154653301Y-90999178D01*
X154683714Y-90980939D01*
X154724732Y-90954297D01*
X154756291Y-90932852D01*
X154813475Y-90893503D01*
X154881194Y-90847171D01*
X154949120Y-90800913D01*
X154985639Y-90776155D01*
X155109248Y-90692547D01*
X155213009Y-90748650D01*
X155260280Y-90773228D01*
X155300477Y-90792331D01*
X155327674Y-90803227D01*
X155334598Y-90804743D01*
X155342923Y-90793549D01*
X155359346Y-90761917D01*
X155382643Y-90712765D01*
X155411586Y-90649010D01*
X155444950Y-90573571D01*
X155481509Y-90489364D01*
X155520036Y-90399308D01*
X155559306Y-90306321D01*
X155598092Y-90213320D01*
X155635170Y-90123223D01*
X155669311Y-90038948D01*
X155699292Y-89963413D01*
X155723884Y-89899534D01*
X155741864Y-89850231D01*
X155752003Y-89818421D01*
X155753634Y-89807496D01*
X155740709Y-89793561D01*
X155712411Y-89770940D01*
X155674654Y-89744333D01*
X155671485Y-89742228D01*
X155573900Y-89664114D01*
X155495214Y-89572982D01*
X155436109Y-89471745D01*
X155397268Y-89363318D01*
X155379372Y-89250614D01*
X155383103Y-89136548D01*
X155409143Y-89024034D01*
X155458175Y-88915985D01*
X155472600Y-88892345D01*
X155547631Y-88796887D01*
X155636270Y-88720232D01*
X155735451Y-88662780D01*
X155842105Y-88624929D01*
X155953164Y-88607078D01*
X156065561Y-88609625D01*
X156176227Y-88632970D01*
X156282094Y-88677510D01*
X156380095Y-88743645D01*
X156410410Y-88770487D01*
X156487562Y-88854512D01*
X156543782Y-88942966D01*
X156582347Y-89042115D01*
X156603826Y-89140303D01*
X156609128Y-89250697D01*
X156591448Y-89361640D01*
X156552581Y-89469381D01*
X156494323Y-89570169D01*
X156418469Y-89660256D01*
X156326817Y-89735892D01*
X156314772Y-89743864D01*
X156276611Y-89769974D01*
X156247601Y-89792595D01*
X156233732Y-89807039D01*
X156233531Y-89807496D01*
X156236508Y-89823121D01*
X156248311Y-89858582D01*
X156267714Y-89910962D01*
X156293488Y-89977345D01*
X156324409Y-90054814D01*
X156359249Y-90140450D01*
X156396783Y-90231337D01*
X156435783Y-90324559D01*
X156475023Y-90417197D01*
X156513276Y-90506335D01*
X156549317Y-90589055D01*
X156581917Y-90662441D01*
X156609852Y-90723575D01*
X156631895Y-90769541D01*
X156646818Y-90797421D01*
X156652828Y-90804743D01*
X156671191Y-90799041D01*
X156705552Y-90783749D01*
X156749984Y-90761599D01*
X156774417Y-90748650D01*
X156878178Y-90692547D01*
X157001787Y-90776155D01*
X157064886Y-90818987D01*
X157133970Y-90866122D01*
X157198707Y-90910503D01*
X157231134Y-90932852D01*
X157276741Y-90963477D01*
X157315360Y-90987747D01*
X157341952Y-91002587D01*
X157350590Y-91005724D01*
X157363161Y-90997261D01*
X157390984Y-90973636D01*
X157431361Y-90937302D01*
X157481595Y-90890711D01*
X157538988Y-90836317D01*
X157575286Y-90801392D01*
X157638790Y-90738996D01*
X157693673Y-90683188D01*
X157737714Y-90636354D01*
X157768695Y-90600882D01*
X157784398Y-90579161D01*
X157785905Y-90574752D01*
X157778914Y-90557985D01*
X157759594Y-90524082D01*
X157730091Y-90476476D01*
X157692545Y-90418599D01*
X157649100Y-90353884D01*
X157636745Y-90335842D01*
X157591727Y-90270267D01*
X157551340Y-90211228D01*
X157517840Y-90162042D01*
X157493486Y-90126028D01*
X157480536Y-90106502D01*
X157479285Y-90104483D01*
X157481156Y-90088922D01*
X157491087Y-90054709D01*
X157507347Y-90006355D01*
X157528205Y-89948371D01*
X157551927Y-89885270D01*
X157576784Y-89821563D01*
X157601042Y-89761761D01*
X157622971Y-89710376D01*
X157640838Y-89671919D01*
X157652913Y-89650902D01*
X157653771Y-89649894D01*
X157661154Y-89643888D01*
X157673625Y-89637948D01*
X157693920Y-89631460D01*
X157724778Y-89623809D01*
X157768934Y-89614380D01*
X157829126Y-89602559D01*
X157908093Y-89587729D01*
X158008570Y-89569277D01*
X158030325Y-89565310D01*
X158094802Y-89552853D01*
X158151011Y-89540666D01*
X158193987Y-89529926D01*
X158218760Y-89521809D01*
X158222082Y-89519916D01*
X158227556Y-89503138D01*
X158232006Y-89465645D01*
X158235428Y-89411794D01*
X158237819Y-89345944D01*
X158239177Y-89272453D01*
X158239499Y-89195680D01*
X158238781Y-89119983D01*
X158237021Y-89049720D01*
X158234216Y-88989250D01*
X158230362Y-88942930D01*
X158225457Y-88915119D01*
X158222500Y-88909427D01*
X158206037Y-88903686D01*
X158168551Y-88894345D01*
X158113775Y-88882215D01*
X158045445Y-88868107D01*
X157967294Y-88852830D01*
X157924716Y-88844823D01*
X157843929Y-88829721D01*
X157771887Y-88816040D01*
X157712111Y-88804467D01*
X157668121Y-88795687D01*
X157643439Y-88790387D01*
X157639377Y-88789212D01*
X157632511Y-88775965D01*
X157617998Y-88744057D01*
X157597771Y-88698047D01*
X157573766Y-88642492D01*
X157547918Y-88581953D01*
X157522160Y-88520986D01*
X157498427Y-88464151D01*
X157478654Y-88416006D01*
X157464776Y-88381110D01*
X157458726Y-88364021D01*
X157458614Y-88363274D01*
X157465472Y-88349793D01*
X157484698Y-88318770D01*
X157514272Y-88273289D01*
X157552173Y-88216432D01*
X157596380Y-88151283D01*
X157622079Y-88113862D01*
X157668907Y-88045247D01*
X157710499Y-87982952D01*
X157744825Y-87930129D01*
X157769857Y-87889927D01*
X157783565Y-87865500D01*
X157785544Y-87860024D01*
X157777034Y-87847278D01*
X157753507Y-87820063D01*
X157717968Y-87781428D01*
X157673423Y-87734423D01*
X157622877Y-87682095D01*
X157569336Y-87627495D01*
X157515805Y-87573670D01*
X157465289Y-87523670D01*
X157420794Y-87480543D01*
X157385325Y-87447339D01*
X157361887Y-87427106D01*
X157354046Y-87422278D01*
X157341280Y-87429067D01*
X157310744Y-87448142D01*
X157265410Y-87477561D01*
X157208244Y-87515381D01*
X157142216Y-87559661D01*
X157092410Y-87593395D01*
X156840764Y-87764512D01*
X156631001Y-87678041D01*
X156421237Y-87591570D01*
X156364389Y-87290018D01*
X156307540Y-86988466D01*
X155679885Y-86988466D01*
X155623036Y-87290018D01*
G37*
X155623036Y-87290018D02*
X155566188Y-87591570D01*
X155146662Y-87764512D01*
X154895016Y-87593395D01*
X154824542Y-87545750D01*
X154760837Y-87503210D01*
X154706874Y-87467715D01*
X154665627Y-87441210D01*
X154640066Y-87425636D01*
X154633105Y-87422278D01*
X154620565Y-87430914D01*
X154593769Y-87454792D01*
X154555720Y-87490859D01*
X154509421Y-87536067D01*
X154457877Y-87587364D01*
X154404091Y-87641701D01*
X154351065Y-87696028D01*
X154301805Y-87747295D01*
X154259313Y-87792451D01*
X154226593Y-87828446D01*
X154206649Y-87852230D01*
X154201881Y-87860190D01*
X154208743Y-87874865D01*
X154227980Y-87907014D01*
X154257570Y-87953492D01*
X154295490Y-88011156D01*
X154339718Y-88076860D01*
X154365346Y-88114336D01*
X154412059Y-88182768D01*
X154453568Y-88244520D01*
X154487860Y-88296519D01*
X154512920Y-88335692D01*
X154526736Y-88358965D01*
X154528812Y-88363855D01*
X154524105Y-88377755D01*
X154511277Y-88410150D01*
X154492262Y-88456485D01*
X154468997Y-88512206D01*
X154443416Y-88572758D01*
X154417455Y-88633586D01*
X154393050Y-88690136D01*
X154372137Y-88737852D01*
X154356651Y-88772181D01*
X154348528Y-88788568D01*
X154348048Y-88789212D01*
X154335293Y-88792341D01*
X154301323Y-88799321D01*
X154249660Y-88809467D01*
X154183824Y-88822092D01*
X154107336Y-88836509D01*
X154062710Y-88844823D01*
X153980979Y-88860384D01*
X153907157Y-88875192D01*
X153844979Y-88888436D01*
X153798178Y-88899305D01*
X153770491Y-88906989D01*
X153764926Y-88909427D01*
X153759474Y-88925930D01*
X153755076Y-88963200D01*
X153751728Y-89016880D01*
X153749426Y-89082612D01*
X153748168Y-89156037D01*
X153747952Y-89232796D01*
X153748773Y-89308532D01*
X153750629Y-89378886D01*
X153753518Y-89439500D01*
X153757435Y-89486016D01*
X153762378Y-89514075D01*
X153765343Y-89519916D01*
X153783066Y-89526917D01*
X153820619Y-89536927D01*
X153873036Y-89548769D01*
X153935348Y-89561267D01*
X153957100Y-89565310D01*
X154061976Y-89584520D01*
X154144820Y-89599991D01*
X154208370Y-89612337D01*
X154255363Y-89622173D01*
X154288537Y-89630114D01*
X154310629Y-89636776D01*
X154324376Y-89642773D01*
X154332516Y-89648719D01*
X154333655Y-89649894D01*
X154345023Y-89668826D01*
X154362365Y-89705669D01*
X154383950Y-89755913D01*
X154408046Y-89815046D01*
X154432921Y-89878556D01*
X154456843Y-89941932D01*
X154478081Y-90000662D01*
X154494903Y-90050235D01*
X154505578Y-90086139D01*
X154508373Y-90103862D01*
X154508140Y-90104483D01*
X154498669Y-90118970D01*
X154477182Y-90150844D01*
X154445937Y-90196789D01*
X154407193Y-90253485D01*
X154363207Y-90317617D01*
X154350681Y-90335842D01*
X154306016Y-90401914D01*
X154266712Y-90462200D01*
X154234912Y-90513235D01*
X154212755Y-90551560D01*
X154202383Y-90573711D01*
X154201881Y-90576432D01*
X154210595Y-90590736D01*
X154234675Y-90619072D01*
X154271024Y-90658396D01*
X154316547Y-90705661D01*
X154368148Y-90757823D01*
X154422733Y-90811835D01*
X154477206Y-90864653D01*
X154528471Y-90913231D01*
X154573433Y-90954523D01*
X154608996Y-90985485D01*
X154632065Y-91003070D01*
X154638446Y-91005941D01*
X154653301Y-90999178D01*
X154683714Y-90980939D01*
X154724732Y-90954297D01*
X154756291Y-90932852D01*
X154813475Y-90893503D01*
X154881194Y-90847171D01*
X154949120Y-90800913D01*
X154985639Y-90776155D01*
X155109248Y-90692547D01*
X155213009Y-90748650D01*
X155260280Y-90773228D01*
X155300477Y-90792331D01*
X155327674Y-90803227D01*
X155334598Y-90804743D01*
X155342923Y-90793549D01*
X155359346Y-90761917D01*
X155382643Y-90712765D01*
X155411586Y-90649010D01*
X155444950Y-90573571D01*
X155481509Y-90489364D01*
X155520036Y-90399308D01*
X155559306Y-90306321D01*
X155598092Y-90213320D01*
X155635170Y-90123223D01*
X155669311Y-90038948D01*
X155699292Y-89963413D01*
X155723884Y-89899534D01*
X155741864Y-89850231D01*
X155752003Y-89818421D01*
X155753634Y-89807496D01*
X155740709Y-89793561D01*
X155712411Y-89770940D01*
X155674654Y-89744333D01*
X155671485Y-89742228D01*
X155573900Y-89664114D01*
X155495214Y-89572982D01*
X155436109Y-89471745D01*
X155397268Y-89363318D01*
X155379372Y-89250614D01*
X155383103Y-89136548D01*
X155409143Y-89024034D01*
X155458175Y-88915985D01*
X155472600Y-88892345D01*
X155547631Y-88796887D01*
X155636270Y-88720232D01*
X155735451Y-88662780D01*
X155842105Y-88624929D01*
X155953164Y-88607078D01*
X156065561Y-88609625D01*
X156176227Y-88632970D01*
X156282094Y-88677510D01*
X156380095Y-88743645D01*
X156410410Y-88770487D01*
X156487562Y-88854512D01*
X156543782Y-88942966D01*
X156582347Y-89042115D01*
X156603826Y-89140303D01*
X156609128Y-89250697D01*
X156591448Y-89361640D01*
X156552581Y-89469381D01*
X156494323Y-89570169D01*
X156418469Y-89660256D01*
X156326817Y-89735892D01*
X156314772Y-89743864D01*
X156276611Y-89769974D01*
X156247601Y-89792595D01*
X156233732Y-89807039D01*
X156233531Y-89807496D01*
X156236508Y-89823121D01*
X156248311Y-89858582D01*
X156267714Y-89910962D01*
X156293488Y-89977345D01*
X156324409Y-90054814D01*
X156359249Y-90140450D01*
X156396783Y-90231337D01*
X156435783Y-90324559D01*
X156475023Y-90417197D01*
X156513276Y-90506335D01*
X156549317Y-90589055D01*
X156581917Y-90662441D01*
X156609852Y-90723575D01*
X156631895Y-90769541D01*
X156646818Y-90797421D01*
X156652828Y-90804743D01*
X156671191Y-90799041D01*
X156705552Y-90783749D01*
X156749984Y-90761599D01*
X156774417Y-90748650D01*
X156878178Y-90692547D01*
X157001787Y-90776155D01*
X157064886Y-90818987D01*
X157133970Y-90866122D01*
X157198707Y-90910503D01*
X157231134Y-90932852D01*
X157276741Y-90963477D01*
X157315360Y-90987747D01*
X157341952Y-91002587D01*
X157350590Y-91005724D01*
X157363161Y-90997261D01*
X157390984Y-90973636D01*
X157431361Y-90937302D01*
X157481595Y-90890711D01*
X157538988Y-90836317D01*
X157575286Y-90801392D01*
X157638790Y-90738996D01*
X157693673Y-90683188D01*
X157737714Y-90636354D01*
X157768695Y-90600882D01*
X157784398Y-90579161D01*
X157785905Y-90574752D01*
X157778914Y-90557985D01*
X157759594Y-90524082D01*
X157730091Y-90476476D01*
X157692545Y-90418599D01*
X157649100Y-90353884D01*
X157636745Y-90335842D01*
X157591727Y-90270267D01*
X157551340Y-90211228D01*
X157517840Y-90162042D01*
X157493486Y-90126028D01*
X157480536Y-90106502D01*
X157479285Y-90104483D01*
X157481156Y-90088922D01*
X157491087Y-90054709D01*
X157507347Y-90006355D01*
X157528205Y-89948371D01*
X157551927Y-89885270D01*
X157576784Y-89821563D01*
X157601042Y-89761761D01*
X157622971Y-89710376D01*
X157640838Y-89671919D01*
X157652913Y-89650902D01*
X157653771Y-89649894D01*
X157661154Y-89643888D01*
X157673625Y-89637948D01*
X157693920Y-89631460D01*
X157724778Y-89623809D01*
X157768934Y-89614380D01*
X157829126Y-89602559D01*
X157908093Y-89587729D01*
X158008570Y-89569277D01*
X158030325Y-89565310D01*
X158094802Y-89552853D01*
X158151011Y-89540666D01*
X158193987Y-89529926D01*
X158218760Y-89521809D01*
X158222082Y-89519916D01*
X158227556Y-89503138D01*
X158232006Y-89465645D01*
X158235428Y-89411794D01*
X158237819Y-89345944D01*
X158239177Y-89272453D01*
X158239499Y-89195680D01*
X158238781Y-89119983D01*
X158237021Y-89049720D01*
X158234216Y-88989250D01*
X158230362Y-88942930D01*
X158225457Y-88915119D01*
X158222500Y-88909427D01*
X158206037Y-88903686D01*
X158168551Y-88894345D01*
X158113775Y-88882215D01*
X158045445Y-88868107D01*
X157967294Y-88852830D01*
X157924716Y-88844823D01*
X157843929Y-88829721D01*
X157771887Y-88816040D01*
X157712111Y-88804467D01*
X157668121Y-88795687D01*
X157643439Y-88790387D01*
X157639377Y-88789212D01*
X157632511Y-88775965D01*
X157617998Y-88744057D01*
X157597771Y-88698047D01*
X157573766Y-88642492D01*
X157547918Y-88581953D01*
X157522160Y-88520986D01*
X157498427Y-88464151D01*
X157478654Y-88416006D01*
X157464776Y-88381110D01*
X157458726Y-88364021D01*
X157458614Y-88363274D01*
X157465472Y-88349793D01*
X157484698Y-88318770D01*
X157514272Y-88273289D01*
X157552173Y-88216432D01*
X157596380Y-88151283D01*
X157622079Y-88113862D01*
X157668907Y-88045247D01*
X157710499Y-87982952D01*
X157744825Y-87930129D01*
X157769857Y-87889927D01*
X157783565Y-87865500D01*
X157785544Y-87860024D01*
X157777034Y-87847278D01*
X157753507Y-87820063D01*
X157717968Y-87781428D01*
X157673423Y-87734423D01*
X157622877Y-87682095D01*
X157569336Y-87627495D01*
X157515805Y-87573670D01*
X157465289Y-87523670D01*
X157420794Y-87480543D01*
X157385325Y-87447339D01*
X157361887Y-87427106D01*
X157354046Y-87422278D01*
X157341280Y-87429067D01*
X157310744Y-87448142D01*
X157265410Y-87477561D01*
X157208244Y-87515381D01*
X157142216Y-87559661D01*
X157092410Y-87593395D01*
X156840764Y-87764512D01*
X156631001Y-87678041D01*
X156421237Y-87591570D01*
X156364389Y-87290018D01*
X156307540Y-86988466D01*
X155679885Y-86988466D01*
X155623036Y-87290018D01*
G36*
X154252178Y-100517822D02*
G01*
X157772971Y-100517822D01*
X157772971Y-99650198D01*
X154252178Y-99650198D01*
X154252178Y-100517822D01*
G37*
X154252178Y-100517822D02*
X157772971Y-100517822D01*
X157772971Y-99650198D01*
X154252178Y-99650198D01*
X154252178Y-100517822D01*
G36*
X153875570Y-94564848D02*
G01*
X153876189Y-94651931D01*
X154327914Y-95110891D01*
X154779639Y-95569852D01*
X154779968Y-95780471D01*
X154780297Y-95991089D01*
X155055390Y-95991089D01*
X155062478Y-96044530D01*
X155065162Y-96068888D01*
X155069687Y-96114759D01*
X155075809Y-96179405D01*
X155083288Y-96260091D01*
X155091881Y-96354081D01*
X155101346Y-96458637D01*
X155111442Y-96571025D01*
X155121926Y-96688507D01*
X155132556Y-96808348D01*
X155143091Y-96927811D01*
X155153287Y-97044159D01*
X155162905Y-97154657D01*
X155171700Y-97256569D01*
X155179432Y-97347158D01*
X155185858Y-97423687D01*
X155190737Y-97483421D01*
X155193825Y-97523624D01*
X155194883Y-97541559D01*
X155194882Y-97541644D01*
X155187173Y-97556035D01*
X155164019Y-97585748D01*
X155125105Y-97631131D01*
X155070116Y-97692529D01*
X154998736Y-97770288D01*
X154910651Y-97864754D01*
X154805546Y-97976272D01*
X154683105Y-98105188D01*
X154648690Y-98141287D01*
X154102863Y-98713416D01*
X154191119Y-98801436D01*
X154262515Y-98723758D01*
X154288634Y-98695686D01*
X154329434Y-98652274D01*
X154382223Y-98596366D01*
X154444309Y-98530808D01*
X154513000Y-98458441D01*
X154585604Y-98382112D01*
X154629040Y-98336524D01*
X154710584Y-98251119D01*
X154776496Y-98182710D01*
X154828456Y-98130053D01*
X154868145Y-98091905D01*
X154897243Y-98067020D01*
X154917431Y-98054156D01*
X154930390Y-98052068D01*
X154937800Y-98059513D01*
X154941342Y-98075246D01*
X154942697Y-98098023D01*
X154942879Y-98104239D01*
X154952297Y-98147061D01*
X154975503Y-98198819D01*
X155007864Y-98251328D01*
X155044748Y-98296403D01*
X155059507Y-98310328D01*
X155135233Y-98359047D01*
X155223692Y-98386306D01*
X155301900Y-98392773D01*
X155390532Y-98380576D01*
X155472388Y-98344813D01*
X155544836Y-98286722D01*
X155558203Y-98272262D01*
X155607082Y-98216733D01*
X156452674Y-98216733D01*
X156452674Y-98392773D01*
X156679010Y-98392773D01*
X156679010Y-98310531D01*
X156681850Y-98254386D01*
X156691393Y-98215416D01*
X156702991Y-98194219D01*
X156711277Y-98179052D01*
X156718373Y-98157062D01*
X156724748Y-98124987D01*
X156730872Y-98079569D01*
X156737216Y-98017548D01*
X156744250Y-97935662D01*
X156749066Y-97874746D01*
X156771161Y-97589343D01*
X157313565Y-98138805D01*
X157411637Y-98238228D01*
X157505784Y-98333815D01*
X157594285Y-98423810D01*
X157675420Y-98506457D01*
X157747469Y-98580001D01*
X157808712Y-98642684D01*
X157857427Y-98692752D01*
X157891896Y-98728448D01*
X157910379Y-98747995D01*
X157940743Y-98778944D01*
X157966071Y-98800530D01*
X157979695Y-98807723D01*
X157997095Y-98799297D01*
X158022460Y-98778245D01*
X158031058Y-98769671D01*
X158067514Y-98731620D01*
X157866802Y-98527658D01*
X157815596Y-98475699D01*
X157749569Y-98408820D01*
X157671618Y-98329950D01*
X157584638Y-98242014D01*
X157491526Y-98147941D01*
X157395179Y-98050658D01*
X157298492Y-97953093D01*
X157229134Y-97883145D01*
X157123703Y-97776550D01*
X157035129Y-97686307D01*
X156962281Y-97611192D01*
X156904023Y-97549986D01*
X156859225Y-97501466D01*
X156837021Y-97476129D01*
X156658724Y-97476129D01*
X156636401Y-97761555D01*
X156629669Y-97845219D01*
X156623157Y-97921727D01*
X156617234Y-97987081D01*
X156612268Y-98037281D01*
X156608629Y-98068329D01*
X156607458Y-98075273D01*
X156600838Y-98103565D01*
X155651364Y-98103565D01*
X155645026Y-98024606D01*
X155625890Y-97931315D01*
X155585846Y-97848791D01*
X155527418Y-97780038D01*
X155453129Y-97728063D01*
X155369748Y-97696863D01*
X155342698Y-97682228D01*
X155329156Y-97650819D01*
X155328872Y-97649434D01*
X155327247Y-97636174D01*
X155329256Y-97622595D01*
X155336858Y-97606181D01*
X155352016Y-97584411D01*
X155376688Y-97554767D01*
X155412836Y-97514732D01*
X155462420Y-97461785D01*
X155527401Y-97393409D01*
X155531599Y-97389005D01*
X155601493Y-97315611D01*
X155675800Y-97237437D01*
X155749414Y-97159864D01*
X155817229Y-97088275D01*
X155874140Y-97028051D01*
X155886832Y-97014587D01*
X155935487Y-96963820D01*
X155978709Y-96920375D01*
X156013395Y-96887241D01*
X156036444Y-96867405D01*
X156044182Y-96863046D01*
X156055722Y-96872170D01*
X156082710Y-96897200D01*
X156123021Y-96936052D01*
X156174529Y-96986643D01*
X156235109Y-97046888D01*
X156302636Y-97114704D01*
X156357826Y-97170565D01*
X156658724Y-97476129D01*
X156837021Y-97476129D01*
X156826751Y-97464411D01*
X156805471Y-97437599D01*
X156794251Y-97419808D01*
X156791754Y-97411570D01*
X156792700Y-97393590D01*
X156795573Y-97352892D01*
X156800187Y-97291819D01*
X156806358Y-97212713D01*
X156813898Y-97117914D01*
X156822621Y-97009767D01*
X156832343Y-96890612D01*
X156842876Y-96762791D01*
X156851365Y-96660635D01*
X156899396Y-96084674D01*
X156775805Y-96084674D01*
X156775273Y-96097104D01*
X156772769Y-96132110D01*
X156768496Y-96187215D01*
X156762653Y-96259943D01*
X156755443Y-96347814D01*
X156747066Y-96448351D01*
X156737723Y-96559077D01*
X156728758Y-96664205D01*
X156718602Y-96783483D01*
X156709142Y-96896080D01*
X156700596Y-96999305D01*
X156693179Y-97090473D01*
X156687108Y-97166895D01*
X156682601Y-97225883D01*
X156679873Y-97264749D01*
X156679116Y-97279844D01*
X156677935Y-97289238D01*
X156673256Y-97292966D01*
X156663276Y-97289471D01*
X156646190Y-97277199D01*
X156620196Y-97254594D01*
X156583490Y-97220100D01*
X156534267Y-97172162D01*
X156470726Y-97109224D01*
X156403305Y-97041968D01*
X156127601Y-96766477D01*
X156129533Y-96764406D01*
X155947290Y-96764406D01*
X155938984Y-96775780D01*
X155915733Y-96802563D01*
X155879865Y-96842292D01*
X155833713Y-96892507D01*
X155779606Y-96950746D01*
X155719874Y-97014547D01*
X155656848Y-97081449D01*
X155592858Y-97148990D01*
X155530236Y-97214710D01*
X155471310Y-97276146D01*
X155418412Y-97330837D01*
X155373872Y-97376322D01*
X155340020Y-97410138D01*
X155319188Y-97429826D01*
X155313506Y-97433837D01*
X155311634Y-97420891D01*
X155307746Y-97385134D01*
X155302057Y-97328804D01*
X155294781Y-97254140D01*
X155286131Y-97163380D01*
X155276322Y-97058762D01*
X155265566Y-96942526D01*
X155254079Y-96816908D01*
X155244907Y-96715618D01*
X155233174Y-96584279D01*
X155222335Y-96460552D01*
X155212570Y-96346681D01*
X155204063Y-96244911D01*
X155196995Y-96157487D01*
X155191549Y-96086653D01*
X155187908Y-96034653D01*
X155186253Y-96003732D01*
X155186442Y-95995703D01*
X155196334Y-96002854D01*
X155221524Y-96025841D01*
X155259810Y-96062439D01*
X155308989Y-96110422D01*
X155366861Y-96167566D01*
X155431222Y-96231647D01*
X155499871Y-96300438D01*
X155570605Y-96371716D01*
X155641222Y-96443255D01*
X155709520Y-96512830D01*
X155773296Y-96578217D01*
X155830350Y-96637191D01*
X155878478Y-96687527D01*
X155915478Y-96726999D01*
X155939148Y-96753383D01*
X155947290Y-96764406D01*
X156129533Y-96764406D01*
X156230409Y-96656295D01*
X156282768Y-96600377D01*
X156341535Y-96537948D01*
X156404385Y-96471443D01*
X156468995Y-96403298D01*
X156533042Y-96335948D01*
X156594203Y-96271828D01*
X156650153Y-96213372D01*
X156698570Y-96163018D01*
X156737130Y-96123198D01*
X156763509Y-96096350D01*
X156775384Y-96084908D01*
X156775805Y-96084674D01*
X156899396Y-96084674D01*
X156911401Y-95940726D01*
X157511938Y-95309158D01*
X158112475Y-94677589D01*
X158112034Y-94589315D01*
X158111592Y-94501040D01*
X158014583Y-94604666D01*
X157960291Y-94662463D01*
X157896192Y-94730368D01*
X157824016Y-94806572D01*
X157745492Y-94889269D01*
X157662349Y-94976653D01*
X157576319Y-95066915D01*
X157489130Y-95158250D01*
X157402513Y-95248849D01*
X157318197Y-95336907D01*
X157237912Y-95420615D01*
X157163387Y-95498167D01*
X157096354Y-95567757D01*
X157038541Y-95627576D01*
X156991679Y-95675818D01*
X156957496Y-95710676D01*
X156937724Y-95730343D01*
X156933390Y-95734116D01*
X156933092Y-95720992D01*
X156934731Y-95687389D01*
X156938023Y-95637880D01*
X156942682Y-95577037D01*
X156944682Y-95552732D01*
X156959577Y-95374951D01*
X156842955Y-95374951D01*
X156836934Y-95403243D01*
X156833863Y-95425618D01*
X156829548Y-95467717D01*
X156824488Y-95524178D01*
X156819181Y-95589635D01*
X156817344Y-95613862D01*
X156811927Y-95683421D01*
X156806459Y-95748018D01*
X156801488Y-95801548D01*
X156797561Y-95837910D01*
X156796675Y-95844509D01*
X156793334Y-95858056D01*
X156786101Y-95873914D01*
X156773440Y-95893861D01*
X156753811Y-95919673D01*
X156725678Y-95953129D01*
X156687502Y-95996007D01*
X156637746Y-96050083D01*
X156574871Y-96117136D01*
X156497341Y-96198943D01*
X156418251Y-96281950D01*
X156339564Y-96364094D01*
X156266112Y-96440169D01*
X156199724Y-96508325D01*
X156142227Y-96566712D01*
X156095451Y-96613481D01*
X156061224Y-96646782D01*
X156041373Y-96664767D01*
X156037140Y-96667442D01*
X156026003Y-96657741D01*
X155999971Y-96632441D01*
X155961570Y-96594082D01*
X155913328Y-96545200D01*
X155857770Y-96488334D01*
X155817592Y-96446906D01*
X155607831Y-96230000D01*
X156226337Y-96230000D01*
X156226337Y-95991089D01*
X155471881Y-95991089D01*
X155471881Y-96097542D01*
X155333565Y-95959654D01*
X155235447Y-95861840D01*
X155044357Y-95861840D01*
X155042529Y-95877270D01*
X155033277Y-95885867D01*
X155010950Y-95889613D01*
X154969895Y-95890489D01*
X154962624Y-95890495D01*
X154880891Y-95890495D01*
X154880891Y-95671172D01*
X154962624Y-95752179D01*
X155008730Y-95801428D01*
X155036306Y-95839159D01*
X155044357Y-95861840D01*
X155235447Y-95861840D01*
X155195248Y-95821766D01*
X155195248Y-95698952D01*
X155194863Y-95642450D01*
X155193100Y-95606505D01*
X155189050Y-95586530D01*
X155181801Y-95577937D01*
X155170870Y-95576139D01*
X155158712Y-95573498D01*
X155149727Y-95562912D01*
X155142826Y-95540381D01*
X155136924Y-95501909D01*
X155130935Y-95443498D01*
X155129013Y-95422104D01*
X155124852Y-95374951D01*
X156842955Y-95374951D01*
X156959577Y-95374951D01*
X157119109Y-95374951D01*
X157119109Y-95261782D01*
X157051314Y-95261782D01*
X157011662Y-95260696D01*
X156990116Y-95255454D01*
X156987480Y-95252334D01*
X156848616Y-95252334D01*
X156841308Y-95259462D01*
X156815993Y-95261662D01*
X156798908Y-95261782D01*
X156741881Y-95261782D01*
X156529221Y-95261782D01*
X155114698Y-95261782D01*
X155162542Y-95212786D01*
X155236850Y-95152324D01*
X155328816Y-95105691D01*
X155439998Y-95072249D01*
X155550471Y-95053753D01*
X155622773Y-95045122D01*
X155622773Y-95136040D01*
X156201188Y-95136040D01*
X156201188Y-95032893D01*
X156286065Y-95041496D01*
X156345368Y-95048756D01*
X156408551Y-95058379D01*
X156446386Y-95065252D01*
X156521832Y-95080407D01*
X156525526Y-95171095D01*
X156529221Y-95261782D01*
X156741881Y-95261782D01*
X156741881Y-95211485D01*
X156743544Y-95179976D01*
X156747697Y-95162463D01*
X156749371Y-95161188D01*
X156767987Y-95169254D01*
X156795183Y-95188820D01*
X156822448Y-95212944D01*
X156841267Y-95234682D01*
X156842943Y-95237508D01*
X156848616Y-95252334D01*
X156987480Y-95252334D01*
X156979662Y-95243081D01*
X156975442Y-95229604D01*
X156958219Y-95194627D01*
X156925138Y-95152579D01*
X156881893Y-95109356D01*
X156834174Y-95070854D01*
X156802830Y-95050801D01*
X156767123Y-95028851D01*
X156748819Y-95010411D01*
X156742388Y-94988668D01*
X156741894Y-94975718D01*
X156741894Y-94972575D01*
X156100594Y-94972575D01*
X156100594Y-95035446D01*
X155723367Y-95035446D01*
X155723367Y-94972575D01*
X156100594Y-94972575D01*
X156741894Y-94972575D01*
X156741881Y-94934852D01*
X156636048Y-94934852D01*
X156587355Y-94936029D01*
X156549405Y-94939165D01*
X156528308Y-94943671D01*
X156526023Y-94945495D01*
X156512641Y-94948295D01*
X156480074Y-94947148D01*
X156433916Y-94942393D01*
X156402376Y-94938003D01*
X156345188Y-94929378D01*
X156292886Y-94921591D01*
X156253582Y-94915847D01*
X156242055Y-94914215D01*
X156211937Y-94904888D01*
X156201188Y-94890272D01*
X156197920Y-94884320D01*
X156186230Y-94879778D01*
X156163288Y-94876470D01*
X156126265Y-94874215D01*
X156072332Y-94872834D01*
X155998660Y-94872150D01*
X155911980Y-94871980D01*
X155819471Y-94872077D01*
X155749094Y-94872530D01*
X155697836Y-94873590D01*
X155662680Y-94875503D01*
X155640611Y-94878519D01*
X155628615Y-94882885D01*
X155623676Y-94888849D01*
X155622773Y-94895784D01*
X155615079Y-94917795D01*
X155589879Y-94930321D01*
X155543991Y-94934788D01*
X155535736Y-94934852D01*
X155458027Y-94942868D01*
X155369767Y-94964936D01*
X155278915Y-94998084D01*
X155193430Y-95039339D01*
X155121274Y-95085731D01*
X155111928Y-95093082D01*
X155081467Y-95116998D01*
X155063428Y-95126576D01*
X155050831Y-95123480D01*
X155037900Y-95110704D01*
X154999707Y-95085678D01*
X154950002Y-95076071D01*
X154896476Y-95081067D01*
X154846822Y-95099851D01*
X154808733Y-95131606D01*
X154805975Y-95135297D01*
X154777474Y-95194575D01*
X154772172Y-95255934D01*
X154789482Y-95314427D01*
X154828820Y-95365104D01*
X154833630Y-95369289D01*
X154861560Y-95389167D01*
X154889898Y-95397921D01*
X154929737Y-95398553D01*
X154939689Y-95397992D01*
X154978668Y-95396562D01*
X154998746Y-95399839D01*
X155006015Y-95409728D01*
X155006760Y-95418961D01*
X155008284Y-95445744D01*
X155012065Y-95486025D01*
X155014782Y-95510124D01*
X155018723Y-95548401D01*
X155017084Y-95567996D01*
X155007579Y-95575158D01*
X154990649Y-95576139D01*
X154980608Y-95572901D01*
X154964410Y-95562420D01*
X154940855Y-95543548D01*
X154908743Y-95515135D01*
X154866872Y-95476035D01*
X154814043Y-95425097D01*
X154749055Y-95361173D01*
X154670709Y-95283114D01*
X154577803Y-95189772D01*
X154469137Y-95079998D01*
X154416769Y-95026952D01*
X153874951Y-94477767D01*
X153875570Y-94564848D01*
G37*
X153875570Y-94564848D02*
X153876189Y-94651931D01*
X154327914Y-95110891D01*
X154779639Y-95569852D01*
X154779968Y-95780471D01*
X154780297Y-95991089D01*
X155055390Y-95991089D01*
X155062478Y-96044530D01*
X155065162Y-96068888D01*
X155069687Y-96114759D01*
X155075809Y-96179405D01*
X155083288Y-96260091D01*
X155091881Y-96354081D01*
X155101346Y-96458637D01*
X155111442Y-96571025D01*
X155121926Y-96688507D01*
X155132556Y-96808348D01*
X155143091Y-96927811D01*
X155153287Y-97044159D01*
X155162905Y-97154657D01*
X155171700Y-97256569D01*
X155179432Y-97347158D01*
X155185858Y-97423687D01*
X155190737Y-97483421D01*
X155193825Y-97523624D01*
X155194883Y-97541559D01*
X155194882Y-97541644D01*
X155187173Y-97556035D01*
X155164019Y-97585748D01*
X155125105Y-97631131D01*
X155070116Y-97692529D01*
X154998736Y-97770288D01*
X154910651Y-97864754D01*
X154805546Y-97976272D01*
X154683105Y-98105188D01*
X154648690Y-98141287D01*
X154102863Y-98713416D01*
X154191119Y-98801436D01*
X154262515Y-98723758D01*
X154288634Y-98695686D01*
X154329434Y-98652274D01*
X154382223Y-98596366D01*
X154444309Y-98530808D01*
X154513000Y-98458441D01*
X154585604Y-98382112D01*
X154629040Y-98336524D01*
X154710584Y-98251119D01*
X154776496Y-98182710D01*
X154828456Y-98130053D01*
X154868145Y-98091905D01*
X154897243Y-98067020D01*
X154917431Y-98054156D01*
X154930390Y-98052068D01*
X154937800Y-98059513D01*
X154941342Y-98075246D01*
X154942697Y-98098023D01*
X154942879Y-98104239D01*
X154952297Y-98147061D01*
X154975503Y-98198819D01*
X155007864Y-98251328D01*
X155044748Y-98296403D01*
X155059507Y-98310328D01*
X155135233Y-98359047D01*
X155223692Y-98386306D01*
X155301900Y-98392773D01*
X155390532Y-98380576D01*
X155472388Y-98344813D01*
X155544836Y-98286722D01*
X155558203Y-98272262D01*
X155607082Y-98216733D01*
X156452674Y-98216733D01*
X156452674Y-98392773D01*
X156679010Y-98392773D01*
X156679010Y-98310531D01*
X156681850Y-98254386D01*
X156691393Y-98215416D01*
X156702991Y-98194219D01*
X156711277Y-98179052D01*
X156718373Y-98157062D01*
X156724748Y-98124987D01*
X156730872Y-98079569D01*
X156737216Y-98017548D01*
X156744250Y-97935662D01*
X156749066Y-97874746D01*
X156771161Y-97589343D01*
X157313565Y-98138805D01*
X157411637Y-98238228D01*
X157505784Y-98333815D01*
X157594285Y-98423810D01*
X157675420Y-98506457D01*
X157747469Y-98580001D01*
X157808712Y-98642684D01*
X157857427Y-98692752D01*
X157891896Y-98728448D01*
X157910379Y-98747995D01*
X157940743Y-98778944D01*
X157966071Y-98800530D01*
X157979695Y-98807723D01*
X157997095Y-98799297D01*
X158022460Y-98778245D01*
X158031058Y-98769671D01*
X158067514Y-98731620D01*
X157866802Y-98527658D01*
X157815596Y-98475699D01*
X157749569Y-98408820D01*
X157671618Y-98329950D01*
X157584638Y-98242014D01*
X157491526Y-98147941D01*
X157395179Y-98050658D01*
X157298492Y-97953093D01*
X157229134Y-97883145D01*
X157123703Y-97776550D01*
X157035129Y-97686307D01*
X156962281Y-97611192D01*
X156904023Y-97549986D01*
X156859225Y-97501466D01*
X156837021Y-97476129D01*
X156658724Y-97476129D01*
X156636401Y-97761555D01*
X156629669Y-97845219D01*
X156623157Y-97921727D01*
X156617234Y-97987081D01*
X156612268Y-98037281D01*
X156608629Y-98068329D01*
X156607458Y-98075273D01*
X156600838Y-98103565D01*
X155651364Y-98103565D01*
X155645026Y-98024606D01*
X155625890Y-97931315D01*
X155585846Y-97848791D01*
X155527418Y-97780038D01*
X155453129Y-97728063D01*
X155369748Y-97696863D01*
X155342698Y-97682228D01*
X155329156Y-97650819D01*
X155328872Y-97649434D01*
X155327247Y-97636174D01*
X155329256Y-97622595D01*
X155336858Y-97606181D01*
X155352016Y-97584411D01*
X155376688Y-97554767D01*
X155412836Y-97514732D01*
X155462420Y-97461785D01*
X155527401Y-97393409D01*
X155531599Y-97389005D01*
X155601493Y-97315611D01*
X155675800Y-97237437D01*
X155749414Y-97159864D01*
X155817229Y-97088275D01*
X155874140Y-97028051D01*
X155886832Y-97014587D01*
X155935487Y-96963820D01*
X155978709Y-96920375D01*
X156013395Y-96887241D01*
X156036444Y-96867405D01*
X156044182Y-96863046D01*
X156055722Y-96872170D01*
X156082710Y-96897200D01*
X156123021Y-96936052D01*
X156174529Y-96986643D01*
X156235109Y-97046888D01*
X156302636Y-97114704D01*
X156357826Y-97170565D01*
X156658724Y-97476129D01*
X156837021Y-97476129D01*
X156826751Y-97464411D01*
X156805471Y-97437599D01*
X156794251Y-97419808D01*
X156791754Y-97411570D01*
X156792700Y-97393590D01*
X156795573Y-97352892D01*
X156800187Y-97291819D01*
X156806358Y-97212713D01*
X156813898Y-97117914D01*
X156822621Y-97009767D01*
X156832343Y-96890612D01*
X156842876Y-96762791D01*
X156851365Y-96660635D01*
X156899396Y-96084674D01*
X156775805Y-96084674D01*
X156775273Y-96097104D01*
X156772769Y-96132110D01*
X156768496Y-96187215D01*
X156762653Y-96259943D01*
X156755443Y-96347814D01*
X156747066Y-96448351D01*
X156737723Y-96559077D01*
X156728758Y-96664205D01*
X156718602Y-96783483D01*
X156709142Y-96896080D01*
X156700596Y-96999305D01*
X156693179Y-97090473D01*
X156687108Y-97166895D01*
X156682601Y-97225883D01*
X156679873Y-97264749D01*
X156679116Y-97279844D01*
X156677935Y-97289238D01*
X156673256Y-97292966D01*
X156663276Y-97289471D01*
X156646190Y-97277199D01*
X156620196Y-97254594D01*
X156583490Y-97220100D01*
X156534267Y-97172162D01*
X156470726Y-97109224D01*
X156403305Y-97041968D01*
X156127601Y-96766477D01*
X156129533Y-96764406D01*
X155947290Y-96764406D01*
X155938984Y-96775780D01*
X155915733Y-96802563D01*
X155879865Y-96842292D01*
X155833713Y-96892507D01*
X155779606Y-96950746D01*
X155719874Y-97014547D01*
X155656848Y-97081449D01*
X155592858Y-97148990D01*
X155530236Y-97214710D01*
X155471310Y-97276146D01*
X155418412Y-97330837D01*
X155373872Y-97376322D01*
X155340020Y-97410138D01*
X155319188Y-97429826D01*
X155313506Y-97433837D01*
X155311634Y-97420891D01*
X155307746Y-97385134D01*
X155302057Y-97328804D01*
X155294781Y-97254140D01*
X155286131Y-97163380D01*
X155276322Y-97058762D01*
X155265566Y-96942526D01*
X155254079Y-96816908D01*
X155244907Y-96715618D01*
X155233174Y-96584279D01*
X155222335Y-96460552D01*
X155212570Y-96346681D01*
X155204063Y-96244911D01*
X155196995Y-96157487D01*
X155191549Y-96086653D01*
X155187908Y-96034653D01*
X155186253Y-96003732D01*
X155186442Y-95995703D01*
X155196334Y-96002854D01*
X155221524Y-96025841D01*
X155259810Y-96062439D01*
X155308989Y-96110422D01*
X155366861Y-96167566D01*
X155431222Y-96231647D01*
X155499871Y-96300438D01*
X155570605Y-96371716D01*
X155641222Y-96443255D01*
X155709520Y-96512830D01*
X155773296Y-96578217D01*
X155830350Y-96637191D01*
X155878478Y-96687527D01*
X155915478Y-96726999D01*
X155939148Y-96753383D01*
X155947290Y-96764406D01*
X156129533Y-96764406D01*
X156230409Y-96656295D01*
X156282768Y-96600377D01*
X156341535Y-96537948D01*
X156404385Y-96471443D01*
X156468995Y-96403298D01*
X156533042Y-96335948D01*
X156594203Y-96271828D01*
X156650153Y-96213372D01*
X156698570Y-96163018D01*
X156737130Y-96123198D01*
X156763509Y-96096350D01*
X156775384Y-96084908D01*
X156775805Y-96084674D01*
X156899396Y-96084674D01*
X156911401Y-95940726D01*
X157511938Y-95309158D01*
X158112475Y-94677589D01*
X158112034Y-94589315D01*
X158111592Y-94501040D01*
X158014583Y-94604666D01*
X157960291Y-94662463D01*
X157896192Y-94730368D01*
X157824016Y-94806572D01*
X157745492Y-94889269D01*
X157662349Y-94976653D01*
X157576319Y-95066915D01*
X157489130Y-95158250D01*
X157402513Y-95248849D01*
X157318197Y-95336907D01*
X157237912Y-95420615D01*
X157163387Y-95498167D01*
X157096354Y-95567757D01*
X157038541Y-95627576D01*
X156991679Y-95675818D01*
X156957496Y-95710676D01*
X156937724Y-95730343D01*
X156933390Y-95734116D01*
X156933092Y-95720992D01*
X156934731Y-95687389D01*
X156938023Y-95637880D01*
X156942682Y-95577037D01*
X156944682Y-95552732D01*
X156959577Y-95374951D01*
X156842955Y-95374951D01*
X156836934Y-95403243D01*
X156833863Y-95425618D01*
X156829548Y-95467717D01*
X156824488Y-95524178D01*
X156819181Y-95589635D01*
X156817344Y-95613862D01*
X156811927Y-95683421D01*
X156806459Y-95748018D01*
X156801488Y-95801548D01*
X156797561Y-95837910D01*
X156796675Y-95844509D01*
X156793334Y-95858056D01*
X156786101Y-95873914D01*
X156773440Y-95893861D01*
X156753811Y-95919673D01*
X156725678Y-95953129D01*
X156687502Y-95996007D01*
X156637746Y-96050083D01*
X156574871Y-96117136D01*
X156497341Y-96198943D01*
X156418251Y-96281950D01*
X156339564Y-96364094D01*
X156266112Y-96440169D01*
X156199724Y-96508325D01*
X156142227Y-96566712D01*
X156095451Y-96613481D01*
X156061224Y-96646782D01*
X156041373Y-96664767D01*
X156037140Y-96667442D01*
X156026003Y-96657741D01*
X155999971Y-96632441D01*
X155961570Y-96594082D01*
X155913328Y-96545200D01*
X155857770Y-96488334D01*
X155817592Y-96446906D01*
X155607831Y-96230000D01*
X156226337Y-96230000D01*
X156226337Y-95991089D01*
X155471881Y-95991089D01*
X155471881Y-96097542D01*
X155333565Y-95959654D01*
X155235447Y-95861840D01*
X155044357Y-95861840D01*
X155042529Y-95877270D01*
X155033277Y-95885867D01*
X155010950Y-95889613D01*
X154969895Y-95890489D01*
X154962624Y-95890495D01*
X154880891Y-95890495D01*
X154880891Y-95671172D01*
X154962624Y-95752179D01*
X155008730Y-95801428D01*
X155036306Y-95839159D01*
X155044357Y-95861840D01*
X155235447Y-95861840D01*
X155195248Y-95821766D01*
X155195248Y-95698952D01*
X155194863Y-95642450D01*
X155193100Y-95606505D01*
X155189050Y-95586530D01*
X155181801Y-95577937D01*
X155170870Y-95576139D01*
X155158712Y-95573498D01*
X155149727Y-95562912D01*
X155142826Y-95540381D01*
X155136924Y-95501909D01*
X155130935Y-95443498D01*
X155129013Y-95422104D01*
X155124852Y-95374951D01*
X156842955Y-95374951D01*
X156959577Y-95374951D01*
X157119109Y-95374951D01*
X157119109Y-95261782D01*
X157051314Y-95261782D01*
X157011662Y-95260696D01*
X156990116Y-95255454D01*
X156987480Y-95252334D01*
X156848616Y-95252334D01*
X156841308Y-95259462D01*
X156815993Y-95261662D01*
X156798908Y-95261782D01*
X156741881Y-95261782D01*
X156529221Y-95261782D01*
X155114698Y-95261782D01*
X155162542Y-95212786D01*
X155236850Y-95152324D01*
X155328816Y-95105691D01*
X155439998Y-95072249D01*
X155550471Y-95053753D01*
X155622773Y-95045122D01*
X155622773Y-95136040D01*
X156201188Y-95136040D01*
X156201188Y-95032893D01*
X156286065Y-95041496D01*
X156345368Y-95048756D01*
X156408551Y-95058379D01*
X156446386Y-95065252D01*
X156521832Y-95080407D01*
X156525526Y-95171095D01*
X156529221Y-95261782D01*
X156741881Y-95261782D01*
X156741881Y-95211485D01*
X156743544Y-95179976D01*
X156747697Y-95162463D01*
X156749371Y-95161188D01*
X156767987Y-95169254D01*
X156795183Y-95188820D01*
X156822448Y-95212944D01*
X156841267Y-95234682D01*
X156842943Y-95237508D01*
X156848616Y-95252334D01*
X156987480Y-95252334D01*
X156979662Y-95243081D01*
X156975442Y-95229604D01*
X156958219Y-95194627D01*
X156925138Y-95152579D01*
X156881893Y-95109356D01*
X156834174Y-95070854D01*
X156802830Y-95050801D01*
X156767123Y-95028851D01*
X156748819Y-95010411D01*
X156742388Y-94988668D01*
X156741894Y-94975718D01*
X156741894Y-94972575D01*
X156100594Y-94972575D01*
X156100594Y-95035446D01*
X155723367Y-95035446D01*
X155723367Y-94972575D01*
X156100594Y-94972575D01*
X156741894Y-94972575D01*
X156741881Y-94934852D01*
X156636048Y-94934852D01*
X156587355Y-94936029D01*
X156549405Y-94939165D01*
X156528308Y-94943671D01*
X156526023Y-94945495D01*
X156512641Y-94948295D01*
X156480074Y-94947148D01*
X156433916Y-94942393D01*
X156402376Y-94938003D01*
X156345188Y-94929378D01*
X156292886Y-94921591D01*
X156253582Y-94915847D01*
X156242055Y-94914215D01*
X156211937Y-94904888D01*
X156201188Y-94890272D01*
X156197920Y-94884320D01*
X156186230Y-94879778D01*
X156163288Y-94876470D01*
X156126265Y-94874215D01*
X156072332Y-94872834D01*
X155998660Y-94872150D01*
X155911980Y-94871980D01*
X155819471Y-94872077D01*
X155749094Y-94872530D01*
X155697836Y-94873590D01*
X155662680Y-94875503D01*
X155640611Y-94878519D01*
X155628615Y-94882885D01*
X155623676Y-94888849D01*
X155622773Y-94895784D01*
X155615079Y-94917795D01*
X155589879Y-94930321D01*
X155543991Y-94934788D01*
X155535736Y-94934852D01*
X155458027Y-94942868D01*
X155369767Y-94964936D01*
X155278915Y-94998084D01*
X155193430Y-95039339D01*
X155121274Y-95085731D01*
X155111928Y-95093082D01*
X155081467Y-95116998D01*
X155063428Y-95126576D01*
X155050831Y-95123480D01*
X155037900Y-95110704D01*
X154999707Y-95085678D01*
X154950002Y-95076071D01*
X154896476Y-95081067D01*
X154846822Y-95099851D01*
X154808733Y-95131606D01*
X154805975Y-95135297D01*
X154777474Y-95194575D01*
X154772172Y-95255934D01*
X154789482Y-95314427D01*
X154828820Y-95365104D01*
X154833630Y-95369289D01*
X154861560Y-95389167D01*
X154889898Y-95397921D01*
X154929737Y-95398553D01*
X154939689Y-95397992D01*
X154978668Y-95396562D01*
X154998746Y-95399839D01*
X155006015Y-95409728D01*
X155006760Y-95418961D01*
X155008284Y-95445744D01*
X155012065Y-95486025D01*
X155014782Y-95510124D01*
X155018723Y-95548401D01*
X155017084Y-95567996D01*
X155007579Y-95575158D01*
X154990649Y-95576139D01*
X154980608Y-95572901D01*
X154964410Y-95562420D01*
X154940855Y-95543548D01*
X154908743Y-95515135D01*
X154866872Y-95476035D01*
X154814043Y-95425097D01*
X154749055Y-95361173D01*
X154670709Y-95283114D01*
X154577803Y-95189772D01*
X154469137Y-95079998D01*
X154416769Y-95026952D01*
X153874951Y-94477767D01*
X153875570Y-94564848D01*
M02*
