M48
; DRILL file {KiCad (5.1.6)-1} date 07/22/20 16:29:30
; FORMAT={3:3/ absolute / metric / suppress leading zeros}
; #@! TF.CreationDate,2020-07-22T16:29:30+02:00
; #@! TF.GenerationSoftware,Kicad,Pcbnew,(5.1.6)-1
FMAT,2
METRIC,TZ
T1C0.350
T2C2.650
%
G90
G05
T1
X134500Y-89000
X134500Y-91000
X134500Y-93000
X134500Y-95000
X134500Y-97000
X134500Y-99000
X134500Y-101000
X134500Y-103000
X134500Y-105000
X134500Y-107000
X134500Y-109000
X134500Y-117000
X134500Y-119000
X134500Y-121000
X135000Y-122495
X135050Y-112000
X135500Y-109000
X135975Y-123025
X136450Y-88400
X136450Y-89650
X136450Y-90900
X136450Y-92150
X136450Y-99800
X136450Y-102350
X136450Y-106150
X136450Y-107450
X136450Y-108700
X136450Y-112500
X136450Y-113800
X136500Y-95000
X136500Y-117000
X136500Y-119000
X136500Y-121000
X136500Y-125000
X137100Y-126750
X137100Y-127450
X137900Y-126750
X137900Y-127450
X138000Y-125450
X138500Y-119000
X138991Y-117541
X139050Y-124500
X139500Y-119950
X139550Y-111250
X139550Y-115050
X139900Y-126750
X139900Y-127450
X140500Y-83000
X140500Y-85000
X140500Y-87000
X140500Y-89000
X140500Y-91000
X140500Y-107000
X140500Y-109000
X140500Y-111000
X140500Y-113000
X140500Y-115000
X140500Y-120500
X141500Y-120500
X142000Y-86000
X142300Y-126750
X142300Y-127450
X142500Y-80000
X142500Y-83000
X142500Y-95000
X142500Y-97000
X142500Y-99000
X142500Y-101000
X142500Y-103000
X142500Y-105000
X142500Y-107000
X142500Y-109000
X142500Y-111000
X142500Y-113000
X142500Y-118300
X143000Y-86000
X143600Y-118300
X144000Y-86000
X144500Y-80000
X144500Y-83000
X144500Y-93000
X144500Y-95000
X144500Y-97000
X144500Y-99000
X144500Y-101000
X144500Y-103000
X144500Y-105000
X144500Y-107000
X144500Y-109000
X144500Y-111000
X144500Y-117000
X144850Y-121500
X144850Y-125000
X145000Y-86000
X145600Y-120550
X146000Y-86000
X146500Y-83000
X146500Y-91000
X146500Y-93000
X146500Y-95000
X146500Y-97000
X146500Y-99000
X146500Y-101000
X146500Y-103000
X146500Y-105000
X146500Y-107000
X146500Y-109000
X146500Y-115000
X146600Y-120550
X146700Y-126750
X146700Y-127450
X147900Y-126750
X147900Y-127450
X148021Y-117521
X148500Y-80000
X148500Y-83000
X148500Y-85000
X148500Y-87000
X148500Y-89000
X148500Y-91000
X148500Y-93000
X148500Y-95000
X148500Y-97000
X148500Y-99000
X148500Y-101000
X148500Y-103000
X148500Y-105000
X148500Y-107000
X148500Y-111000
X148500Y-113000
X148500Y-115000
X149100Y-126750
X149100Y-127450
X149450Y-84850
X149550Y-81500
X150300Y-126750
X150300Y-127450
X150500Y-89000
X150500Y-91000
X150500Y-93000
X150500Y-95000
X150500Y-97000
X150500Y-99000
X150500Y-101000
X150500Y-103000
X150500Y-105000
X150500Y-109000
X150500Y-111000
X150500Y-113000
X150500Y-117000
X150500Y-119000
X150500Y-121000
X150500Y-125000
X150700Y-84850
X151100Y-126750
X151100Y-127450
X151500Y-118000
X152500Y-89000
X152500Y-91000
X152500Y-93000
X152500Y-95000
X152500Y-97000
X152500Y-99000
X152500Y-101000
X152500Y-103000
X152500Y-105000
X152500Y-109000
X152500Y-111000
X152500Y-115000
X152500Y-117000
X152500Y-118000
X152500Y-125000
X153250Y-84850
X153500Y-118000
X153500Y-126750
X153500Y-127450
X154450Y-81500
X154500Y-80000
X154500Y-84850
X154500Y-89000
X154500Y-91000
X154500Y-93000
X154500Y-95000
X154500Y-97000
X154500Y-99000
X154500Y-101000
X154500Y-103000
X154500Y-105000
X154500Y-109000
X154500Y-111000
X154500Y-115000
X154500Y-117000
X154500Y-118000
X155100Y-126750
X155100Y-127450
X155500Y-118000
X155500Y-122855
X155500Y-123645
X155500Y-124395
X155500Y-125200
X156500Y-80000
X156500Y-87000
X156500Y-89000
X156500Y-91000
X156500Y-93000
X156500Y-95000
X156500Y-97000
X156500Y-99000
X156500Y-101000
X156500Y-103000
X156500Y-105000
X156500Y-109000
X156500Y-111000
X156500Y-115000
X156500Y-117000
X156700Y-126750
X156700Y-127450
X157450Y-103600
X157450Y-106150
X157450Y-108700
X157500Y-111250
X157500Y-112500
X158300Y-118000
X158500Y-87000
X158500Y-95000
X158500Y-97000
X159500Y-126750
X159500Y-127450
X159800Y-119000
X160300Y-117500
X160300Y-118600
X160300Y-119400
X160300Y-126750
X160300Y-127450
X160500Y-87000
X160500Y-95000
X160500Y-97000
X160550Y-88400
X160550Y-89650
X160550Y-90900
X160550Y-92200
X160550Y-99800
X160800Y-120800
X162500Y-125000
X162600Y-113800
X162600Y-115100
X162650Y-105000
X162650Y-106200
X162650Y-110000
X162650Y-111200
X162650Y-112500
X158590Y-82400
X159180Y-80980
X159180Y-83820
X160600Y-80390
X160600Y-84410
X162020Y-80980
X162020Y-83820
X162610Y-82400
X141500Y-123000
X141500Y-124000
X142500Y-123000
X142500Y-124000
X134390Y-82400
X134980Y-80980
X134980Y-83820
X136400Y-80390
X136400Y-84410
X137820Y-80980
X137820Y-83820
X138410Y-82400
T2
X160600Y-82400
X136400Y-82400
T0
M30
