G04 #@! TF.GenerationSoftware,KiCad,Pcbnew,(5.1.6)-1*
G04 #@! TF.CreationDate,2020-07-22T16:01:37+02:00*
G04 #@! TF.ProjectId,BRD-00008-X01,4252442d-3030-4303-9038-2d5830312e6b,X01*
G04 #@! TF.SameCoordinates,Original*
G04 #@! TF.FileFunction,Copper,L2,Inr*
G04 #@! TF.FilePolarity,Positive*
%FSLAX46Y46*%
G04 Gerber Fmt 4.6, Leading zero omitted, Abs format (unit mm)*
G04 Created by KiCad (PCBNEW (5.1.6)-1) date 2020-07-22 16:01:37*
%MOMM*%
%LPD*%
G01*
G04 APERTURE LIST*
G04 #@! TA.AperFunction,Profile*
%ADD10C,0.010000*%
G04 #@! TD*
G04 #@! TA.AperFunction,ViaPad*
%ADD11C,0.600000*%
G04 #@! TD*
G04 #@! TA.AperFunction,ViaPad*
%ADD12C,5.400000*%
G04 #@! TD*
G04 #@! TA.AperFunction,Conductor*
%ADD13C,0.150000*%
G04 #@! TD*
G04 APERTURE END LIST*
D10*
X135650000Y-130450000D02*
X135650000Y-128050000D01*
X135650000Y-130450000D02*
X143900000Y-130450000D01*
X143900000Y-130450000D02*
X143900000Y-127200000D01*
X145400000Y-130450000D02*
X145400000Y-127200000D01*
X163500000Y-127250000D02*
X163500000Y-79500000D01*
X162150000Y-127250000D02*
X163500000Y-127250000D01*
X145400000Y-130450000D02*
X161350000Y-130450000D01*
X161350000Y-130450000D02*
X161350000Y-128050000D01*
X162150000Y-127250000D02*
G75*
G03*
X161350000Y-128050000I0J-800000D01*
G01*
X144650000Y-126450000D02*
G75*
G03*
X143900000Y-127200000I0J-750000D01*
G01*
X145400000Y-127200000D02*
G75*
G03*
X144650000Y-126450000I-750000J0D01*
G01*
X135650000Y-128050000D02*
G75*
G03*
X134850000Y-127250000I-800000J0D01*
G01*
X133500000Y-127250000D02*
X134850000Y-127250000D01*
X133500000Y-79500000D02*
X133500000Y-127250000D01*
X133500000Y-79500000D02*
X163500000Y-79500000D01*
D11*
X142500000Y-124000000D03*
X142500000Y-123000000D03*
X141500000Y-123000000D03*
X141500000Y-124000000D03*
D12*
X136400000Y-82400000D03*
D11*
X136400000Y-80390000D03*
X134980000Y-80980000D03*
X134390000Y-82400000D03*
X134980000Y-83820000D03*
X136400000Y-84410000D03*
X137820000Y-83820000D03*
X138410000Y-82400000D03*
X137820000Y-80980000D03*
D12*
X160600000Y-82400000D03*
D11*
X160600000Y-80390000D03*
X159180000Y-80980000D03*
X158590000Y-82400000D03*
X159180000Y-83820000D03*
X160600000Y-84410000D03*
X162020000Y-83820000D03*
X162610000Y-82400000D03*
X162020000Y-80980000D03*
X134500000Y-103000000D03*
X153500000Y-126750000D03*
X153500000Y-127450000D03*
X150300000Y-127450000D03*
X153250000Y-84850000D03*
X154500000Y-84850000D03*
X149450000Y-84850000D03*
X160550000Y-88400000D03*
X160550000Y-89650000D03*
X160550000Y-90900000D03*
X136450000Y-88400000D03*
X136450000Y-89650000D03*
X136450000Y-90900000D03*
X136450000Y-92150000D03*
X136450000Y-99800000D03*
X136450000Y-102350000D03*
X160550000Y-99800000D03*
X157450000Y-103600000D03*
X157450000Y-106150000D03*
X157450000Y-108700000D03*
X157500000Y-112500000D03*
X139900000Y-127450000D03*
X142300000Y-127450000D03*
X147900000Y-127450000D03*
X151100000Y-127450000D03*
X156700000Y-127450000D03*
X137900000Y-127450000D03*
X146700000Y-127450000D03*
X159500000Y-127450000D03*
X156700000Y-126750000D03*
X159500000Y-126750000D03*
X151100000Y-126750000D03*
X150300000Y-126750000D03*
X147900000Y-126750000D03*
X146700000Y-126750000D03*
X137900000Y-126750000D03*
X139900000Y-126750000D03*
X142300000Y-126750000D03*
X162600000Y-113800000D03*
X162600000Y-115100000D03*
X160300000Y-117500000D03*
X150700000Y-84850000D03*
X154450000Y-81500000D03*
X149550000Y-81500000D03*
X160550000Y-92200000D03*
X142000000Y-86000000D03*
X139550000Y-111250000D03*
X157500000Y-111250000D03*
X162650000Y-105000000D03*
X142500000Y-118300000D03*
X143600000Y-118300000D03*
X145600000Y-120550000D03*
X139550000Y-115050000D03*
X155500000Y-124395003D03*
X155500000Y-125200000D03*
X160800000Y-120800000D03*
X144850000Y-125000000D03*
X144850000Y-121500000D03*
X158300000Y-118000000D03*
X134500000Y-91000000D03*
X148500000Y-80000000D03*
X148500000Y-105000000D03*
X134500000Y-105000000D03*
X134500000Y-93000000D03*
X134500000Y-107000000D03*
X156500000Y-80000000D03*
X154500000Y-80000000D03*
X142500000Y-80000000D03*
X144500000Y-80000000D03*
X134500000Y-101000000D03*
X134500000Y-99000000D03*
X134500000Y-97000000D03*
X146500000Y-105000000D03*
X144500000Y-105000000D03*
X142500000Y-105000000D03*
X134500000Y-95000000D03*
X134500000Y-89000000D03*
X134500000Y-117000000D03*
X134500000Y-119000000D03*
X134500000Y-121000000D03*
X136500000Y-117000000D03*
X136500000Y-119000000D03*
X136500000Y-121000000D03*
X138500000Y-119000000D03*
X136500000Y-125000000D03*
X150500000Y-105000000D03*
X152500000Y-105000000D03*
X154500000Y-105000000D03*
X156500000Y-105000000D03*
X148500000Y-107000000D03*
X146500000Y-107000000D03*
X144500000Y-107000000D03*
X142500000Y-107000000D03*
X140500000Y-107000000D03*
X140500000Y-109000000D03*
X140500000Y-111000000D03*
X142500000Y-111000000D03*
X142500000Y-109000000D03*
X144500000Y-109000000D03*
X146500000Y-109000000D03*
X150500000Y-109000000D03*
X152500000Y-109000000D03*
X154500000Y-109000000D03*
X156500000Y-109000000D03*
X156500000Y-111000000D03*
X154500000Y-111000000D03*
X152500000Y-111000000D03*
X150500000Y-111000000D03*
X148500000Y-111000000D03*
X144500000Y-111000000D03*
X140500000Y-113000000D03*
X142500000Y-113000000D03*
X140500000Y-115000000D03*
X148500000Y-113000000D03*
X150500000Y-113000000D03*
X152500000Y-115000000D03*
X154500000Y-115000000D03*
X156500000Y-115000000D03*
X156500000Y-117000000D03*
X154500000Y-117000000D03*
X152500000Y-117000000D03*
X150500000Y-117000000D03*
X144500000Y-117000000D03*
X148500000Y-115000000D03*
X146500000Y-115000000D03*
X150500000Y-119000000D03*
X150500000Y-121000000D03*
X150500000Y-125000000D03*
X152500000Y-125000000D03*
X162500000Y-125000000D03*
X148500000Y-103000000D03*
X146500000Y-103000000D03*
X144500000Y-103000000D03*
X142500000Y-103000000D03*
X142500000Y-97000000D03*
X142500000Y-95000000D03*
X144500000Y-95000000D03*
X144500000Y-93000000D03*
X146500000Y-93000000D03*
X146500000Y-91000000D03*
X148500000Y-91000000D03*
X148500000Y-89000000D03*
X136500000Y-95000000D03*
X140500000Y-89000000D03*
X140500000Y-91000000D03*
X140500000Y-87000000D03*
X140500000Y-85000000D03*
X140500000Y-83000000D03*
X142500000Y-83000000D03*
X144500000Y-83000000D03*
X146500000Y-83000000D03*
X148500000Y-83000000D03*
X148500000Y-87000000D03*
X148500000Y-85000000D03*
X150500000Y-89000000D03*
X152500000Y-89000000D03*
X154500000Y-89000000D03*
X156500000Y-89000000D03*
X156500000Y-87000000D03*
X158500000Y-87000000D03*
X160500000Y-87000000D03*
X150500000Y-91000000D03*
X152500000Y-91000000D03*
X154500000Y-91000000D03*
X156500000Y-91000000D03*
X148500000Y-93000000D03*
X150500000Y-93000000D03*
X152500000Y-93000000D03*
X154500000Y-93000000D03*
X156500000Y-93000000D03*
X146500000Y-95000000D03*
X148500000Y-95000000D03*
X150500000Y-95000000D03*
X152500000Y-95000000D03*
X154500000Y-95000000D03*
X156500000Y-95000000D03*
X158500000Y-95000000D03*
X160500000Y-95000000D03*
X160500000Y-97000000D03*
X158500000Y-97000000D03*
X156500000Y-97000000D03*
X154500000Y-97000000D03*
X152500000Y-97000000D03*
X150500000Y-97000000D03*
X148500000Y-97000000D03*
X146500000Y-97000000D03*
X144500000Y-97000000D03*
X142500000Y-99000000D03*
X142500000Y-101000000D03*
X144500000Y-101000000D03*
X144500000Y-99000000D03*
X146500000Y-99000000D03*
X146500000Y-101000000D03*
X148500000Y-99000000D03*
X148500000Y-101000000D03*
X150500000Y-99000000D03*
X150500000Y-101000000D03*
X150500000Y-103000000D03*
X152500000Y-103000000D03*
X154500000Y-103000000D03*
X156500000Y-103000000D03*
X156500000Y-101000000D03*
X156500000Y-99000000D03*
X152500000Y-99000000D03*
X154500000Y-99000000D03*
X154500000Y-101000000D03*
X152500000Y-101000000D03*
X155100000Y-127450000D03*
X155100000Y-126750000D03*
X137100000Y-127450000D03*
X149100000Y-127450000D03*
X160300000Y-127450000D03*
X160300000Y-126750000D03*
X149100000Y-126750000D03*
X137100000Y-126750000D03*
X162650000Y-110000000D03*
X146600000Y-120550000D03*
X160300000Y-119400000D03*
X159800000Y-119000000D03*
X153500000Y-118000000D03*
X154500000Y-118000000D03*
X152500000Y-118000000D03*
X151500000Y-118000000D03*
X155500000Y-118000000D03*
X160300000Y-118600000D03*
X136450000Y-106150000D03*
X144000000Y-86000000D03*
X136450000Y-107450000D03*
X145000000Y-86000000D03*
X136450000Y-108700000D03*
X146000000Y-86000000D03*
X155500000Y-123645000D03*
X155500000Y-122855000D03*
X148021232Y-117521232D03*
X134500000Y-109000000D03*
X138991415Y-117541415D03*
X162650000Y-112500000D03*
X143000000Y-86000000D03*
X135500000Y-109000000D03*
X135975000Y-123025000D03*
X136450000Y-112500000D03*
X136450000Y-113800000D03*
X138000000Y-125450000D03*
X162650000Y-111200000D03*
X141500000Y-120500000D03*
X162650000Y-106200000D03*
X140500000Y-120500000D03*
X139050000Y-124500000D03*
X139500000Y-119950000D03*
X135000000Y-122495038D03*
X135050000Y-112000000D03*
D13*
G36*
X134787469Y-79882814D02*
G01*
X134462247Y-80214759D01*
X136400000Y-82152513D01*
X138337753Y-80214759D01*
X138012531Y-79882814D01*
X137810912Y-79780000D01*
X159179821Y-79780000D01*
X158987469Y-79882814D01*
X158662247Y-80214759D01*
X160600000Y-82152513D01*
X162537753Y-80214759D01*
X162212531Y-79882814D01*
X162010912Y-79780000D01*
X163220001Y-79780000D01*
X163220001Y-80979823D01*
X163117186Y-80787469D01*
X162785241Y-80462247D01*
X160847487Y-82400000D01*
X162785241Y-84337753D01*
X163117186Y-84012531D01*
X163220001Y-83810910D01*
X163220000Y-106118233D01*
X163202903Y-106032279D01*
X163159558Y-105927635D01*
X163096632Y-105833459D01*
X163016541Y-105753368D01*
X162922365Y-105690442D01*
X162817721Y-105647097D01*
X162706633Y-105625000D01*
X162593367Y-105625000D01*
X162482279Y-105647097D01*
X162377635Y-105690442D01*
X162283459Y-105753368D01*
X162203368Y-105833459D01*
X162140442Y-105927635D01*
X162097097Y-106032279D01*
X162075000Y-106143367D01*
X162075000Y-106256633D01*
X162097097Y-106367721D01*
X162140442Y-106472365D01*
X162203368Y-106566541D01*
X162283459Y-106646632D01*
X162377635Y-106709558D01*
X162482279Y-106752903D01*
X162593367Y-106775000D01*
X162706633Y-106775000D01*
X162817721Y-106752903D01*
X162922365Y-106709558D01*
X163016541Y-106646632D01*
X163096632Y-106566541D01*
X163159558Y-106472365D01*
X163202903Y-106367721D01*
X163220000Y-106281767D01*
X163220000Y-109918232D01*
X163202903Y-109832279D01*
X163159558Y-109727635D01*
X163096632Y-109633459D01*
X163016541Y-109553368D01*
X162922365Y-109490442D01*
X162817721Y-109447097D01*
X162706633Y-109425000D01*
X162593367Y-109425000D01*
X162482279Y-109447097D01*
X162377635Y-109490442D01*
X162283459Y-109553368D01*
X162203368Y-109633459D01*
X162140442Y-109727635D01*
X162097097Y-109832279D01*
X162075000Y-109943367D01*
X162075000Y-110056633D01*
X162097097Y-110167721D01*
X162140442Y-110272365D01*
X162203368Y-110366541D01*
X162283459Y-110446632D01*
X162377635Y-110509558D01*
X162482279Y-110552903D01*
X162593367Y-110575000D01*
X162706633Y-110575000D01*
X162817721Y-110552903D01*
X162922365Y-110509558D01*
X163016541Y-110446632D01*
X163096632Y-110366541D01*
X163159558Y-110272365D01*
X163202903Y-110167721D01*
X163220000Y-110081768D01*
X163220000Y-111118232D01*
X163202903Y-111032279D01*
X163159558Y-110927635D01*
X163096632Y-110833459D01*
X163016541Y-110753368D01*
X162922365Y-110690442D01*
X162817721Y-110647097D01*
X162706633Y-110625000D01*
X162593367Y-110625000D01*
X162482279Y-110647097D01*
X162377635Y-110690442D01*
X162283459Y-110753368D01*
X162203368Y-110833459D01*
X162140442Y-110927635D01*
X162097097Y-111032279D01*
X162075000Y-111143367D01*
X162075000Y-111256633D01*
X162097097Y-111367721D01*
X162140442Y-111472365D01*
X162203368Y-111566541D01*
X162283459Y-111646632D01*
X162377635Y-111709558D01*
X162482279Y-111752903D01*
X162593367Y-111775000D01*
X162706633Y-111775000D01*
X162817721Y-111752903D01*
X162922365Y-111709558D01*
X163016541Y-111646632D01*
X163096632Y-111566541D01*
X163159558Y-111472365D01*
X163202903Y-111367721D01*
X163220000Y-111281768D01*
X163220000Y-112418232D01*
X163202903Y-112332279D01*
X163159558Y-112227635D01*
X163096632Y-112133459D01*
X163016541Y-112053368D01*
X162922365Y-111990442D01*
X162817721Y-111947097D01*
X162706633Y-111925000D01*
X162593367Y-111925000D01*
X162482279Y-111947097D01*
X162377635Y-111990442D01*
X162283459Y-112053368D01*
X162203368Y-112133459D01*
X162140442Y-112227635D01*
X162097097Y-112332279D01*
X162075000Y-112443367D01*
X162075000Y-112556633D01*
X162097097Y-112667721D01*
X162140442Y-112772365D01*
X162203368Y-112866541D01*
X162283459Y-112946632D01*
X162377635Y-113009558D01*
X162482279Y-113052903D01*
X162593367Y-113075000D01*
X162706633Y-113075000D01*
X162817721Y-113052903D01*
X162922365Y-113009558D01*
X163016541Y-112946632D01*
X163096632Y-112866541D01*
X163159558Y-112772365D01*
X163202903Y-112667721D01*
X163220000Y-112581768D01*
X163220000Y-126970000D01*
X162136252Y-126970000D01*
X162124010Y-126971206D01*
X162119036Y-126971171D01*
X162115145Y-126971553D01*
X161959869Y-126987874D01*
X161934998Y-126992980D01*
X161910083Y-126997732D01*
X161906340Y-126998862D01*
X161757191Y-127045031D01*
X161733801Y-127054863D01*
X161710264Y-127064372D01*
X161706818Y-127066205D01*
X161706814Y-127066207D01*
X161706813Y-127066208D01*
X161569471Y-127140469D01*
X161548484Y-127154625D01*
X161527196Y-127168555D01*
X161524167Y-127171026D01*
X161403865Y-127270549D01*
X161385990Y-127288549D01*
X161367850Y-127306313D01*
X161365358Y-127309325D01*
X161266678Y-127430319D01*
X161252633Y-127451460D01*
X161238297Y-127472396D01*
X161236438Y-127475835D01*
X161163138Y-127613692D01*
X161153478Y-127637129D01*
X161143469Y-127660481D01*
X161142313Y-127664215D01*
X161139057Y-127675000D01*
X160829177Y-127675000D01*
X160852903Y-127617721D01*
X160875000Y-127506633D01*
X160875000Y-127393367D01*
X160852903Y-127282279D01*
X160809558Y-127177635D01*
X160757684Y-127100000D01*
X160809558Y-127022365D01*
X160852903Y-126917721D01*
X160875000Y-126806633D01*
X160875000Y-126693367D01*
X160852903Y-126582279D01*
X160809558Y-126477635D01*
X160746632Y-126383459D01*
X160666541Y-126303368D01*
X160572365Y-126240442D01*
X160467721Y-126197097D01*
X160356633Y-126175000D01*
X160243367Y-126175000D01*
X160132279Y-126197097D01*
X160027635Y-126240442D01*
X159933459Y-126303368D01*
X159853368Y-126383459D01*
X159790442Y-126477635D01*
X159747097Y-126582279D01*
X159725000Y-126693367D01*
X159725000Y-126806633D01*
X159747097Y-126917721D01*
X159790442Y-127022365D01*
X159842316Y-127100000D01*
X159790442Y-127177635D01*
X159747097Y-127282279D01*
X159725000Y-127393367D01*
X159725000Y-127506633D01*
X159747097Y-127617721D01*
X159770823Y-127675000D01*
X155629177Y-127675000D01*
X155652903Y-127617721D01*
X155675000Y-127506633D01*
X155675000Y-127393367D01*
X155652903Y-127282279D01*
X155609558Y-127177635D01*
X155557684Y-127100000D01*
X155609558Y-127022365D01*
X155652903Y-126917721D01*
X155675000Y-126806633D01*
X155675000Y-126693367D01*
X155652903Y-126582279D01*
X155609558Y-126477635D01*
X155546632Y-126383459D01*
X155466541Y-126303368D01*
X155372365Y-126240442D01*
X155267721Y-126197097D01*
X155156633Y-126175000D01*
X155043367Y-126175000D01*
X154932279Y-126197097D01*
X154827635Y-126240442D01*
X154733459Y-126303368D01*
X154653368Y-126383459D01*
X154590442Y-126477635D01*
X154547097Y-126582279D01*
X154525000Y-126693367D01*
X154525000Y-126806633D01*
X154547097Y-126917721D01*
X154590442Y-127022365D01*
X154642316Y-127100000D01*
X154590442Y-127177635D01*
X154547097Y-127282279D01*
X154525000Y-127393367D01*
X154525000Y-127506633D01*
X154547097Y-127617721D01*
X154570823Y-127675000D01*
X149629177Y-127675000D01*
X149652903Y-127617721D01*
X149675000Y-127506633D01*
X149675000Y-127393367D01*
X149652903Y-127282279D01*
X149609558Y-127177635D01*
X149557684Y-127100000D01*
X149609558Y-127022365D01*
X149652903Y-126917721D01*
X149675000Y-126806633D01*
X149675000Y-126693367D01*
X149652903Y-126582279D01*
X149609558Y-126477635D01*
X149546632Y-126383459D01*
X149466541Y-126303368D01*
X149372365Y-126240442D01*
X149267721Y-126197097D01*
X149156633Y-126175000D01*
X149043367Y-126175000D01*
X148932279Y-126197097D01*
X148827635Y-126240442D01*
X148733459Y-126303368D01*
X148653368Y-126383459D01*
X148590442Y-126477635D01*
X148547097Y-126582279D01*
X148525000Y-126693367D01*
X148525000Y-126806633D01*
X148547097Y-126917721D01*
X148590442Y-127022365D01*
X148642316Y-127100000D01*
X148590442Y-127177635D01*
X148547097Y-127282279D01*
X148525000Y-127393367D01*
X148525000Y-127506633D01*
X148547097Y-127617721D01*
X148570823Y-127675000D01*
X145680000Y-127675000D01*
X145680000Y-127186252D01*
X145678797Y-127174042D01*
X145678830Y-127169385D01*
X145678448Y-127165495D01*
X145663147Y-127019923D01*
X145658044Y-126995065D01*
X145653289Y-126970136D01*
X145652159Y-126966394D01*
X145608875Y-126826565D01*
X145599039Y-126803166D01*
X145589534Y-126779640D01*
X145587699Y-126776188D01*
X145518080Y-126647431D01*
X145503895Y-126626402D01*
X145489993Y-126605156D01*
X145487522Y-126602127D01*
X145394220Y-126489344D01*
X145376220Y-126471469D01*
X145358456Y-126453329D01*
X145355444Y-126450837D01*
X145242012Y-126358325D01*
X145220916Y-126344309D01*
X145199936Y-126329943D01*
X145196497Y-126328084D01*
X145067256Y-126259365D01*
X145043779Y-126249689D01*
X145020465Y-126239696D01*
X145016730Y-126238540D01*
X144876603Y-126196234D01*
X144851703Y-126191304D01*
X144826888Y-126186029D01*
X144823000Y-126185620D01*
X144677324Y-126171336D01*
X144665101Y-126171336D01*
X144652946Y-126170015D01*
X144649037Y-126170002D01*
X144643801Y-126170020D01*
X144631631Y-126171256D01*
X144619385Y-126171170D01*
X144615495Y-126171552D01*
X144469923Y-126186853D01*
X144445065Y-126191956D01*
X144420136Y-126196711D01*
X144416394Y-126197841D01*
X144276565Y-126241125D01*
X144253166Y-126250961D01*
X144229640Y-126260466D01*
X144226188Y-126262301D01*
X144097431Y-126331920D01*
X144076402Y-126346105D01*
X144055156Y-126360007D01*
X144052127Y-126362478D01*
X143939344Y-126455780D01*
X143921469Y-126473780D01*
X143903329Y-126491544D01*
X143900837Y-126494556D01*
X143808325Y-126607988D01*
X143794309Y-126629084D01*
X143779943Y-126650064D01*
X143778084Y-126653503D01*
X143709365Y-126782744D01*
X143699689Y-126806221D01*
X143689696Y-126829535D01*
X143688540Y-126833270D01*
X143646234Y-126973397D01*
X143641304Y-126998297D01*
X143636029Y-127023112D01*
X143635620Y-127027000D01*
X143621336Y-127172676D01*
X143621336Y-127172697D01*
X143620001Y-127186252D01*
X143620001Y-127675000D01*
X137629177Y-127675000D01*
X137652903Y-127617721D01*
X137675000Y-127506633D01*
X137675000Y-127393367D01*
X137652903Y-127282279D01*
X137609558Y-127177635D01*
X137557684Y-127100000D01*
X137609558Y-127022365D01*
X137652903Y-126917721D01*
X137675000Y-126806633D01*
X137675000Y-126693367D01*
X137652903Y-126582279D01*
X137609558Y-126477635D01*
X137546632Y-126383459D01*
X137466541Y-126303368D01*
X137372365Y-126240442D01*
X137267721Y-126197097D01*
X137156633Y-126175000D01*
X137043367Y-126175000D01*
X136932279Y-126197097D01*
X136827635Y-126240442D01*
X136733459Y-126303368D01*
X136653368Y-126383459D01*
X136590442Y-126477635D01*
X136547097Y-126582279D01*
X136525000Y-126693367D01*
X136525000Y-126806633D01*
X136547097Y-126917721D01*
X136590442Y-127022365D01*
X136642316Y-127100000D01*
X136590442Y-127177635D01*
X136547097Y-127282279D01*
X136525000Y-127393367D01*
X136525000Y-127506633D01*
X136547097Y-127617721D01*
X136570823Y-127675000D01*
X135860482Y-127675000D01*
X135854969Y-127657191D01*
X135845137Y-127633801D01*
X135835628Y-127610264D01*
X135833792Y-127606813D01*
X135759531Y-127469471D01*
X135745375Y-127448484D01*
X135731445Y-127427196D01*
X135728974Y-127424167D01*
X135629451Y-127303865D01*
X135611451Y-127285990D01*
X135593687Y-127267850D01*
X135590675Y-127265358D01*
X135469681Y-127166678D01*
X135448540Y-127152633D01*
X135427604Y-127138297D01*
X135424165Y-127136438D01*
X135286308Y-127063138D01*
X135262871Y-127053478D01*
X135239519Y-127043469D01*
X135235785Y-127042313D01*
X135086315Y-126997186D01*
X135061418Y-126992257D01*
X135036598Y-126986981D01*
X135032710Y-126986572D01*
X134877324Y-126971336D01*
X134877313Y-126971336D01*
X134863748Y-126970000D01*
X133780000Y-126970000D01*
X133780000Y-125393367D01*
X137425000Y-125393367D01*
X137425000Y-125506633D01*
X137447097Y-125617721D01*
X137490442Y-125722365D01*
X137553368Y-125816541D01*
X137633459Y-125896632D01*
X137727635Y-125959558D01*
X137832279Y-126002903D01*
X137943367Y-126025000D01*
X138056633Y-126025000D01*
X138167721Y-126002903D01*
X138272365Y-125959558D01*
X138366541Y-125896632D01*
X138446632Y-125816541D01*
X138509558Y-125722365D01*
X138552903Y-125617721D01*
X138575000Y-125506633D01*
X138575000Y-125393367D01*
X138552903Y-125282279D01*
X138509558Y-125177635D01*
X138446632Y-125083459D01*
X138366541Y-125003368D01*
X138272365Y-124940442D01*
X138167721Y-124897097D01*
X138056633Y-124875000D01*
X137943367Y-124875000D01*
X137832279Y-124897097D01*
X137727635Y-124940442D01*
X137633459Y-125003368D01*
X137553368Y-125083459D01*
X137490442Y-125177635D01*
X137447097Y-125282279D01*
X137425000Y-125393367D01*
X133780000Y-125393367D01*
X133780000Y-124443367D01*
X138475000Y-124443367D01*
X138475000Y-124556633D01*
X138497097Y-124667721D01*
X138540442Y-124772365D01*
X138603368Y-124866541D01*
X138683459Y-124946632D01*
X138777635Y-125009558D01*
X138882279Y-125052903D01*
X138993367Y-125075000D01*
X139106633Y-125075000D01*
X139217721Y-125052903D01*
X139322365Y-125009558D01*
X139416541Y-124946632D01*
X139496632Y-124866541D01*
X139559558Y-124772365D01*
X139602903Y-124667721D01*
X139625000Y-124556633D01*
X139625000Y-124443367D01*
X139602903Y-124332279D01*
X139559558Y-124227635D01*
X139496632Y-124133459D01*
X139416541Y-124053368D01*
X139322365Y-123990442D01*
X139217721Y-123947097D01*
X139106633Y-123925000D01*
X138993367Y-123925000D01*
X138882279Y-123947097D01*
X138777635Y-123990442D01*
X138683459Y-124053368D01*
X138603368Y-124133459D01*
X138540442Y-124227635D01*
X138497097Y-124332279D01*
X138475000Y-124443367D01*
X133780000Y-124443367D01*
X133780000Y-122438405D01*
X134425000Y-122438405D01*
X134425000Y-122551671D01*
X134447097Y-122662759D01*
X134490442Y-122767403D01*
X134553368Y-122861579D01*
X134633459Y-122941670D01*
X134727635Y-123004596D01*
X134832279Y-123047941D01*
X134943367Y-123070038D01*
X135056633Y-123070038D01*
X135167721Y-123047941D01*
X135272365Y-123004596D01*
X135366541Y-122941670D01*
X135414937Y-122893274D01*
X135400000Y-122968367D01*
X135400000Y-123081633D01*
X135422097Y-123192721D01*
X135465442Y-123297365D01*
X135528368Y-123391541D01*
X135608459Y-123471632D01*
X135702635Y-123534558D01*
X135807279Y-123577903D01*
X135918367Y-123600000D01*
X136031633Y-123600000D01*
X136142721Y-123577903D01*
X136247365Y-123534558D01*
X136341541Y-123471632D01*
X136421632Y-123391541D01*
X136484558Y-123297365D01*
X136527903Y-123192721D01*
X136550000Y-123081633D01*
X136550000Y-122968367D01*
X136527903Y-122857279D01*
X136503501Y-122798367D01*
X154925000Y-122798367D01*
X154925000Y-122911633D01*
X154947097Y-123022721D01*
X154990442Y-123127365D01*
X155053368Y-123221541D01*
X155081827Y-123250000D01*
X155053368Y-123278459D01*
X154990442Y-123372635D01*
X154947097Y-123477279D01*
X154925000Y-123588367D01*
X154925000Y-123701633D01*
X154947097Y-123812721D01*
X154990442Y-123917365D01*
X155053368Y-124011541D01*
X155133459Y-124091632D01*
X155227635Y-124154558D01*
X155332279Y-124197903D01*
X155443367Y-124220000D01*
X155556633Y-124220000D01*
X155667721Y-124197903D01*
X155772365Y-124154558D01*
X155866541Y-124091632D01*
X155946632Y-124011541D01*
X156009558Y-123917365D01*
X156052903Y-123812721D01*
X156075000Y-123701633D01*
X156075000Y-123588367D01*
X156052903Y-123477279D01*
X156009558Y-123372635D01*
X155946632Y-123278459D01*
X155918173Y-123250000D01*
X155946632Y-123221541D01*
X156009558Y-123127365D01*
X156052903Y-123022721D01*
X156075000Y-122911633D01*
X156075000Y-122798367D01*
X156052903Y-122687279D01*
X156009558Y-122582635D01*
X155946632Y-122488459D01*
X155866541Y-122408368D01*
X155772365Y-122345442D01*
X155667721Y-122302097D01*
X155556633Y-122280000D01*
X155443367Y-122280000D01*
X155332279Y-122302097D01*
X155227635Y-122345442D01*
X155133459Y-122408368D01*
X155053368Y-122488459D01*
X154990442Y-122582635D01*
X154947097Y-122687279D01*
X154925000Y-122798367D01*
X136503501Y-122798367D01*
X136484558Y-122752635D01*
X136421632Y-122658459D01*
X136341541Y-122578368D01*
X136247365Y-122515442D01*
X136142721Y-122472097D01*
X136031633Y-122450000D01*
X135918367Y-122450000D01*
X135807279Y-122472097D01*
X135702635Y-122515442D01*
X135608459Y-122578368D01*
X135560063Y-122626764D01*
X135575000Y-122551671D01*
X135575000Y-122438405D01*
X135552903Y-122327317D01*
X135509558Y-122222673D01*
X135446632Y-122128497D01*
X135366541Y-122048406D01*
X135272365Y-121985480D01*
X135167721Y-121942135D01*
X135056633Y-121920038D01*
X134943367Y-121920038D01*
X134832279Y-121942135D01*
X134727635Y-121985480D01*
X134633459Y-122048406D01*
X134553368Y-122128497D01*
X134490442Y-122222673D01*
X134447097Y-122327317D01*
X134425000Y-122438405D01*
X133780000Y-122438405D01*
X133780000Y-119893367D01*
X138925000Y-119893367D01*
X138925000Y-120006633D01*
X138947097Y-120117721D01*
X138990442Y-120222365D01*
X139053368Y-120316541D01*
X139133459Y-120396632D01*
X139227635Y-120459558D01*
X139332279Y-120502903D01*
X139443367Y-120525000D01*
X139556633Y-120525000D01*
X139667721Y-120502903D01*
X139772365Y-120459558D01*
X139866541Y-120396632D01*
X139946632Y-120316541D01*
X139965007Y-120289041D01*
X139947097Y-120332279D01*
X139925000Y-120443367D01*
X139925000Y-120556633D01*
X139947097Y-120667721D01*
X139990442Y-120772365D01*
X140053368Y-120866541D01*
X140133459Y-120946632D01*
X140227635Y-121009558D01*
X140332279Y-121052903D01*
X140443367Y-121075000D01*
X140556633Y-121075000D01*
X140667721Y-121052903D01*
X140772365Y-121009558D01*
X140866541Y-120946632D01*
X140946632Y-120866541D01*
X141000000Y-120786670D01*
X141053368Y-120866541D01*
X141133459Y-120946632D01*
X141227635Y-121009558D01*
X141332279Y-121052903D01*
X141443367Y-121075000D01*
X141556633Y-121075000D01*
X141667721Y-121052903D01*
X141772365Y-121009558D01*
X141866541Y-120946632D01*
X141946632Y-120866541D01*
X142009558Y-120772365D01*
X142052903Y-120667721D01*
X142075000Y-120556633D01*
X142075000Y-120493367D01*
X146025000Y-120493367D01*
X146025000Y-120606633D01*
X146047097Y-120717721D01*
X146090442Y-120822365D01*
X146153368Y-120916541D01*
X146233459Y-120996632D01*
X146327635Y-121059558D01*
X146432279Y-121102903D01*
X146543367Y-121125000D01*
X146656633Y-121125000D01*
X146767721Y-121102903D01*
X146872365Y-121059558D01*
X146966541Y-120996632D01*
X147046632Y-120916541D01*
X147109558Y-120822365D01*
X147152903Y-120717721D01*
X147175000Y-120606633D01*
X147175000Y-120493367D01*
X147152903Y-120382279D01*
X147109558Y-120277635D01*
X147046632Y-120183459D01*
X146966541Y-120103368D01*
X146872365Y-120040442D01*
X146767721Y-119997097D01*
X146656633Y-119975000D01*
X146543367Y-119975000D01*
X146432279Y-119997097D01*
X146327635Y-120040442D01*
X146233459Y-120103368D01*
X146153368Y-120183459D01*
X146090442Y-120277635D01*
X146047097Y-120382279D01*
X146025000Y-120493367D01*
X142075000Y-120493367D01*
X142075000Y-120443367D01*
X142052903Y-120332279D01*
X142009558Y-120227635D01*
X141946632Y-120133459D01*
X141866541Y-120053368D01*
X141772365Y-119990442D01*
X141667721Y-119947097D01*
X141556633Y-119925000D01*
X141443367Y-119925000D01*
X141332279Y-119947097D01*
X141227635Y-119990442D01*
X141133459Y-120053368D01*
X141053368Y-120133459D01*
X141000000Y-120213330D01*
X140946632Y-120133459D01*
X140866541Y-120053368D01*
X140772365Y-119990442D01*
X140667721Y-119947097D01*
X140556633Y-119925000D01*
X140443367Y-119925000D01*
X140332279Y-119947097D01*
X140227635Y-119990442D01*
X140133459Y-120053368D01*
X140053368Y-120133459D01*
X140034993Y-120160959D01*
X140052903Y-120117721D01*
X140075000Y-120006633D01*
X140075000Y-119893367D01*
X140052903Y-119782279D01*
X140009558Y-119677635D01*
X139946632Y-119583459D01*
X139866541Y-119503368D01*
X139772365Y-119440442D01*
X139667721Y-119397097D01*
X139556633Y-119375000D01*
X139443367Y-119375000D01*
X139332279Y-119397097D01*
X139227635Y-119440442D01*
X139133459Y-119503368D01*
X139053368Y-119583459D01*
X138990442Y-119677635D01*
X138947097Y-119782279D01*
X138925000Y-119893367D01*
X133780000Y-119893367D01*
X133780000Y-118943367D01*
X159225000Y-118943367D01*
X159225000Y-119056633D01*
X159247097Y-119167721D01*
X159290442Y-119272365D01*
X159353368Y-119366541D01*
X159433459Y-119446632D01*
X159527635Y-119509558D01*
X159632279Y-119552903D01*
X159743367Y-119575000D01*
X159750112Y-119575000D01*
X159790442Y-119672365D01*
X159853368Y-119766541D01*
X159933459Y-119846632D01*
X160027635Y-119909558D01*
X160132279Y-119952903D01*
X160243367Y-119975000D01*
X160356633Y-119975000D01*
X160467721Y-119952903D01*
X160572365Y-119909558D01*
X160666541Y-119846632D01*
X160746632Y-119766541D01*
X160809558Y-119672365D01*
X160852903Y-119567721D01*
X160875000Y-119456633D01*
X160875000Y-119343367D01*
X160852903Y-119232279D01*
X160809558Y-119127635D01*
X160746632Y-119033459D01*
X160713173Y-119000000D01*
X160746632Y-118966541D01*
X160809558Y-118872365D01*
X160852903Y-118767721D01*
X160875000Y-118656633D01*
X160875000Y-118543367D01*
X160852903Y-118432279D01*
X160809558Y-118327635D01*
X160746632Y-118233459D01*
X160666541Y-118153368D01*
X160572365Y-118090442D01*
X160467721Y-118047097D01*
X160356633Y-118025000D01*
X160243367Y-118025000D01*
X160132279Y-118047097D01*
X160027635Y-118090442D01*
X159933459Y-118153368D01*
X159853368Y-118233459D01*
X159790442Y-118327635D01*
X159750112Y-118425000D01*
X159743367Y-118425000D01*
X159632279Y-118447097D01*
X159527635Y-118490442D01*
X159433459Y-118553368D01*
X159353368Y-118633459D01*
X159290442Y-118727635D01*
X159247097Y-118832279D01*
X159225000Y-118943367D01*
X133780000Y-118943367D01*
X133780000Y-117484782D01*
X138416415Y-117484782D01*
X138416415Y-117598048D01*
X138438512Y-117709136D01*
X138481857Y-117813780D01*
X138544783Y-117907956D01*
X138624874Y-117988047D01*
X138719050Y-118050973D01*
X138823694Y-118094318D01*
X138934782Y-118116415D01*
X139048048Y-118116415D01*
X139159136Y-118094318D01*
X139263780Y-118050973D01*
X139357956Y-117988047D01*
X139438047Y-117907956D01*
X139500973Y-117813780D01*
X139544318Y-117709136D01*
X139566415Y-117598048D01*
X139566415Y-117484782D01*
X139562401Y-117464599D01*
X147446232Y-117464599D01*
X147446232Y-117577865D01*
X147468329Y-117688953D01*
X147511674Y-117793597D01*
X147574600Y-117887773D01*
X147654691Y-117967864D01*
X147748867Y-118030790D01*
X147853511Y-118074135D01*
X147964599Y-118096232D01*
X148077865Y-118096232D01*
X148188953Y-118074135D01*
X148293597Y-118030790D01*
X148387773Y-117967864D01*
X148412270Y-117943367D01*
X150925000Y-117943367D01*
X150925000Y-118056633D01*
X150947097Y-118167721D01*
X150990442Y-118272365D01*
X151053368Y-118366541D01*
X151133459Y-118446632D01*
X151227635Y-118509558D01*
X151332279Y-118552903D01*
X151443367Y-118575000D01*
X151556633Y-118575000D01*
X151667721Y-118552903D01*
X151772365Y-118509558D01*
X151866541Y-118446632D01*
X151946632Y-118366541D01*
X152000000Y-118286670D01*
X152053368Y-118366541D01*
X152133459Y-118446632D01*
X152227635Y-118509558D01*
X152332279Y-118552903D01*
X152443367Y-118575000D01*
X152556633Y-118575000D01*
X152667721Y-118552903D01*
X152772365Y-118509558D01*
X152866541Y-118446632D01*
X152946632Y-118366541D01*
X153000000Y-118286670D01*
X153053368Y-118366541D01*
X153133459Y-118446632D01*
X153227635Y-118509558D01*
X153332279Y-118552903D01*
X153443367Y-118575000D01*
X153556633Y-118575000D01*
X153667721Y-118552903D01*
X153772365Y-118509558D01*
X153866541Y-118446632D01*
X153946632Y-118366541D01*
X154000000Y-118286670D01*
X154053368Y-118366541D01*
X154133459Y-118446632D01*
X154227635Y-118509558D01*
X154332279Y-118552903D01*
X154443367Y-118575000D01*
X154556633Y-118575000D01*
X154667721Y-118552903D01*
X154772365Y-118509558D01*
X154866541Y-118446632D01*
X154946632Y-118366541D01*
X155000000Y-118286670D01*
X155053368Y-118366541D01*
X155133459Y-118446632D01*
X155227635Y-118509558D01*
X155332279Y-118552903D01*
X155443367Y-118575000D01*
X155556633Y-118575000D01*
X155667721Y-118552903D01*
X155772365Y-118509558D01*
X155866541Y-118446632D01*
X155946632Y-118366541D01*
X156009558Y-118272365D01*
X156052903Y-118167721D01*
X156075000Y-118056633D01*
X156075000Y-117943367D01*
X156052903Y-117832279D01*
X156009558Y-117727635D01*
X155946632Y-117633459D01*
X155866541Y-117553368D01*
X155772365Y-117490442D01*
X155667721Y-117447097D01*
X155556633Y-117425000D01*
X155443367Y-117425000D01*
X155332279Y-117447097D01*
X155227635Y-117490442D01*
X155133459Y-117553368D01*
X155053368Y-117633459D01*
X155000000Y-117713330D01*
X154946632Y-117633459D01*
X154866541Y-117553368D01*
X154772365Y-117490442D01*
X154667721Y-117447097D01*
X154556633Y-117425000D01*
X154443367Y-117425000D01*
X154332279Y-117447097D01*
X154227635Y-117490442D01*
X154133459Y-117553368D01*
X154053368Y-117633459D01*
X154000000Y-117713330D01*
X153946632Y-117633459D01*
X153866541Y-117553368D01*
X153772365Y-117490442D01*
X153667721Y-117447097D01*
X153556633Y-117425000D01*
X153443367Y-117425000D01*
X153332279Y-117447097D01*
X153227635Y-117490442D01*
X153133459Y-117553368D01*
X153053368Y-117633459D01*
X153000000Y-117713330D01*
X152946632Y-117633459D01*
X152866541Y-117553368D01*
X152772365Y-117490442D01*
X152667721Y-117447097D01*
X152556633Y-117425000D01*
X152443367Y-117425000D01*
X152332279Y-117447097D01*
X152227635Y-117490442D01*
X152133459Y-117553368D01*
X152053368Y-117633459D01*
X152000000Y-117713330D01*
X151946632Y-117633459D01*
X151866541Y-117553368D01*
X151772365Y-117490442D01*
X151667721Y-117447097D01*
X151556633Y-117425000D01*
X151443367Y-117425000D01*
X151332279Y-117447097D01*
X151227635Y-117490442D01*
X151133459Y-117553368D01*
X151053368Y-117633459D01*
X150990442Y-117727635D01*
X150947097Y-117832279D01*
X150925000Y-117943367D01*
X148412270Y-117943367D01*
X148467864Y-117887773D01*
X148530790Y-117793597D01*
X148574135Y-117688953D01*
X148596232Y-117577865D01*
X148596232Y-117464599D01*
X148574135Y-117353511D01*
X148530790Y-117248867D01*
X148467864Y-117154691D01*
X148387773Y-117074600D01*
X148293597Y-117011674D01*
X148188953Y-116968329D01*
X148077865Y-116946232D01*
X147964599Y-116946232D01*
X147853511Y-116968329D01*
X147748867Y-117011674D01*
X147654691Y-117074600D01*
X147574600Y-117154691D01*
X147511674Y-117248867D01*
X147468329Y-117353511D01*
X147446232Y-117464599D01*
X139562401Y-117464599D01*
X139544318Y-117373694D01*
X139500973Y-117269050D01*
X139438047Y-117174874D01*
X139357956Y-117094783D01*
X139263780Y-117031857D01*
X139159136Y-116988512D01*
X139048048Y-116966415D01*
X138934782Y-116966415D01*
X138823694Y-116988512D01*
X138719050Y-117031857D01*
X138624874Y-117094783D01*
X138544783Y-117174874D01*
X138481857Y-117269050D01*
X138438512Y-117373694D01*
X138416415Y-117484782D01*
X133780000Y-117484782D01*
X133780000Y-113743367D01*
X135875000Y-113743367D01*
X135875000Y-113856633D01*
X135897097Y-113967721D01*
X135940442Y-114072365D01*
X136003368Y-114166541D01*
X136083459Y-114246632D01*
X136177635Y-114309558D01*
X136282279Y-114352903D01*
X136393367Y-114375000D01*
X136506633Y-114375000D01*
X136617721Y-114352903D01*
X136722365Y-114309558D01*
X136816541Y-114246632D01*
X136896632Y-114166541D01*
X136959558Y-114072365D01*
X137002903Y-113967721D01*
X137025000Y-113856633D01*
X137025000Y-113743367D01*
X137002903Y-113632279D01*
X136959558Y-113527635D01*
X136896632Y-113433459D01*
X136816541Y-113353368D01*
X136722365Y-113290442D01*
X136617721Y-113247097D01*
X136506633Y-113225000D01*
X136393367Y-113225000D01*
X136282279Y-113247097D01*
X136177635Y-113290442D01*
X136083459Y-113353368D01*
X136003368Y-113433459D01*
X135940442Y-113527635D01*
X135897097Y-113632279D01*
X135875000Y-113743367D01*
X133780000Y-113743367D01*
X133780000Y-111943367D01*
X134475000Y-111943367D01*
X134475000Y-112056633D01*
X134497097Y-112167721D01*
X134540442Y-112272365D01*
X134603368Y-112366541D01*
X134683459Y-112446632D01*
X134777635Y-112509558D01*
X134882279Y-112552903D01*
X134993367Y-112575000D01*
X135106633Y-112575000D01*
X135217721Y-112552903D01*
X135322365Y-112509558D01*
X135416541Y-112446632D01*
X135419806Y-112443367D01*
X135875000Y-112443367D01*
X135875000Y-112556633D01*
X135897097Y-112667721D01*
X135940442Y-112772365D01*
X136003368Y-112866541D01*
X136083459Y-112946632D01*
X136177635Y-113009558D01*
X136282279Y-113052903D01*
X136393367Y-113075000D01*
X136506633Y-113075000D01*
X136617721Y-113052903D01*
X136722365Y-113009558D01*
X136816541Y-112946632D01*
X136896632Y-112866541D01*
X136959558Y-112772365D01*
X137002903Y-112667721D01*
X137025000Y-112556633D01*
X137025000Y-112443367D01*
X137002903Y-112332279D01*
X136959558Y-112227635D01*
X136896632Y-112133459D01*
X136816541Y-112053368D01*
X136722365Y-111990442D01*
X136617721Y-111947097D01*
X136506633Y-111925000D01*
X136393367Y-111925000D01*
X136282279Y-111947097D01*
X136177635Y-111990442D01*
X136083459Y-112053368D01*
X136003368Y-112133459D01*
X135940442Y-112227635D01*
X135897097Y-112332279D01*
X135875000Y-112443367D01*
X135419806Y-112443367D01*
X135496632Y-112366541D01*
X135559558Y-112272365D01*
X135602903Y-112167721D01*
X135625000Y-112056633D01*
X135625000Y-111943367D01*
X135602903Y-111832279D01*
X135559558Y-111727635D01*
X135496632Y-111633459D01*
X135416541Y-111553368D01*
X135322365Y-111490442D01*
X135217721Y-111447097D01*
X135106633Y-111425000D01*
X134993367Y-111425000D01*
X134882279Y-111447097D01*
X134777635Y-111490442D01*
X134683459Y-111553368D01*
X134603368Y-111633459D01*
X134540442Y-111727635D01*
X134497097Y-111832279D01*
X134475000Y-111943367D01*
X133780000Y-111943367D01*
X133780000Y-108943367D01*
X133925000Y-108943367D01*
X133925000Y-109056633D01*
X133947097Y-109167721D01*
X133990442Y-109272365D01*
X134053368Y-109366541D01*
X134133459Y-109446632D01*
X134227635Y-109509558D01*
X134332279Y-109552903D01*
X134443367Y-109575000D01*
X134556633Y-109575000D01*
X134667721Y-109552903D01*
X134772365Y-109509558D01*
X134866541Y-109446632D01*
X134946632Y-109366541D01*
X135000000Y-109286670D01*
X135053368Y-109366541D01*
X135133459Y-109446632D01*
X135227635Y-109509558D01*
X135332279Y-109552903D01*
X135443367Y-109575000D01*
X135556633Y-109575000D01*
X135667721Y-109552903D01*
X135772365Y-109509558D01*
X135866541Y-109446632D01*
X135946632Y-109366541D01*
X136009558Y-109272365D01*
X136052903Y-109167721D01*
X136061472Y-109124645D01*
X136083459Y-109146632D01*
X136177635Y-109209558D01*
X136282279Y-109252903D01*
X136393367Y-109275000D01*
X136506633Y-109275000D01*
X136617721Y-109252903D01*
X136722365Y-109209558D01*
X136816541Y-109146632D01*
X136896632Y-109066541D01*
X136959558Y-108972365D01*
X137002903Y-108867721D01*
X137025000Y-108756633D01*
X137025000Y-108643367D01*
X137002903Y-108532279D01*
X136959558Y-108427635D01*
X136896632Y-108333459D01*
X136816541Y-108253368D01*
X136722365Y-108190442D01*
X136617721Y-108147097D01*
X136506633Y-108125000D01*
X136393367Y-108125000D01*
X136282279Y-108147097D01*
X136177635Y-108190442D01*
X136083459Y-108253368D01*
X136003368Y-108333459D01*
X135940442Y-108427635D01*
X135897097Y-108532279D01*
X135888528Y-108575355D01*
X135866541Y-108553368D01*
X135772365Y-108490442D01*
X135667721Y-108447097D01*
X135556633Y-108425000D01*
X135443367Y-108425000D01*
X135332279Y-108447097D01*
X135227635Y-108490442D01*
X135133459Y-108553368D01*
X135053368Y-108633459D01*
X135000000Y-108713330D01*
X134946632Y-108633459D01*
X134866541Y-108553368D01*
X134772365Y-108490442D01*
X134667721Y-108447097D01*
X134556633Y-108425000D01*
X134443367Y-108425000D01*
X134332279Y-108447097D01*
X134227635Y-108490442D01*
X134133459Y-108553368D01*
X134053368Y-108633459D01*
X133990442Y-108727635D01*
X133947097Y-108832279D01*
X133925000Y-108943367D01*
X133780000Y-108943367D01*
X133780000Y-107393367D01*
X135875000Y-107393367D01*
X135875000Y-107506633D01*
X135897097Y-107617721D01*
X135940442Y-107722365D01*
X136003368Y-107816541D01*
X136083459Y-107896632D01*
X136177635Y-107959558D01*
X136282279Y-108002903D01*
X136393367Y-108025000D01*
X136506633Y-108025000D01*
X136617721Y-108002903D01*
X136722365Y-107959558D01*
X136816541Y-107896632D01*
X136896632Y-107816541D01*
X136959558Y-107722365D01*
X137002903Y-107617721D01*
X137025000Y-107506633D01*
X137025000Y-107393367D01*
X137002903Y-107282279D01*
X136959558Y-107177635D01*
X136896632Y-107083459D01*
X136816541Y-107003368D01*
X136722365Y-106940442D01*
X136617721Y-106897097D01*
X136506633Y-106875000D01*
X136393367Y-106875000D01*
X136282279Y-106897097D01*
X136177635Y-106940442D01*
X136083459Y-107003368D01*
X136003368Y-107083459D01*
X135940442Y-107177635D01*
X135897097Y-107282279D01*
X135875000Y-107393367D01*
X133780000Y-107393367D01*
X133780000Y-106093367D01*
X135875000Y-106093367D01*
X135875000Y-106206633D01*
X135897097Y-106317721D01*
X135940442Y-106422365D01*
X136003368Y-106516541D01*
X136083459Y-106596632D01*
X136177635Y-106659558D01*
X136282279Y-106702903D01*
X136393367Y-106725000D01*
X136506633Y-106725000D01*
X136617721Y-106702903D01*
X136722365Y-106659558D01*
X136816541Y-106596632D01*
X136896632Y-106516541D01*
X136959558Y-106422365D01*
X137002903Y-106317721D01*
X137025000Y-106206633D01*
X137025000Y-106093367D01*
X137002903Y-105982279D01*
X136959558Y-105877635D01*
X136896632Y-105783459D01*
X136816541Y-105703368D01*
X136722365Y-105640442D01*
X136617721Y-105597097D01*
X136506633Y-105575000D01*
X136393367Y-105575000D01*
X136282279Y-105597097D01*
X136177635Y-105640442D01*
X136083459Y-105703368D01*
X136003368Y-105783459D01*
X135940442Y-105877635D01*
X135897097Y-105982279D01*
X135875000Y-106093367D01*
X133780000Y-106093367D01*
X133780000Y-85943367D01*
X142425000Y-85943367D01*
X142425000Y-86056633D01*
X142447097Y-86167721D01*
X142490442Y-86272365D01*
X142553368Y-86366541D01*
X142633459Y-86446632D01*
X142727635Y-86509558D01*
X142832279Y-86552903D01*
X142943367Y-86575000D01*
X143056633Y-86575000D01*
X143167721Y-86552903D01*
X143272365Y-86509558D01*
X143366541Y-86446632D01*
X143446632Y-86366541D01*
X143500000Y-86286670D01*
X143553368Y-86366541D01*
X143633459Y-86446632D01*
X143727635Y-86509558D01*
X143832279Y-86552903D01*
X143943367Y-86575000D01*
X144056633Y-86575000D01*
X144167721Y-86552903D01*
X144272365Y-86509558D01*
X144366541Y-86446632D01*
X144446632Y-86366541D01*
X144500000Y-86286670D01*
X144553368Y-86366541D01*
X144633459Y-86446632D01*
X144727635Y-86509558D01*
X144832279Y-86552903D01*
X144943367Y-86575000D01*
X145056633Y-86575000D01*
X145167721Y-86552903D01*
X145272365Y-86509558D01*
X145366541Y-86446632D01*
X145446632Y-86366541D01*
X145500000Y-86286670D01*
X145553368Y-86366541D01*
X145633459Y-86446632D01*
X145727635Y-86509558D01*
X145832279Y-86552903D01*
X145943367Y-86575000D01*
X146056633Y-86575000D01*
X146167721Y-86552903D01*
X146272365Y-86509558D01*
X146366541Y-86446632D01*
X146446632Y-86366541D01*
X146509558Y-86272365D01*
X146552903Y-86167721D01*
X146575000Y-86056633D01*
X146575000Y-85943367D01*
X146552903Y-85832279D01*
X146509558Y-85727635D01*
X146446632Y-85633459D01*
X146366541Y-85553368D01*
X146272365Y-85490442D01*
X146167721Y-85447097D01*
X146056633Y-85425000D01*
X145943367Y-85425000D01*
X145832279Y-85447097D01*
X145727635Y-85490442D01*
X145633459Y-85553368D01*
X145553368Y-85633459D01*
X145500000Y-85713330D01*
X145446632Y-85633459D01*
X145366541Y-85553368D01*
X145272365Y-85490442D01*
X145167721Y-85447097D01*
X145056633Y-85425000D01*
X144943367Y-85425000D01*
X144832279Y-85447097D01*
X144727635Y-85490442D01*
X144633459Y-85553368D01*
X144553368Y-85633459D01*
X144500000Y-85713330D01*
X144446632Y-85633459D01*
X144366541Y-85553368D01*
X144272365Y-85490442D01*
X144167721Y-85447097D01*
X144056633Y-85425000D01*
X143943367Y-85425000D01*
X143832279Y-85447097D01*
X143727635Y-85490442D01*
X143633459Y-85553368D01*
X143553368Y-85633459D01*
X143500000Y-85713330D01*
X143446632Y-85633459D01*
X143366541Y-85553368D01*
X143272365Y-85490442D01*
X143167721Y-85447097D01*
X143056633Y-85425000D01*
X142943367Y-85425000D01*
X142832279Y-85447097D01*
X142727635Y-85490442D01*
X142633459Y-85553368D01*
X142553368Y-85633459D01*
X142490442Y-85727635D01*
X142447097Y-85832279D01*
X142425000Y-85943367D01*
X133780000Y-85943367D01*
X133780000Y-84585241D01*
X134462247Y-84585241D01*
X134787469Y-84917186D01*
X135309532Y-85183408D01*
X135873501Y-85342666D01*
X136457703Y-85388838D01*
X137039688Y-85320151D01*
X137597089Y-85139244D01*
X138012531Y-84917186D01*
X138337753Y-84585241D01*
X158662247Y-84585241D01*
X158987469Y-84917186D01*
X159509532Y-85183408D01*
X160073501Y-85342666D01*
X160657703Y-85388838D01*
X161239688Y-85320151D01*
X161797089Y-85139244D01*
X162212531Y-84917186D01*
X162537753Y-84585241D01*
X160600000Y-82647487D01*
X158662247Y-84585241D01*
X138337753Y-84585241D01*
X136400000Y-82647487D01*
X134462247Y-84585241D01*
X133780000Y-84585241D01*
X133780000Y-83820179D01*
X133882814Y-84012531D01*
X134214759Y-84337753D01*
X136152513Y-82400000D01*
X136647487Y-82400000D01*
X138585241Y-84337753D01*
X138917186Y-84012531D01*
X139183408Y-83490468D01*
X139342666Y-82926499D01*
X139379716Y-82457703D01*
X157611162Y-82457703D01*
X157679849Y-83039688D01*
X157860756Y-83597089D01*
X158082814Y-84012531D01*
X158414759Y-84337753D01*
X160352513Y-82400000D01*
X158414759Y-80462247D01*
X158082814Y-80787469D01*
X157816592Y-81309532D01*
X157657334Y-81873501D01*
X157611162Y-82457703D01*
X139379716Y-82457703D01*
X139388838Y-82342297D01*
X139320151Y-81760312D01*
X139139244Y-81202911D01*
X138917186Y-80787469D01*
X138585241Y-80462247D01*
X136647487Y-82400000D01*
X136152513Y-82400000D01*
X134214759Y-80462247D01*
X133882814Y-80787469D01*
X133780000Y-80989088D01*
X133780000Y-79780000D01*
X134979821Y-79780000D01*
X134787469Y-79882814D01*
G37*
X134787469Y-79882814D02*
X134462247Y-80214759D01*
X136400000Y-82152513D01*
X138337753Y-80214759D01*
X138012531Y-79882814D01*
X137810912Y-79780000D01*
X159179821Y-79780000D01*
X158987469Y-79882814D01*
X158662247Y-80214759D01*
X160600000Y-82152513D01*
X162537753Y-80214759D01*
X162212531Y-79882814D01*
X162010912Y-79780000D01*
X163220001Y-79780000D01*
X163220001Y-80979823D01*
X163117186Y-80787469D01*
X162785241Y-80462247D01*
X160847487Y-82400000D01*
X162785241Y-84337753D01*
X163117186Y-84012531D01*
X163220001Y-83810910D01*
X163220000Y-106118233D01*
X163202903Y-106032279D01*
X163159558Y-105927635D01*
X163096632Y-105833459D01*
X163016541Y-105753368D01*
X162922365Y-105690442D01*
X162817721Y-105647097D01*
X162706633Y-105625000D01*
X162593367Y-105625000D01*
X162482279Y-105647097D01*
X162377635Y-105690442D01*
X162283459Y-105753368D01*
X162203368Y-105833459D01*
X162140442Y-105927635D01*
X162097097Y-106032279D01*
X162075000Y-106143367D01*
X162075000Y-106256633D01*
X162097097Y-106367721D01*
X162140442Y-106472365D01*
X162203368Y-106566541D01*
X162283459Y-106646632D01*
X162377635Y-106709558D01*
X162482279Y-106752903D01*
X162593367Y-106775000D01*
X162706633Y-106775000D01*
X162817721Y-106752903D01*
X162922365Y-106709558D01*
X163016541Y-106646632D01*
X163096632Y-106566541D01*
X163159558Y-106472365D01*
X163202903Y-106367721D01*
X163220000Y-106281767D01*
X163220000Y-109918232D01*
X163202903Y-109832279D01*
X163159558Y-109727635D01*
X163096632Y-109633459D01*
X163016541Y-109553368D01*
X162922365Y-109490442D01*
X162817721Y-109447097D01*
X162706633Y-109425000D01*
X162593367Y-109425000D01*
X162482279Y-109447097D01*
X162377635Y-109490442D01*
X162283459Y-109553368D01*
X162203368Y-109633459D01*
X162140442Y-109727635D01*
X162097097Y-109832279D01*
X162075000Y-109943367D01*
X162075000Y-110056633D01*
X162097097Y-110167721D01*
X162140442Y-110272365D01*
X162203368Y-110366541D01*
X162283459Y-110446632D01*
X162377635Y-110509558D01*
X162482279Y-110552903D01*
X162593367Y-110575000D01*
X162706633Y-110575000D01*
X162817721Y-110552903D01*
X162922365Y-110509558D01*
X163016541Y-110446632D01*
X163096632Y-110366541D01*
X163159558Y-110272365D01*
X163202903Y-110167721D01*
X163220000Y-110081768D01*
X163220000Y-111118232D01*
X163202903Y-111032279D01*
X163159558Y-110927635D01*
X163096632Y-110833459D01*
X163016541Y-110753368D01*
X162922365Y-110690442D01*
X162817721Y-110647097D01*
X162706633Y-110625000D01*
X162593367Y-110625000D01*
X162482279Y-110647097D01*
X162377635Y-110690442D01*
X162283459Y-110753368D01*
X162203368Y-110833459D01*
X162140442Y-110927635D01*
X162097097Y-111032279D01*
X162075000Y-111143367D01*
X162075000Y-111256633D01*
X162097097Y-111367721D01*
X162140442Y-111472365D01*
X162203368Y-111566541D01*
X162283459Y-111646632D01*
X162377635Y-111709558D01*
X162482279Y-111752903D01*
X162593367Y-111775000D01*
X162706633Y-111775000D01*
X162817721Y-111752903D01*
X162922365Y-111709558D01*
X163016541Y-111646632D01*
X163096632Y-111566541D01*
X163159558Y-111472365D01*
X163202903Y-111367721D01*
X163220000Y-111281768D01*
X163220000Y-112418232D01*
X163202903Y-112332279D01*
X163159558Y-112227635D01*
X163096632Y-112133459D01*
X163016541Y-112053368D01*
X162922365Y-111990442D01*
X162817721Y-111947097D01*
X162706633Y-111925000D01*
X162593367Y-111925000D01*
X162482279Y-111947097D01*
X162377635Y-111990442D01*
X162283459Y-112053368D01*
X162203368Y-112133459D01*
X162140442Y-112227635D01*
X162097097Y-112332279D01*
X162075000Y-112443367D01*
X162075000Y-112556633D01*
X162097097Y-112667721D01*
X162140442Y-112772365D01*
X162203368Y-112866541D01*
X162283459Y-112946632D01*
X162377635Y-113009558D01*
X162482279Y-113052903D01*
X162593367Y-113075000D01*
X162706633Y-113075000D01*
X162817721Y-113052903D01*
X162922365Y-113009558D01*
X163016541Y-112946632D01*
X163096632Y-112866541D01*
X163159558Y-112772365D01*
X163202903Y-112667721D01*
X163220000Y-112581768D01*
X163220000Y-126970000D01*
X162136252Y-126970000D01*
X162124010Y-126971206D01*
X162119036Y-126971171D01*
X162115145Y-126971553D01*
X161959869Y-126987874D01*
X161934998Y-126992980D01*
X161910083Y-126997732D01*
X161906340Y-126998862D01*
X161757191Y-127045031D01*
X161733801Y-127054863D01*
X161710264Y-127064372D01*
X161706818Y-127066205D01*
X161706814Y-127066207D01*
X161706813Y-127066208D01*
X161569471Y-127140469D01*
X161548484Y-127154625D01*
X161527196Y-127168555D01*
X161524167Y-127171026D01*
X161403865Y-127270549D01*
X161385990Y-127288549D01*
X161367850Y-127306313D01*
X161365358Y-127309325D01*
X161266678Y-127430319D01*
X161252633Y-127451460D01*
X161238297Y-127472396D01*
X161236438Y-127475835D01*
X161163138Y-127613692D01*
X161153478Y-127637129D01*
X161143469Y-127660481D01*
X161142313Y-127664215D01*
X161139057Y-127675000D01*
X160829177Y-127675000D01*
X160852903Y-127617721D01*
X160875000Y-127506633D01*
X160875000Y-127393367D01*
X160852903Y-127282279D01*
X160809558Y-127177635D01*
X160757684Y-127100000D01*
X160809558Y-127022365D01*
X160852903Y-126917721D01*
X160875000Y-126806633D01*
X160875000Y-126693367D01*
X160852903Y-126582279D01*
X160809558Y-126477635D01*
X160746632Y-126383459D01*
X160666541Y-126303368D01*
X160572365Y-126240442D01*
X160467721Y-126197097D01*
X160356633Y-126175000D01*
X160243367Y-126175000D01*
X160132279Y-126197097D01*
X160027635Y-126240442D01*
X159933459Y-126303368D01*
X159853368Y-126383459D01*
X159790442Y-126477635D01*
X159747097Y-126582279D01*
X159725000Y-126693367D01*
X159725000Y-126806633D01*
X159747097Y-126917721D01*
X159790442Y-127022365D01*
X159842316Y-127100000D01*
X159790442Y-127177635D01*
X159747097Y-127282279D01*
X159725000Y-127393367D01*
X159725000Y-127506633D01*
X159747097Y-127617721D01*
X159770823Y-127675000D01*
X155629177Y-127675000D01*
X155652903Y-127617721D01*
X155675000Y-127506633D01*
X155675000Y-127393367D01*
X155652903Y-127282279D01*
X155609558Y-127177635D01*
X155557684Y-127100000D01*
X155609558Y-127022365D01*
X155652903Y-126917721D01*
X155675000Y-126806633D01*
X155675000Y-126693367D01*
X155652903Y-126582279D01*
X155609558Y-126477635D01*
X155546632Y-126383459D01*
X155466541Y-126303368D01*
X155372365Y-126240442D01*
X155267721Y-126197097D01*
X155156633Y-126175000D01*
X155043367Y-126175000D01*
X154932279Y-126197097D01*
X154827635Y-126240442D01*
X154733459Y-126303368D01*
X154653368Y-126383459D01*
X154590442Y-126477635D01*
X154547097Y-126582279D01*
X154525000Y-126693367D01*
X154525000Y-126806633D01*
X154547097Y-126917721D01*
X154590442Y-127022365D01*
X154642316Y-127100000D01*
X154590442Y-127177635D01*
X154547097Y-127282279D01*
X154525000Y-127393367D01*
X154525000Y-127506633D01*
X154547097Y-127617721D01*
X154570823Y-127675000D01*
X149629177Y-127675000D01*
X149652903Y-127617721D01*
X149675000Y-127506633D01*
X149675000Y-127393367D01*
X149652903Y-127282279D01*
X149609558Y-127177635D01*
X149557684Y-127100000D01*
X149609558Y-127022365D01*
X149652903Y-126917721D01*
X149675000Y-126806633D01*
X149675000Y-126693367D01*
X149652903Y-126582279D01*
X149609558Y-126477635D01*
X149546632Y-126383459D01*
X149466541Y-126303368D01*
X149372365Y-126240442D01*
X149267721Y-126197097D01*
X149156633Y-126175000D01*
X149043367Y-126175000D01*
X148932279Y-126197097D01*
X148827635Y-126240442D01*
X148733459Y-126303368D01*
X148653368Y-126383459D01*
X148590442Y-126477635D01*
X148547097Y-126582279D01*
X148525000Y-126693367D01*
X148525000Y-126806633D01*
X148547097Y-126917721D01*
X148590442Y-127022365D01*
X148642316Y-127100000D01*
X148590442Y-127177635D01*
X148547097Y-127282279D01*
X148525000Y-127393367D01*
X148525000Y-127506633D01*
X148547097Y-127617721D01*
X148570823Y-127675000D01*
X145680000Y-127675000D01*
X145680000Y-127186252D01*
X145678797Y-127174042D01*
X145678830Y-127169385D01*
X145678448Y-127165495D01*
X145663147Y-127019923D01*
X145658044Y-126995065D01*
X145653289Y-126970136D01*
X145652159Y-126966394D01*
X145608875Y-126826565D01*
X145599039Y-126803166D01*
X145589534Y-126779640D01*
X145587699Y-126776188D01*
X145518080Y-126647431D01*
X145503895Y-126626402D01*
X145489993Y-126605156D01*
X145487522Y-126602127D01*
X145394220Y-126489344D01*
X145376220Y-126471469D01*
X145358456Y-126453329D01*
X145355444Y-126450837D01*
X145242012Y-126358325D01*
X145220916Y-126344309D01*
X145199936Y-126329943D01*
X145196497Y-126328084D01*
X145067256Y-126259365D01*
X145043779Y-126249689D01*
X145020465Y-126239696D01*
X145016730Y-126238540D01*
X144876603Y-126196234D01*
X144851703Y-126191304D01*
X144826888Y-126186029D01*
X144823000Y-126185620D01*
X144677324Y-126171336D01*
X144665101Y-126171336D01*
X144652946Y-126170015D01*
X144649037Y-126170002D01*
X144643801Y-126170020D01*
X144631631Y-126171256D01*
X144619385Y-126171170D01*
X144615495Y-126171552D01*
X144469923Y-126186853D01*
X144445065Y-126191956D01*
X144420136Y-126196711D01*
X144416394Y-126197841D01*
X144276565Y-126241125D01*
X144253166Y-126250961D01*
X144229640Y-126260466D01*
X144226188Y-126262301D01*
X144097431Y-126331920D01*
X144076402Y-126346105D01*
X144055156Y-126360007D01*
X144052127Y-126362478D01*
X143939344Y-126455780D01*
X143921469Y-126473780D01*
X143903329Y-126491544D01*
X143900837Y-126494556D01*
X143808325Y-126607988D01*
X143794309Y-126629084D01*
X143779943Y-126650064D01*
X143778084Y-126653503D01*
X143709365Y-126782744D01*
X143699689Y-126806221D01*
X143689696Y-126829535D01*
X143688540Y-126833270D01*
X143646234Y-126973397D01*
X143641304Y-126998297D01*
X143636029Y-127023112D01*
X143635620Y-127027000D01*
X143621336Y-127172676D01*
X143621336Y-127172697D01*
X143620001Y-127186252D01*
X143620001Y-127675000D01*
X137629177Y-127675000D01*
X137652903Y-127617721D01*
X137675000Y-127506633D01*
X137675000Y-127393367D01*
X137652903Y-127282279D01*
X137609558Y-127177635D01*
X137557684Y-127100000D01*
X137609558Y-127022365D01*
X137652903Y-126917721D01*
X137675000Y-126806633D01*
X137675000Y-126693367D01*
X137652903Y-126582279D01*
X137609558Y-126477635D01*
X137546632Y-126383459D01*
X137466541Y-126303368D01*
X137372365Y-126240442D01*
X137267721Y-126197097D01*
X137156633Y-126175000D01*
X137043367Y-126175000D01*
X136932279Y-126197097D01*
X136827635Y-126240442D01*
X136733459Y-126303368D01*
X136653368Y-126383459D01*
X136590442Y-126477635D01*
X136547097Y-126582279D01*
X136525000Y-126693367D01*
X136525000Y-126806633D01*
X136547097Y-126917721D01*
X136590442Y-127022365D01*
X136642316Y-127100000D01*
X136590442Y-127177635D01*
X136547097Y-127282279D01*
X136525000Y-127393367D01*
X136525000Y-127506633D01*
X136547097Y-127617721D01*
X136570823Y-127675000D01*
X135860482Y-127675000D01*
X135854969Y-127657191D01*
X135845137Y-127633801D01*
X135835628Y-127610264D01*
X135833792Y-127606813D01*
X135759531Y-127469471D01*
X135745375Y-127448484D01*
X135731445Y-127427196D01*
X135728974Y-127424167D01*
X135629451Y-127303865D01*
X135611451Y-127285990D01*
X135593687Y-127267850D01*
X135590675Y-127265358D01*
X135469681Y-127166678D01*
X135448540Y-127152633D01*
X135427604Y-127138297D01*
X135424165Y-127136438D01*
X135286308Y-127063138D01*
X135262871Y-127053478D01*
X135239519Y-127043469D01*
X135235785Y-127042313D01*
X135086315Y-126997186D01*
X135061418Y-126992257D01*
X135036598Y-126986981D01*
X135032710Y-126986572D01*
X134877324Y-126971336D01*
X134877313Y-126971336D01*
X134863748Y-126970000D01*
X133780000Y-126970000D01*
X133780000Y-125393367D01*
X137425000Y-125393367D01*
X137425000Y-125506633D01*
X137447097Y-125617721D01*
X137490442Y-125722365D01*
X137553368Y-125816541D01*
X137633459Y-125896632D01*
X137727635Y-125959558D01*
X137832279Y-126002903D01*
X137943367Y-126025000D01*
X138056633Y-126025000D01*
X138167721Y-126002903D01*
X138272365Y-125959558D01*
X138366541Y-125896632D01*
X138446632Y-125816541D01*
X138509558Y-125722365D01*
X138552903Y-125617721D01*
X138575000Y-125506633D01*
X138575000Y-125393367D01*
X138552903Y-125282279D01*
X138509558Y-125177635D01*
X138446632Y-125083459D01*
X138366541Y-125003368D01*
X138272365Y-124940442D01*
X138167721Y-124897097D01*
X138056633Y-124875000D01*
X137943367Y-124875000D01*
X137832279Y-124897097D01*
X137727635Y-124940442D01*
X137633459Y-125003368D01*
X137553368Y-125083459D01*
X137490442Y-125177635D01*
X137447097Y-125282279D01*
X137425000Y-125393367D01*
X133780000Y-125393367D01*
X133780000Y-124443367D01*
X138475000Y-124443367D01*
X138475000Y-124556633D01*
X138497097Y-124667721D01*
X138540442Y-124772365D01*
X138603368Y-124866541D01*
X138683459Y-124946632D01*
X138777635Y-125009558D01*
X138882279Y-125052903D01*
X138993367Y-125075000D01*
X139106633Y-125075000D01*
X139217721Y-125052903D01*
X139322365Y-125009558D01*
X139416541Y-124946632D01*
X139496632Y-124866541D01*
X139559558Y-124772365D01*
X139602903Y-124667721D01*
X139625000Y-124556633D01*
X139625000Y-124443367D01*
X139602903Y-124332279D01*
X139559558Y-124227635D01*
X139496632Y-124133459D01*
X139416541Y-124053368D01*
X139322365Y-123990442D01*
X139217721Y-123947097D01*
X139106633Y-123925000D01*
X138993367Y-123925000D01*
X138882279Y-123947097D01*
X138777635Y-123990442D01*
X138683459Y-124053368D01*
X138603368Y-124133459D01*
X138540442Y-124227635D01*
X138497097Y-124332279D01*
X138475000Y-124443367D01*
X133780000Y-124443367D01*
X133780000Y-122438405D01*
X134425000Y-122438405D01*
X134425000Y-122551671D01*
X134447097Y-122662759D01*
X134490442Y-122767403D01*
X134553368Y-122861579D01*
X134633459Y-122941670D01*
X134727635Y-123004596D01*
X134832279Y-123047941D01*
X134943367Y-123070038D01*
X135056633Y-123070038D01*
X135167721Y-123047941D01*
X135272365Y-123004596D01*
X135366541Y-122941670D01*
X135414937Y-122893274D01*
X135400000Y-122968367D01*
X135400000Y-123081633D01*
X135422097Y-123192721D01*
X135465442Y-123297365D01*
X135528368Y-123391541D01*
X135608459Y-123471632D01*
X135702635Y-123534558D01*
X135807279Y-123577903D01*
X135918367Y-123600000D01*
X136031633Y-123600000D01*
X136142721Y-123577903D01*
X136247365Y-123534558D01*
X136341541Y-123471632D01*
X136421632Y-123391541D01*
X136484558Y-123297365D01*
X136527903Y-123192721D01*
X136550000Y-123081633D01*
X136550000Y-122968367D01*
X136527903Y-122857279D01*
X136503501Y-122798367D01*
X154925000Y-122798367D01*
X154925000Y-122911633D01*
X154947097Y-123022721D01*
X154990442Y-123127365D01*
X155053368Y-123221541D01*
X155081827Y-123250000D01*
X155053368Y-123278459D01*
X154990442Y-123372635D01*
X154947097Y-123477279D01*
X154925000Y-123588367D01*
X154925000Y-123701633D01*
X154947097Y-123812721D01*
X154990442Y-123917365D01*
X155053368Y-124011541D01*
X155133459Y-124091632D01*
X155227635Y-124154558D01*
X155332279Y-124197903D01*
X155443367Y-124220000D01*
X155556633Y-124220000D01*
X155667721Y-124197903D01*
X155772365Y-124154558D01*
X155866541Y-124091632D01*
X155946632Y-124011541D01*
X156009558Y-123917365D01*
X156052903Y-123812721D01*
X156075000Y-123701633D01*
X156075000Y-123588367D01*
X156052903Y-123477279D01*
X156009558Y-123372635D01*
X155946632Y-123278459D01*
X155918173Y-123250000D01*
X155946632Y-123221541D01*
X156009558Y-123127365D01*
X156052903Y-123022721D01*
X156075000Y-122911633D01*
X156075000Y-122798367D01*
X156052903Y-122687279D01*
X156009558Y-122582635D01*
X155946632Y-122488459D01*
X155866541Y-122408368D01*
X155772365Y-122345442D01*
X155667721Y-122302097D01*
X155556633Y-122280000D01*
X155443367Y-122280000D01*
X155332279Y-122302097D01*
X155227635Y-122345442D01*
X155133459Y-122408368D01*
X155053368Y-122488459D01*
X154990442Y-122582635D01*
X154947097Y-122687279D01*
X154925000Y-122798367D01*
X136503501Y-122798367D01*
X136484558Y-122752635D01*
X136421632Y-122658459D01*
X136341541Y-122578368D01*
X136247365Y-122515442D01*
X136142721Y-122472097D01*
X136031633Y-122450000D01*
X135918367Y-122450000D01*
X135807279Y-122472097D01*
X135702635Y-122515442D01*
X135608459Y-122578368D01*
X135560063Y-122626764D01*
X135575000Y-122551671D01*
X135575000Y-122438405D01*
X135552903Y-122327317D01*
X135509558Y-122222673D01*
X135446632Y-122128497D01*
X135366541Y-122048406D01*
X135272365Y-121985480D01*
X135167721Y-121942135D01*
X135056633Y-121920038D01*
X134943367Y-121920038D01*
X134832279Y-121942135D01*
X134727635Y-121985480D01*
X134633459Y-122048406D01*
X134553368Y-122128497D01*
X134490442Y-122222673D01*
X134447097Y-122327317D01*
X134425000Y-122438405D01*
X133780000Y-122438405D01*
X133780000Y-119893367D01*
X138925000Y-119893367D01*
X138925000Y-120006633D01*
X138947097Y-120117721D01*
X138990442Y-120222365D01*
X139053368Y-120316541D01*
X139133459Y-120396632D01*
X139227635Y-120459558D01*
X139332279Y-120502903D01*
X139443367Y-120525000D01*
X139556633Y-120525000D01*
X139667721Y-120502903D01*
X139772365Y-120459558D01*
X139866541Y-120396632D01*
X139946632Y-120316541D01*
X139965007Y-120289041D01*
X139947097Y-120332279D01*
X139925000Y-120443367D01*
X139925000Y-120556633D01*
X139947097Y-120667721D01*
X139990442Y-120772365D01*
X140053368Y-120866541D01*
X140133459Y-120946632D01*
X140227635Y-121009558D01*
X140332279Y-121052903D01*
X140443367Y-121075000D01*
X140556633Y-121075000D01*
X140667721Y-121052903D01*
X140772365Y-121009558D01*
X140866541Y-120946632D01*
X140946632Y-120866541D01*
X141000000Y-120786670D01*
X141053368Y-120866541D01*
X141133459Y-120946632D01*
X141227635Y-121009558D01*
X141332279Y-121052903D01*
X141443367Y-121075000D01*
X141556633Y-121075000D01*
X141667721Y-121052903D01*
X141772365Y-121009558D01*
X141866541Y-120946632D01*
X141946632Y-120866541D01*
X142009558Y-120772365D01*
X142052903Y-120667721D01*
X142075000Y-120556633D01*
X142075000Y-120493367D01*
X146025000Y-120493367D01*
X146025000Y-120606633D01*
X146047097Y-120717721D01*
X146090442Y-120822365D01*
X146153368Y-120916541D01*
X146233459Y-120996632D01*
X146327635Y-121059558D01*
X146432279Y-121102903D01*
X146543367Y-121125000D01*
X146656633Y-121125000D01*
X146767721Y-121102903D01*
X146872365Y-121059558D01*
X146966541Y-120996632D01*
X147046632Y-120916541D01*
X147109558Y-120822365D01*
X147152903Y-120717721D01*
X147175000Y-120606633D01*
X147175000Y-120493367D01*
X147152903Y-120382279D01*
X147109558Y-120277635D01*
X147046632Y-120183459D01*
X146966541Y-120103368D01*
X146872365Y-120040442D01*
X146767721Y-119997097D01*
X146656633Y-119975000D01*
X146543367Y-119975000D01*
X146432279Y-119997097D01*
X146327635Y-120040442D01*
X146233459Y-120103368D01*
X146153368Y-120183459D01*
X146090442Y-120277635D01*
X146047097Y-120382279D01*
X146025000Y-120493367D01*
X142075000Y-120493367D01*
X142075000Y-120443367D01*
X142052903Y-120332279D01*
X142009558Y-120227635D01*
X141946632Y-120133459D01*
X141866541Y-120053368D01*
X141772365Y-119990442D01*
X141667721Y-119947097D01*
X141556633Y-119925000D01*
X141443367Y-119925000D01*
X141332279Y-119947097D01*
X141227635Y-119990442D01*
X141133459Y-120053368D01*
X141053368Y-120133459D01*
X141000000Y-120213330D01*
X140946632Y-120133459D01*
X140866541Y-120053368D01*
X140772365Y-119990442D01*
X140667721Y-119947097D01*
X140556633Y-119925000D01*
X140443367Y-119925000D01*
X140332279Y-119947097D01*
X140227635Y-119990442D01*
X140133459Y-120053368D01*
X140053368Y-120133459D01*
X140034993Y-120160959D01*
X140052903Y-120117721D01*
X140075000Y-120006633D01*
X140075000Y-119893367D01*
X140052903Y-119782279D01*
X140009558Y-119677635D01*
X139946632Y-119583459D01*
X139866541Y-119503368D01*
X139772365Y-119440442D01*
X139667721Y-119397097D01*
X139556633Y-119375000D01*
X139443367Y-119375000D01*
X139332279Y-119397097D01*
X139227635Y-119440442D01*
X139133459Y-119503368D01*
X139053368Y-119583459D01*
X138990442Y-119677635D01*
X138947097Y-119782279D01*
X138925000Y-119893367D01*
X133780000Y-119893367D01*
X133780000Y-118943367D01*
X159225000Y-118943367D01*
X159225000Y-119056633D01*
X159247097Y-119167721D01*
X159290442Y-119272365D01*
X159353368Y-119366541D01*
X159433459Y-119446632D01*
X159527635Y-119509558D01*
X159632279Y-119552903D01*
X159743367Y-119575000D01*
X159750112Y-119575000D01*
X159790442Y-119672365D01*
X159853368Y-119766541D01*
X159933459Y-119846632D01*
X160027635Y-119909558D01*
X160132279Y-119952903D01*
X160243367Y-119975000D01*
X160356633Y-119975000D01*
X160467721Y-119952903D01*
X160572365Y-119909558D01*
X160666541Y-119846632D01*
X160746632Y-119766541D01*
X160809558Y-119672365D01*
X160852903Y-119567721D01*
X160875000Y-119456633D01*
X160875000Y-119343367D01*
X160852903Y-119232279D01*
X160809558Y-119127635D01*
X160746632Y-119033459D01*
X160713173Y-119000000D01*
X160746632Y-118966541D01*
X160809558Y-118872365D01*
X160852903Y-118767721D01*
X160875000Y-118656633D01*
X160875000Y-118543367D01*
X160852903Y-118432279D01*
X160809558Y-118327635D01*
X160746632Y-118233459D01*
X160666541Y-118153368D01*
X160572365Y-118090442D01*
X160467721Y-118047097D01*
X160356633Y-118025000D01*
X160243367Y-118025000D01*
X160132279Y-118047097D01*
X160027635Y-118090442D01*
X159933459Y-118153368D01*
X159853368Y-118233459D01*
X159790442Y-118327635D01*
X159750112Y-118425000D01*
X159743367Y-118425000D01*
X159632279Y-118447097D01*
X159527635Y-118490442D01*
X159433459Y-118553368D01*
X159353368Y-118633459D01*
X159290442Y-118727635D01*
X159247097Y-118832279D01*
X159225000Y-118943367D01*
X133780000Y-118943367D01*
X133780000Y-117484782D01*
X138416415Y-117484782D01*
X138416415Y-117598048D01*
X138438512Y-117709136D01*
X138481857Y-117813780D01*
X138544783Y-117907956D01*
X138624874Y-117988047D01*
X138719050Y-118050973D01*
X138823694Y-118094318D01*
X138934782Y-118116415D01*
X139048048Y-118116415D01*
X139159136Y-118094318D01*
X139263780Y-118050973D01*
X139357956Y-117988047D01*
X139438047Y-117907956D01*
X139500973Y-117813780D01*
X139544318Y-117709136D01*
X139566415Y-117598048D01*
X139566415Y-117484782D01*
X139562401Y-117464599D01*
X147446232Y-117464599D01*
X147446232Y-117577865D01*
X147468329Y-117688953D01*
X147511674Y-117793597D01*
X147574600Y-117887773D01*
X147654691Y-117967864D01*
X147748867Y-118030790D01*
X147853511Y-118074135D01*
X147964599Y-118096232D01*
X148077865Y-118096232D01*
X148188953Y-118074135D01*
X148293597Y-118030790D01*
X148387773Y-117967864D01*
X148412270Y-117943367D01*
X150925000Y-117943367D01*
X150925000Y-118056633D01*
X150947097Y-118167721D01*
X150990442Y-118272365D01*
X151053368Y-118366541D01*
X151133459Y-118446632D01*
X151227635Y-118509558D01*
X151332279Y-118552903D01*
X151443367Y-118575000D01*
X151556633Y-118575000D01*
X151667721Y-118552903D01*
X151772365Y-118509558D01*
X151866541Y-118446632D01*
X151946632Y-118366541D01*
X152000000Y-118286670D01*
X152053368Y-118366541D01*
X152133459Y-118446632D01*
X152227635Y-118509558D01*
X152332279Y-118552903D01*
X152443367Y-118575000D01*
X152556633Y-118575000D01*
X152667721Y-118552903D01*
X152772365Y-118509558D01*
X152866541Y-118446632D01*
X152946632Y-118366541D01*
X153000000Y-118286670D01*
X153053368Y-118366541D01*
X153133459Y-118446632D01*
X153227635Y-118509558D01*
X153332279Y-118552903D01*
X153443367Y-118575000D01*
X153556633Y-118575000D01*
X153667721Y-118552903D01*
X153772365Y-118509558D01*
X153866541Y-118446632D01*
X153946632Y-118366541D01*
X154000000Y-118286670D01*
X154053368Y-118366541D01*
X154133459Y-118446632D01*
X154227635Y-118509558D01*
X154332279Y-118552903D01*
X154443367Y-118575000D01*
X154556633Y-118575000D01*
X154667721Y-118552903D01*
X154772365Y-118509558D01*
X154866541Y-118446632D01*
X154946632Y-118366541D01*
X155000000Y-118286670D01*
X155053368Y-118366541D01*
X155133459Y-118446632D01*
X155227635Y-118509558D01*
X155332279Y-118552903D01*
X155443367Y-118575000D01*
X155556633Y-118575000D01*
X155667721Y-118552903D01*
X155772365Y-118509558D01*
X155866541Y-118446632D01*
X155946632Y-118366541D01*
X156009558Y-118272365D01*
X156052903Y-118167721D01*
X156075000Y-118056633D01*
X156075000Y-117943367D01*
X156052903Y-117832279D01*
X156009558Y-117727635D01*
X155946632Y-117633459D01*
X155866541Y-117553368D01*
X155772365Y-117490442D01*
X155667721Y-117447097D01*
X155556633Y-117425000D01*
X155443367Y-117425000D01*
X155332279Y-117447097D01*
X155227635Y-117490442D01*
X155133459Y-117553368D01*
X155053368Y-117633459D01*
X155000000Y-117713330D01*
X154946632Y-117633459D01*
X154866541Y-117553368D01*
X154772365Y-117490442D01*
X154667721Y-117447097D01*
X154556633Y-117425000D01*
X154443367Y-117425000D01*
X154332279Y-117447097D01*
X154227635Y-117490442D01*
X154133459Y-117553368D01*
X154053368Y-117633459D01*
X154000000Y-117713330D01*
X153946632Y-117633459D01*
X153866541Y-117553368D01*
X153772365Y-117490442D01*
X153667721Y-117447097D01*
X153556633Y-117425000D01*
X153443367Y-117425000D01*
X153332279Y-117447097D01*
X153227635Y-117490442D01*
X153133459Y-117553368D01*
X153053368Y-117633459D01*
X153000000Y-117713330D01*
X152946632Y-117633459D01*
X152866541Y-117553368D01*
X152772365Y-117490442D01*
X152667721Y-117447097D01*
X152556633Y-117425000D01*
X152443367Y-117425000D01*
X152332279Y-117447097D01*
X152227635Y-117490442D01*
X152133459Y-117553368D01*
X152053368Y-117633459D01*
X152000000Y-117713330D01*
X151946632Y-117633459D01*
X151866541Y-117553368D01*
X151772365Y-117490442D01*
X151667721Y-117447097D01*
X151556633Y-117425000D01*
X151443367Y-117425000D01*
X151332279Y-117447097D01*
X151227635Y-117490442D01*
X151133459Y-117553368D01*
X151053368Y-117633459D01*
X150990442Y-117727635D01*
X150947097Y-117832279D01*
X150925000Y-117943367D01*
X148412270Y-117943367D01*
X148467864Y-117887773D01*
X148530790Y-117793597D01*
X148574135Y-117688953D01*
X148596232Y-117577865D01*
X148596232Y-117464599D01*
X148574135Y-117353511D01*
X148530790Y-117248867D01*
X148467864Y-117154691D01*
X148387773Y-117074600D01*
X148293597Y-117011674D01*
X148188953Y-116968329D01*
X148077865Y-116946232D01*
X147964599Y-116946232D01*
X147853511Y-116968329D01*
X147748867Y-117011674D01*
X147654691Y-117074600D01*
X147574600Y-117154691D01*
X147511674Y-117248867D01*
X147468329Y-117353511D01*
X147446232Y-117464599D01*
X139562401Y-117464599D01*
X139544318Y-117373694D01*
X139500973Y-117269050D01*
X139438047Y-117174874D01*
X139357956Y-117094783D01*
X139263780Y-117031857D01*
X139159136Y-116988512D01*
X139048048Y-116966415D01*
X138934782Y-116966415D01*
X138823694Y-116988512D01*
X138719050Y-117031857D01*
X138624874Y-117094783D01*
X138544783Y-117174874D01*
X138481857Y-117269050D01*
X138438512Y-117373694D01*
X138416415Y-117484782D01*
X133780000Y-117484782D01*
X133780000Y-113743367D01*
X135875000Y-113743367D01*
X135875000Y-113856633D01*
X135897097Y-113967721D01*
X135940442Y-114072365D01*
X136003368Y-114166541D01*
X136083459Y-114246632D01*
X136177635Y-114309558D01*
X136282279Y-114352903D01*
X136393367Y-114375000D01*
X136506633Y-114375000D01*
X136617721Y-114352903D01*
X136722365Y-114309558D01*
X136816541Y-114246632D01*
X136896632Y-114166541D01*
X136959558Y-114072365D01*
X137002903Y-113967721D01*
X137025000Y-113856633D01*
X137025000Y-113743367D01*
X137002903Y-113632279D01*
X136959558Y-113527635D01*
X136896632Y-113433459D01*
X136816541Y-113353368D01*
X136722365Y-113290442D01*
X136617721Y-113247097D01*
X136506633Y-113225000D01*
X136393367Y-113225000D01*
X136282279Y-113247097D01*
X136177635Y-113290442D01*
X136083459Y-113353368D01*
X136003368Y-113433459D01*
X135940442Y-113527635D01*
X135897097Y-113632279D01*
X135875000Y-113743367D01*
X133780000Y-113743367D01*
X133780000Y-111943367D01*
X134475000Y-111943367D01*
X134475000Y-112056633D01*
X134497097Y-112167721D01*
X134540442Y-112272365D01*
X134603368Y-112366541D01*
X134683459Y-112446632D01*
X134777635Y-112509558D01*
X134882279Y-112552903D01*
X134993367Y-112575000D01*
X135106633Y-112575000D01*
X135217721Y-112552903D01*
X135322365Y-112509558D01*
X135416541Y-112446632D01*
X135419806Y-112443367D01*
X135875000Y-112443367D01*
X135875000Y-112556633D01*
X135897097Y-112667721D01*
X135940442Y-112772365D01*
X136003368Y-112866541D01*
X136083459Y-112946632D01*
X136177635Y-113009558D01*
X136282279Y-113052903D01*
X136393367Y-113075000D01*
X136506633Y-113075000D01*
X136617721Y-113052903D01*
X136722365Y-113009558D01*
X136816541Y-112946632D01*
X136896632Y-112866541D01*
X136959558Y-112772365D01*
X137002903Y-112667721D01*
X137025000Y-112556633D01*
X137025000Y-112443367D01*
X137002903Y-112332279D01*
X136959558Y-112227635D01*
X136896632Y-112133459D01*
X136816541Y-112053368D01*
X136722365Y-111990442D01*
X136617721Y-111947097D01*
X136506633Y-111925000D01*
X136393367Y-111925000D01*
X136282279Y-111947097D01*
X136177635Y-111990442D01*
X136083459Y-112053368D01*
X136003368Y-112133459D01*
X135940442Y-112227635D01*
X135897097Y-112332279D01*
X135875000Y-112443367D01*
X135419806Y-112443367D01*
X135496632Y-112366541D01*
X135559558Y-112272365D01*
X135602903Y-112167721D01*
X135625000Y-112056633D01*
X135625000Y-111943367D01*
X135602903Y-111832279D01*
X135559558Y-111727635D01*
X135496632Y-111633459D01*
X135416541Y-111553368D01*
X135322365Y-111490442D01*
X135217721Y-111447097D01*
X135106633Y-111425000D01*
X134993367Y-111425000D01*
X134882279Y-111447097D01*
X134777635Y-111490442D01*
X134683459Y-111553368D01*
X134603368Y-111633459D01*
X134540442Y-111727635D01*
X134497097Y-111832279D01*
X134475000Y-111943367D01*
X133780000Y-111943367D01*
X133780000Y-108943367D01*
X133925000Y-108943367D01*
X133925000Y-109056633D01*
X133947097Y-109167721D01*
X133990442Y-109272365D01*
X134053368Y-109366541D01*
X134133459Y-109446632D01*
X134227635Y-109509558D01*
X134332279Y-109552903D01*
X134443367Y-109575000D01*
X134556633Y-109575000D01*
X134667721Y-109552903D01*
X134772365Y-109509558D01*
X134866541Y-109446632D01*
X134946632Y-109366541D01*
X135000000Y-109286670D01*
X135053368Y-109366541D01*
X135133459Y-109446632D01*
X135227635Y-109509558D01*
X135332279Y-109552903D01*
X135443367Y-109575000D01*
X135556633Y-109575000D01*
X135667721Y-109552903D01*
X135772365Y-109509558D01*
X135866541Y-109446632D01*
X135946632Y-109366541D01*
X136009558Y-109272365D01*
X136052903Y-109167721D01*
X136061472Y-109124645D01*
X136083459Y-109146632D01*
X136177635Y-109209558D01*
X136282279Y-109252903D01*
X136393367Y-109275000D01*
X136506633Y-109275000D01*
X136617721Y-109252903D01*
X136722365Y-109209558D01*
X136816541Y-109146632D01*
X136896632Y-109066541D01*
X136959558Y-108972365D01*
X137002903Y-108867721D01*
X137025000Y-108756633D01*
X137025000Y-108643367D01*
X137002903Y-108532279D01*
X136959558Y-108427635D01*
X136896632Y-108333459D01*
X136816541Y-108253368D01*
X136722365Y-108190442D01*
X136617721Y-108147097D01*
X136506633Y-108125000D01*
X136393367Y-108125000D01*
X136282279Y-108147097D01*
X136177635Y-108190442D01*
X136083459Y-108253368D01*
X136003368Y-108333459D01*
X135940442Y-108427635D01*
X135897097Y-108532279D01*
X135888528Y-108575355D01*
X135866541Y-108553368D01*
X135772365Y-108490442D01*
X135667721Y-108447097D01*
X135556633Y-108425000D01*
X135443367Y-108425000D01*
X135332279Y-108447097D01*
X135227635Y-108490442D01*
X135133459Y-108553368D01*
X135053368Y-108633459D01*
X135000000Y-108713330D01*
X134946632Y-108633459D01*
X134866541Y-108553368D01*
X134772365Y-108490442D01*
X134667721Y-108447097D01*
X134556633Y-108425000D01*
X134443367Y-108425000D01*
X134332279Y-108447097D01*
X134227635Y-108490442D01*
X134133459Y-108553368D01*
X134053368Y-108633459D01*
X133990442Y-108727635D01*
X133947097Y-108832279D01*
X133925000Y-108943367D01*
X133780000Y-108943367D01*
X133780000Y-107393367D01*
X135875000Y-107393367D01*
X135875000Y-107506633D01*
X135897097Y-107617721D01*
X135940442Y-107722365D01*
X136003368Y-107816541D01*
X136083459Y-107896632D01*
X136177635Y-107959558D01*
X136282279Y-108002903D01*
X136393367Y-108025000D01*
X136506633Y-108025000D01*
X136617721Y-108002903D01*
X136722365Y-107959558D01*
X136816541Y-107896632D01*
X136896632Y-107816541D01*
X136959558Y-107722365D01*
X137002903Y-107617721D01*
X137025000Y-107506633D01*
X137025000Y-107393367D01*
X137002903Y-107282279D01*
X136959558Y-107177635D01*
X136896632Y-107083459D01*
X136816541Y-107003368D01*
X136722365Y-106940442D01*
X136617721Y-106897097D01*
X136506633Y-106875000D01*
X136393367Y-106875000D01*
X136282279Y-106897097D01*
X136177635Y-106940442D01*
X136083459Y-107003368D01*
X136003368Y-107083459D01*
X135940442Y-107177635D01*
X135897097Y-107282279D01*
X135875000Y-107393367D01*
X133780000Y-107393367D01*
X133780000Y-106093367D01*
X135875000Y-106093367D01*
X135875000Y-106206633D01*
X135897097Y-106317721D01*
X135940442Y-106422365D01*
X136003368Y-106516541D01*
X136083459Y-106596632D01*
X136177635Y-106659558D01*
X136282279Y-106702903D01*
X136393367Y-106725000D01*
X136506633Y-106725000D01*
X136617721Y-106702903D01*
X136722365Y-106659558D01*
X136816541Y-106596632D01*
X136896632Y-106516541D01*
X136959558Y-106422365D01*
X137002903Y-106317721D01*
X137025000Y-106206633D01*
X137025000Y-106093367D01*
X137002903Y-105982279D01*
X136959558Y-105877635D01*
X136896632Y-105783459D01*
X136816541Y-105703368D01*
X136722365Y-105640442D01*
X136617721Y-105597097D01*
X136506633Y-105575000D01*
X136393367Y-105575000D01*
X136282279Y-105597097D01*
X136177635Y-105640442D01*
X136083459Y-105703368D01*
X136003368Y-105783459D01*
X135940442Y-105877635D01*
X135897097Y-105982279D01*
X135875000Y-106093367D01*
X133780000Y-106093367D01*
X133780000Y-85943367D01*
X142425000Y-85943367D01*
X142425000Y-86056633D01*
X142447097Y-86167721D01*
X142490442Y-86272365D01*
X142553368Y-86366541D01*
X142633459Y-86446632D01*
X142727635Y-86509558D01*
X142832279Y-86552903D01*
X142943367Y-86575000D01*
X143056633Y-86575000D01*
X143167721Y-86552903D01*
X143272365Y-86509558D01*
X143366541Y-86446632D01*
X143446632Y-86366541D01*
X143500000Y-86286670D01*
X143553368Y-86366541D01*
X143633459Y-86446632D01*
X143727635Y-86509558D01*
X143832279Y-86552903D01*
X143943367Y-86575000D01*
X144056633Y-86575000D01*
X144167721Y-86552903D01*
X144272365Y-86509558D01*
X144366541Y-86446632D01*
X144446632Y-86366541D01*
X144500000Y-86286670D01*
X144553368Y-86366541D01*
X144633459Y-86446632D01*
X144727635Y-86509558D01*
X144832279Y-86552903D01*
X144943367Y-86575000D01*
X145056633Y-86575000D01*
X145167721Y-86552903D01*
X145272365Y-86509558D01*
X145366541Y-86446632D01*
X145446632Y-86366541D01*
X145500000Y-86286670D01*
X145553368Y-86366541D01*
X145633459Y-86446632D01*
X145727635Y-86509558D01*
X145832279Y-86552903D01*
X145943367Y-86575000D01*
X146056633Y-86575000D01*
X146167721Y-86552903D01*
X146272365Y-86509558D01*
X146366541Y-86446632D01*
X146446632Y-86366541D01*
X146509558Y-86272365D01*
X146552903Y-86167721D01*
X146575000Y-86056633D01*
X146575000Y-85943367D01*
X146552903Y-85832279D01*
X146509558Y-85727635D01*
X146446632Y-85633459D01*
X146366541Y-85553368D01*
X146272365Y-85490442D01*
X146167721Y-85447097D01*
X146056633Y-85425000D01*
X145943367Y-85425000D01*
X145832279Y-85447097D01*
X145727635Y-85490442D01*
X145633459Y-85553368D01*
X145553368Y-85633459D01*
X145500000Y-85713330D01*
X145446632Y-85633459D01*
X145366541Y-85553368D01*
X145272365Y-85490442D01*
X145167721Y-85447097D01*
X145056633Y-85425000D01*
X144943367Y-85425000D01*
X144832279Y-85447097D01*
X144727635Y-85490442D01*
X144633459Y-85553368D01*
X144553368Y-85633459D01*
X144500000Y-85713330D01*
X144446632Y-85633459D01*
X144366541Y-85553368D01*
X144272365Y-85490442D01*
X144167721Y-85447097D01*
X144056633Y-85425000D01*
X143943367Y-85425000D01*
X143832279Y-85447097D01*
X143727635Y-85490442D01*
X143633459Y-85553368D01*
X143553368Y-85633459D01*
X143500000Y-85713330D01*
X143446632Y-85633459D01*
X143366541Y-85553368D01*
X143272365Y-85490442D01*
X143167721Y-85447097D01*
X143056633Y-85425000D01*
X142943367Y-85425000D01*
X142832279Y-85447097D01*
X142727635Y-85490442D01*
X142633459Y-85553368D01*
X142553368Y-85633459D01*
X142490442Y-85727635D01*
X142447097Y-85832279D01*
X142425000Y-85943367D01*
X133780000Y-85943367D01*
X133780000Y-84585241D01*
X134462247Y-84585241D01*
X134787469Y-84917186D01*
X135309532Y-85183408D01*
X135873501Y-85342666D01*
X136457703Y-85388838D01*
X137039688Y-85320151D01*
X137597089Y-85139244D01*
X138012531Y-84917186D01*
X138337753Y-84585241D01*
X158662247Y-84585241D01*
X158987469Y-84917186D01*
X159509532Y-85183408D01*
X160073501Y-85342666D01*
X160657703Y-85388838D01*
X161239688Y-85320151D01*
X161797089Y-85139244D01*
X162212531Y-84917186D01*
X162537753Y-84585241D01*
X160600000Y-82647487D01*
X158662247Y-84585241D01*
X138337753Y-84585241D01*
X136400000Y-82647487D01*
X134462247Y-84585241D01*
X133780000Y-84585241D01*
X133780000Y-83820179D01*
X133882814Y-84012531D01*
X134214759Y-84337753D01*
X136152513Y-82400000D01*
X136647487Y-82400000D01*
X138585241Y-84337753D01*
X138917186Y-84012531D01*
X139183408Y-83490468D01*
X139342666Y-82926499D01*
X139379716Y-82457703D01*
X157611162Y-82457703D01*
X157679849Y-83039688D01*
X157860756Y-83597089D01*
X158082814Y-84012531D01*
X158414759Y-84337753D01*
X160352513Y-82400000D01*
X158414759Y-80462247D01*
X158082814Y-80787469D01*
X157816592Y-81309532D01*
X157657334Y-81873501D01*
X157611162Y-82457703D01*
X139379716Y-82457703D01*
X139388838Y-82342297D01*
X139320151Y-81760312D01*
X139139244Y-81202911D01*
X138917186Y-80787469D01*
X138585241Y-80462247D01*
X136647487Y-82400000D01*
X136152513Y-82400000D01*
X134214759Y-80462247D01*
X133882814Y-80787469D01*
X133780000Y-80989088D01*
X133780000Y-79780000D01*
X134979821Y-79780000D01*
X134787469Y-79882814D01*
M02*
