G04 #@! TF.GenerationSoftware,KiCad,Pcbnew,(5.1.6)-1*
G04 #@! TF.CreationDate,2020-07-22T16:21:09+02:00*
G04 #@! TF.ProjectId,BRD-00008-X01,4252442d-3030-4303-9038-2d5830312e6b,X01*
G04 #@! TF.SameCoordinates,Original*
G04 #@! TF.FileFunction,Soldermask,Top*
G04 #@! TF.FilePolarity,Negative*
%FSLAX46Y46*%
G04 Gerber Fmt 4.6, Leading zero omitted, Abs format (unit mm)*
G04 Created by KiCad (PCBNEW (5.1.6)-1) date 2020-07-22 16:21:09*
%MOMM*%
%LPD*%
G01*
G04 APERTURE LIST*
%ADD10C,0.100000*%
G04 #@! TA.AperFunction,Profile*
%ADD11C,0.010000*%
G04 #@! TD*
G04 APERTURE END LIST*
D10*
G36*
X139300000Y-85300000D02*
G01*
X133500000Y-85300000D01*
X133500000Y-79500000D01*
X139300000Y-79500000D01*
X139300000Y-85300000D01*
G37*
X139300000Y-85300000D02*
X133500000Y-85300000D01*
X133500000Y-79500000D01*
X139300000Y-79500000D01*
X139300000Y-85300000D01*
G36*
X163500000Y-85300000D02*
G01*
X157700000Y-85300000D01*
X157700000Y-79500000D01*
X163500000Y-79500000D01*
X163500000Y-85300000D01*
G37*
X163500000Y-85300000D02*
X157700000Y-85300000D01*
X157700000Y-79500000D01*
X163500000Y-79500000D01*
X163500000Y-85300000D01*
D11*
X135650000Y-130450000D02*
X135650000Y-128050000D01*
X135650000Y-130450000D02*
X143900000Y-130450000D01*
X143900000Y-130450000D02*
X143900000Y-127200000D01*
X145400000Y-130450000D02*
X145400000Y-127200000D01*
X163500000Y-127250000D02*
X163500000Y-79500000D01*
X162150000Y-127250000D02*
X163500000Y-127250000D01*
X145400000Y-130450000D02*
X161350000Y-130450000D01*
X161350000Y-130450000D02*
X161350000Y-128050000D01*
X162150000Y-127250000D02*
G75*
G03*
X161350000Y-128050000I0J-800000D01*
G01*
X144650000Y-126450000D02*
G75*
G03*
X143900000Y-127200000I0J-750000D01*
G01*
X145400000Y-127200000D02*
G75*
G03*
X144650000Y-126450000I-750000J0D01*
G01*
X135650000Y-128050000D02*
G75*
G03*
X134850000Y-127250000I-800000J0D01*
G01*
X133500000Y-127250000D02*
X134850000Y-127250000D01*
X133500000Y-79500000D02*
X133500000Y-127250000D01*
X133500000Y-79500000D02*
X163500000Y-79500000D01*
D10*
G36*
X135650000Y-130450000D02*
G01*
X161350000Y-130450000D01*
X161350000Y-127850000D01*
X135650000Y-127850000D01*
X135650000Y-130450000D01*
G37*
X135650000Y-130450000D02*
X161350000Y-130450000D01*
X161350000Y-127850000D01*
X135650000Y-127850000D01*
X135650000Y-130450000D01*
G36*
X134646318Y-125314411D02*
G01*
X134718767Y-125328822D01*
X134758744Y-125345381D01*
X134855258Y-125385358D01*
X134966967Y-125460000D01*
X134978097Y-125467437D01*
X135082563Y-125571903D01*
X135082565Y-125571906D01*
X135164642Y-125694742D01*
X135204619Y-125791256D01*
X135221178Y-125831233D01*
X135223386Y-125842332D01*
X135250000Y-125976130D01*
X135250000Y-126123870D01*
X135221178Y-126268766D01*
X135164642Y-126405258D01*
X135082935Y-126527541D01*
X135082563Y-126528097D01*
X134978097Y-126632563D01*
X134978094Y-126632565D01*
X134855258Y-126714642D01*
X134758744Y-126754619D01*
X134718767Y-126771178D01*
X134646318Y-126785589D01*
X134573870Y-126800000D01*
X134426130Y-126800000D01*
X134353682Y-126785589D01*
X134281233Y-126771178D01*
X134241256Y-126754619D01*
X134144742Y-126714642D01*
X134021906Y-126632565D01*
X134021903Y-126632563D01*
X133917437Y-126528097D01*
X133917065Y-126527541D01*
X133835358Y-126405258D01*
X133778822Y-126268766D01*
X133750000Y-126123870D01*
X133750000Y-125976130D01*
X133776614Y-125842332D01*
X133778822Y-125831233D01*
X133795381Y-125791256D01*
X133835358Y-125694742D01*
X133917435Y-125571906D01*
X133917437Y-125571903D01*
X134021903Y-125467437D01*
X134033033Y-125460000D01*
X134144742Y-125385358D01*
X134241256Y-125345381D01*
X134281233Y-125328822D01*
X134353682Y-125314411D01*
X134426130Y-125300000D01*
X134573870Y-125300000D01*
X134646318Y-125314411D01*
G37*
G36*
X143094107Y-125006165D02*
G01*
X143103597Y-125009043D01*
X143112332Y-125013712D01*
X143119997Y-125020003D01*
X143126288Y-125027668D01*
X143130957Y-125036403D01*
X143133835Y-125045893D01*
X143135000Y-125057717D01*
X143135000Y-125812283D01*
X143133835Y-125824107D01*
X143130957Y-125833597D01*
X143126288Y-125842332D01*
X143119997Y-125849997D01*
X143112332Y-125856288D01*
X143103597Y-125860957D01*
X143094107Y-125863835D01*
X143082283Y-125865000D01*
X142917717Y-125865000D01*
X142905893Y-125863835D01*
X142896403Y-125860957D01*
X142887668Y-125856288D01*
X142880003Y-125849997D01*
X142873712Y-125842332D01*
X142869043Y-125833597D01*
X142866165Y-125824107D01*
X142865000Y-125812283D01*
X142865000Y-125057717D01*
X142866165Y-125045893D01*
X142869043Y-125036403D01*
X142873712Y-125027668D01*
X142880003Y-125020003D01*
X142887668Y-125013712D01*
X142896403Y-125009043D01*
X142905893Y-125006165D01*
X142917717Y-125005000D01*
X143082283Y-125005000D01*
X143094107Y-125006165D01*
G37*
G36*
X141094107Y-125006165D02*
G01*
X141103597Y-125009043D01*
X141112332Y-125013712D01*
X141119997Y-125020003D01*
X141126288Y-125027668D01*
X141130957Y-125036403D01*
X141133835Y-125045893D01*
X141135000Y-125057717D01*
X141135000Y-125812283D01*
X141133835Y-125824107D01*
X141130957Y-125833597D01*
X141126288Y-125842332D01*
X141119997Y-125849997D01*
X141112332Y-125856288D01*
X141103597Y-125860957D01*
X141094107Y-125863835D01*
X141082283Y-125865000D01*
X140917717Y-125865000D01*
X140905893Y-125863835D01*
X140896403Y-125860957D01*
X140887668Y-125856288D01*
X140880003Y-125849997D01*
X140873712Y-125842332D01*
X140869043Y-125833597D01*
X140866165Y-125824107D01*
X140865000Y-125812283D01*
X140865000Y-125057717D01*
X140866165Y-125045893D01*
X140869043Y-125036403D01*
X140873712Y-125027668D01*
X140880003Y-125020003D01*
X140887668Y-125013712D01*
X140896403Y-125009043D01*
X140905893Y-125006165D01*
X140917717Y-125005000D01*
X141082283Y-125005000D01*
X141094107Y-125006165D01*
G37*
G36*
X141594107Y-125006165D02*
G01*
X141603597Y-125009043D01*
X141612332Y-125013712D01*
X141619997Y-125020003D01*
X141626288Y-125027668D01*
X141630957Y-125036403D01*
X141633835Y-125045893D01*
X141635000Y-125057717D01*
X141635000Y-125812283D01*
X141633835Y-125824107D01*
X141630957Y-125833597D01*
X141626288Y-125842332D01*
X141619997Y-125849997D01*
X141612332Y-125856288D01*
X141603597Y-125860957D01*
X141594107Y-125863835D01*
X141582283Y-125865000D01*
X141417717Y-125865000D01*
X141405893Y-125863835D01*
X141396403Y-125860957D01*
X141387668Y-125856288D01*
X141380003Y-125849997D01*
X141373712Y-125842332D01*
X141369043Y-125833597D01*
X141366165Y-125824107D01*
X141365000Y-125812283D01*
X141365000Y-125057717D01*
X141366165Y-125045893D01*
X141369043Y-125036403D01*
X141373712Y-125027668D01*
X141380003Y-125020003D01*
X141387668Y-125013712D01*
X141396403Y-125009043D01*
X141405893Y-125006165D01*
X141417717Y-125005000D01*
X141582283Y-125005000D01*
X141594107Y-125006165D01*
G37*
G36*
X142594107Y-125006165D02*
G01*
X142603597Y-125009043D01*
X142612332Y-125013712D01*
X142619997Y-125020003D01*
X142626288Y-125027668D01*
X142630957Y-125036403D01*
X142633835Y-125045893D01*
X142635000Y-125057717D01*
X142635000Y-125812283D01*
X142633835Y-125824107D01*
X142630957Y-125833597D01*
X142626288Y-125842332D01*
X142619997Y-125849997D01*
X142612332Y-125856288D01*
X142603597Y-125860957D01*
X142594107Y-125863835D01*
X142582283Y-125865000D01*
X142417717Y-125865000D01*
X142405893Y-125863835D01*
X142396403Y-125860957D01*
X142387668Y-125856288D01*
X142380003Y-125849997D01*
X142373712Y-125842332D01*
X142369043Y-125833597D01*
X142366165Y-125824107D01*
X142365000Y-125812283D01*
X142365000Y-125057717D01*
X142366165Y-125045893D01*
X142369043Y-125036403D01*
X142373712Y-125027668D01*
X142380003Y-125020003D01*
X142387668Y-125013712D01*
X142396403Y-125009043D01*
X142405893Y-125006165D01*
X142417717Y-125005000D01*
X142582283Y-125005000D01*
X142594107Y-125006165D01*
G37*
G36*
X142094107Y-125006165D02*
G01*
X142103597Y-125009043D01*
X142112332Y-125013712D01*
X142119997Y-125020003D01*
X142126288Y-125027668D01*
X142130957Y-125036403D01*
X142133835Y-125045893D01*
X142135000Y-125057717D01*
X142135000Y-125812283D01*
X142133835Y-125824107D01*
X142130957Y-125833597D01*
X142126288Y-125842332D01*
X142119997Y-125849997D01*
X142112332Y-125856288D01*
X142103597Y-125860957D01*
X142094107Y-125863835D01*
X142082283Y-125865000D01*
X141917717Y-125865000D01*
X141905893Y-125863835D01*
X141896403Y-125860957D01*
X141887668Y-125856288D01*
X141880003Y-125849997D01*
X141873712Y-125842332D01*
X141869043Y-125833597D01*
X141866165Y-125824107D01*
X141865000Y-125812283D01*
X141865000Y-125057717D01*
X141866165Y-125045893D01*
X141869043Y-125036403D01*
X141873712Y-125027668D01*
X141880003Y-125020003D01*
X141887668Y-125013712D01*
X141896403Y-125009043D01*
X141905893Y-125006165D01*
X141917717Y-125005000D01*
X142082283Y-125005000D01*
X142094107Y-125006165D01*
G37*
G36*
X158574830Y-124694609D02*
G01*
X158617943Y-124707686D01*
X158657673Y-124728923D01*
X158692497Y-124757503D01*
X158721077Y-124792327D01*
X158742314Y-124832057D01*
X158755391Y-124875170D01*
X158760000Y-124921961D01*
X158760000Y-125478039D01*
X158755391Y-125524830D01*
X158742314Y-125567943D01*
X158721077Y-125607673D01*
X158692497Y-125642497D01*
X158657673Y-125671077D01*
X158617943Y-125692314D01*
X158574830Y-125705391D01*
X158528039Y-125710000D01*
X157991961Y-125710000D01*
X157945170Y-125705391D01*
X157902057Y-125692314D01*
X157862327Y-125671077D01*
X157827503Y-125642497D01*
X157798923Y-125607673D01*
X157777686Y-125567943D01*
X157764609Y-125524830D01*
X157760000Y-125478039D01*
X157760000Y-124921961D01*
X157764609Y-124875170D01*
X157777686Y-124832057D01*
X157798923Y-124792327D01*
X157827503Y-124757503D01*
X157862327Y-124728923D01*
X157902057Y-124707686D01*
X157945170Y-124694609D01*
X157991961Y-124690000D01*
X158528039Y-124690000D01*
X158574830Y-124694609D01*
G37*
G36*
X157054830Y-124694609D02*
G01*
X157097943Y-124707686D01*
X157137673Y-124728923D01*
X157172497Y-124757503D01*
X157201077Y-124792327D01*
X157222314Y-124832057D01*
X157235391Y-124875170D01*
X157240000Y-124921961D01*
X157240000Y-125478039D01*
X157235391Y-125524830D01*
X157222314Y-125567943D01*
X157201077Y-125607673D01*
X157172497Y-125642497D01*
X157137673Y-125671077D01*
X157097943Y-125692314D01*
X157054830Y-125705391D01*
X157008039Y-125710000D01*
X156471961Y-125710000D01*
X156425170Y-125705391D01*
X156382057Y-125692314D01*
X156342327Y-125671077D01*
X156307503Y-125642497D01*
X156278923Y-125607673D01*
X156257686Y-125567943D01*
X156244609Y-125524830D01*
X156240000Y-125478039D01*
X156240000Y-124921961D01*
X156244609Y-124875170D01*
X156257686Y-124832057D01*
X156278923Y-124792327D01*
X156307503Y-124757503D01*
X156342327Y-124728923D01*
X156382057Y-124707686D01*
X156425170Y-124694609D01*
X156471961Y-124690000D01*
X157008039Y-124690000D01*
X157054830Y-124694609D01*
G37*
G36*
X145742756Y-124702510D02*
G01*
X145765374Y-124709371D01*
X145786219Y-124720513D01*
X145804491Y-124735509D01*
X145819487Y-124753781D01*
X145830629Y-124774626D01*
X145837490Y-124797244D01*
X145840000Y-124822726D01*
X145840000Y-125177274D01*
X145837490Y-125202756D01*
X145830629Y-125225374D01*
X145819487Y-125246219D01*
X145804491Y-125264491D01*
X145786219Y-125279487D01*
X145765374Y-125290629D01*
X145742756Y-125297490D01*
X145717274Y-125300000D01*
X145422726Y-125300000D01*
X145397244Y-125297490D01*
X145374626Y-125290629D01*
X145353781Y-125279487D01*
X145335509Y-125264491D01*
X145320513Y-125246219D01*
X145309371Y-125225374D01*
X145302510Y-125202756D01*
X145300000Y-125177274D01*
X145300000Y-124822726D01*
X145302510Y-124797244D01*
X145309371Y-124774626D01*
X145320513Y-124753781D01*
X145335509Y-124735509D01*
X145353781Y-124720513D01*
X145374626Y-124709371D01*
X145397244Y-124702510D01*
X145422726Y-124700000D01*
X145717274Y-124700000D01*
X145742756Y-124702510D01*
G37*
G36*
X146602756Y-124702510D02*
G01*
X146625374Y-124709371D01*
X146646219Y-124720513D01*
X146664491Y-124735509D01*
X146679487Y-124753781D01*
X146690629Y-124774626D01*
X146697490Y-124797244D01*
X146700000Y-124822726D01*
X146700000Y-125177274D01*
X146697490Y-125202756D01*
X146690629Y-125225374D01*
X146679487Y-125246219D01*
X146664491Y-125264491D01*
X146646219Y-125279487D01*
X146625374Y-125290629D01*
X146602756Y-125297490D01*
X146577274Y-125300000D01*
X146282726Y-125300000D01*
X146257244Y-125297490D01*
X146234626Y-125290629D01*
X146213781Y-125279487D01*
X146195509Y-125264491D01*
X146180513Y-125246219D01*
X146169371Y-125225374D01*
X146162510Y-125202756D01*
X146160000Y-125177274D01*
X146160000Y-124822726D01*
X146162510Y-124797244D01*
X146169371Y-124774626D01*
X146180513Y-124753781D01*
X146195509Y-124735509D01*
X146213781Y-124720513D01*
X146234626Y-124709371D01*
X146257244Y-124702510D01*
X146282726Y-124700000D01*
X146577274Y-124700000D01*
X146602756Y-124702510D01*
G37*
G36*
X144324107Y-124366165D02*
G01*
X144333597Y-124369043D01*
X144342332Y-124373712D01*
X144349997Y-124380003D01*
X144356288Y-124387668D01*
X144360957Y-124396403D01*
X144363835Y-124405893D01*
X144365000Y-124417717D01*
X144365000Y-124582283D01*
X144363835Y-124594107D01*
X144360957Y-124603597D01*
X144356288Y-124612332D01*
X144349997Y-124619997D01*
X144342332Y-124626288D01*
X144333597Y-124630957D01*
X144324107Y-124633835D01*
X144312283Y-124635000D01*
X143557717Y-124635000D01*
X143545893Y-124633835D01*
X143536403Y-124630957D01*
X143527668Y-124626288D01*
X143520003Y-124619997D01*
X143513712Y-124612332D01*
X143509043Y-124603597D01*
X143506165Y-124594107D01*
X143505000Y-124582283D01*
X143505000Y-124417717D01*
X143506165Y-124405893D01*
X143509043Y-124396403D01*
X143513712Y-124387668D01*
X143520003Y-124380003D01*
X143527668Y-124373712D01*
X143536403Y-124369043D01*
X143545893Y-124366165D01*
X143557717Y-124365000D01*
X144312283Y-124365000D01*
X144324107Y-124366165D01*
G37*
G36*
X140454107Y-124366165D02*
G01*
X140463597Y-124369043D01*
X140472332Y-124373712D01*
X140479997Y-124380003D01*
X140486288Y-124387668D01*
X140490957Y-124396403D01*
X140493835Y-124405893D01*
X140495000Y-124417717D01*
X140495000Y-124582283D01*
X140493835Y-124594107D01*
X140490957Y-124603597D01*
X140486288Y-124612332D01*
X140479997Y-124619997D01*
X140472332Y-124626288D01*
X140463597Y-124630957D01*
X140454107Y-124633835D01*
X140442283Y-124635000D01*
X139687717Y-124635000D01*
X139675893Y-124633835D01*
X139666403Y-124630957D01*
X139657668Y-124626288D01*
X139650003Y-124619997D01*
X139643712Y-124612332D01*
X139639043Y-124603597D01*
X139636165Y-124594107D01*
X139635000Y-124582283D01*
X139635000Y-124417717D01*
X139636165Y-124405893D01*
X139639043Y-124396403D01*
X139643712Y-124387668D01*
X139650003Y-124380003D01*
X139657668Y-124373712D01*
X139666403Y-124369043D01*
X139675893Y-124366165D01*
X139687717Y-124365000D01*
X140442283Y-124365000D01*
X140454107Y-124366165D01*
G37*
G36*
X143000000Y-124500000D02*
G01*
X141000000Y-124500000D01*
X141000000Y-122500000D01*
X143000000Y-122500000D01*
X143000000Y-124500000D01*
G37*
G36*
X145721104Y-123702311D02*
G01*
X145741782Y-123708583D01*
X145760830Y-123718764D01*
X145777530Y-123732470D01*
X145791236Y-123749170D01*
X145801417Y-123768218D01*
X145807689Y-123788896D01*
X145810000Y-123812353D01*
X145810000Y-124187647D01*
X145807689Y-124211104D01*
X145801417Y-124231782D01*
X145791236Y-124250830D01*
X145777530Y-124267530D01*
X145760830Y-124281236D01*
X145741782Y-124291417D01*
X145721104Y-124297689D01*
X145697647Y-124300000D01*
X145412353Y-124300000D01*
X145388896Y-124297689D01*
X145368218Y-124291417D01*
X145349170Y-124281236D01*
X145332470Y-124267530D01*
X145318764Y-124250830D01*
X145308583Y-124231782D01*
X145302311Y-124211104D01*
X145300000Y-124187647D01*
X145300000Y-123812353D01*
X145302311Y-123788896D01*
X145308583Y-123768218D01*
X145318764Y-123749170D01*
X145332470Y-123732470D01*
X145349170Y-123718764D01*
X145368218Y-123708583D01*
X145388896Y-123702311D01*
X145412353Y-123700000D01*
X145697647Y-123700000D01*
X145721104Y-123702311D01*
G37*
G36*
X146611104Y-123702311D02*
G01*
X146631782Y-123708583D01*
X146650830Y-123718764D01*
X146667530Y-123732470D01*
X146681236Y-123749170D01*
X146691417Y-123768218D01*
X146697689Y-123788896D01*
X146700000Y-123812353D01*
X146700000Y-124187647D01*
X146697689Y-124211104D01*
X146691417Y-124231782D01*
X146681236Y-124250830D01*
X146667530Y-124267530D01*
X146650830Y-124281236D01*
X146631782Y-124291417D01*
X146611104Y-124297689D01*
X146587647Y-124300000D01*
X146302353Y-124300000D01*
X146278896Y-124297689D01*
X146258218Y-124291417D01*
X146239170Y-124281236D01*
X146222470Y-124267530D01*
X146208764Y-124250830D01*
X146198583Y-124231782D01*
X146192311Y-124211104D01*
X146190000Y-124187647D01*
X146190000Y-123812353D01*
X146192311Y-123788896D01*
X146198583Y-123768218D01*
X146208764Y-123749170D01*
X146222470Y-123732470D01*
X146239170Y-123718764D01*
X146258218Y-123708583D01*
X146278896Y-123702311D01*
X146302353Y-123700000D01*
X146587647Y-123700000D01*
X146611104Y-123702311D01*
G37*
G36*
X144324107Y-123866165D02*
G01*
X144333597Y-123869043D01*
X144342332Y-123873712D01*
X144349997Y-123880003D01*
X144356288Y-123887668D01*
X144360957Y-123896403D01*
X144363835Y-123905893D01*
X144365000Y-123917717D01*
X144365000Y-124082283D01*
X144363835Y-124094107D01*
X144360957Y-124103597D01*
X144356288Y-124112332D01*
X144349997Y-124119997D01*
X144342332Y-124126288D01*
X144333597Y-124130957D01*
X144324107Y-124133835D01*
X144312283Y-124135000D01*
X143557717Y-124135000D01*
X143545893Y-124133835D01*
X143536403Y-124130957D01*
X143527668Y-124126288D01*
X143520003Y-124119997D01*
X143513712Y-124112332D01*
X143509043Y-124103597D01*
X143506165Y-124094107D01*
X143505000Y-124082283D01*
X143505000Y-123917717D01*
X143506165Y-123905893D01*
X143509043Y-123896403D01*
X143513712Y-123887668D01*
X143520003Y-123880003D01*
X143527668Y-123873712D01*
X143536403Y-123869043D01*
X143545893Y-123866165D01*
X143557717Y-123865000D01*
X144312283Y-123865000D01*
X144324107Y-123866165D01*
G37*
G36*
X140454107Y-123866165D02*
G01*
X140463597Y-123869043D01*
X140472332Y-123873712D01*
X140479997Y-123880003D01*
X140486288Y-123887668D01*
X140490957Y-123896403D01*
X140493835Y-123905893D01*
X140495000Y-123917717D01*
X140495000Y-124082283D01*
X140493835Y-124094107D01*
X140490957Y-124103597D01*
X140486288Y-124112332D01*
X140479997Y-124119997D01*
X140472332Y-124126288D01*
X140463597Y-124130957D01*
X140454107Y-124133835D01*
X140442283Y-124135000D01*
X139687717Y-124135000D01*
X139675893Y-124133835D01*
X139666403Y-124130957D01*
X139657668Y-124126288D01*
X139650003Y-124119997D01*
X139643712Y-124112332D01*
X139639043Y-124103597D01*
X139636165Y-124094107D01*
X139635000Y-124082283D01*
X139635000Y-123917717D01*
X139636165Y-123905893D01*
X139639043Y-123896403D01*
X139643712Y-123887668D01*
X139650003Y-123880003D01*
X139657668Y-123873712D01*
X139666403Y-123869043D01*
X139675893Y-123866165D01*
X139687717Y-123865000D01*
X140442283Y-123865000D01*
X140454107Y-123866165D01*
G37*
G36*
X157054830Y-123094609D02*
G01*
X157097943Y-123107686D01*
X157137673Y-123128923D01*
X157172497Y-123157503D01*
X157201077Y-123192327D01*
X157222314Y-123232057D01*
X157235391Y-123275170D01*
X157240000Y-123321961D01*
X157240000Y-123878039D01*
X157235391Y-123924830D01*
X157222314Y-123967943D01*
X157201077Y-124007673D01*
X157172497Y-124042497D01*
X157137673Y-124071077D01*
X157097943Y-124092314D01*
X157054830Y-124105391D01*
X157008039Y-124110000D01*
X156471961Y-124110000D01*
X156425170Y-124105391D01*
X156382057Y-124092314D01*
X156342327Y-124071077D01*
X156307503Y-124042497D01*
X156278923Y-124007673D01*
X156257686Y-123967943D01*
X156244609Y-123924830D01*
X156240000Y-123878039D01*
X156240000Y-123321961D01*
X156244609Y-123275170D01*
X156257686Y-123232057D01*
X156278923Y-123192327D01*
X156307503Y-123157503D01*
X156342327Y-123128923D01*
X156382057Y-123107686D01*
X156425170Y-123094609D01*
X156471961Y-123090000D01*
X157008039Y-123090000D01*
X157054830Y-123094609D01*
G37*
G36*
X158574830Y-123094609D02*
G01*
X158617943Y-123107686D01*
X158657673Y-123128923D01*
X158692497Y-123157503D01*
X158721077Y-123192327D01*
X158742314Y-123232057D01*
X158755391Y-123275170D01*
X158760000Y-123321961D01*
X158760000Y-123878039D01*
X158755391Y-123924830D01*
X158742314Y-123967943D01*
X158721077Y-124007673D01*
X158692497Y-124042497D01*
X158657673Y-124071077D01*
X158617943Y-124092314D01*
X158574830Y-124105391D01*
X158528039Y-124110000D01*
X157991961Y-124110000D01*
X157945170Y-124105391D01*
X157902057Y-124092314D01*
X157862327Y-124071077D01*
X157827503Y-124042497D01*
X157798923Y-124007673D01*
X157777686Y-123967943D01*
X157764609Y-123924830D01*
X157760000Y-123878039D01*
X157760000Y-123321961D01*
X157764609Y-123275170D01*
X157777686Y-123232057D01*
X157798923Y-123192327D01*
X157827503Y-123157503D01*
X157862327Y-123128923D01*
X157902057Y-123107686D01*
X157945170Y-123094609D01*
X157991961Y-123090000D01*
X158528039Y-123090000D01*
X158574830Y-123094609D01*
G37*
G36*
X140454107Y-123366165D02*
G01*
X140463597Y-123369043D01*
X140472332Y-123373712D01*
X140479997Y-123380003D01*
X140486288Y-123387668D01*
X140490957Y-123396403D01*
X140493835Y-123405893D01*
X140495000Y-123417717D01*
X140495000Y-123582283D01*
X140493835Y-123594107D01*
X140490957Y-123603597D01*
X140486288Y-123612332D01*
X140479997Y-123619997D01*
X140472332Y-123626288D01*
X140463597Y-123630957D01*
X140454107Y-123633835D01*
X140442283Y-123635000D01*
X139687717Y-123635000D01*
X139675893Y-123633835D01*
X139666403Y-123630957D01*
X139657668Y-123626288D01*
X139650003Y-123619997D01*
X139643712Y-123612332D01*
X139639043Y-123603597D01*
X139636165Y-123594107D01*
X139635000Y-123582283D01*
X139635000Y-123417717D01*
X139636165Y-123405893D01*
X139639043Y-123396403D01*
X139643712Y-123387668D01*
X139650003Y-123380003D01*
X139657668Y-123373712D01*
X139666403Y-123369043D01*
X139675893Y-123366165D01*
X139687717Y-123365000D01*
X140442283Y-123365000D01*
X140454107Y-123366165D01*
G37*
G36*
X144324107Y-123366165D02*
G01*
X144333597Y-123369043D01*
X144342332Y-123373712D01*
X144349997Y-123380003D01*
X144356288Y-123387668D01*
X144360957Y-123396403D01*
X144363835Y-123405893D01*
X144365000Y-123417717D01*
X144365000Y-123582283D01*
X144363835Y-123594107D01*
X144360957Y-123603597D01*
X144356288Y-123612332D01*
X144349997Y-123619997D01*
X144342332Y-123626288D01*
X144333597Y-123630957D01*
X144324107Y-123633835D01*
X144312283Y-123635000D01*
X143557717Y-123635000D01*
X143545893Y-123633835D01*
X143536403Y-123630957D01*
X143527668Y-123626288D01*
X143520003Y-123619997D01*
X143513712Y-123612332D01*
X143509043Y-123603597D01*
X143506165Y-123594107D01*
X143505000Y-123582283D01*
X143505000Y-123417717D01*
X143506165Y-123405893D01*
X143509043Y-123396403D01*
X143513712Y-123387668D01*
X143520003Y-123380003D01*
X143527668Y-123373712D01*
X143536403Y-123369043D01*
X143545893Y-123366165D01*
X143557717Y-123365000D01*
X144312283Y-123365000D01*
X144324107Y-123366165D01*
G37*
G36*
X140454107Y-122866165D02*
G01*
X140463597Y-122869043D01*
X140472332Y-122873712D01*
X140479997Y-122880003D01*
X140486288Y-122887668D01*
X140490957Y-122896403D01*
X140493835Y-122905893D01*
X140495000Y-122917717D01*
X140495000Y-123082283D01*
X140493835Y-123094107D01*
X140490957Y-123103597D01*
X140486288Y-123112332D01*
X140479997Y-123119997D01*
X140472332Y-123126288D01*
X140463597Y-123130957D01*
X140454107Y-123133835D01*
X140442283Y-123135000D01*
X139687717Y-123135000D01*
X139675893Y-123133835D01*
X139666403Y-123130957D01*
X139657668Y-123126288D01*
X139650003Y-123119997D01*
X139643712Y-123112332D01*
X139639043Y-123103597D01*
X139636165Y-123094107D01*
X139635000Y-123082283D01*
X139635000Y-122917717D01*
X139636165Y-122905893D01*
X139639043Y-122896403D01*
X139643712Y-122887668D01*
X139650003Y-122880003D01*
X139657668Y-122873712D01*
X139666403Y-122869043D01*
X139675893Y-122866165D01*
X139687717Y-122865000D01*
X140442283Y-122865000D01*
X140454107Y-122866165D01*
G37*
G36*
X144324107Y-122866165D02*
G01*
X144333597Y-122869043D01*
X144342332Y-122873712D01*
X144349997Y-122880003D01*
X144356288Y-122887668D01*
X144360957Y-122896403D01*
X144363835Y-122905893D01*
X144365000Y-122917717D01*
X144365000Y-123082283D01*
X144363835Y-123094107D01*
X144360957Y-123103597D01*
X144356288Y-123112332D01*
X144349997Y-123119997D01*
X144342332Y-123126288D01*
X144333597Y-123130957D01*
X144324107Y-123133835D01*
X144312283Y-123135000D01*
X143557717Y-123135000D01*
X143545893Y-123133835D01*
X143536403Y-123130957D01*
X143527668Y-123126288D01*
X143520003Y-123119997D01*
X143513712Y-123112332D01*
X143509043Y-123103597D01*
X143506165Y-123094107D01*
X143505000Y-123082283D01*
X143505000Y-122917717D01*
X143506165Y-122905893D01*
X143509043Y-122896403D01*
X143513712Y-122887668D01*
X143520003Y-122880003D01*
X143527668Y-122873712D01*
X143536403Y-122869043D01*
X143545893Y-122866165D01*
X143557717Y-122865000D01*
X144312283Y-122865000D01*
X144324107Y-122866165D01*
G37*
G36*
X146611104Y-122202311D02*
G01*
X146631782Y-122208583D01*
X146650830Y-122218764D01*
X146667530Y-122232470D01*
X146681236Y-122249170D01*
X146691417Y-122268218D01*
X146697689Y-122288896D01*
X146700000Y-122312353D01*
X146700000Y-122687647D01*
X146697689Y-122711104D01*
X146691417Y-122731782D01*
X146681236Y-122750830D01*
X146667530Y-122767530D01*
X146650830Y-122781236D01*
X146631782Y-122791417D01*
X146611104Y-122797689D01*
X146587647Y-122800000D01*
X146302353Y-122800000D01*
X146278896Y-122797689D01*
X146258218Y-122791417D01*
X146239170Y-122781236D01*
X146222470Y-122767530D01*
X146208764Y-122750830D01*
X146198583Y-122731782D01*
X146192311Y-122711104D01*
X146190000Y-122687647D01*
X146190000Y-122312353D01*
X146192311Y-122288896D01*
X146198583Y-122268218D01*
X146208764Y-122249170D01*
X146222470Y-122232470D01*
X146239170Y-122218764D01*
X146258218Y-122208583D01*
X146278896Y-122202311D01*
X146302353Y-122200000D01*
X146587647Y-122200000D01*
X146611104Y-122202311D01*
G37*
G36*
X145721104Y-122202311D02*
G01*
X145741782Y-122208583D01*
X145760830Y-122218764D01*
X145777530Y-122232470D01*
X145791236Y-122249170D01*
X145801417Y-122268218D01*
X145807689Y-122288896D01*
X145810000Y-122312353D01*
X145810000Y-122687647D01*
X145807689Y-122711104D01*
X145801417Y-122731782D01*
X145791236Y-122750830D01*
X145777530Y-122767530D01*
X145760830Y-122781236D01*
X145741782Y-122791417D01*
X145721104Y-122797689D01*
X145697647Y-122800000D01*
X145412353Y-122800000D01*
X145388896Y-122797689D01*
X145368218Y-122791417D01*
X145349170Y-122781236D01*
X145332470Y-122767530D01*
X145318764Y-122750830D01*
X145308583Y-122731782D01*
X145302311Y-122711104D01*
X145300000Y-122687647D01*
X145300000Y-122312353D01*
X145302311Y-122288896D01*
X145308583Y-122268218D01*
X145318764Y-122249170D01*
X145332470Y-122232470D01*
X145349170Y-122218764D01*
X145368218Y-122208583D01*
X145388896Y-122202311D01*
X145412353Y-122200000D01*
X145697647Y-122200000D01*
X145721104Y-122202311D01*
G37*
G36*
X140454107Y-122366165D02*
G01*
X140463597Y-122369043D01*
X140472332Y-122373712D01*
X140479997Y-122380003D01*
X140486288Y-122387668D01*
X140490957Y-122396403D01*
X140493835Y-122405893D01*
X140495000Y-122417717D01*
X140495000Y-122582283D01*
X140493835Y-122594107D01*
X140490957Y-122603597D01*
X140486288Y-122612332D01*
X140479997Y-122619997D01*
X140472332Y-122626288D01*
X140463597Y-122630957D01*
X140454107Y-122633835D01*
X140442283Y-122635000D01*
X139687717Y-122635000D01*
X139675893Y-122633835D01*
X139666403Y-122630957D01*
X139657668Y-122626288D01*
X139650003Y-122619997D01*
X139643712Y-122612332D01*
X139639043Y-122603597D01*
X139636165Y-122594107D01*
X139635000Y-122582283D01*
X139635000Y-122417717D01*
X139636165Y-122405893D01*
X139639043Y-122396403D01*
X139643712Y-122387668D01*
X139650003Y-122380003D01*
X139657668Y-122373712D01*
X139666403Y-122369043D01*
X139675893Y-122366165D01*
X139687717Y-122365000D01*
X140442283Y-122365000D01*
X140454107Y-122366165D01*
G37*
G36*
X144324107Y-122366165D02*
G01*
X144333597Y-122369043D01*
X144342332Y-122373712D01*
X144349997Y-122380003D01*
X144356288Y-122387668D01*
X144360957Y-122396403D01*
X144363835Y-122405893D01*
X144365000Y-122417717D01*
X144365000Y-122582283D01*
X144363835Y-122594107D01*
X144360957Y-122603597D01*
X144356288Y-122612332D01*
X144349997Y-122619997D01*
X144342332Y-122626288D01*
X144333597Y-122630957D01*
X144324107Y-122633835D01*
X144312283Y-122635000D01*
X143557717Y-122635000D01*
X143545893Y-122633835D01*
X143536403Y-122630957D01*
X143527668Y-122626288D01*
X143520003Y-122619997D01*
X143513712Y-122612332D01*
X143509043Y-122603597D01*
X143506165Y-122594107D01*
X143505000Y-122582283D01*
X143505000Y-122417717D01*
X143506165Y-122405893D01*
X143509043Y-122396403D01*
X143513712Y-122387668D01*
X143520003Y-122380003D01*
X143527668Y-122373712D01*
X143536403Y-122369043D01*
X143545893Y-122366165D01*
X143557717Y-122365000D01*
X144312283Y-122365000D01*
X144324107Y-122366165D01*
G37*
G36*
X157106169Y-121906354D02*
G01*
X157117503Y-121909792D01*
X157127950Y-121915376D01*
X157137108Y-121922892D01*
X157144624Y-121932050D01*
X157150208Y-121942497D01*
X157153646Y-121953831D01*
X157155000Y-121967580D01*
X157155000Y-122502420D01*
X157153646Y-122516169D01*
X157150208Y-122527503D01*
X157144624Y-122537950D01*
X157137108Y-122547108D01*
X157127950Y-122554624D01*
X157117503Y-122560208D01*
X157106169Y-122563646D01*
X157092420Y-122565000D01*
X156907580Y-122565000D01*
X156893831Y-122563646D01*
X156882497Y-122560208D01*
X156872050Y-122554624D01*
X156862892Y-122547108D01*
X156855376Y-122537950D01*
X156849792Y-122527503D01*
X156846354Y-122516169D01*
X156845000Y-122502420D01*
X156845000Y-121967580D01*
X156846354Y-121953831D01*
X156849792Y-121942497D01*
X156855376Y-121932050D01*
X156862892Y-121922892D01*
X156872050Y-121915376D01*
X156882497Y-121909792D01*
X156893831Y-121906354D01*
X156907580Y-121905000D01*
X157092420Y-121905000D01*
X157106169Y-121906354D01*
G37*
G36*
X158106133Y-121906354D02*
G01*
X158117482Y-121909797D01*
X158127936Y-121915385D01*
X158137097Y-121922903D01*
X158144615Y-121932064D01*
X158150203Y-121942518D01*
X158153646Y-121953867D01*
X158155000Y-121967619D01*
X158155000Y-122502381D01*
X158153646Y-122516133D01*
X158150203Y-122527482D01*
X158144615Y-122537936D01*
X158137097Y-122547097D01*
X158127936Y-122554615D01*
X158117482Y-122560203D01*
X158106133Y-122563646D01*
X158092381Y-122565000D01*
X157907619Y-122565000D01*
X157893867Y-122563646D01*
X157882518Y-122560203D01*
X157872064Y-122554615D01*
X157862903Y-122547097D01*
X157855385Y-122537936D01*
X157849797Y-122527482D01*
X157846354Y-122516133D01*
X157845000Y-122502381D01*
X157845000Y-121967619D01*
X157846354Y-121953867D01*
X157849797Y-121942518D01*
X157855385Y-121932064D01*
X157862903Y-121922903D01*
X157872064Y-121915385D01*
X157882518Y-121909797D01*
X157893867Y-121906354D01*
X157907619Y-121905000D01*
X158092381Y-121905000D01*
X158106133Y-121906354D01*
G37*
G36*
X157606133Y-121906354D02*
G01*
X157617482Y-121909797D01*
X157627936Y-121915385D01*
X157637097Y-121922903D01*
X157644615Y-121932064D01*
X157650203Y-121942518D01*
X157653646Y-121953867D01*
X157655000Y-121967619D01*
X157655000Y-122502381D01*
X157653646Y-122516133D01*
X157650203Y-122527482D01*
X157644615Y-122537936D01*
X157637097Y-122547097D01*
X157627936Y-122554615D01*
X157617482Y-122560203D01*
X157606133Y-122563646D01*
X157592381Y-122565000D01*
X157407619Y-122565000D01*
X157393867Y-122563646D01*
X157382518Y-122560203D01*
X157372064Y-122554615D01*
X157362903Y-122547097D01*
X157355385Y-122537936D01*
X157349797Y-122527482D01*
X157346354Y-122516133D01*
X157345000Y-122502381D01*
X157345000Y-121967619D01*
X157346354Y-121953867D01*
X157349797Y-121942518D01*
X157355385Y-121932064D01*
X157362903Y-121922903D01*
X157372064Y-121915385D01*
X157382518Y-121909797D01*
X157393867Y-121906354D01*
X157407619Y-121905000D01*
X157592381Y-121905000D01*
X157606133Y-121906354D01*
G37*
G36*
X162111104Y-121902311D02*
G01*
X162131782Y-121908583D01*
X162150830Y-121918764D01*
X162167530Y-121932470D01*
X162181236Y-121949170D01*
X162191417Y-121968218D01*
X162197689Y-121988896D01*
X162200000Y-122012353D01*
X162200000Y-122387647D01*
X162197689Y-122411104D01*
X162191417Y-122431782D01*
X162181236Y-122450830D01*
X162167530Y-122467530D01*
X162150830Y-122481236D01*
X162131782Y-122491417D01*
X162111104Y-122497689D01*
X162087647Y-122500000D01*
X161802353Y-122500000D01*
X161778896Y-122497689D01*
X161758218Y-122491417D01*
X161739170Y-122481236D01*
X161722470Y-122467530D01*
X161708764Y-122450830D01*
X161698583Y-122431782D01*
X161692311Y-122411104D01*
X161690000Y-122387647D01*
X161690000Y-122012353D01*
X161692311Y-121988896D01*
X161698583Y-121968218D01*
X161708764Y-121949170D01*
X161722470Y-121932470D01*
X161739170Y-121918764D01*
X161758218Y-121908583D01*
X161778896Y-121902311D01*
X161802353Y-121900000D01*
X162087647Y-121900000D01*
X162111104Y-121902311D01*
G37*
G36*
X161221104Y-121902311D02*
G01*
X161241782Y-121908583D01*
X161260830Y-121918764D01*
X161277530Y-121932470D01*
X161291236Y-121949170D01*
X161301417Y-121968218D01*
X161307689Y-121988896D01*
X161310000Y-122012353D01*
X161310000Y-122387647D01*
X161307689Y-122411104D01*
X161301417Y-122431782D01*
X161291236Y-122450830D01*
X161277530Y-122467530D01*
X161260830Y-122481236D01*
X161241782Y-122491417D01*
X161221104Y-122497689D01*
X161197647Y-122500000D01*
X160912353Y-122500000D01*
X160888896Y-122497689D01*
X160868218Y-122491417D01*
X160849170Y-122481236D01*
X160832470Y-122467530D01*
X160818764Y-122450830D01*
X160808583Y-122431782D01*
X160802311Y-122411104D01*
X160800000Y-122387647D01*
X160800000Y-122012353D01*
X160802311Y-121988896D01*
X160808583Y-121968218D01*
X160818764Y-121949170D01*
X160832470Y-121932470D01*
X160849170Y-121918764D01*
X160868218Y-121908583D01*
X160888896Y-121902311D01*
X160912353Y-121900000D01*
X161197647Y-121900000D01*
X161221104Y-121902311D01*
G37*
G36*
X159221104Y-121902311D02*
G01*
X159241782Y-121908583D01*
X159260830Y-121918764D01*
X159277530Y-121932470D01*
X159291236Y-121949170D01*
X159301417Y-121968218D01*
X159307689Y-121988896D01*
X159310000Y-122012353D01*
X159310000Y-122387647D01*
X159307689Y-122411104D01*
X159301417Y-122431782D01*
X159291236Y-122450830D01*
X159277530Y-122467530D01*
X159260830Y-122481236D01*
X159241782Y-122491417D01*
X159221104Y-122497689D01*
X159197647Y-122500000D01*
X158912353Y-122500000D01*
X158888896Y-122497689D01*
X158868218Y-122491417D01*
X158849170Y-122481236D01*
X158832470Y-122467530D01*
X158818764Y-122450830D01*
X158808583Y-122431782D01*
X158802311Y-122411104D01*
X158800000Y-122387647D01*
X158800000Y-122012353D01*
X158802311Y-121988896D01*
X158808583Y-121968218D01*
X158818764Y-121949170D01*
X158832470Y-121932470D01*
X158849170Y-121918764D01*
X158868218Y-121908583D01*
X158888896Y-121902311D01*
X158912353Y-121900000D01*
X159197647Y-121900000D01*
X159221104Y-121902311D01*
G37*
G36*
X160111104Y-121902311D02*
G01*
X160131782Y-121908583D01*
X160150830Y-121918764D01*
X160167530Y-121932470D01*
X160181236Y-121949170D01*
X160191417Y-121968218D01*
X160197689Y-121988896D01*
X160200000Y-122012353D01*
X160200000Y-122387647D01*
X160197689Y-122411104D01*
X160191417Y-122431782D01*
X160181236Y-122450830D01*
X160167530Y-122467530D01*
X160150830Y-122481236D01*
X160131782Y-122491417D01*
X160111104Y-122497689D01*
X160087647Y-122500000D01*
X159802353Y-122500000D01*
X159778896Y-122497689D01*
X159758218Y-122491417D01*
X159739170Y-122481236D01*
X159722470Y-122467530D01*
X159708764Y-122450830D01*
X159698583Y-122431782D01*
X159692311Y-122411104D01*
X159690000Y-122387647D01*
X159690000Y-122012353D01*
X159692311Y-121988896D01*
X159698583Y-121968218D01*
X159708764Y-121949170D01*
X159722470Y-121932470D01*
X159739170Y-121918764D01*
X159758218Y-121908583D01*
X159778896Y-121902311D01*
X159802353Y-121900000D01*
X160087647Y-121900000D01*
X160111104Y-121902311D01*
G37*
G36*
X141094107Y-121136165D02*
G01*
X141103597Y-121139043D01*
X141112332Y-121143712D01*
X141119997Y-121150003D01*
X141126288Y-121157668D01*
X141130957Y-121166403D01*
X141133835Y-121175893D01*
X141135000Y-121187717D01*
X141135000Y-121942283D01*
X141133835Y-121954107D01*
X141130957Y-121963597D01*
X141126288Y-121972332D01*
X141119997Y-121979997D01*
X141112332Y-121986288D01*
X141103597Y-121990957D01*
X141094107Y-121993835D01*
X141082283Y-121995000D01*
X140917717Y-121995000D01*
X140905893Y-121993835D01*
X140896403Y-121990957D01*
X140887668Y-121986288D01*
X140880003Y-121979997D01*
X140873712Y-121972332D01*
X140869043Y-121963597D01*
X140866165Y-121954107D01*
X140865000Y-121942283D01*
X140865000Y-121187717D01*
X140866165Y-121175893D01*
X140869043Y-121166403D01*
X140873712Y-121157668D01*
X140880003Y-121150003D01*
X140887668Y-121143712D01*
X140896403Y-121139043D01*
X140905893Y-121136165D01*
X140917717Y-121135000D01*
X141082283Y-121135000D01*
X141094107Y-121136165D01*
G37*
G36*
X142594107Y-121136165D02*
G01*
X142603597Y-121139043D01*
X142612332Y-121143712D01*
X142619997Y-121150003D01*
X142626288Y-121157668D01*
X142630957Y-121166403D01*
X142633835Y-121175893D01*
X142635000Y-121187717D01*
X142635000Y-121942283D01*
X142633835Y-121954107D01*
X142630957Y-121963597D01*
X142626288Y-121972332D01*
X142619997Y-121979997D01*
X142612332Y-121986288D01*
X142603597Y-121990957D01*
X142594107Y-121993835D01*
X142582283Y-121995000D01*
X142417717Y-121995000D01*
X142405893Y-121993835D01*
X142396403Y-121990957D01*
X142387668Y-121986288D01*
X142380003Y-121979997D01*
X142373712Y-121972332D01*
X142369043Y-121963597D01*
X142366165Y-121954107D01*
X142365000Y-121942283D01*
X142365000Y-121187717D01*
X142366165Y-121175893D01*
X142369043Y-121166403D01*
X142373712Y-121157668D01*
X142380003Y-121150003D01*
X142387668Y-121143712D01*
X142396403Y-121139043D01*
X142405893Y-121136165D01*
X142417717Y-121135000D01*
X142582283Y-121135000D01*
X142594107Y-121136165D01*
G37*
G36*
X141594107Y-121136165D02*
G01*
X141603597Y-121139043D01*
X141612332Y-121143712D01*
X141619997Y-121150003D01*
X141626288Y-121157668D01*
X141630957Y-121166403D01*
X141633835Y-121175893D01*
X141635000Y-121187717D01*
X141635000Y-121942283D01*
X141633835Y-121954107D01*
X141630957Y-121963597D01*
X141626288Y-121972332D01*
X141619997Y-121979997D01*
X141612332Y-121986288D01*
X141603597Y-121990957D01*
X141594107Y-121993835D01*
X141582283Y-121995000D01*
X141417717Y-121995000D01*
X141405893Y-121993835D01*
X141396403Y-121990957D01*
X141387668Y-121986288D01*
X141380003Y-121979997D01*
X141373712Y-121972332D01*
X141369043Y-121963597D01*
X141366165Y-121954107D01*
X141365000Y-121942283D01*
X141365000Y-121187717D01*
X141366165Y-121175893D01*
X141369043Y-121166403D01*
X141373712Y-121157668D01*
X141380003Y-121150003D01*
X141387668Y-121143712D01*
X141396403Y-121139043D01*
X141405893Y-121136165D01*
X141417717Y-121135000D01*
X141582283Y-121135000D01*
X141594107Y-121136165D01*
G37*
G36*
X142094107Y-121136165D02*
G01*
X142103597Y-121139043D01*
X142112332Y-121143712D01*
X142119997Y-121150003D01*
X142126288Y-121157668D01*
X142130957Y-121166403D01*
X142133835Y-121175893D01*
X142135000Y-121187717D01*
X142135000Y-121942283D01*
X142133835Y-121954107D01*
X142130957Y-121963597D01*
X142126288Y-121972332D01*
X142119997Y-121979997D01*
X142112332Y-121986288D01*
X142103597Y-121990957D01*
X142094107Y-121993835D01*
X142082283Y-121995000D01*
X141917717Y-121995000D01*
X141905893Y-121993835D01*
X141896403Y-121990957D01*
X141887668Y-121986288D01*
X141880003Y-121979997D01*
X141873712Y-121972332D01*
X141869043Y-121963597D01*
X141866165Y-121954107D01*
X141865000Y-121942283D01*
X141865000Y-121187717D01*
X141866165Y-121175893D01*
X141869043Y-121166403D01*
X141873712Y-121157668D01*
X141880003Y-121150003D01*
X141887668Y-121143712D01*
X141896403Y-121139043D01*
X141905893Y-121136165D01*
X141917717Y-121135000D01*
X142082283Y-121135000D01*
X142094107Y-121136165D01*
G37*
G36*
X143094107Y-121136165D02*
G01*
X143103597Y-121139043D01*
X143112332Y-121143712D01*
X143119997Y-121150003D01*
X143126288Y-121157668D01*
X143130957Y-121166403D01*
X143133835Y-121175893D01*
X143135000Y-121187717D01*
X143135000Y-121942283D01*
X143133835Y-121954107D01*
X143130957Y-121963597D01*
X143126288Y-121972332D01*
X143119997Y-121979997D01*
X143112332Y-121986288D01*
X143103597Y-121990957D01*
X143094107Y-121993835D01*
X143082283Y-121995000D01*
X142917717Y-121995000D01*
X142905893Y-121993835D01*
X142896403Y-121990957D01*
X142887668Y-121986288D01*
X142880003Y-121979997D01*
X142873712Y-121972332D01*
X142869043Y-121963597D01*
X142866165Y-121954107D01*
X142865000Y-121942283D01*
X142865000Y-121187717D01*
X142866165Y-121175893D01*
X142869043Y-121166403D01*
X142873712Y-121157668D01*
X142880003Y-121150003D01*
X142887668Y-121143712D01*
X142896403Y-121139043D01*
X142905893Y-121136165D01*
X142917717Y-121135000D01*
X143082283Y-121135000D01*
X143094107Y-121136165D01*
G37*
G36*
X155350000Y-121975000D02*
G01*
X151650000Y-121975000D01*
X151650000Y-120995000D01*
X155350000Y-120995000D01*
X155350000Y-121975000D01*
G37*
G36*
X145742756Y-121202510D02*
G01*
X145765374Y-121209371D01*
X145786219Y-121220513D01*
X145804491Y-121235509D01*
X145819487Y-121253781D01*
X145830629Y-121274626D01*
X145837490Y-121297244D01*
X145840000Y-121322726D01*
X145840000Y-121677274D01*
X145837490Y-121702756D01*
X145830629Y-121725374D01*
X145819487Y-121746219D01*
X145804491Y-121764491D01*
X145786219Y-121779487D01*
X145765374Y-121790629D01*
X145742756Y-121797490D01*
X145717274Y-121800000D01*
X145422726Y-121800000D01*
X145397244Y-121797490D01*
X145374626Y-121790629D01*
X145353781Y-121779487D01*
X145335509Y-121764491D01*
X145320513Y-121746219D01*
X145309371Y-121725374D01*
X145302510Y-121702756D01*
X145300000Y-121677274D01*
X145300000Y-121322726D01*
X145302510Y-121297244D01*
X145309371Y-121274626D01*
X145320513Y-121253781D01*
X145335509Y-121235509D01*
X145353781Y-121220513D01*
X145374626Y-121209371D01*
X145397244Y-121202510D01*
X145422726Y-121200000D01*
X145717274Y-121200000D01*
X145742756Y-121202510D01*
G37*
G36*
X146602756Y-121202510D02*
G01*
X146625374Y-121209371D01*
X146646219Y-121220513D01*
X146664491Y-121235509D01*
X146679487Y-121253781D01*
X146690629Y-121274626D01*
X146697490Y-121297244D01*
X146700000Y-121322726D01*
X146700000Y-121677274D01*
X146697490Y-121702756D01*
X146690629Y-121725374D01*
X146679487Y-121746219D01*
X146664491Y-121764491D01*
X146646219Y-121779487D01*
X146625374Y-121790629D01*
X146602756Y-121797490D01*
X146577274Y-121800000D01*
X146282726Y-121800000D01*
X146257244Y-121797490D01*
X146234626Y-121790629D01*
X146213781Y-121779487D01*
X146195509Y-121764491D01*
X146180513Y-121746219D01*
X146169371Y-121725374D01*
X146162510Y-121702756D01*
X146160000Y-121677274D01*
X146160000Y-121322726D01*
X146162510Y-121297244D01*
X146169371Y-121274626D01*
X146180513Y-121253781D01*
X146195509Y-121235509D01*
X146213781Y-121220513D01*
X146234626Y-121209371D01*
X146257244Y-121202510D01*
X146282726Y-121200000D01*
X146577274Y-121200000D01*
X146602756Y-121202510D01*
G37*
G36*
X159221104Y-120502311D02*
G01*
X159241782Y-120508583D01*
X159260830Y-120518764D01*
X159277530Y-120532470D01*
X159291236Y-120549170D01*
X159301417Y-120568218D01*
X159307689Y-120588896D01*
X159310000Y-120612353D01*
X159310000Y-120987647D01*
X159307689Y-121011104D01*
X159301417Y-121031782D01*
X159291236Y-121050830D01*
X159277530Y-121067530D01*
X159260830Y-121081236D01*
X159241782Y-121091417D01*
X159221104Y-121097689D01*
X159197647Y-121100000D01*
X158912353Y-121100000D01*
X158888896Y-121097689D01*
X158868218Y-121091417D01*
X158849170Y-121081236D01*
X158832470Y-121067530D01*
X158818764Y-121050830D01*
X158808583Y-121031782D01*
X158802311Y-121011104D01*
X158800000Y-120987647D01*
X158800000Y-120612353D01*
X158802311Y-120588896D01*
X158808583Y-120568218D01*
X158818764Y-120549170D01*
X158832470Y-120532470D01*
X158849170Y-120518764D01*
X158868218Y-120508583D01*
X158888896Y-120502311D01*
X158912353Y-120500000D01*
X159197647Y-120500000D01*
X159221104Y-120502311D01*
G37*
G36*
X160111104Y-120502311D02*
G01*
X160131782Y-120508583D01*
X160150830Y-120518764D01*
X160167530Y-120532470D01*
X160181236Y-120549170D01*
X160191417Y-120568218D01*
X160197689Y-120588896D01*
X160200000Y-120612353D01*
X160200000Y-120987647D01*
X160197689Y-121011104D01*
X160191417Y-121031782D01*
X160181236Y-121050830D01*
X160167530Y-121067530D01*
X160150830Y-121081236D01*
X160131782Y-121091417D01*
X160111104Y-121097689D01*
X160087647Y-121100000D01*
X159802353Y-121100000D01*
X159778896Y-121097689D01*
X159758218Y-121091417D01*
X159739170Y-121081236D01*
X159722470Y-121067530D01*
X159708764Y-121050830D01*
X159698583Y-121031782D01*
X159692311Y-121011104D01*
X159690000Y-120987647D01*
X159690000Y-120612353D01*
X159692311Y-120588896D01*
X159698583Y-120568218D01*
X159708764Y-120549170D01*
X159722470Y-120532470D01*
X159739170Y-120518764D01*
X159758218Y-120508583D01*
X159778896Y-120502311D01*
X159802353Y-120500000D01*
X160087647Y-120500000D01*
X160111104Y-120502311D01*
G37*
G36*
X157106169Y-120436354D02*
G01*
X157117503Y-120439792D01*
X157127950Y-120445376D01*
X157137108Y-120452892D01*
X157144624Y-120462050D01*
X157150208Y-120472497D01*
X157153646Y-120483831D01*
X157155000Y-120497580D01*
X157155000Y-121032420D01*
X157153646Y-121046169D01*
X157150208Y-121057503D01*
X157144624Y-121067950D01*
X157137108Y-121077108D01*
X157127950Y-121084624D01*
X157117503Y-121090208D01*
X157106169Y-121093646D01*
X157092420Y-121095000D01*
X156907580Y-121095000D01*
X156893831Y-121093646D01*
X156882497Y-121090208D01*
X156872050Y-121084624D01*
X156862892Y-121077108D01*
X156855376Y-121067950D01*
X156849792Y-121057503D01*
X156846354Y-121046169D01*
X156845000Y-121032420D01*
X156845000Y-120497580D01*
X156846354Y-120483831D01*
X156849792Y-120472497D01*
X156855376Y-120462050D01*
X156862892Y-120452892D01*
X156872050Y-120445376D01*
X156882497Y-120439792D01*
X156893831Y-120436354D01*
X156907580Y-120435000D01*
X157092420Y-120435000D01*
X157106169Y-120436354D01*
G37*
G36*
X157606169Y-120436354D02*
G01*
X157617503Y-120439792D01*
X157627950Y-120445376D01*
X157637108Y-120452892D01*
X157644624Y-120462050D01*
X157650208Y-120472497D01*
X157653646Y-120483831D01*
X157655000Y-120497580D01*
X157655000Y-121032420D01*
X157653646Y-121046169D01*
X157650208Y-121057503D01*
X157644624Y-121067950D01*
X157637108Y-121077108D01*
X157627950Y-121084624D01*
X157617503Y-121090208D01*
X157606169Y-121093646D01*
X157592420Y-121095000D01*
X157407580Y-121095000D01*
X157393831Y-121093646D01*
X157382497Y-121090208D01*
X157372050Y-121084624D01*
X157362892Y-121077108D01*
X157355376Y-121067950D01*
X157349792Y-121057503D01*
X157346354Y-121046169D01*
X157345000Y-121032420D01*
X157345000Y-120497580D01*
X157346354Y-120483831D01*
X157349792Y-120472497D01*
X157355376Y-120462050D01*
X157362892Y-120452892D01*
X157372050Y-120445376D01*
X157382497Y-120439792D01*
X157393831Y-120436354D01*
X157407580Y-120435000D01*
X157592420Y-120435000D01*
X157606169Y-120436354D01*
G37*
G36*
X158106133Y-120436354D02*
G01*
X158117482Y-120439797D01*
X158127936Y-120445385D01*
X158137097Y-120452903D01*
X158144615Y-120462064D01*
X158150203Y-120472518D01*
X158153646Y-120483867D01*
X158155000Y-120497619D01*
X158155000Y-121032381D01*
X158153646Y-121046133D01*
X158150203Y-121057482D01*
X158144615Y-121067936D01*
X158137097Y-121077097D01*
X158127936Y-121084615D01*
X158117482Y-121090203D01*
X158106133Y-121093646D01*
X158092381Y-121095000D01*
X157907619Y-121095000D01*
X157893867Y-121093646D01*
X157882518Y-121090203D01*
X157872064Y-121084615D01*
X157862903Y-121077097D01*
X157855385Y-121067936D01*
X157849797Y-121057482D01*
X157846354Y-121046133D01*
X157845000Y-121032381D01*
X157845000Y-120497619D01*
X157846354Y-120483867D01*
X157849797Y-120472518D01*
X157855385Y-120462064D01*
X157862903Y-120452903D01*
X157872064Y-120445385D01*
X157882518Y-120439797D01*
X157893867Y-120436354D01*
X157907619Y-120435000D01*
X158092381Y-120435000D01*
X158106133Y-120436354D01*
G37*
G36*
X142747271Y-119622880D02*
G01*
X142773504Y-119630837D01*
X142797671Y-119643754D01*
X142818858Y-119661142D01*
X142836246Y-119682329D01*
X142849163Y-119706496D01*
X142857120Y-119732729D01*
X142860000Y-119761962D01*
X142860000Y-120118038D01*
X142857120Y-120147271D01*
X142849163Y-120173504D01*
X142836246Y-120197671D01*
X142818858Y-120218858D01*
X142797671Y-120236246D01*
X142773504Y-120249163D01*
X142747271Y-120257120D01*
X142718038Y-120260000D01*
X142281962Y-120260000D01*
X142252729Y-120257120D01*
X142226496Y-120249163D01*
X142202329Y-120236246D01*
X142181142Y-120218858D01*
X142163754Y-120197671D01*
X142150837Y-120173504D01*
X142142880Y-120147271D01*
X142140000Y-120118038D01*
X142140000Y-119761962D01*
X142142880Y-119732729D01*
X142150837Y-119706496D01*
X142163754Y-119682329D01*
X142181142Y-119661142D01*
X142202329Y-119643754D01*
X142226496Y-119630837D01*
X142252729Y-119622880D01*
X142281962Y-119620000D01*
X142718038Y-119620000D01*
X142747271Y-119622880D01*
G37*
G36*
X145802756Y-119662510D02*
G01*
X145825374Y-119669371D01*
X145846219Y-119680513D01*
X145864491Y-119695509D01*
X145879487Y-119713781D01*
X145890629Y-119734626D01*
X145897490Y-119757244D01*
X145900000Y-119782726D01*
X145900000Y-120077274D01*
X145897490Y-120102756D01*
X145890629Y-120125374D01*
X145879487Y-120146219D01*
X145864491Y-120164491D01*
X145846219Y-120179487D01*
X145825374Y-120190629D01*
X145802756Y-120197490D01*
X145777274Y-120200000D01*
X145422726Y-120200000D01*
X145397244Y-120197490D01*
X145374626Y-120190629D01*
X145353781Y-120179487D01*
X145335509Y-120164491D01*
X145320513Y-120146219D01*
X145309371Y-120125374D01*
X145302510Y-120102756D01*
X145300000Y-120077274D01*
X145300000Y-119782726D01*
X145302510Y-119757244D01*
X145309371Y-119734626D01*
X145320513Y-119713781D01*
X145335509Y-119695509D01*
X145353781Y-119680513D01*
X145374626Y-119669371D01*
X145397244Y-119662510D01*
X145422726Y-119660000D01*
X145777274Y-119660000D01*
X145802756Y-119662510D01*
G37*
G36*
X146811104Y-119692311D02*
G01*
X146831782Y-119698583D01*
X146850830Y-119708764D01*
X146867530Y-119722470D01*
X146881236Y-119739170D01*
X146891417Y-119758218D01*
X146897689Y-119778896D01*
X146900000Y-119802353D01*
X146900000Y-120087647D01*
X146897689Y-120111104D01*
X146891417Y-120131782D01*
X146881236Y-120150830D01*
X146867530Y-120167530D01*
X146850830Y-120181236D01*
X146831782Y-120191417D01*
X146811104Y-120197689D01*
X146787647Y-120200000D01*
X146412353Y-120200000D01*
X146388896Y-120197689D01*
X146368218Y-120191417D01*
X146349170Y-120181236D01*
X146332470Y-120167530D01*
X146318764Y-120150830D01*
X146308583Y-120131782D01*
X146302311Y-120111104D01*
X146300000Y-120087647D01*
X146300000Y-119802353D01*
X146302311Y-119778896D01*
X146308583Y-119758218D01*
X146318764Y-119739170D01*
X146332470Y-119722470D01*
X146349170Y-119708764D01*
X146368218Y-119698583D01*
X146388896Y-119692311D01*
X146412353Y-119690000D01*
X146787647Y-119690000D01*
X146811104Y-119692311D01*
G37*
G36*
X144802756Y-119662510D02*
G01*
X144825374Y-119669371D01*
X144846219Y-119680513D01*
X144864491Y-119695509D01*
X144879487Y-119713781D01*
X144890629Y-119734626D01*
X144897490Y-119757244D01*
X144900000Y-119782726D01*
X144900000Y-120077274D01*
X144897490Y-120102756D01*
X144890629Y-120125374D01*
X144879487Y-120146219D01*
X144864491Y-120164491D01*
X144846219Y-120179487D01*
X144825374Y-120190629D01*
X144802756Y-120197490D01*
X144777274Y-120200000D01*
X144422726Y-120200000D01*
X144397244Y-120197490D01*
X144374626Y-120190629D01*
X144353781Y-120179487D01*
X144335509Y-120164491D01*
X144320513Y-120146219D01*
X144309371Y-120125374D01*
X144302510Y-120102756D01*
X144300000Y-120077274D01*
X144300000Y-119782726D01*
X144302510Y-119757244D01*
X144309371Y-119734626D01*
X144320513Y-119713781D01*
X144335509Y-119695509D01*
X144353781Y-119680513D01*
X144374626Y-119669371D01*
X144397244Y-119662510D01*
X144422726Y-119660000D01*
X144777274Y-119660000D01*
X144802756Y-119662510D01*
G37*
G36*
X143802756Y-119662510D02*
G01*
X143825374Y-119669371D01*
X143846219Y-119680513D01*
X143864491Y-119695509D01*
X143879487Y-119713781D01*
X143890629Y-119734626D01*
X143897490Y-119757244D01*
X143900000Y-119782726D01*
X143900000Y-120077274D01*
X143897490Y-120102756D01*
X143890629Y-120125374D01*
X143879487Y-120146219D01*
X143864491Y-120164491D01*
X143846219Y-120179487D01*
X143825374Y-120190629D01*
X143802756Y-120197490D01*
X143777274Y-120200000D01*
X143422726Y-120200000D01*
X143397244Y-120197490D01*
X143374626Y-120190629D01*
X143353781Y-120179487D01*
X143335509Y-120164491D01*
X143320513Y-120146219D01*
X143309371Y-120125374D01*
X143302510Y-120102756D01*
X143300000Y-120077274D01*
X143300000Y-119782726D01*
X143302510Y-119757244D01*
X143309371Y-119734626D01*
X143320513Y-119713781D01*
X143335509Y-119695509D01*
X143353781Y-119680513D01*
X143374626Y-119669371D01*
X143397244Y-119662510D01*
X143422726Y-119660000D01*
X143777274Y-119660000D01*
X143802756Y-119662510D01*
G37*
G36*
X155350000Y-119605000D02*
G01*
X151650000Y-119605000D01*
X151650000Y-118625000D01*
X155350000Y-118625000D01*
X155350000Y-119605000D01*
G37*
G36*
X157092879Y-118519417D02*
G01*
X157134116Y-118531925D01*
X157172118Y-118552238D01*
X157205426Y-118579574D01*
X157232762Y-118612882D01*
X157253075Y-118650884D01*
X157265583Y-118692121D01*
X157270000Y-118736962D01*
X157270000Y-119263038D01*
X157265583Y-119307879D01*
X157253075Y-119349116D01*
X157232762Y-119387118D01*
X157205426Y-119420426D01*
X157172118Y-119447762D01*
X157134116Y-119468075D01*
X157092879Y-119480583D01*
X157048038Y-119485000D01*
X156531962Y-119485000D01*
X156487121Y-119480583D01*
X156445884Y-119468075D01*
X156407882Y-119447762D01*
X156374574Y-119420426D01*
X156347238Y-119387118D01*
X156326925Y-119349116D01*
X156314417Y-119307879D01*
X156310000Y-119263038D01*
X156310000Y-118736962D01*
X156314417Y-118692121D01*
X156326925Y-118650884D01*
X156347238Y-118612882D01*
X156374574Y-118579574D01*
X156407882Y-118552238D01*
X156445884Y-118531925D01*
X156487121Y-118519417D01*
X156531962Y-118515000D01*
X157048038Y-118515000D01*
X157092879Y-118519417D01*
G37*
G36*
X158602879Y-118519417D02*
G01*
X158644116Y-118531925D01*
X158682118Y-118552238D01*
X158715426Y-118579574D01*
X158742762Y-118612882D01*
X158763075Y-118650884D01*
X158775583Y-118692121D01*
X158780000Y-118736962D01*
X158780000Y-119263038D01*
X158775583Y-119307879D01*
X158763075Y-119349116D01*
X158742762Y-119387118D01*
X158715426Y-119420426D01*
X158682118Y-119447762D01*
X158644116Y-119468075D01*
X158602879Y-119480583D01*
X158558038Y-119485000D01*
X158041962Y-119485000D01*
X157997121Y-119480583D01*
X157955884Y-119468075D01*
X157917882Y-119447762D01*
X157884574Y-119420426D01*
X157857238Y-119387118D01*
X157836925Y-119349116D01*
X157824417Y-119307879D01*
X157820000Y-119263038D01*
X157820000Y-118736962D01*
X157824417Y-118692121D01*
X157836925Y-118650884D01*
X157857238Y-118612882D01*
X157884574Y-118579574D01*
X157917882Y-118552238D01*
X157955884Y-118531925D01*
X157997121Y-118519417D01*
X158041962Y-118515000D01*
X158558038Y-118515000D01*
X158602879Y-118519417D01*
G37*
G36*
X142747271Y-118742880D02*
G01*
X142773504Y-118750837D01*
X142797671Y-118763754D01*
X142818858Y-118781142D01*
X142836246Y-118802329D01*
X142849163Y-118826496D01*
X142857120Y-118852729D01*
X142860000Y-118881962D01*
X142860000Y-119238038D01*
X142857120Y-119267271D01*
X142849163Y-119293504D01*
X142836246Y-119317671D01*
X142818858Y-119338858D01*
X142797671Y-119356246D01*
X142773504Y-119369163D01*
X142747271Y-119377120D01*
X142718038Y-119380000D01*
X142281962Y-119380000D01*
X142252729Y-119377120D01*
X142226496Y-119369163D01*
X142202329Y-119356246D01*
X142181142Y-119338858D01*
X142163754Y-119317671D01*
X142150837Y-119293504D01*
X142142880Y-119267271D01*
X142140000Y-119238038D01*
X142140000Y-118881962D01*
X142142880Y-118852729D01*
X142150837Y-118826496D01*
X142163754Y-118802329D01*
X142181142Y-118781142D01*
X142202329Y-118763754D01*
X142226496Y-118750837D01*
X142252729Y-118742880D01*
X142281962Y-118740000D01*
X142718038Y-118740000D01*
X142747271Y-118742880D01*
G37*
G36*
X145802756Y-118802510D02*
G01*
X145825374Y-118809371D01*
X145846219Y-118820513D01*
X145864491Y-118835509D01*
X145879487Y-118853781D01*
X145890629Y-118874626D01*
X145897490Y-118897244D01*
X145900000Y-118922726D01*
X145900000Y-119217274D01*
X145897490Y-119242756D01*
X145890629Y-119265374D01*
X145879487Y-119286219D01*
X145864491Y-119304491D01*
X145846219Y-119319487D01*
X145825374Y-119330629D01*
X145802756Y-119337490D01*
X145777274Y-119340000D01*
X145422726Y-119340000D01*
X145397244Y-119337490D01*
X145374626Y-119330629D01*
X145353781Y-119319487D01*
X145335509Y-119304491D01*
X145320513Y-119286219D01*
X145309371Y-119265374D01*
X145302510Y-119242756D01*
X145300000Y-119217274D01*
X145300000Y-118922726D01*
X145302510Y-118897244D01*
X145309371Y-118874626D01*
X145320513Y-118853781D01*
X145335509Y-118835509D01*
X145353781Y-118820513D01*
X145374626Y-118809371D01*
X145397244Y-118802510D01*
X145422726Y-118800000D01*
X145777274Y-118800000D01*
X145802756Y-118802510D01*
G37*
G36*
X143802756Y-118802510D02*
G01*
X143825374Y-118809371D01*
X143846219Y-118820513D01*
X143864491Y-118835509D01*
X143879487Y-118853781D01*
X143890629Y-118874626D01*
X143897490Y-118897244D01*
X143900000Y-118922726D01*
X143900000Y-119217274D01*
X143897490Y-119242756D01*
X143890629Y-119265374D01*
X143879487Y-119286219D01*
X143864491Y-119304491D01*
X143846219Y-119319487D01*
X143825374Y-119330629D01*
X143802756Y-119337490D01*
X143777274Y-119340000D01*
X143422726Y-119340000D01*
X143397244Y-119337490D01*
X143374626Y-119330629D01*
X143353781Y-119319487D01*
X143335509Y-119304491D01*
X143320513Y-119286219D01*
X143309371Y-119265374D01*
X143302510Y-119242756D01*
X143300000Y-119217274D01*
X143300000Y-118922726D01*
X143302510Y-118897244D01*
X143309371Y-118874626D01*
X143320513Y-118853781D01*
X143335509Y-118835509D01*
X143353781Y-118820513D01*
X143374626Y-118809371D01*
X143397244Y-118802510D01*
X143422726Y-118800000D01*
X143777274Y-118800000D01*
X143802756Y-118802510D01*
G37*
G36*
X144802756Y-118802510D02*
G01*
X144825374Y-118809371D01*
X144846219Y-118820513D01*
X144864491Y-118835509D01*
X144879487Y-118853781D01*
X144890629Y-118874626D01*
X144897490Y-118897244D01*
X144900000Y-118922726D01*
X144900000Y-119217274D01*
X144897490Y-119242756D01*
X144890629Y-119265374D01*
X144879487Y-119286219D01*
X144864491Y-119304491D01*
X144846219Y-119319487D01*
X144825374Y-119330629D01*
X144802756Y-119337490D01*
X144777274Y-119340000D01*
X144422726Y-119340000D01*
X144397244Y-119337490D01*
X144374626Y-119330629D01*
X144353781Y-119319487D01*
X144335509Y-119304491D01*
X144320513Y-119286219D01*
X144309371Y-119265374D01*
X144302510Y-119242756D01*
X144300000Y-119217274D01*
X144300000Y-118922726D01*
X144302510Y-118897244D01*
X144309371Y-118874626D01*
X144320513Y-118853781D01*
X144335509Y-118835509D01*
X144353781Y-118820513D01*
X144374626Y-118809371D01*
X144397244Y-118802510D01*
X144422726Y-118800000D01*
X144777274Y-118800000D01*
X144802756Y-118802510D01*
G37*
G36*
X146811104Y-118802311D02*
G01*
X146831782Y-118808583D01*
X146850830Y-118818764D01*
X146867530Y-118832470D01*
X146881236Y-118849170D01*
X146891417Y-118868218D01*
X146897689Y-118888896D01*
X146900000Y-118912353D01*
X146900000Y-119197647D01*
X146897689Y-119221104D01*
X146891417Y-119241782D01*
X146881236Y-119260830D01*
X146867530Y-119277530D01*
X146850830Y-119291236D01*
X146831782Y-119301417D01*
X146811104Y-119307689D01*
X146787647Y-119310000D01*
X146412353Y-119310000D01*
X146388896Y-119307689D01*
X146368218Y-119301417D01*
X146349170Y-119291236D01*
X146332470Y-119277530D01*
X146318764Y-119260830D01*
X146308583Y-119241782D01*
X146302311Y-119221104D01*
X146300000Y-119197647D01*
X146300000Y-118912353D01*
X146302311Y-118888896D01*
X146308583Y-118868218D01*
X146318764Y-118849170D01*
X146332470Y-118832470D01*
X146349170Y-118818764D01*
X146368218Y-118808583D01*
X146388896Y-118802311D01*
X146412353Y-118800000D01*
X146787647Y-118800000D01*
X146811104Y-118802311D01*
G37*
G36*
X162111104Y-118702311D02*
G01*
X162131782Y-118708583D01*
X162150830Y-118718764D01*
X162167530Y-118732470D01*
X162181236Y-118749170D01*
X162191417Y-118768218D01*
X162197689Y-118788896D01*
X162200000Y-118812353D01*
X162200000Y-119187647D01*
X162197689Y-119211104D01*
X162191417Y-119231782D01*
X162181236Y-119250830D01*
X162167530Y-119267530D01*
X162150830Y-119281236D01*
X162131782Y-119291417D01*
X162111104Y-119297689D01*
X162087647Y-119300000D01*
X161802353Y-119300000D01*
X161778896Y-119297689D01*
X161758218Y-119291417D01*
X161739170Y-119281236D01*
X161722470Y-119267530D01*
X161708764Y-119250830D01*
X161698583Y-119231782D01*
X161692311Y-119211104D01*
X161690000Y-119187647D01*
X161690000Y-118812353D01*
X161692311Y-118788896D01*
X161698583Y-118768218D01*
X161708764Y-118749170D01*
X161722470Y-118732470D01*
X161739170Y-118718764D01*
X161758218Y-118708583D01*
X161778896Y-118702311D01*
X161802353Y-118700000D01*
X162087647Y-118700000D01*
X162111104Y-118702311D01*
G37*
G36*
X161221104Y-118702311D02*
G01*
X161241782Y-118708583D01*
X161260830Y-118718764D01*
X161277530Y-118732470D01*
X161291236Y-118749170D01*
X161301417Y-118768218D01*
X161307689Y-118788896D01*
X161310000Y-118812353D01*
X161310000Y-119187647D01*
X161307689Y-119211104D01*
X161301417Y-119231782D01*
X161291236Y-119250830D01*
X161277530Y-119267530D01*
X161260830Y-119281236D01*
X161241782Y-119291417D01*
X161221104Y-119297689D01*
X161197647Y-119300000D01*
X160912353Y-119300000D01*
X160888896Y-119297689D01*
X160868218Y-119291417D01*
X160849170Y-119281236D01*
X160832470Y-119267530D01*
X160818764Y-119250830D01*
X160808583Y-119231782D01*
X160802311Y-119211104D01*
X160800000Y-119187647D01*
X160800000Y-118812353D01*
X160802311Y-118788896D01*
X160808583Y-118768218D01*
X160818764Y-118749170D01*
X160832470Y-118732470D01*
X160849170Y-118718764D01*
X160868218Y-118708583D01*
X160888896Y-118702311D01*
X160912353Y-118700000D01*
X161197647Y-118700000D01*
X161221104Y-118702311D01*
G37*
G36*
X162102756Y-117202510D02*
G01*
X162125374Y-117209371D01*
X162146219Y-117220513D01*
X162164491Y-117235509D01*
X162179487Y-117253781D01*
X162190629Y-117274626D01*
X162197490Y-117297244D01*
X162200000Y-117322726D01*
X162200000Y-117677274D01*
X162197490Y-117702756D01*
X162190629Y-117725374D01*
X162179487Y-117746219D01*
X162164491Y-117764491D01*
X162146219Y-117779487D01*
X162125374Y-117790629D01*
X162102756Y-117797490D01*
X162077274Y-117800000D01*
X161782726Y-117800000D01*
X161757244Y-117797490D01*
X161734626Y-117790629D01*
X161713781Y-117779487D01*
X161695509Y-117764491D01*
X161680513Y-117746219D01*
X161669371Y-117725374D01*
X161662510Y-117702756D01*
X161660000Y-117677274D01*
X161660000Y-117322726D01*
X161662510Y-117297244D01*
X161669371Y-117274626D01*
X161680513Y-117253781D01*
X161695509Y-117235509D01*
X161713781Y-117220513D01*
X161734626Y-117209371D01*
X161757244Y-117202510D01*
X161782726Y-117200000D01*
X162077274Y-117200000D01*
X162102756Y-117202510D01*
G37*
G36*
X161242756Y-117202510D02*
G01*
X161265374Y-117209371D01*
X161286219Y-117220513D01*
X161304491Y-117235509D01*
X161319487Y-117253781D01*
X161330629Y-117274626D01*
X161337490Y-117297244D01*
X161340000Y-117322726D01*
X161340000Y-117677274D01*
X161337490Y-117702756D01*
X161330629Y-117725374D01*
X161319487Y-117746219D01*
X161304491Y-117764491D01*
X161286219Y-117779487D01*
X161265374Y-117790629D01*
X161242756Y-117797490D01*
X161217274Y-117800000D01*
X160922726Y-117800000D01*
X160897244Y-117797490D01*
X160874626Y-117790629D01*
X160853781Y-117779487D01*
X160835509Y-117764491D01*
X160820513Y-117746219D01*
X160809371Y-117725374D01*
X160802510Y-117702756D01*
X160800000Y-117677274D01*
X160800000Y-117322726D01*
X160802510Y-117297244D01*
X160809371Y-117274626D01*
X160820513Y-117253781D01*
X160835509Y-117235509D01*
X160853781Y-117220513D01*
X160874626Y-117209371D01*
X160897244Y-117202510D01*
X160922726Y-117200000D01*
X161217274Y-117200000D01*
X161242756Y-117202510D01*
G37*
G36*
X161242756Y-116002510D02*
G01*
X161265374Y-116009371D01*
X161286219Y-116020513D01*
X161304491Y-116035509D01*
X161319487Y-116053781D01*
X161330629Y-116074626D01*
X161337490Y-116097244D01*
X161340000Y-116122726D01*
X161340000Y-116477274D01*
X161337490Y-116502756D01*
X161330629Y-116525374D01*
X161319487Y-116546219D01*
X161304491Y-116564491D01*
X161286219Y-116579487D01*
X161265374Y-116590629D01*
X161242756Y-116597490D01*
X161217274Y-116600000D01*
X160922726Y-116600000D01*
X160897244Y-116597490D01*
X160874626Y-116590629D01*
X160853781Y-116579487D01*
X160835509Y-116564491D01*
X160820513Y-116546219D01*
X160809371Y-116525374D01*
X160802510Y-116502756D01*
X160800000Y-116477274D01*
X160800000Y-116122726D01*
X160802510Y-116097244D01*
X160809371Y-116074626D01*
X160820513Y-116053781D01*
X160835509Y-116035509D01*
X160853781Y-116020513D01*
X160874626Y-116009371D01*
X160897244Y-116002510D01*
X160922726Y-116000000D01*
X161217274Y-116000000D01*
X161242756Y-116002510D01*
G37*
G36*
X162102756Y-116002510D02*
G01*
X162125374Y-116009371D01*
X162146219Y-116020513D01*
X162164491Y-116035509D01*
X162179487Y-116053781D01*
X162190629Y-116074626D01*
X162197490Y-116097244D01*
X162200000Y-116122726D01*
X162200000Y-116477274D01*
X162197490Y-116502756D01*
X162190629Y-116525374D01*
X162179487Y-116546219D01*
X162164491Y-116564491D01*
X162146219Y-116579487D01*
X162125374Y-116590629D01*
X162102756Y-116597490D01*
X162077274Y-116600000D01*
X161782726Y-116600000D01*
X161757244Y-116597490D01*
X161734626Y-116590629D01*
X161713781Y-116579487D01*
X161695509Y-116564491D01*
X161680513Y-116546219D01*
X161669371Y-116525374D01*
X161662510Y-116502756D01*
X161660000Y-116477274D01*
X161660000Y-116122726D01*
X161662510Y-116097244D01*
X161669371Y-116074626D01*
X161680513Y-116053781D01*
X161695509Y-116035509D01*
X161713781Y-116020513D01*
X161734626Y-116009371D01*
X161757244Y-116002510D01*
X161782726Y-116000000D01*
X162077274Y-116000000D01*
X162102756Y-116002510D01*
G37*
G36*
X138911611Y-114556686D02*
G01*
X138955476Y-114569992D01*
X138995895Y-114591596D01*
X139031326Y-114620674D01*
X139060404Y-114656105D01*
X139082008Y-114696524D01*
X139095314Y-114740389D01*
X139100000Y-114787961D01*
X139100000Y-115332039D01*
X139095314Y-115379611D01*
X139082008Y-115423476D01*
X139060404Y-115463895D01*
X139031326Y-115499326D01*
X138995895Y-115528404D01*
X138955476Y-115550008D01*
X138911611Y-115563314D01*
X138864039Y-115568000D01*
X137135961Y-115568000D01*
X137088389Y-115563314D01*
X137044524Y-115550008D01*
X137004105Y-115528404D01*
X136968674Y-115499326D01*
X136939596Y-115463895D01*
X136917992Y-115423476D01*
X136904686Y-115379611D01*
X136900000Y-115332039D01*
X136900000Y-114787961D01*
X136904686Y-114740389D01*
X136917992Y-114696524D01*
X136939596Y-114656105D01*
X136968674Y-114620674D01*
X137004105Y-114591596D01*
X137044524Y-114569992D01*
X137088389Y-114556686D01*
X137135961Y-114552000D01*
X138864039Y-114552000D01*
X138911611Y-114556686D01*
G37*
G36*
X159911611Y-114556686D02*
G01*
X159955476Y-114569992D01*
X159995895Y-114591596D01*
X160031326Y-114620674D01*
X160060404Y-114656105D01*
X160082008Y-114696524D01*
X160095314Y-114740389D01*
X160100000Y-114787961D01*
X160100000Y-115332039D01*
X160095314Y-115379611D01*
X160082008Y-115423476D01*
X160060404Y-115463895D01*
X160031326Y-115499326D01*
X159995895Y-115528404D01*
X159955476Y-115550008D01*
X159911611Y-115563314D01*
X159864039Y-115568000D01*
X158135961Y-115568000D01*
X158088389Y-115563314D01*
X158044524Y-115550008D01*
X158004105Y-115528404D01*
X157968674Y-115499326D01*
X157939596Y-115463895D01*
X157917992Y-115423476D01*
X157904686Y-115379611D01*
X157900000Y-115332039D01*
X157900000Y-114787961D01*
X157904686Y-114740389D01*
X157917992Y-114696524D01*
X157939596Y-114656105D01*
X157968674Y-114620674D01*
X158004105Y-114591596D01*
X158044524Y-114569992D01*
X158088389Y-114556686D01*
X158135961Y-114552000D01*
X159864039Y-114552000D01*
X159911611Y-114556686D01*
G37*
G36*
X161242756Y-114802510D02*
G01*
X161265374Y-114809371D01*
X161286219Y-114820513D01*
X161304491Y-114835509D01*
X161319487Y-114853781D01*
X161330629Y-114874626D01*
X161337490Y-114897244D01*
X161340000Y-114922726D01*
X161340000Y-115277274D01*
X161337490Y-115302756D01*
X161330629Y-115325374D01*
X161319487Y-115346219D01*
X161304491Y-115364491D01*
X161286219Y-115379487D01*
X161265374Y-115390629D01*
X161242756Y-115397490D01*
X161217274Y-115400000D01*
X160922726Y-115400000D01*
X160897244Y-115397490D01*
X160874626Y-115390629D01*
X160853781Y-115379487D01*
X160835509Y-115364491D01*
X160820513Y-115346219D01*
X160809371Y-115325374D01*
X160802510Y-115302756D01*
X160800000Y-115277274D01*
X160800000Y-114922726D01*
X160802510Y-114897244D01*
X160809371Y-114874626D01*
X160820513Y-114853781D01*
X160835509Y-114835509D01*
X160853781Y-114820513D01*
X160874626Y-114809371D01*
X160897244Y-114802510D01*
X160922726Y-114800000D01*
X161217274Y-114800000D01*
X161242756Y-114802510D01*
G37*
G36*
X162102756Y-114802510D02*
G01*
X162125374Y-114809371D01*
X162146219Y-114820513D01*
X162164491Y-114835509D01*
X162179487Y-114853781D01*
X162190629Y-114874626D01*
X162197490Y-114897244D01*
X162200000Y-114922726D01*
X162200000Y-115277274D01*
X162197490Y-115302756D01*
X162190629Y-115325374D01*
X162179487Y-115346219D01*
X162164491Y-115364491D01*
X162146219Y-115379487D01*
X162125374Y-115390629D01*
X162102756Y-115397490D01*
X162077274Y-115400000D01*
X161782726Y-115400000D01*
X161757244Y-115397490D01*
X161734626Y-115390629D01*
X161713781Y-115379487D01*
X161695509Y-115364491D01*
X161680513Y-115346219D01*
X161669371Y-115325374D01*
X161662510Y-115302756D01*
X161660000Y-115277274D01*
X161660000Y-114922726D01*
X161662510Y-114897244D01*
X161669371Y-114874626D01*
X161680513Y-114853781D01*
X161695509Y-114835509D01*
X161713781Y-114820513D01*
X161734626Y-114809371D01*
X161757244Y-114802510D01*
X161782726Y-114800000D01*
X162077274Y-114800000D01*
X162102756Y-114802510D01*
G37*
G36*
X138911611Y-113286686D02*
G01*
X138955476Y-113299992D01*
X138995895Y-113321596D01*
X139031326Y-113350674D01*
X139060404Y-113386105D01*
X139082008Y-113426524D01*
X139095314Y-113470389D01*
X139100000Y-113517961D01*
X139100000Y-114062039D01*
X139095314Y-114109611D01*
X139082008Y-114153476D01*
X139060404Y-114193895D01*
X139031326Y-114229326D01*
X138995895Y-114258404D01*
X138955476Y-114280008D01*
X138911611Y-114293314D01*
X138864039Y-114298000D01*
X137135961Y-114298000D01*
X137088389Y-114293314D01*
X137044524Y-114280008D01*
X137004105Y-114258404D01*
X136968674Y-114229326D01*
X136939596Y-114193895D01*
X136917992Y-114153476D01*
X136904686Y-114109611D01*
X136900000Y-114062039D01*
X136900000Y-113517961D01*
X136904686Y-113470389D01*
X136917992Y-113426524D01*
X136939596Y-113386105D01*
X136968674Y-113350674D01*
X137004105Y-113321596D01*
X137044524Y-113299992D01*
X137088389Y-113286686D01*
X137135961Y-113282000D01*
X138864039Y-113282000D01*
X138911611Y-113286686D01*
G37*
G36*
X159911611Y-113286686D02*
G01*
X159955476Y-113299992D01*
X159995895Y-113321596D01*
X160031326Y-113350674D01*
X160060404Y-113386105D01*
X160082008Y-113426524D01*
X160095314Y-113470389D01*
X160100000Y-113517961D01*
X160100000Y-114062039D01*
X160095314Y-114109611D01*
X160082008Y-114153476D01*
X160060404Y-114193895D01*
X160031326Y-114229326D01*
X159995895Y-114258404D01*
X159955476Y-114280008D01*
X159911611Y-114293314D01*
X159864039Y-114298000D01*
X158135961Y-114298000D01*
X158088389Y-114293314D01*
X158044524Y-114280008D01*
X158004105Y-114258404D01*
X157968674Y-114229326D01*
X157939596Y-114193895D01*
X157917992Y-114153476D01*
X157904686Y-114109611D01*
X157900000Y-114062039D01*
X157900000Y-113517961D01*
X157904686Y-113470389D01*
X157917992Y-113426524D01*
X157939596Y-113386105D01*
X157968674Y-113350674D01*
X158004105Y-113321596D01*
X158044524Y-113299992D01*
X158088389Y-113286686D01*
X158135961Y-113282000D01*
X159864039Y-113282000D01*
X159911611Y-113286686D01*
G37*
G36*
X162147271Y-113442880D02*
G01*
X162173504Y-113450837D01*
X162197671Y-113463754D01*
X162218858Y-113481142D01*
X162236246Y-113502329D01*
X162249163Y-113526496D01*
X162257120Y-113552729D01*
X162260000Y-113581962D01*
X162260000Y-114018038D01*
X162257120Y-114047271D01*
X162249163Y-114073504D01*
X162236246Y-114097671D01*
X162218858Y-114118858D01*
X162197671Y-114136246D01*
X162173504Y-114149163D01*
X162147271Y-114157120D01*
X162118038Y-114160000D01*
X161761962Y-114160000D01*
X161732729Y-114157120D01*
X161706496Y-114149163D01*
X161682329Y-114136246D01*
X161661142Y-114118858D01*
X161643754Y-114097671D01*
X161630837Y-114073504D01*
X161622880Y-114047271D01*
X161620000Y-114018038D01*
X161620000Y-113581962D01*
X161622880Y-113552729D01*
X161630837Y-113526496D01*
X161643754Y-113502329D01*
X161661142Y-113481142D01*
X161682329Y-113463754D01*
X161706496Y-113450837D01*
X161732729Y-113442880D01*
X161761962Y-113440000D01*
X162118038Y-113440000D01*
X162147271Y-113442880D01*
G37*
G36*
X161267271Y-113442880D02*
G01*
X161293504Y-113450837D01*
X161317671Y-113463754D01*
X161338858Y-113481142D01*
X161356246Y-113502329D01*
X161369163Y-113526496D01*
X161377120Y-113552729D01*
X161380000Y-113581962D01*
X161380000Y-114018038D01*
X161377120Y-114047271D01*
X161369163Y-114073504D01*
X161356246Y-114097671D01*
X161338858Y-114118858D01*
X161317671Y-114136246D01*
X161293504Y-114149163D01*
X161267271Y-114157120D01*
X161238038Y-114160000D01*
X160881962Y-114160000D01*
X160852729Y-114157120D01*
X160826496Y-114149163D01*
X160802329Y-114136246D01*
X160781142Y-114118858D01*
X160763754Y-114097671D01*
X160750837Y-114073504D01*
X160742880Y-114047271D01*
X160740000Y-114018038D01*
X160740000Y-113581962D01*
X160742880Y-113552729D01*
X160750837Y-113526496D01*
X160763754Y-113502329D01*
X160781142Y-113481142D01*
X160802329Y-113463754D01*
X160826496Y-113450837D01*
X160852729Y-113442880D01*
X160881962Y-113440000D01*
X161238038Y-113440000D01*
X161267271Y-113442880D01*
G37*
G36*
X159911611Y-112016686D02*
G01*
X159955476Y-112029992D01*
X159995895Y-112051596D01*
X160031326Y-112080674D01*
X160060404Y-112116105D01*
X160082008Y-112156524D01*
X160095314Y-112200389D01*
X160100000Y-112247961D01*
X160100000Y-112792039D01*
X160095314Y-112839611D01*
X160082008Y-112883476D01*
X160060404Y-112923895D01*
X160031326Y-112959326D01*
X159995895Y-112988404D01*
X159955476Y-113010008D01*
X159911611Y-113023314D01*
X159864039Y-113028000D01*
X158135961Y-113028000D01*
X158088389Y-113023314D01*
X158044524Y-113010008D01*
X158004105Y-112988404D01*
X157968674Y-112959326D01*
X157939596Y-112923895D01*
X157917992Y-112883476D01*
X157904686Y-112839611D01*
X157900000Y-112792039D01*
X157900000Y-112247961D01*
X157904686Y-112200389D01*
X157917992Y-112156524D01*
X157939596Y-112116105D01*
X157968674Y-112080674D01*
X158004105Y-112051596D01*
X158044524Y-112029992D01*
X158088389Y-112016686D01*
X158135961Y-112012000D01*
X159864039Y-112012000D01*
X159911611Y-112016686D01*
G37*
G36*
X138911611Y-112016686D02*
G01*
X138955476Y-112029992D01*
X138995895Y-112051596D01*
X139031326Y-112080674D01*
X139060404Y-112116105D01*
X139082008Y-112156524D01*
X139095314Y-112200389D01*
X139100000Y-112247961D01*
X139100000Y-112792039D01*
X139095314Y-112839611D01*
X139082008Y-112883476D01*
X139060404Y-112923895D01*
X139031326Y-112959326D01*
X138995895Y-112988404D01*
X138955476Y-113010008D01*
X138911611Y-113023314D01*
X138864039Y-113028000D01*
X137135961Y-113028000D01*
X137088389Y-113023314D01*
X137044524Y-113010008D01*
X137004105Y-112988404D01*
X136968674Y-112959326D01*
X136939596Y-112923895D01*
X136917992Y-112883476D01*
X136904686Y-112839611D01*
X136900000Y-112792039D01*
X136900000Y-112247961D01*
X136904686Y-112200389D01*
X136917992Y-112156524D01*
X136939596Y-112116105D01*
X136968674Y-112080674D01*
X137004105Y-112051596D01*
X137044524Y-112029992D01*
X137088389Y-112016686D01*
X137135961Y-112012000D01*
X138864039Y-112012000D01*
X138911611Y-112016686D01*
G37*
G36*
X162111104Y-112202311D02*
G01*
X162131782Y-112208583D01*
X162150830Y-112218764D01*
X162167530Y-112232470D01*
X162181236Y-112249170D01*
X162191417Y-112268218D01*
X162197689Y-112288896D01*
X162200000Y-112312353D01*
X162200000Y-112687647D01*
X162197689Y-112711104D01*
X162191417Y-112731782D01*
X162181236Y-112750830D01*
X162167530Y-112767530D01*
X162150830Y-112781236D01*
X162131782Y-112791417D01*
X162111104Y-112797689D01*
X162087647Y-112800000D01*
X161802353Y-112800000D01*
X161778896Y-112797689D01*
X161758218Y-112791417D01*
X161739170Y-112781236D01*
X161722470Y-112767530D01*
X161708764Y-112750830D01*
X161698583Y-112731782D01*
X161692311Y-112711104D01*
X161690000Y-112687647D01*
X161690000Y-112312353D01*
X161692311Y-112288896D01*
X161698583Y-112268218D01*
X161708764Y-112249170D01*
X161722470Y-112232470D01*
X161739170Y-112218764D01*
X161758218Y-112208583D01*
X161778896Y-112202311D01*
X161802353Y-112200000D01*
X162087647Y-112200000D01*
X162111104Y-112202311D01*
G37*
G36*
X161221104Y-112202311D02*
G01*
X161241782Y-112208583D01*
X161260830Y-112218764D01*
X161277530Y-112232470D01*
X161291236Y-112249170D01*
X161301417Y-112268218D01*
X161307689Y-112288896D01*
X161310000Y-112312353D01*
X161310000Y-112687647D01*
X161307689Y-112711104D01*
X161301417Y-112731782D01*
X161291236Y-112750830D01*
X161277530Y-112767530D01*
X161260830Y-112781236D01*
X161241782Y-112791417D01*
X161221104Y-112797689D01*
X161197647Y-112800000D01*
X160912353Y-112800000D01*
X160888896Y-112797689D01*
X160868218Y-112791417D01*
X160849170Y-112781236D01*
X160832470Y-112767530D01*
X160818764Y-112750830D01*
X160808583Y-112731782D01*
X160802311Y-112711104D01*
X160800000Y-112687647D01*
X160800000Y-112312353D01*
X160802311Y-112288896D01*
X160808583Y-112268218D01*
X160818764Y-112249170D01*
X160832470Y-112232470D01*
X160849170Y-112218764D01*
X160868218Y-112208583D01*
X160888896Y-112202311D01*
X160912353Y-112200000D01*
X161197647Y-112200000D01*
X161221104Y-112202311D01*
G37*
G36*
X159911611Y-110746686D02*
G01*
X159955476Y-110759992D01*
X159995895Y-110781596D01*
X160031326Y-110810674D01*
X160060404Y-110846105D01*
X160082008Y-110886524D01*
X160095314Y-110930389D01*
X160100000Y-110977961D01*
X160100000Y-111522039D01*
X160095314Y-111569611D01*
X160082008Y-111613476D01*
X160060404Y-111653895D01*
X160031326Y-111689326D01*
X159995895Y-111718404D01*
X159955476Y-111740008D01*
X159911611Y-111753314D01*
X159864039Y-111758000D01*
X158135961Y-111758000D01*
X158088389Y-111753314D01*
X158044524Y-111740008D01*
X158004105Y-111718404D01*
X157968674Y-111689326D01*
X157939596Y-111653895D01*
X157917992Y-111613476D01*
X157904686Y-111569611D01*
X157900000Y-111522039D01*
X157900000Y-110977961D01*
X157904686Y-110930389D01*
X157917992Y-110886524D01*
X157939596Y-110846105D01*
X157968674Y-110810674D01*
X158004105Y-110781596D01*
X158044524Y-110759992D01*
X158088389Y-110746686D01*
X158135961Y-110742000D01*
X159864039Y-110742000D01*
X159911611Y-110746686D01*
G37*
G36*
X138911611Y-110746686D02*
G01*
X138955476Y-110759992D01*
X138995895Y-110781596D01*
X139031326Y-110810674D01*
X139060404Y-110846105D01*
X139082008Y-110886524D01*
X139095314Y-110930389D01*
X139100000Y-110977961D01*
X139100000Y-111522039D01*
X139095314Y-111569611D01*
X139082008Y-111613476D01*
X139060404Y-111653895D01*
X139031326Y-111689326D01*
X138995895Y-111718404D01*
X138955476Y-111740008D01*
X138911611Y-111753314D01*
X138864039Y-111758000D01*
X137135961Y-111758000D01*
X137088389Y-111753314D01*
X137044524Y-111740008D01*
X137004105Y-111718404D01*
X136968674Y-111689326D01*
X136939596Y-111653895D01*
X136917992Y-111613476D01*
X136904686Y-111569611D01*
X136900000Y-111522039D01*
X136900000Y-110977961D01*
X136904686Y-110930389D01*
X136917992Y-110886524D01*
X136939596Y-110846105D01*
X136968674Y-110810674D01*
X137004105Y-110781596D01*
X137044524Y-110759992D01*
X137088389Y-110746686D01*
X137135961Y-110742000D01*
X138864039Y-110742000D01*
X138911611Y-110746686D01*
G37*
G36*
X162111104Y-110902311D02*
G01*
X162131782Y-110908583D01*
X162150830Y-110918764D01*
X162167530Y-110932470D01*
X162181236Y-110949170D01*
X162191417Y-110968218D01*
X162197689Y-110988896D01*
X162200000Y-111012353D01*
X162200000Y-111387647D01*
X162197689Y-111411104D01*
X162191417Y-111431782D01*
X162181236Y-111450830D01*
X162167530Y-111467530D01*
X162150830Y-111481236D01*
X162131782Y-111491417D01*
X162111104Y-111497689D01*
X162087647Y-111500000D01*
X161802353Y-111500000D01*
X161778896Y-111497689D01*
X161758218Y-111491417D01*
X161739170Y-111481236D01*
X161722470Y-111467530D01*
X161708764Y-111450830D01*
X161698583Y-111431782D01*
X161692311Y-111411104D01*
X161690000Y-111387647D01*
X161690000Y-111012353D01*
X161692311Y-110988896D01*
X161698583Y-110968218D01*
X161708764Y-110949170D01*
X161722470Y-110932470D01*
X161739170Y-110918764D01*
X161758218Y-110908583D01*
X161778896Y-110902311D01*
X161802353Y-110900000D01*
X162087647Y-110900000D01*
X162111104Y-110902311D01*
G37*
G36*
X161221104Y-110902311D02*
G01*
X161241782Y-110908583D01*
X161260830Y-110918764D01*
X161277530Y-110932470D01*
X161291236Y-110949170D01*
X161301417Y-110968218D01*
X161307689Y-110988896D01*
X161310000Y-111012353D01*
X161310000Y-111387647D01*
X161307689Y-111411104D01*
X161301417Y-111431782D01*
X161291236Y-111450830D01*
X161277530Y-111467530D01*
X161260830Y-111481236D01*
X161241782Y-111491417D01*
X161221104Y-111497689D01*
X161197647Y-111500000D01*
X160912353Y-111500000D01*
X160888896Y-111497689D01*
X160868218Y-111491417D01*
X160849170Y-111481236D01*
X160832470Y-111467530D01*
X160818764Y-111450830D01*
X160808583Y-111431782D01*
X160802311Y-111411104D01*
X160800000Y-111387647D01*
X160800000Y-111012353D01*
X160802311Y-110988896D01*
X160808583Y-110968218D01*
X160818764Y-110949170D01*
X160832470Y-110932470D01*
X160849170Y-110918764D01*
X160868218Y-110908583D01*
X160888896Y-110902311D01*
X160912353Y-110900000D01*
X161197647Y-110900000D01*
X161221104Y-110902311D01*
G37*
G36*
X135221104Y-110702311D02*
G01*
X135241782Y-110708583D01*
X135260830Y-110718764D01*
X135277530Y-110732470D01*
X135291236Y-110749170D01*
X135301417Y-110768218D01*
X135307689Y-110788896D01*
X135310000Y-110812353D01*
X135310000Y-111187647D01*
X135307689Y-111211104D01*
X135301417Y-111231782D01*
X135291236Y-111250830D01*
X135277530Y-111267530D01*
X135260830Y-111281236D01*
X135241782Y-111291417D01*
X135221104Y-111297689D01*
X135197647Y-111300000D01*
X134912353Y-111300000D01*
X134888896Y-111297689D01*
X134868218Y-111291417D01*
X134849170Y-111281236D01*
X134832470Y-111267530D01*
X134818764Y-111250830D01*
X134808583Y-111231782D01*
X134802311Y-111211104D01*
X134800000Y-111187647D01*
X134800000Y-110812353D01*
X134802311Y-110788896D01*
X134808583Y-110768218D01*
X134818764Y-110749170D01*
X134832470Y-110732470D01*
X134849170Y-110718764D01*
X134868218Y-110708583D01*
X134888896Y-110702311D01*
X134912353Y-110700000D01*
X135197647Y-110700000D01*
X135221104Y-110702311D01*
G37*
G36*
X136111104Y-110702311D02*
G01*
X136131782Y-110708583D01*
X136150830Y-110718764D01*
X136167530Y-110732470D01*
X136181236Y-110749170D01*
X136191417Y-110768218D01*
X136197689Y-110788896D01*
X136200000Y-110812353D01*
X136200000Y-111187647D01*
X136197689Y-111211104D01*
X136191417Y-111231782D01*
X136181236Y-111250830D01*
X136167530Y-111267530D01*
X136150830Y-111281236D01*
X136131782Y-111291417D01*
X136111104Y-111297689D01*
X136087647Y-111300000D01*
X135802353Y-111300000D01*
X135778896Y-111297689D01*
X135758218Y-111291417D01*
X135739170Y-111281236D01*
X135722470Y-111267530D01*
X135708764Y-111250830D01*
X135698583Y-111231782D01*
X135692311Y-111211104D01*
X135690000Y-111187647D01*
X135690000Y-110812353D01*
X135692311Y-110788896D01*
X135698583Y-110768218D01*
X135708764Y-110749170D01*
X135722470Y-110732470D01*
X135739170Y-110718764D01*
X135758218Y-110708583D01*
X135778896Y-110702311D01*
X135802353Y-110700000D01*
X136087647Y-110700000D01*
X136111104Y-110702311D01*
G37*
G36*
X138911611Y-109476686D02*
G01*
X138955476Y-109489992D01*
X138995895Y-109511596D01*
X139031326Y-109540674D01*
X139060404Y-109576105D01*
X139082008Y-109616524D01*
X139095314Y-109660389D01*
X139100000Y-109707961D01*
X139100000Y-110252039D01*
X139095314Y-110299611D01*
X139082008Y-110343476D01*
X139060404Y-110383895D01*
X139031326Y-110419326D01*
X138995895Y-110448404D01*
X138955476Y-110470008D01*
X138911611Y-110483314D01*
X138864039Y-110488000D01*
X137135961Y-110488000D01*
X137088389Y-110483314D01*
X137044524Y-110470008D01*
X137004105Y-110448404D01*
X136968674Y-110419326D01*
X136939596Y-110383895D01*
X136917992Y-110343476D01*
X136904686Y-110299611D01*
X136900000Y-110252039D01*
X136900000Y-109707961D01*
X136904686Y-109660389D01*
X136917992Y-109616524D01*
X136939596Y-109576105D01*
X136968674Y-109540674D01*
X137004105Y-109511596D01*
X137044524Y-109489992D01*
X137088389Y-109476686D01*
X137135961Y-109472000D01*
X138864039Y-109472000D01*
X138911611Y-109476686D01*
G37*
G36*
X159911611Y-109476686D02*
G01*
X159955476Y-109489992D01*
X159995895Y-109511596D01*
X160031326Y-109540674D01*
X160060404Y-109576105D01*
X160082008Y-109616524D01*
X160095314Y-109660389D01*
X160100000Y-109707961D01*
X160100000Y-110252039D01*
X160095314Y-110299611D01*
X160082008Y-110343476D01*
X160060404Y-110383895D01*
X160031326Y-110419326D01*
X159995895Y-110448404D01*
X159955476Y-110470008D01*
X159911611Y-110483314D01*
X159864039Y-110488000D01*
X158135961Y-110488000D01*
X158088389Y-110483314D01*
X158044524Y-110470008D01*
X158004105Y-110448404D01*
X157968674Y-110419326D01*
X157939596Y-110383895D01*
X157917992Y-110343476D01*
X157904686Y-110299611D01*
X157900000Y-110252039D01*
X157900000Y-109707961D01*
X157904686Y-109660389D01*
X157917992Y-109616524D01*
X157939596Y-109576105D01*
X157968674Y-109540674D01*
X158004105Y-109511596D01*
X158044524Y-109489992D01*
X158088389Y-109476686D01*
X158135961Y-109472000D01*
X159864039Y-109472000D01*
X159911611Y-109476686D01*
G37*
G36*
X135221104Y-109702311D02*
G01*
X135241782Y-109708583D01*
X135260830Y-109718764D01*
X135277530Y-109732470D01*
X135291236Y-109749170D01*
X135301417Y-109768218D01*
X135307689Y-109788896D01*
X135310000Y-109812353D01*
X135310000Y-110187647D01*
X135307689Y-110211104D01*
X135301417Y-110231782D01*
X135291236Y-110250830D01*
X135277530Y-110267530D01*
X135260830Y-110281236D01*
X135241782Y-110291417D01*
X135221104Y-110297689D01*
X135197647Y-110300000D01*
X134912353Y-110300000D01*
X134888896Y-110297689D01*
X134868218Y-110291417D01*
X134849170Y-110281236D01*
X134832470Y-110267530D01*
X134818764Y-110250830D01*
X134808583Y-110231782D01*
X134802311Y-110211104D01*
X134800000Y-110187647D01*
X134800000Y-109812353D01*
X134802311Y-109788896D01*
X134808583Y-109768218D01*
X134818764Y-109749170D01*
X134832470Y-109732470D01*
X134849170Y-109718764D01*
X134868218Y-109708583D01*
X134888896Y-109702311D01*
X134912353Y-109700000D01*
X135197647Y-109700000D01*
X135221104Y-109702311D01*
G37*
G36*
X136111104Y-109702311D02*
G01*
X136131782Y-109708583D01*
X136150830Y-109718764D01*
X136167530Y-109732470D01*
X136181236Y-109749170D01*
X136191417Y-109768218D01*
X136197689Y-109788896D01*
X136200000Y-109812353D01*
X136200000Y-110187647D01*
X136197689Y-110211104D01*
X136191417Y-110231782D01*
X136181236Y-110250830D01*
X136167530Y-110267530D01*
X136150830Y-110281236D01*
X136131782Y-110291417D01*
X136111104Y-110297689D01*
X136087647Y-110300000D01*
X135802353Y-110300000D01*
X135778896Y-110297689D01*
X135758218Y-110291417D01*
X135739170Y-110281236D01*
X135722470Y-110267530D01*
X135708764Y-110250830D01*
X135698583Y-110231782D01*
X135692311Y-110211104D01*
X135690000Y-110187647D01*
X135690000Y-109812353D01*
X135692311Y-109788896D01*
X135698583Y-109768218D01*
X135708764Y-109749170D01*
X135722470Y-109732470D01*
X135739170Y-109718764D01*
X135758218Y-109708583D01*
X135778896Y-109702311D01*
X135802353Y-109700000D01*
X136087647Y-109700000D01*
X136111104Y-109702311D01*
G37*
G36*
X162111104Y-109702311D02*
G01*
X162131782Y-109708583D01*
X162150830Y-109718764D01*
X162167530Y-109732470D01*
X162181236Y-109749170D01*
X162191417Y-109768218D01*
X162197689Y-109788896D01*
X162200000Y-109812353D01*
X162200000Y-110187647D01*
X162197689Y-110211104D01*
X162191417Y-110231782D01*
X162181236Y-110250830D01*
X162167530Y-110267530D01*
X162150830Y-110281236D01*
X162131782Y-110291417D01*
X162111104Y-110297689D01*
X162087647Y-110300000D01*
X161802353Y-110300000D01*
X161778896Y-110297689D01*
X161758218Y-110291417D01*
X161739170Y-110281236D01*
X161722470Y-110267530D01*
X161708764Y-110250830D01*
X161698583Y-110231782D01*
X161692311Y-110211104D01*
X161690000Y-110187647D01*
X161690000Y-109812353D01*
X161692311Y-109788896D01*
X161698583Y-109768218D01*
X161708764Y-109749170D01*
X161722470Y-109732470D01*
X161739170Y-109718764D01*
X161758218Y-109708583D01*
X161778896Y-109702311D01*
X161802353Y-109700000D01*
X162087647Y-109700000D01*
X162111104Y-109702311D01*
G37*
G36*
X161221104Y-109702311D02*
G01*
X161241782Y-109708583D01*
X161260830Y-109718764D01*
X161277530Y-109732470D01*
X161291236Y-109749170D01*
X161301417Y-109768218D01*
X161307689Y-109788896D01*
X161310000Y-109812353D01*
X161310000Y-110187647D01*
X161307689Y-110211104D01*
X161301417Y-110231782D01*
X161291236Y-110250830D01*
X161277530Y-110267530D01*
X161260830Y-110281236D01*
X161241782Y-110291417D01*
X161221104Y-110297689D01*
X161197647Y-110300000D01*
X160912353Y-110300000D01*
X160888896Y-110297689D01*
X160868218Y-110291417D01*
X160849170Y-110281236D01*
X160832470Y-110267530D01*
X160818764Y-110250830D01*
X160808583Y-110231782D01*
X160802311Y-110211104D01*
X160800000Y-110187647D01*
X160800000Y-109812353D01*
X160802311Y-109788896D01*
X160808583Y-109768218D01*
X160818764Y-109749170D01*
X160832470Y-109732470D01*
X160849170Y-109718764D01*
X160868218Y-109708583D01*
X160888896Y-109702311D01*
X160912353Y-109700000D01*
X161197647Y-109700000D01*
X161221104Y-109702311D01*
G37*
G36*
X138911611Y-108206686D02*
G01*
X138955476Y-108219992D01*
X138995895Y-108241596D01*
X139031326Y-108270674D01*
X139060404Y-108306105D01*
X139082008Y-108346524D01*
X139095314Y-108390389D01*
X139100000Y-108437961D01*
X139100000Y-108982039D01*
X139095314Y-109029611D01*
X139082008Y-109073476D01*
X139060404Y-109113895D01*
X139031326Y-109149326D01*
X138995895Y-109178404D01*
X138955476Y-109200008D01*
X138911611Y-109213314D01*
X138864039Y-109218000D01*
X137135961Y-109218000D01*
X137088389Y-109213314D01*
X137044524Y-109200008D01*
X137004105Y-109178404D01*
X136968674Y-109149326D01*
X136939596Y-109113895D01*
X136917992Y-109073476D01*
X136904686Y-109029611D01*
X136900000Y-108982039D01*
X136900000Y-108437961D01*
X136904686Y-108390389D01*
X136917992Y-108346524D01*
X136939596Y-108306105D01*
X136968674Y-108270674D01*
X137004105Y-108241596D01*
X137044524Y-108219992D01*
X137088389Y-108206686D01*
X137135961Y-108202000D01*
X138864039Y-108202000D01*
X138911611Y-108206686D01*
G37*
G36*
X159911611Y-108206686D02*
G01*
X159955476Y-108219992D01*
X159995895Y-108241596D01*
X160031326Y-108270674D01*
X160060404Y-108306105D01*
X160082008Y-108346524D01*
X160095314Y-108390389D01*
X160100000Y-108437961D01*
X160100000Y-108982039D01*
X160095314Y-109029611D01*
X160082008Y-109073476D01*
X160060404Y-109113895D01*
X160031326Y-109149326D01*
X159995895Y-109178404D01*
X159955476Y-109200008D01*
X159911611Y-109213314D01*
X159864039Y-109218000D01*
X158135961Y-109218000D01*
X158088389Y-109213314D01*
X158044524Y-109200008D01*
X158004105Y-109178404D01*
X157968674Y-109149326D01*
X157939596Y-109113895D01*
X157917992Y-109073476D01*
X157904686Y-109029611D01*
X157900000Y-108982039D01*
X157900000Y-108437961D01*
X157904686Y-108390389D01*
X157917992Y-108346524D01*
X157939596Y-108306105D01*
X157968674Y-108270674D01*
X158004105Y-108241596D01*
X158044524Y-108219992D01*
X158088389Y-108206686D01*
X158135961Y-108202000D01*
X159864039Y-108202000D01*
X159911611Y-108206686D01*
G37*
G36*
X162103369Y-108352494D02*
G01*
X162125848Y-108359313D01*
X162146562Y-108370385D01*
X162164716Y-108385284D01*
X162179615Y-108403438D01*
X162190687Y-108424152D01*
X162197506Y-108446631D01*
X162200000Y-108471960D01*
X162200000Y-108928040D01*
X162197506Y-108953369D01*
X162190687Y-108975848D01*
X162179615Y-108996562D01*
X162164716Y-109014716D01*
X162146562Y-109029615D01*
X162125848Y-109040687D01*
X162103369Y-109047506D01*
X162078040Y-109050000D01*
X161761960Y-109050000D01*
X161736631Y-109047506D01*
X161714152Y-109040687D01*
X161693438Y-109029615D01*
X161675284Y-109014716D01*
X161660385Y-108996562D01*
X161649313Y-108975848D01*
X161642494Y-108953369D01*
X161640000Y-108928040D01*
X161640000Y-108471960D01*
X161642494Y-108446631D01*
X161649313Y-108424152D01*
X161660385Y-108403438D01*
X161675284Y-108385284D01*
X161693438Y-108370385D01*
X161714152Y-108359313D01*
X161736631Y-108352494D01*
X161761960Y-108350000D01*
X162078040Y-108350000D01*
X162103369Y-108352494D01*
G37*
G36*
X161263369Y-108352494D02*
G01*
X161285848Y-108359313D01*
X161306562Y-108370385D01*
X161324716Y-108385284D01*
X161339615Y-108403438D01*
X161350687Y-108424152D01*
X161357506Y-108446631D01*
X161360000Y-108471960D01*
X161360000Y-108928040D01*
X161357506Y-108953369D01*
X161350687Y-108975848D01*
X161339615Y-108996562D01*
X161324716Y-109014716D01*
X161306562Y-109029615D01*
X161285848Y-109040687D01*
X161263369Y-109047506D01*
X161238040Y-109050000D01*
X160921960Y-109050000D01*
X160896631Y-109047506D01*
X160874152Y-109040687D01*
X160853438Y-109029615D01*
X160835284Y-109014716D01*
X160820385Y-108996562D01*
X160809313Y-108975848D01*
X160802494Y-108953369D01*
X160800000Y-108928040D01*
X160800000Y-108471960D01*
X160802494Y-108446631D01*
X160809313Y-108424152D01*
X160820385Y-108403438D01*
X160835284Y-108385284D01*
X160853438Y-108370385D01*
X160874152Y-108359313D01*
X160896631Y-108352494D01*
X160921960Y-108350000D01*
X161238040Y-108350000D01*
X161263369Y-108352494D01*
G37*
G36*
X138911611Y-106936686D02*
G01*
X138955476Y-106949992D01*
X138995895Y-106971596D01*
X139031326Y-107000674D01*
X139060404Y-107036105D01*
X139082008Y-107076524D01*
X139095314Y-107120389D01*
X139100000Y-107167961D01*
X139100000Y-107712039D01*
X139095314Y-107759611D01*
X139082008Y-107803476D01*
X139060404Y-107843895D01*
X139031326Y-107879326D01*
X138995895Y-107908404D01*
X138955476Y-107930008D01*
X138911611Y-107943314D01*
X138864039Y-107948000D01*
X137135961Y-107948000D01*
X137088389Y-107943314D01*
X137044524Y-107930008D01*
X137004105Y-107908404D01*
X136968674Y-107879326D01*
X136939596Y-107843895D01*
X136917992Y-107803476D01*
X136904686Y-107759611D01*
X136900000Y-107712039D01*
X136900000Y-107167961D01*
X136904686Y-107120389D01*
X136917992Y-107076524D01*
X136939596Y-107036105D01*
X136968674Y-107000674D01*
X137004105Y-106971596D01*
X137044524Y-106949992D01*
X137088389Y-106936686D01*
X137135961Y-106932000D01*
X138864039Y-106932000D01*
X138911611Y-106936686D01*
G37*
G36*
X159911611Y-106936686D02*
G01*
X159955476Y-106949992D01*
X159995895Y-106971596D01*
X160031326Y-107000674D01*
X160060404Y-107036105D01*
X160082008Y-107076524D01*
X160095314Y-107120389D01*
X160100000Y-107167961D01*
X160100000Y-107712039D01*
X160095314Y-107759611D01*
X160082008Y-107803476D01*
X160060404Y-107843895D01*
X160031326Y-107879326D01*
X159995895Y-107908404D01*
X159955476Y-107930008D01*
X159911611Y-107943314D01*
X159864039Y-107948000D01*
X158135961Y-107948000D01*
X158088389Y-107943314D01*
X158044524Y-107930008D01*
X158004105Y-107908404D01*
X157968674Y-107879326D01*
X157939596Y-107843895D01*
X157917992Y-107803476D01*
X157904686Y-107759611D01*
X157900000Y-107712039D01*
X157900000Y-107167961D01*
X157904686Y-107120389D01*
X157917992Y-107076524D01*
X157939596Y-107036105D01*
X157968674Y-107000674D01*
X158004105Y-106971596D01*
X158044524Y-106949992D01*
X158088389Y-106936686D01*
X158135961Y-106932000D01*
X159864039Y-106932000D01*
X159911611Y-106936686D01*
G37*
G36*
X162111104Y-107202311D02*
G01*
X162131782Y-107208583D01*
X162150830Y-107218764D01*
X162167530Y-107232470D01*
X162181236Y-107249170D01*
X162191417Y-107268218D01*
X162197689Y-107288896D01*
X162200000Y-107312353D01*
X162200000Y-107687647D01*
X162197689Y-107711104D01*
X162191417Y-107731782D01*
X162181236Y-107750830D01*
X162167530Y-107767530D01*
X162150830Y-107781236D01*
X162131782Y-107791417D01*
X162111104Y-107797689D01*
X162087647Y-107800000D01*
X161802353Y-107800000D01*
X161778896Y-107797689D01*
X161758218Y-107791417D01*
X161739170Y-107781236D01*
X161722470Y-107767530D01*
X161708764Y-107750830D01*
X161698583Y-107731782D01*
X161692311Y-107711104D01*
X161690000Y-107687647D01*
X161690000Y-107312353D01*
X161692311Y-107288896D01*
X161698583Y-107268218D01*
X161708764Y-107249170D01*
X161722470Y-107232470D01*
X161739170Y-107218764D01*
X161758218Y-107208583D01*
X161778896Y-107202311D01*
X161802353Y-107200000D01*
X162087647Y-107200000D01*
X162111104Y-107202311D01*
G37*
G36*
X161221104Y-107202311D02*
G01*
X161241782Y-107208583D01*
X161260830Y-107218764D01*
X161277530Y-107232470D01*
X161291236Y-107249170D01*
X161301417Y-107268218D01*
X161307689Y-107288896D01*
X161310000Y-107312353D01*
X161310000Y-107687647D01*
X161307689Y-107711104D01*
X161301417Y-107731782D01*
X161291236Y-107750830D01*
X161277530Y-107767530D01*
X161260830Y-107781236D01*
X161241782Y-107791417D01*
X161221104Y-107797689D01*
X161197647Y-107800000D01*
X160912353Y-107800000D01*
X160888896Y-107797689D01*
X160868218Y-107791417D01*
X160849170Y-107781236D01*
X160832470Y-107767530D01*
X160818764Y-107750830D01*
X160808583Y-107731782D01*
X160802311Y-107711104D01*
X160800000Y-107687647D01*
X160800000Y-107312353D01*
X160802311Y-107288896D01*
X160808583Y-107268218D01*
X160818764Y-107249170D01*
X160832470Y-107232470D01*
X160849170Y-107218764D01*
X160868218Y-107208583D01*
X160888896Y-107202311D01*
X160912353Y-107200000D01*
X161197647Y-107200000D01*
X161221104Y-107202311D01*
G37*
G36*
X159911611Y-105666686D02*
G01*
X159955476Y-105679992D01*
X159995895Y-105701596D01*
X160031326Y-105730674D01*
X160060404Y-105766105D01*
X160082008Y-105806524D01*
X160095314Y-105850389D01*
X160100000Y-105897961D01*
X160100000Y-106442039D01*
X160095314Y-106489611D01*
X160082008Y-106533476D01*
X160060404Y-106573895D01*
X160031326Y-106609326D01*
X159995895Y-106638404D01*
X159955476Y-106660008D01*
X159911611Y-106673314D01*
X159864039Y-106678000D01*
X158135961Y-106678000D01*
X158088389Y-106673314D01*
X158044524Y-106660008D01*
X158004105Y-106638404D01*
X157968674Y-106609326D01*
X157939596Y-106573895D01*
X157917992Y-106533476D01*
X157904686Y-106489611D01*
X157900000Y-106442039D01*
X157900000Y-105897961D01*
X157904686Y-105850389D01*
X157917992Y-105806524D01*
X157939596Y-105766105D01*
X157968674Y-105730674D01*
X158004105Y-105701596D01*
X158044524Y-105679992D01*
X158088389Y-105666686D01*
X158135961Y-105662000D01*
X159864039Y-105662000D01*
X159911611Y-105666686D01*
G37*
G36*
X138911611Y-105666686D02*
G01*
X138955476Y-105679992D01*
X138995895Y-105701596D01*
X139031326Y-105730674D01*
X139060404Y-105766105D01*
X139082008Y-105806524D01*
X139095314Y-105850389D01*
X139100000Y-105897961D01*
X139100000Y-106442039D01*
X139095314Y-106489611D01*
X139082008Y-106533476D01*
X139060404Y-106573895D01*
X139031326Y-106609326D01*
X138995895Y-106638404D01*
X138955476Y-106660008D01*
X138911611Y-106673314D01*
X138864039Y-106678000D01*
X137135961Y-106678000D01*
X137088389Y-106673314D01*
X137044524Y-106660008D01*
X137004105Y-106638404D01*
X136968674Y-106609326D01*
X136939596Y-106573895D01*
X136917992Y-106533476D01*
X136904686Y-106489611D01*
X136900000Y-106442039D01*
X136900000Y-105897961D01*
X136904686Y-105850389D01*
X136917992Y-105806524D01*
X136939596Y-105766105D01*
X136968674Y-105730674D01*
X137004105Y-105701596D01*
X137044524Y-105679992D01*
X137088389Y-105666686D01*
X137135961Y-105662000D01*
X138864039Y-105662000D01*
X138911611Y-105666686D01*
G37*
G36*
X161221104Y-105902311D02*
G01*
X161241782Y-105908583D01*
X161260830Y-105918764D01*
X161277530Y-105932470D01*
X161291236Y-105949170D01*
X161301417Y-105968218D01*
X161307689Y-105988896D01*
X161310000Y-106012353D01*
X161310000Y-106387647D01*
X161307689Y-106411104D01*
X161301417Y-106431782D01*
X161291236Y-106450830D01*
X161277530Y-106467530D01*
X161260830Y-106481236D01*
X161241782Y-106491417D01*
X161221104Y-106497689D01*
X161197647Y-106500000D01*
X160912353Y-106500000D01*
X160888896Y-106497689D01*
X160868218Y-106491417D01*
X160849170Y-106481236D01*
X160832470Y-106467530D01*
X160818764Y-106450830D01*
X160808583Y-106431782D01*
X160802311Y-106411104D01*
X160800000Y-106387647D01*
X160800000Y-106012353D01*
X160802311Y-105988896D01*
X160808583Y-105968218D01*
X160818764Y-105949170D01*
X160832470Y-105932470D01*
X160849170Y-105918764D01*
X160868218Y-105908583D01*
X160888896Y-105902311D01*
X160912353Y-105900000D01*
X161197647Y-105900000D01*
X161221104Y-105902311D01*
G37*
G36*
X162111104Y-105902311D02*
G01*
X162131782Y-105908583D01*
X162150830Y-105918764D01*
X162167530Y-105932470D01*
X162181236Y-105949170D01*
X162191417Y-105968218D01*
X162197689Y-105988896D01*
X162200000Y-106012353D01*
X162200000Y-106387647D01*
X162197689Y-106411104D01*
X162191417Y-106431782D01*
X162181236Y-106450830D01*
X162167530Y-106467530D01*
X162150830Y-106481236D01*
X162131782Y-106491417D01*
X162111104Y-106497689D01*
X162087647Y-106500000D01*
X161802353Y-106500000D01*
X161778896Y-106497689D01*
X161758218Y-106491417D01*
X161739170Y-106481236D01*
X161722470Y-106467530D01*
X161708764Y-106450830D01*
X161698583Y-106431782D01*
X161692311Y-106411104D01*
X161690000Y-106387647D01*
X161690000Y-106012353D01*
X161692311Y-105988896D01*
X161698583Y-105968218D01*
X161708764Y-105949170D01*
X161722470Y-105932470D01*
X161739170Y-105918764D01*
X161758218Y-105908583D01*
X161778896Y-105902311D01*
X161802353Y-105900000D01*
X162087647Y-105900000D01*
X162111104Y-105902311D01*
G37*
G36*
X159911611Y-104396686D02*
G01*
X159955476Y-104409992D01*
X159995895Y-104431596D01*
X160031326Y-104460674D01*
X160060404Y-104496105D01*
X160082008Y-104536524D01*
X160095314Y-104580389D01*
X160100000Y-104627961D01*
X160100000Y-105172039D01*
X160095314Y-105219611D01*
X160082008Y-105263476D01*
X160060404Y-105303895D01*
X160031326Y-105339326D01*
X159995895Y-105368404D01*
X159955476Y-105390008D01*
X159911611Y-105403314D01*
X159864039Y-105408000D01*
X158135961Y-105408000D01*
X158088389Y-105403314D01*
X158044524Y-105390008D01*
X158004105Y-105368404D01*
X157968674Y-105339326D01*
X157939596Y-105303895D01*
X157917992Y-105263476D01*
X157904686Y-105219611D01*
X157900000Y-105172039D01*
X157900000Y-104627961D01*
X157904686Y-104580389D01*
X157917992Y-104536524D01*
X157939596Y-104496105D01*
X157968674Y-104460674D01*
X158004105Y-104431596D01*
X158044524Y-104409992D01*
X158088389Y-104396686D01*
X158135961Y-104392000D01*
X159864039Y-104392000D01*
X159911611Y-104396686D01*
G37*
G36*
X138911611Y-104396686D02*
G01*
X138955476Y-104409992D01*
X138995895Y-104431596D01*
X139031326Y-104460674D01*
X139060404Y-104496105D01*
X139082008Y-104536524D01*
X139095314Y-104580389D01*
X139100000Y-104627961D01*
X139100000Y-105172039D01*
X139095314Y-105219611D01*
X139082008Y-105263476D01*
X139060404Y-105303895D01*
X139031326Y-105339326D01*
X138995895Y-105368404D01*
X138955476Y-105390008D01*
X138911611Y-105403314D01*
X138864039Y-105408000D01*
X137135961Y-105408000D01*
X137088389Y-105403314D01*
X137044524Y-105390008D01*
X137004105Y-105368404D01*
X136968674Y-105339326D01*
X136939596Y-105303895D01*
X136917992Y-105263476D01*
X136904686Y-105219611D01*
X136900000Y-105172039D01*
X136900000Y-104627961D01*
X136904686Y-104580389D01*
X136917992Y-104536524D01*
X136939596Y-104496105D01*
X136968674Y-104460674D01*
X137004105Y-104431596D01*
X137044524Y-104409992D01*
X137088389Y-104396686D01*
X137135961Y-104392000D01*
X138864039Y-104392000D01*
X138911611Y-104396686D01*
G37*
G36*
X162111104Y-104702311D02*
G01*
X162131782Y-104708583D01*
X162150830Y-104718764D01*
X162167530Y-104732470D01*
X162181236Y-104749170D01*
X162191417Y-104768218D01*
X162197689Y-104788896D01*
X162200000Y-104812353D01*
X162200000Y-105187647D01*
X162197689Y-105211104D01*
X162191417Y-105231782D01*
X162181236Y-105250830D01*
X162167530Y-105267530D01*
X162150830Y-105281236D01*
X162131782Y-105291417D01*
X162111104Y-105297689D01*
X162087647Y-105300000D01*
X161802353Y-105300000D01*
X161778896Y-105297689D01*
X161758218Y-105291417D01*
X161739170Y-105281236D01*
X161722470Y-105267530D01*
X161708764Y-105250830D01*
X161698583Y-105231782D01*
X161692311Y-105211104D01*
X161690000Y-105187647D01*
X161690000Y-104812353D01*
X161692311Y-104788896D01*
X161698583Y-104768218D01*
X161708764Y-104749170D01*
X161722470Y-104732470D01*
X161739170Y-104718764D01*
X161758218Y-104708583D01*
X161778896Y-104702311D01*
X161802353Y-104700000D01*
X162087647Y-104700000D01*
X162111104Y-104702311D01*
G37*
G36*
X161221104Y-104702311D02*
G01*
X161241782Y-104708583D01*
X161260830Y-104718764D01*
X161277530Y-104732470D01*
X161291236Y-104749170D01*
X161301417Y-104768218D01*
X161307689Y-104788896D01*
X161310000Y-104812353D01*
X161310000Y-105187647D01*
X161307689Y-105211104D01*
X161301417Y-105231782D01*
X161291236Y-105250830D01*
X161277530Y-105267530D01*
X161260830Y-105281236D01*
X161241782Y-105291417D01*
X161221104Y-105297689D01*
X161197647Y-105300000D01*
X160912353Y-105300000D01*
X160888896Y-105297689D01*
X160868218Y-105291417D01*
X160849170Y-105281236D01*
X160832470Y-105267530D01*
X160818764Y-105250830D01*
X160808583Y-105231782D01*
X160802311Y-105211104D01*
X160800000Y-105187647D01*
X160800000Y-104812353D01*
X160802311Y-104788896D01*
X160808583Y-104768218D01*
X160818764Y-104749170D01*
X160832470Y-104732470D01*
X160849170Y-104718764D01*
X160868218Y-104708583D01*
X160888896Y-104702311D01*
X160912353Y-104700000D01*
X161197647Y-104700000D01*
X161221104Y-104702311D01*
G37*
G36*
X159911611Y-103126686D02*
G01*
X159955476Y-103139992D01*
X159995895Y-103161596D01*
X160031326Y-103190674D01*
X160060404Y-103226105D01*
X160082008Y-103266524D01*
X160095314Y-103310389D01*
X160100000Y-103357961D01*
X160100000Y-103902039D01*
X160095314Y-103949611D01*
X160082008Y-103993476D01*
X160060404Y-104033895D01*
X160031326Y-104069326D01*
X159995895Y-104098404D01*
X159955476Y-104120008D01*
X159911611Y-104133314D01*
X159864039Y-104138000D01*
X158135961Y-104138000D01*
X158088389Y-104133314D01*
X158044524Y-104120008D01*
X158004105Y-104098404D01*
X157968674Y-104069326D01*
X157939596Y-104033895D01*
X157917992Y-103993476D01*
X157904686Y-103949611D01*
X157900000Y-103902039D01*
X157900000Y-103357961D01*
X157904686Y-103310389D01*
X157917992Y-103266524D01*
X157939596Y-103226105D01*
X157968674Y-103190674D01*
X158004105Y-103161596D01*
X158044524Y-103139992D01*
X158088389Y-103126686D01*
X158135961Y-103122000D01*
X159864039Y-103122000D01*
X159911611Y-103126686D01*
G37*
G36*
X138911611Y-103126686D02*
G01*
X138955476Y-103139992D01*
X138995895Y-103161596D01*
X139031326Y-103190674D01*
X139060404Y-103226105D01*
X139082008Y-103266524D01*
X139095314Y-103310389D01*
X139100000Y-103357961D01*
X139100000Y-103902039D01*
X139095314Y-103949611D01*
X139082008Y-103993476D01*
X139060404Y-104033895D01*
X139031326Y-104069326D01*
X138995895Y-104098404D01*
X138955476Y-104120008D01*
X138911611Y-104133314D01*
X138864039Y-104138000D01*
X137135961Y-104138000D01*
X137088389Y-104133314D01*
X137044524Y-104120008D01*
X137004105Y-104098404D01*
X136968674Y-104069326D01*
X136939596Y-104033895D01*
X136917992Y-103993476D01*
X136904686Y-103949611D01*
X136900000Y-103902039D01*
X136900000Y-103357961D01*
X136904686Y-103310389D01*
X136917992Y-103266524D01*
X136939596Y-103226105D01*
X136968674Y-103190674D01*
X137004105Y-103161596D01*
X137044524Y-103139992D01*
X137088389Y-103126686D01*
X137135961Y-103122000D01*
X138864039Y-103122000D01*
X138911611Y-103126686D01*
G37*
G36*
X161263369Y-103352494D02*
G01*
X161285848Y-103359313D01*
X161306562Y-103370385D01*
X161324716Y-103385284D01*
X161339615Y-103403438D01*
X161350687Y-103424152D01*
X161357506Y-103446631D01*
X161360000Y-103471960D01*
X161360000Y-103928040D01*
X161357506Y-103953369D01*
X161350687Y-103975848D01*
X161339615Y-103996562D01*
X161324716Y-104014716D01*
X161306562Y-104029615D01*
X161285848Y-104040687D01*
X161263369Y-104047506D01*
X161238040Y-104050000D01*
X160921960Y-104050000D01*
X160896631Y-104047506D01*
X160874152Y-104040687D01*
X160853438Y-104029615D01*
X160835284Y-104014716D01*
X160820385Y-103996562D01*
X160809313Y-103975848D01*
X160802494Y-103953369D01*
X160800000Y-103928040D01*
X160800000Y-103471960D01*
X160802494Y-103446631D01*
X160809313Y-103424152D01*
X160820385Y-103403438D01*
X160835284Y-103385284D01*
X160853438Y-103370385D01*
X160874152Y-103359313D01*
X160896631Y-103352494D01*
X160921960Y-103350000D01*
X161238040Y-103350000D01*
X161263369Y-103352494D01*
G37*
G36*
X162103369Y-103352494D02*
G01*
X162125848Y-103359313D01*
X162146562Y-103370385D01*
X162164716Y-103385284D01*
X162179615Y-103403438D01*
X162190687Y-103424152D01*
X162197506Y-103446631D01*
X162200000Y-103471960D01*
X162200000Y-103928040D01*
X162197506Y-103953369D01*
X162190687Y-103975848D01*
X162179615Y-103996562D01*
X162164716Y-104014716D01*
X162146562Y-104029615D01*
X162125848Y-104040687D01*
X162103369Y-104047506D01*
X162078040Y-104050000D01*
X161761960Y-104050000D01*
X161736631Y-104047506D01*
X161714152Y-104040687D01*
X161693438Y-104029615D01*
X161675284Y-104014716D01*
X161660385Y-103996562D01*
X161649313Y-103975848D01*
X161642494Y-103953369D01*
X161640000Y-103928040D01*
X161640000Y-103471960D01*
X161642494Y-103446631D01*
X161649313Y-103424152D01*
X161660385Y-103403438D01*
X161675284Y-103385284D01*
X161693438Y-103370385D01*
X161714152Y-103359313D01*
X161736631Y-103352494D01*
X161761960Y-103350000D01*
X162078040Y-103350000D01*
X162103369Y-103352494D01*
G37*
G36*
X138911611Y-101856686D02*
G01*
X138955476Y-101869992D01*
X138995895Y-101891596D01*
X139031326Y-101920674D01*
X139060404Y-101956105D01*
X139082008Y-101996524D01*
X139095314Y-102040389D01*
X139100000Y-102087961D01*
X139100000Y-102632039D01*
X139095314Y-102679611D01*
X139082008Y-102723476D01*
X139060404Y-102763895D01*
X139031326Y-102799326D01*
X138995895Y-102828404D01*
X138955476Y-102850008D01*
X138911611Y-102863314D01*
X138864039Y-102868000D01*
X137135961Y-102868000D01*
X137088389Y-102863314D01*
X137044524Y-102850008D01*
X137004105Y-102828404D01*
X136968674Y-102799326D01*
X136939596Y-102763895D01*
X136917992Y-102723476D01*
X136904686Y-102679611D01*
X136900000Y-102632039D01*
X136900000Y-102087961D01*
X136904686Y-102040389D01*
X136917992Y-101996524D01*
X136939596Y-101956105D01*
X136968674Y-101920674D01*
X137004105Y-101891596D01*
X137044524Y-101869992D01*
X137088389Y-101856686D01*
X137135961Y-101852000D01*
X138864039Y-101852000D01*
X138911611Y-101856686D01*
G37*
G36*
X159911611Y-101856686D02*
G01*
X159955476Y-101869992D01*
X159995895Y-101891596D01*
X160031326Y-101920674D01*
X160060404Y-101956105D01*
X160082008Y-101996524D01*
X160095314Y-102040389D01*
X160100000Y-102087961D01*
X160100000Y-102632039D01*
X160095314Y-102679611D01*
X160082008Y-102723476D01*
X160060404Y-102763895D01*
X160031326Y-102799326D01*
X159995895Y-102828404D01*
X159955476Y-102850008D01*
X159911611Y-102863314D01*
X159864039Y-102868000D01*
X158135961Y-102868000D01*
X158088389Y-102863314D01*
X158044524Y-102850008D01*
X158004105Y-102828404D01*
X157968674Y-102799326D01*
X157939596Y-102763895D01*
X157917992Y-102723476D01*
X157904686Y-102679611D01*
X157900000Y-102632039D01*
X157900000Y-102087961D01*
X157904686Y-102040389D01*
X157917992Y-101996524D01*
X157939596Y-101956105D01*
X157968674Y-101920674D01*
X158004105Y-101891596D01*
X158044524Y-101869992D01*
X158088389Y-101856686D01*
X158135961Y-101852000D01*
X159864039Y-101852000D01*
X159911611Y-101856686D01*
G37*
G36*
X161221104Y-102102311D02*
G01*
X161241782Y-102108583D01*
X161260830Y-102118764D01*
X161277530Y-102132470D01*
X161291236Y-102149170D01*
X161301417Y-102168218D01*
X161307689Y-102188896D01*
X161310000Y-102212353D01*
X161310000Y-102587647D01*
X161307689Y-102611104D01*
X161301417Y-102631782D01*
X161291236Y-102650830D01*
X161277530Y-102667530D01*
X161260830Y-102681236D01*
X161241782Y-102691417D01*
X161221104Y-102697689D01*
X161197647Y-102700000D01*
X160912353Y-102700000D01*
X160888896Y-102697689D01*
X160868218Y-102691417D01*
X160849170Y-102681236D01*
X160832470Y-102667530D01*
X160818764Y-102650830D01*
X160808583Y-102631782D01*
X160802311Y-102611104D01*
X160800000Y-102587647D01*
X160800000Y-102212353D01*
X160802311Y-102188896D01*
X160808583Y-102168218D01*
X160818764Y-102149170D01*
X160832470Y-102132470D01*
X160849170Y-102118764D01*
X160868218Y-102108583D01*
X160888896Y-102102311D01*
X160912353Y-102100000D01*
X161197647Y-102100000D01*
X161221104Y-102102311D01*
G37*
G36*
X162111104Y-102102311D02*
G01*
X162131782Y-102108583D01*
X162150830Y-102118764D01*
X162167530Y-102132470D01*
X162181236Y-102149170D01*
X162191417Y-102168218D01*
X162197689Y-102188896D01*
X162200000Y-102212353D01*
X162200000Y-102587647D01*
X162197689Y-102611104D01*
X162191417Y-102631782D01*
X162181236Y-102650830D01*
X162167530Y-102667530D01*
X162150830Y-102681236D01*
X162131782Y-102691417D01*
X162111104Y-102697689D01*
X162087647Y-102700000D01*
X161802353Y-102700000D01*
X161778896Y-102697689D01*
X161758218Y-102691417D01*
X161739170Y-102681236D01*
X161722470Y-102667530D01*
X161708764Y-102650830D01*
X161698583Y-102631782D01*
X161692311Y-102611104D01*
X161690000Y-102587647D01*
X161690000Y-102212353D01*
X161692311Y-102188896D01*
X161698583Y-102168218D01*
X161708764Y-102149170D01*
X161722470Y-102132470D01*
X161739170Y-102118764D01*
X161758218Y-102108583D01*
X161778896Y-102102311D01*
X161802353Y-102100000D01*
X162087647Y-102100000D01*
X162111104Y-102102311D01*
G37*
G36*
X159911611Y-99316686D02*
G01*
X159955476Y-99329992D01*
X159995895Y-99351596D01*
X160031326Y-99380674D01*
X160060404Y-99416105D01*
X160082008Y-99456524D01*
X160095314Y-99500389D01*
X160100000Y-99547961D01*
X160100000Y-100092039D01*
X160095314Y-100139611D01*
X160082008Y-100183476D01*
X160060404Y-100223895D01*
X160031326Y-100259326D01*
X159995895Y-100288404D01*
X159955476Y-100310008D01*
X159911611Y-100323314D01*
X159864039Y-100328000D01*
X158135961Y-100328000D01*
X158088389Y-100323314D01*
X158044524Y-100310008D01*
X158004105Y-100288404D01*
X157968674Y-100259326D01*
X157939596Y-100223895D01*
X157917992Y-100183476D01*
X157904686Y-100139611D01*
X157900000Y-100092039D01*
X157900000Y-99547961D01*
X157904686Y-99500389D01*
X157917992Y-99456524D01*
X157939596Y-99416105D01*
X157968674Y-99380674D01*
X158004105Y-99351596D01*
X158044524Y-99329992D01*
X158088389Y-99316686D01*
X158135961Y-99312000D01*
X159864039Y-99312000D01*
X159911611Y-99316686D01*
G37*
G36*
X138911611Y-99316686D02*
G01*
X138955476Y-99329992D01*
X138995895Y-99351596D01*
X139031326Y-99380674D01*
X139060404Y-99416105D01*
X139082008Y-99456524D01*
X139095314Y-99500389D01*
X139100000Y-99547961D01*
X139100000Y-100092039D01*
X139095314Y-100139611D01*
X139082008Y-100183476D01*
X139060404Y-100223895D01*
X139031326Y-100259326D01*
X138995895Y-100288404D01*
X138955476Y-100310008D01*
X138911611Y-100323314D01*
X138864039Y-100328000D01*
X137135961Y-100328000D01*
X137088389Y-100323314D01*
X137044524Y-100310008D01*
X137004105Y-100288404D01*
X136968674Y-100259326D01*
X136939596Y-100223895D01*
X136917992Y-100183476D01*
X136904686Y-100139611D01*
X136900000Y-100092039D01*
X136900000Y-99547961D01*
X136904686Y-99500389D01*
X136917992Y-99456524D01*
X136939596Y-99416105D01*
X136968674Y-99380674D01*
X137004105Y-99351596D01*
X137044524Y-99329992D01*
X137088389Y-99316686D01*
X137135961Y-99312000D01*
X138864039Y-99312000D01*
X138911611Y-99316686D01*
G37*
G36*
X159911611Y-91696686D02*
G01*
X159955476Y-91709992D01*
X159995895Y-91731596D01*
X160031326Y-91760674D01*
X160060404Y-91796105D01*
X160082008Y-91836524D01*
X160095314Y-91880389D01*
X160100000Y-91927961D01*
X160100000Y-92472039D01*
X160095314Y-92519611D01*
X160082008Y-92563476D01*
X160060404Y-92603895D01*
X160031326Y-92639326D01*
X159995895Y-92668404D01*
X159955476Y-92690008D01*
X159911611Y-92703314D01*
X159864039Y-92708000D01*
X158135961Y-92708000D01*
X158088389Y-92703314D01*
X158044524Y-92690008D01*
X158004105Y-92668404D01*
X157968674Y-92639326D01*
X157939596Y-92603895D01*
X157917992Y-92563476D01*
X157904686Y-92519611D01*
X157900000Y-92472039D01*
X157900000Y-91927961D01*
X157904686Y-91880389D01*
X157917992Y-91836524D01*
X157939596Y-91796105D01*
X157968674Y-91760674D01*
X158004105Y-91731596D01*
X158044524Y-91709992D01*
X158088389Y-91696686D01*
X158135961Y-91692000D01*
X159864039Y-91692000D01*
X159911611Y-91696686D01*
G37*
G36*
X138911611Y-91696686D02*
G01*
X138955476Y-91709992D01*
X138995895Y-91731596D01*
X139031326Y-91760674D01*
X139060404Y-91796105D01*
X139082008Y-91836524D01*
X139095314Y-91880389D01*
X139100000Y-91927961D01*
X139100000Y-92472039D01*
X139095314Y-92519611D01*
X139082008Y-92563476D01*
X139060404Y-92603895D01*
X139031326Y-92639326D01*
X138995895Y-92668404D01*
X138955476Y-92690008D01*
X138911611Y-92703314D01*
X138864039Y-92708000D01*
X137135961Y-92708000D01*
X137088389Y-92703314D01*
X137044524Y-92690008D01*
X137004105Y-92668404D01*
X136968674Y-92639326D01*
X136939596Y-92603895D01*
X136917992Y-92563476D01*
X136904686Y-92519611D01*
X136900000Y-92472039D01*
X136900000Y-91927961D01*
X136904686Y-91880389D01*
X136917992Y-91836524D01*
X136939596Y-91796105D01*
X136968674Y-91760674D01*
X137004105Y-91731596D01*
X137044524Y-91709992D01*
X137088389Y-91696686D01*
X137135961Y-91692000D01*
X138864039Y-91692000D01*
X138911611Y-91696686D01*
G37*
G36*
X159911611Y-90426686D02*
G01*
X159955476Y-90439992D01*
X159995895Y-90461596D01*
X160031326Y-90490674D01*
X160060404Y-90526105D01*
X160082008Y-90566524D01*
X160095314Y-90610389D01*
X160100000Y-90657961D01*
X160100000Y-91202039D01*
X160095314Y-91249611D01*
X160082008Y-91293476D01*
X160060404Y-91333895D01*
X160031326Y-91369326D01*
X159995895Y-91398404D01*
X159955476Y-91420008D01*
X159911611Y-91433314D01*
X159864039Y-91438000D01*
X158135961Y-91438000D01*
X158088389Y-91433314D01*
X158044524Y-91420008D01*
X158004105Y-91398404D01*
X157968674Y-91369326D01*
X157939596Y-91333895D01*
X157917992Y-91293476D01*
X157904686Y-91249611D01*
X157900000Y-91202039D01*
X157900000Y-90657961D01*
X157904686Y-90610389D01*
X157917992Y-90566524D01*
X157939596Y-90526105D01*
X157968674Y-90490674D01*
X158004105Y-90461596D01*
X158044524Y-90439992D01*
X158088389Y-90426686D01*
X158135961Y-90422000D01*
X159864039Y-90422000D01*
X159911611Y-90426686D01*
G37*
G36*
X138911611Y-90426686D02*
G01*
X138955476Y-90439992D01*
X138995895Y-90461596D01*
X139031326Y-90490674D01*
X139060404Y-90526105D01*
X139082008Y-90566524D01*
X139095314Y-90610389D01*
X139100000Y-90657961D01*
X139100000Y-91202039D01*
X139095314Y-91249611D01*
X139082008Y-91293476D01*
X139060404Y-91333895D01*
X139031326Y-91369326D01*
X138995895Y-91398404D01*
X138955476Y-91420008D01*
X138911611Y-91433314D01*
X138864039Y-91438000D01*
X137135961Y-91438000D01*
X137088389Y-91433314D01*
X137044524Y-91420008D01*
X137004105Y-91398404D01*
X136968674Y-91369326D01*
X136939596Y-91333895D01*
X136917992Y-91293476D01*
X136904686Y-91249611D01*
X136900000Y-91202039D01*
X136900000Y-90657961D01*
X136904686Y-90610389D01*
X136917992Y-90566524D01*
X136939596Y-90526105D01*
X136968674Y-90490674D01*
X137004105Y-90461596D01*
X137044524Y-90439992D01*
X137088389Y-90426686D01*
X137135961Y-90422000D01*
X138864039Y-90422000D01*
X138911611Y-90426686D01*
G37*
G36*
X138911611Y-89156686D02*
G01*
X138955476Y-89169992D01*
X138995895Y-89191596D01*
X139031326Y-89220674D01*
X139060404Y-89256105D01*
X139082008Y-89296524D01*
X139095314Y-89340389D01*
X139100000Y-89387961D01*
X139100000Y-89932039D01*
X139095314Y-89979611D01*
X139082008Y-90023476D01*
X139060404Y-90063895D01*
X139031326Y-90099326D01*
X138995895Y-90128404D01*
X138955476Y-90150008D01*
X138911611Y-90163314D01*
X138864039Y-90168000D01*
X137135961Y-90168000D01*
X137088389Y-90163314D01*
X137044524Y-90150008D01*
X137004105Y-90128404D01*
X136968674Y-90099326D01*
X136939596Y-90063895D01*
X136917992Y-90023476D01*
X136904686Y-89979611D01*
X136900000Y-89932039D01*
X136900000Y-89387961D01*
X136904686Y-89340389D01*
X136917992Y-89296524D01*
X136939596Y-89256105D01*
X136968674Y-89220674D01*
X137004105Y-89191596D01*
X137044524Y-89169992D01*
X137088389Y-89156686D01*
X137135961Y-89152000D01*
X138864039Y-89152000D01*
X138911611Y-89156686D01*
G37*
G36*
X159911611Y-89156686D02*
G01*
X159955476Y-89169992D01*
X159995895Y-89191596D01*
X160031326Y-89220674D01*
X160060404Y-89256105D01*
X160082008Y-89296524D01*
X160095314Y-89340389D01*
X160100000Y-89387961D01*
X160100000Y-89932039D01*
X160095314Y-89979611D01*
X160082008Y-90023476D01*
X160060404Y-90063895D01*
X160031326Y-90099326D01*
X159995895Y-90128404D01*
X159955476Y-90150008D01*
X159911611Y-90163314D01*
X159864039Y-90168000D01*
X158135961Y-90168000D01*
X158088389Y-90163314D01*
X158044524Y-90150008D01*
X158004105Y-90128404D01*
X157968674Y-90099326D01*
X157939596Y-90063895D01*
X157917992Y-90023476D01*
X157904686Y-89979611D01*
X157900000Y-89932039D01*
X157900000Y-89387961D01*
X157904686Y-89340389D01*
X157917992Y-89296524D01*
X157939596Y-89256105D01*
X157968674Y-89220674D01*
X158004105Y-89191596D01*
X158044524Y-89169992D01*
X158088389Y-89156686D01*
X158135961Y-89152000D01*
X159864039Y-89152000D01*
X159911611Y-89156686D01*
G37*
G36*
X138911611Y-87886686D02*
G01*
X138955476Y-87899992D01*
X138995895Y-87921596D01*
X139031326Y-87950674D01*
X139060404Y-87986105D01*
X139082008Y-88026524D01*
X139095314Y-88070389D01*
X139100000Y-88117961D01*
X139100000Y-88662039D01*
X139095314Y-88709611D01*
X139082008Y-88753476D01*
X139060404Y-88793895D01*
X139031326Y-88829326D01*
X138995895Y-88858404D01*
X138955476Y-88880008D01*
X138911611Y-88893314D01*
X138864039Y-88898000D01*
X137135961Y-88898000D01*
X137088389Y-88893314D01*
X137044524Y-88880008D01*
X137004105Y-88858404D01*
X136968674Y-88829326D01*
X136939596Y-88793895D01*
X136917992Y-88753476D01*
X136904686Y-88709611D01*
X136900000Y-88662039D01*
X136900000Y-88117961D01*
X136904686Y-88070389D01*
X136917992Y-88026524D01*
X136939596Y-87986105D01*
X136968674Y-87950674D01*
X137004105Y-87921596D01*
X137044524Y-87899992D01*
X137088389Y-87886686D01*
X137135961Y-87882000D01*
X138864039Y-87882000D01*
X138911611Y-87886686D01*
G37*
G36*
X159911611Y-87886686D02*
G01*
X159955476Y-87899992D01*
X159995895Y-87921596D01*
X160031326Y-87950674D01*
X160060404Y-87986105D01*
X160082008Y-88026524D01*
X160095314Y-88070389D01*
X160100000Y-88117961D01*
X160100000Y-88662039D01*
X160095314Y-88709611D01*
X160082008Y-88753476D01*
X160060404Y-88793895D01*
X160031326Y-88829326D01*
X159995895Y-88858404D01*
X159955476Y-88880008D01*
X159911611Y-88893314D01*
X159864039Y-88898000D01*
X158135961Y-88898000D01*
X158088389Y-88893314D01*
X158044524Y-88880008D01*
X158004105Y-88858404D01*
X157968674Y-88829326D01*
X157939596Y-88793895D01*
X157917992Y-88753476D01*
X157904686Y-88709611D01*
X157900000Y-88662039D01*
X157900000Y-88117961D01*
X157904686Y-88070389D01*
X157917992Y-88026524D01*
X157939596Y-87986105D01*
X157968674Y-87950674D01*
X158004105Y-87921596D01*
X158044524Y-87899992D01*
X158088389Y-87886686D01*
X158135961Y-87882000D01*
X159864039Y-87882000D01*
X159911611Y-87886686D01*
G37*
G36*
X154829611Y-85304686D02*
G01*
X154873476Y-85317992D01*
X154913895Y-85339596D01*
X154949326Y-85368674D01*
X154978404Y-85404105D01*
X155000008Y-85444524D01*
X155013314Y-85488389D01*
X155018000Y-85535961D01*
X155018000Y-87264039D01*
X155013314Y-87311611D01*
X155000008Y-87355476D01*
X154978404Y-87395895D01*
X154949326Y-87431326D01*
X154913895Y-87460404D01*
X154873476Y-87482008D01*
X154829611Y-87495314D01*
X154782039Y-87500000D01*
X154237961Y-87500000D01*
X154190389Y-87495314D01*
X154146524Y-87482008D01*
X154106105Y-87460404D01*
X154070674Y-87431326D01*
X154041596Y-87395895D01*
X154019992Y-87355476D01*
X154006686Y-87311611D01*
X154002000Y-87264039D01*
X154002000Y-85535961D01*
X154006686Y-85488389D01*
X154019992Y-85444524D01*
X154041596Y-85404105D01*
X154070674Y-85368674D01*
X154106105Y-85339596D01*
X154146524Y-85317992D01*
X154190389Y-85304686D01*
X154237961Y-85300000D01*
X154782039Y-85300000D01*
X154829611Y-85304686D01*
G37*
G36*
X149749611Y-85304686D02*
G01*
X149793476Y-85317992D01*
X149833895Y-85339596D01*
X149869326Y-85368674D01*
X149898404Y-85404105D01*
X149920008Y-85444524D01*
X149933314Y-85488389D01*
X149938000Y-85535961D01*
X149938000Y-87264039D01*
X149933314Y-87311611D01*
X149920008Y-87355476D01*
X149898404Y-87395895D01*
X149869326Y-87431326D01*
X149833895Y-87460404D01*
X149793476Y-87482008D01*
X149749611Y-87495314D01*
X149702039Y-87500000D01*
X149157961Y-87500000D01*
X149110389Y-87495314D01*
X149066524Y-87482008D01*
X149026105Y-87460404D01*
X148990674Y-87431326D01*
X148961596Y-87395895D01*
X148939992Y-87355476D01*
X148926686Y-87311611D01*
X148922000Y-87264039D01*
X148922000Y-85535961D01*
X148926686Y-85488389D01*
X148939992Y-85444524D01*
X148961596Y-85404105D01*
X148990674Y-85368674D01*
X149026105Y-85339596D01*
X149066524Y-85317992D01*
X149110389Y-85304686D01*
X149157961Y-85300000D01*
X149702039Y-85300000D01*
X149749611Y-85304686D01*
G37*
G36*
X151019611Y-85304686D02*
G01*
X151063476Y-85317992D01*
X151103895Y-85339596D01*
X151139326Y-85368674D01*
X151168404Y-85404105D01*
X151190008Y-85444524D01*
X151203314Y-85488389D01*
X151208000Y-85535961D01*
X151208000Y-87264039D01*
X151203314Y-87311611D01*
X151190008Y-87355476D01*
X151168404Y-87395895D01*
X151139326Y-87431326D01*
X151103895Y-87460404D01*
X151063476Y-87482008D01*
X151019611Y-87495314D01*
X150972039Y-87500000D01*
X150427961Y-87500000D01*
X150380389Y-87495314D01*
X150336524Y-87482008D01*
X150296105Y-87460404D01*
X150260674Y-87431326D01*
X150231596Y-87395895D01*
X150209992Y-87355476D01*
X150196686Y-87311611D01*
X150192000Y-87264039D01*
X150192000Y-85535961D01*
X150196686Y-85488389D01*
X150209992Y-85444524D01*
X150231596Y-85404105D01*
X150260674Y-85368674D01*
X150296105Y-85339596D01*
X150336524Y-85317992D01*
X150380389Y-85304686D01*
X150427961Y-85300000D01*
X150972039Y-85300000D01*
X151019611Y-85304686D01*
G37*
G36*
X153559611Y-85304686D02*
G01*
X153603476Y-85317992D01*
X153643895Y-85339596D01*
X153679326Y-85368674D01*
X153708404Y-85404105D01*
X153730008Y-85444524D01*
X153743314Y-85488389D01*
X153748000Y-85535961D01*
X153748000Y-87264039D01*
X153743314Y-87311611D01*
X153730008Y-87355476D01*
X153708404Y-87395895D01*
X153679326Y-87431326D01*
X153643895Y-87460404D01*
X153603476Y-87482008D01*
X153559611Y-87495314D01*
X153512039Y-87500000D01*
X152967961Y-87500000D01*
X152920389Y-87495314D01*
X152876524Y-87482008D01*
X152836105Y-87460404D01*
X152800674Y-87431326D01*
X152771596Y-87395895D01*
X152749992Y-87355476D01*
X152736686Y-87311611D01*
X152732000Y-87264039D01*
X152732000Y-85535961D01*
X152736686Y-85488389D01*
X152749992Y-85444524D01*
X152771596Y-85404105D01*
X152800674Y-85368674D01*
X152836105Y-85339596D01*
X152876524Y-85317992D01*
X152920389Y-85304686D01*
X152967961Y-85300000D01*
X153512039Y-85300000D01*
X153559611Y-85304686D01*
G37*
G36*
X152289611Y-85304686D02*
G01*
X152333476Y-85317992D01*
X152373895Y-85339596D01*
X152409326Y-85368674D01*
X152438404Y-85404105D01*
X152460008Y-85444524D01*
X152473314Y-85488389D01*
X152478000Y-85535961D01*
X152478000Y-87264039D01*
X152473314Y-87311611D01*
X152460008Y-87355476D01*
X152438404Y-87395895D01*
X152409326Y-87431326D01*
X152373895Y-87460404D01*
X152333476Y-87482008D01*
X152289611Y-87495314D01*
X152242039Y-87500000D01*
X151697961Y-87500000D01*
X151650389Y-87495314D01*
X151606524Y-87482008D01*
X151566105Y-87460404D01*
X151530674Y-87431326D01*
X151501596Y-87395895D01*
X151479992Y-87355476D01*
X151466686Y-87311611D01*
X151462000Y-87264039D01*
X151462000Y-85535961D01*
X151466686Y-85488389D01*
X151479992Y-85444524D01*
X151501596Y-85404105D01*
X151530674Y-85368674D01*
X151566105Y-85339596D01*
X151606524Y-85317992D01*
X151650389Y-85304686D01*
X151697961Y-85300000D01*
X152242039Y-85300000D01*
X152289611Y-85304686D01*
G37*
G36*
X134646318Y-85764411D02*
G01*
X134718767Y-85778822D01*
X134758744Y-85795381D01*
X134855258Y-85835358D01*
X134977541Y-85917065D01*
X134978097Y-85917437D01*
X135082563Y-86021903D01*
X135082565Y-86021906D01*
X135164642Y-86144742D01*
X135221178Y-86281234D01*
X135250000Y-86426130D01*
X135250000Y-86573870D01*
X135221178Y-86718766D01*
X135164642Y-86855258D01*
X135082935Y-86977541D01*
X135082563Y-86978097D01*
X134978097Y-87082563D01*
X134978094Y-87082565D01*
X134855258Y-87164642D01*
X134758744Y-87204619D01*
X134718767Y-87221178D01*
X134646318Y-87235589D01*
X134573870Y-87250000D01*
X134426130Y-87250000D01*
X134353682Y-87235589D01*
X134281233Y-87221178D01*
X134241256Y-87204619D01*
X134144742Y-87164642D01*
X134021906Y-87082565D01*
X134021903Y-87082563D01*
X133917437Y-86978097D01*
X133917065Y-86977541D01*
X133835358Y-86855258D01*
X133778822Y-86718766D01*
X133750000Y-86573870D01*
X133750000Y-86426130D01*
X133778822Y-86281234D01*
X133835358Y-86144742D01*
X133917435Y-86021906D01*
X133917437Y-86021903D01*
X134021903Y-85917437D01*
X134022459Y-85917065D01*
X134144742Y-85835358D01*
X134241256Y-85795381D01*
X134281233Y-85778822D01*
X134353682Y-85764411D01*
X134426130Y-85750000D01*
X134573870Y-85750000D01*
X134646318Y-85764411D01*
G37*
G36*
X162646318Y-85764411D02*
G01*
X162718767Y-85778822D01*
X162758744Y-85795381D01*
X162855258Y-85835358D01*
X162977541Y-85917065D01*
X162978097Y-85917437D01*
X163082563Y-86021903D01*
X163082565Y-86021906D01*
X163164642Y-86144742D01*
X163221178Y-86281234D01*
X163250000Y-86426130D01*
X163250000Y-86573870D01*
X163221178Y-86718766D01*
X163164642Y-86855258D01*
X163082935Y-86977541D01*
X163082563Y-86978097D01*
X162978097Y-87082563D01*
X162978094Y-87082565D01*
X162855258Y-87164642D01*
X162758744Y-87204619D01*
X162718767Y-87221178D01*
X162646318Y-87235589D01*
X162573870Y-87250000D01*
X162426130Y-87250000D01*
X162353682Y-87235589D01*
X162281233Y-87221178D01*
X162241256Y-87204619D01*
X162144742Y-87164642D01*
X162021906Y-87082565D01*
X162021903Y-87082563D01*
X161917437Y-86978097D01*
X161917065Y-86977541D01*
X161835358Y-86855258D01*
X161778822Y-86718766D01*
X161750000Y-86573870D01*
X161750000Y-86426130D01*
X161778822Y-86281234D01*
X161835358Y-86144742D01*
X161917435Y-86021906D01*
X161917437Y-86021903D01*
X162021903Y-85917437D01*
X162022459Y-85917065D01*
X162144742Y-85835358D01*
X162241256Y-85795381D01*
X162281233Y-85778822D01*
X162353682Y-85764411D01*
X162426130Y-85750000D01*
X162573870Y-85750000D01*
X162646318Y-85764411D01*
G37*
G36*
X144300000Y-85520000D02*
G01*
X143700000Y-85520000D01*
X143700000Y-83970000D01*
X144300000Y-83970000D01*
X144300000Y-85520000D01*
G37*
G36*
X145300000Y-85520000D02*
G01*
X144700000Y-85520000D01*
X144700000Y-83970000D01*
X145300000Y-83970000D01*
X145300000Y-85520000D01*
G37*
G36*
X143300000Y-85520000D02*
G01*
X142700000Y-85520000D01*
X142700000Y-83970000D01*
X143300000Y-83970000D01*
X143300000Y-85520000D01*
G37*
G36*
X142300000Y-85520000D02*
G01*
X141700000Y-85520000D01*
X141700000Y-83970000D01*
X142300000Y-83970000D01*
X142300000Y-85520000D01*
G37*
G36*
X146300000Y-85520000D02*
G01*
X145700000Y-85520000D01*
X145700000Y-83970000D01*
X146300000Y-83970000D01*
X146300000Y-85520000D01*
G37*
G36*
X161387559Y-79803758D02*
G01*
X161878929Y-80007290D01*
X161878930Y-80007291D01*
X162321150Y-80302773D01*
X162697227Y-80678850D01*
X162697229Y-80678853D01*
X162992710Y-81121071D01*
X163196242Y-81612441D01*
X163300000Y-82134071D01*
X163300000Y-82665929D01*
X163196242Y-83187559D01*
X162992710Y-83678929D01*
X162992709Y-83678930D01*
X162697227Y-84121150D01*
X162321150Y-84497227D01*
X162321147Y-84497229D01*
X161878929Y-84792710D01*
X161387559Y-84996242D01*
X160865929Y-85100000D01*
X160334071Y-85100000D01*
X159812441Y-84996242D01*
X159321071Y-84792710D01*
X158878853Y-84497229D01*
X158878850Y-84497227D01*
X158502773Y-84121150D01*
X158207291Y-83678930D01*
X158207290Y-83678929D01*
X158003758Y-83187559D01*
X157900000Y-82665929D01*
X157900000Y-82134071D01*
X158003758Y-81612441D01*
X158207290Y-81121071D01*
X158502771Y-80678853D01*
X158502773Y-80678850D01*
X158878850Y-80302773D01*
X159321070Y-80007291D01*
X159321071Y-80007290D01*
X159812441Y-79803758D01*
X160334071Y-79700000D01*
X160865929Y-79700000D01*
X161387559Y-79803758D01*
G37*
G36*
X137187559Y-79803758D02*
G01*
X137678929Y-80007290D01*
X137678930Y-80007291D01*
X138121150Y-80302773D01*
X138497227Y-80678850D01*
X138497229Y-80678853D01*
X138792710Y-81121071D01*
X138996242Y-81612441D01*
X139100000Y-82134071D01*
X139100000Y-82665929D01*
X138996242Y-83187559D01*
X138792710Y-83678929D01*
X138792709Y-83678930D01*
X138497227Y-84121150D01*
X138121150Y-84497227D01*
X138121147Y-84497229D01*
X137678929Y-84792710D01*
X137187559Y-84996242D01*
X136665929Y-85100000D01*
X136134071Y-85100000D01*
X135612441Y-84996242D01*
X135121071Y-84792710D01*
X134678853Y-84497229D01*
X134678850Y-84497227D01*
X134302773Y-84121150D01*
X134007291Y-83678930D01*
X134007290Y-83678929D01*
X133803758Y-83187559D01*
X133700000Y-82665929D01*
X133700000Y-82134071D01*
X133803758Y-81612441D01*
X134007290Y-81121071D01*
X134302771Y-80678853D01*
X134302773Y-80678850D01*
X134678850Y-80302773D01*
X135121070Y-80007291D01*
X135121071Y-80007290D01*
X135612441Y-79803758D01*
X136134071Y-79700000D01*
X136665929Y-79700000D01*
X137187559Y-79803758D01*
G37*
G36*
X152500000Y-83550000D02*
G01*
X151500000Y-83550000D01*
X151500000Y-82500000D01*
X152500000Y-82500000D01*
X152500000Y-83550000D01*
G37*
G36*
X154000000Y-82600000D02*
G01*
X152950000Y-82600000D01*
X152950000Y-80400000D01*
X154000000Y-80400000D01*
X154000000Y-82600000D01*
G37*
G36*
X151050000Y-82600000D02*
G01*
X150000000Y-82600000D01*
X150000000Y-80400000D01*
X151050000Y-80400000D01*
X151050000Y-82600000D01*
G37*
G36*
X141300000Y-81770000D02*
G01*
X140100000Y-81770000D01*
X140100000Y-79970000D01*
X141300000Y-79970000D01*
X141300000Y-81770000D01*
G37*
G36*
X147900000Y-81770000D02*
G01*
X146700000Y-81770000D01*
X146700000Y-79970000D01*
X147900000Y-79970000D01*
X147900000Y-81770000D01*
G37*
M02*
