G04 #@! TF.GenerationSoftware,KiCad,Pcbnew,(5.1.6)-1*
G04 #@! TF.CreationDate,2020-07-22T16:22:35+02:00*
G04 #@! TF.ProjectId,BRD-00008-X01,4252442d-3030-4303-9038-2d5830312e6b,X01*
G04 #@! TF.SameCoordinates,Original*
G04 #@! TF.FileFunction,Legend,Top*
G04 #@! TF.FilePolarity,Positive*
%FSLAX46Y46*%
G04 Gerber Fmt 4.6, Leading zero omitted, Abs format (unit mm)*
G04 Created by KiCad (PCBNEW (5.1.6)-1) date 2020-07-22 16:22:35*
%MOMM*%
%LPD*%
G01*
G04 APERTURE LIST*
%ADD10C,0.120000*%
G04 #@! TA.AperFunction,Profile*
%ADD11C,0.010000*%
G04 #@! TD*
%ADD12C,0.250000*%
%ADD13C,0.300000*%
%ADD14C,0.400000*%
G04 APERTURE END LIST*
D10*
X161271428Y-122842857D02*
X160700000Y-122842857D01*
X160642857Y-123414285D01*
X160700000Y-123357142D01*
X160814285Y-123300000D01*
X161100000Y-123300000D01*
X161214285Y-123357142D01*
X161271428Y-123414285D01*
X161328571Y-123528571D01*
X161328571Y-123814285D01*
X161271428Y-123928571D01*
X161214285Y-123985714D01*
X161100000Y-124042857D01*
X160814285Y-124042857D01*
X160700000Y-123985714D01*
X160642857Y-123928571D01*
X161671428Y-122842857D02*
X162071428Y-124042857D01*
X162471428Y-122842857D01*
X160261904Y-119652380D02*
X160880952Y-119652380D01*
X160547619Y-120033333D01*
X160690476Y-120033333D01*
X160785714Y-120080952D01*
X160833333Y-120128571D01*
X160880952Y-120223809D01*
X160880952Y-120461904D01*
X160833333Y-120557142D01*
X160785714Y-120604761D01*
X160690476Y-120652380D01*
X160404761Y-120652380D01*
X160309523Y-120604761D01*
X160261904Y-120557142D01*
X161166666Y-119652380D02*
X161500000Y-120652380D01*
X161833333Y-119652380D01*
X162071428Y-119652380D02*
X162690476Y-119652380D01*
X162357142Y-120033333D01*
X162500000Y-120033333D01*
X162595238Y-120080952D01*
X162642857Y-120128571D01*
X162690476Y-120223809D01*
X162690476Y-120461904D01*
X162642857Y-120557142D01*
X162595238Y-120604761D01*
X162500000Y-120652380D01*
X162214285Y-120652380D01*
X162119047Y-120604761D01*
X162071428Y-120557142D01*
X162538095Y-107642380D02*
X162538095Y-106642380D01*
X162919047Y-106642380D01*
X163014285Y-106690000D01*
X163061904Y-106737619D01*
X163109523Y-106832857D01*
X163109523Y-106975714D01*
X163061904Y-107070952D01*
X163014285Y-107118571D01*
X162919047Y-107166190D01*
X162538095Y-107166190D01*
X163061904Y-108310000D02*
X162966666Y-108262380D01*
X162823809Y-108262380D01*
X162680952Y-108310000D01*
X162585714Y-108405238D01*
X162538095Y-108500476D01*
X162490476Y-108690952D01*
X162490476Y-108833809D01*
X162538095Y-109024285D01*
X162585714Y-109119523D01*
X162680952Y-109214761D01*
X162823809Y-109262380D01*
X162919047Y-109262380D01*
X163061904Y-109214761D01*
X163109523Y-109167142D01*
X163109523Y-108833809D01*
X162919047Y-108833809D01*
X162514285Y-101642380D02*
X163085714Y-101642380D01*
X162800000Y-102642380D02*
X162800000Y-101642380D01*
X162466666Y-103262380D02*
X163133333Y-104262380D01*
X163133333Y-103262380D02*
X162466666Y-104262380D01*
X137952380Y-119452380D02*
X137952380Y-118452380D01*
X138523809Y-119452380D02*
X138095238Y-118880952D01*
X138523809Y-118452380D02*
X137952380Y-119023809D01*
X138952380Y-119452380D02*
X138952380Y-118452380D01*
X139428571Y-119452380D02*
X139428571Y-118452380D01*
X139761904Y-119166666D01*
X140095238Y-118452380D01*
X140095238Y-119452380D01*
X141095238Y-119452380D02*
X140523809Y-119452380D01*
X140809523Y-119452380D02*
X140809523Y-118452380D01*
X140714285Y-118595238D01*
X140619047Y-118690476D01*
X140523809Y-118738095D01*
X147738095Y-83952380D02*
X147738095Y-82952380D01*
X147976190Y-82952380D01*
X148119047Y-83000000D01*
X148214285Y-83095238D01*
X148261904Y-83190476D01*
X148309523Y-83380952D01*
X148309523Y-83523809D01*
X148261904Y-83714285D01*
X148214285Y-83809523D01*
X148119047Y-83904761D01*
X147976190Y-83952380D01*
X147738095Y-83952380D01*
X149071428Y-83428571D02*
X149214285Y-83476190D01*
X149261904Y-83523809D01*
X149309523Y-83619047D01*
X149309523Y-83761904D01*
X149261904Y-83857142D01*
X149214285Y-83904761D01*
X149119047Y-83952380D01*
X148738095Y-83952380D01*
X148738095Y-82952380D01*
X149071428Y-82952380D01*
X149166666Y-83000000D01*
X149214285Y-83047619D01*
X149261904Y-83142857D01*
X149261904Y-83238095D01*
X149214285Y-83333333D01*
X149166666Y-83380952D01*
X149071428Y-83428571D01*
X148738095Y-83428571D01*
X150261904Y-83000000D02*
X150166666Y-82952380D01*
X150023809Y-82952380D01*
X149880952Y-83000000D01*
X149785714Y-83095238D01*
X149738095Y-83190476D01*
X149690476Y-83380952D01*
X149690476Y-83523809D01*
X149738095Y-83714285D01*
X149785714Y-83809523D01*
X149880952Y-83904761D01*
X150023809Y-83952380D01*
X150119047Y-83952380D01*
X150261904Y-83904761D01*
X150309523Y-83857142D01*
X150309523Y-83523809D01*
X150119047Y-83523809D01*
X154268476Y-83904761D02*
X154411333Y-83952380D01*
X154649428Y-83952380D01*
X154744666Y-83904761D01*
X154792285Y-83857142D01*
X154839904Y-83761904D01*
X154839904Y-83666666D01*
X154792285Y-83571428D01*
X154744666Y-83523809D01*
X154649428Y-83476190D01*
X154458952Y-83428571D01*
X154363714Y-83380952D01*
X154316095Y-83333333D01*
X154268476Y-83238095D01*
X154268476Y-83142857D01*
X154316095Y-83047619D01*
X154363714Y-83000000D01*
X154458952Y-82952380D01*
X154697047Y-82952380D01*
X154839904Y-83000000D01*
X155220857Y-83666666D02*
X155697047Y-83666666D01*
X155125619Y-83952380D02*
X155458952Y-82952380D01*
X155792285Y-83952380D01*
X155982761Y-82952380D02*
X156554190Y-82952380D01*
X156268476Y-83952380D02*
X156268476Y-82952380D01*
D11*
X135650000Y-130450000D02*
X135650000Y-128050000D01*
X135650000Y-130450000D02*
X143900000Y-130450000D01*
X143900000Y-130450000D02*
X143900000Y-127200000D01*
X145400000Y-130450000D02*
X145400000Y-127200000D01*
X163500000Y-127250000D02*
X163500000Y-79500000D01*
X162150000Y-127250000D02*
X163500000Y-127250000D01*
X145400000Y-130450000D02*
X161350000Y-130450000D01*
X161350000Y-130450000D02*
X161350000Y-128050000D01*
X162150000Y-127250000D02*
G75*
G03*
X161350000Y-128050000I0J-800000D01*
G01*
X144650000Y-126450000D02*
G75*
G03*
X143900000Y-127200000I0J-750000D01*
G01*
X145400000Y-127200000D02*
G75*
G03*
X144650000Y-126450000I-750000J0D01*
G01*
X135650000Y-128050000D02*
G75*
G03*
X134850000Y-127250000I-800000J0D01*
G01*
X133500000Y-127250000D02*
X134850000Y-127250000D01*
X133500000Y-79500000D02*
X133500000Y-127250000D01*
X133500000Y-79500000D02*
X163500000Y-79500000D01*
D10*
X151450000Y-122350000D02*
X151450000Y-118250000D01*
X155550000Y-122350000D02*
X151450000Y-122350000D01*
X155550000Y-118250000D02*
X155550000Y-122350000D01*
X151450000Y-118250000D02*
X155550000Y-118250000D01*
D12*
X160555000Y-103700000D02*
G75*
G03*
X160555000Y-103700000I-125000J0D01*
G01*
D10*
X139950000Y-121450000D02*
X139950000Y-122180000D01*
X140680000Y-121450000D02*
X139950000Y-121450000D01*
X144050000Y-121450000D02*
X144050000Y-122180000D01*
X143320000Y-121450000D02*
X144050000Y-121450000D01*
X144050000Y-125550000D02*
X144050000Y-124820000D01*
X143320000Y-125550000D02*
X144050000Y-125550000D01*
X139950000Y-125550000D02*
X139950000Y-124820000D01*
X140680000Y-125550000D02*
X139950000Y-125550000D01*
D12*
X141125000Y-126235000D02*
G75*
G03*
X141125000Y-126235000I-125000J0D01*
G01*
D10*
X140680000Y-125550000D02*
X140680000Y-125745000D01*
D13*
X151150000Y-83500000D02*
G75*
G03*
X151150000Y-83500000I-150000J0D01*
G01*
D10*
X153330000Y-82830000D02*
X152680000Y-82830000D01*
X150670000Y-80170000D02*
X153330000Y-80170000D01*
X151320000Y-82830000D02*
X150670000Y-82830000D01*
X138000000Y-86400000D02*
X148742000Y-86400000D01*
X138000000Y-87702000D02*
X138000000Y-86400000D01*
X159000000Y-86400000D02*
X159000000Y-87702000D01*
X155198000Y-86400000D02*
X159000000Y-86400000D01*
X159000000Y-117600000D02*
X138000000Y-117600000D01*
X159000000Y-115748000D02*
X159000000Y-117600000D01*
D12*
X160625000Y-115060000D02*
G75*
G03*
X160625000Y-115060000I-125000J0D01*
G01*
D10*
X138000000Y-117600000D02*
X138000000Y-115748000D01*
X159000000Y-99132000D02*
X159000000Y-92888000D01*
X159000000Y-101672000D02*
X159000000Y-100508000D01*
X138000000Y-99132000D02*
X138000000Y-92888000D01*
X138000000Y-101672000D02*
X138000000Y-100508000D01*
X147500000Y-84430000D02*
X146480000Y-84430000D01*
X147500000Y-81950000D02*
X147500000Y-84430000D01*
X140500000Y-84430000D02*
X140500000Y-81950000D01*
X141520000Y-84430000D02*
X140500000Y-84430000D01*
D14*
X146200000Y-86125000D02*
G75*
G03*
X146200000Y-86125000I-200000J0D01*
G01*
D10*
X146520000Y-80170000D02*
X141480000Y-80170000D01*
D12*
X160555000Y-108700000D02*
G75*
G03*
X160555000Y-108700000I-125000J0D01*
G01*
X158125000Y-120065000D02*
G75*
G03*
X158125000Y-120065000I-125000J0D01*
G01*
D10*
X158350000Y-120850000D02*
X158350000Y-122150000D01*
X156650000Y-120850000D02*
X156650000Y-122150000D01*
X158335000Y-120850000D02*
X158335000Y-120495000D01*
M02*
